<svg width="50" height="50" viewBox="0 0 50 50" fill="none" xmlns="http://www.w3.org/2000/svg">
<path d="M25 50C38.8071 50 50 38.8071 50 25C50 11.1929 38.8071 0 25 0C11.1929 0 0 11.1929 0 25C0 38.8071 11.1929 50 25 50Z" fill="#FFD54F"/>
<path d="M14.5827 24.9998C16.8839 24.9998 18.7493 23.1344 18.7493 20.8332C18.7493 18.532 16.8839 16.6665 14.5827 16.6665C12.2815 16.6665 10.416 18.532 10.416 20.8332C10.416 23.1344 12.2815 24.9998 14.5827 24.9998Z" fill="#6D4C41"/>
<path d="M35.4167 24.9998C37.7178 24.9998 39.5833 23.1344 39.5833 20.8332C39.5833 18.532 37.7178 16.6665 35.4167 16.6665C33.1155 16.6665 31.25 18.532 31.25 20.8332C31.25 23.1344 33.1155 24.9998 35.4167 24.9998Z" fill="#6D4C41"/>
<path d="M35.9371 40.9892C35.5371 40.9892 35.1371 40.8372 34.8329 40.5309C32.2059 37.9038 28.7142 36.458 24.9996 36.458C21.285 36.458 17.7934 37.9038 15.1663 40.5309C14.5559 41.1413 13.5663 41.1413 12.9559 40.5309C12.3454 39.9205 12.3454 38.9309 12.9559 38.3205C16.1746 35.1038 20.4496 33.333 24.9996 33.333C29.5496 33.333 33.8246 35.1038 37.0413 38.3226C37.6517 38.933 37.6517 39.9226 37.0413 40.533C36.7371 40.8372 36.3371 40.9892 35.9371 40.9892Z" fill="#6D4C41"/>
<path d="M19.2704 15.2769C18.9724 15.2769 18.6704 15.1915 18.4037 15.0144L13.1954 11.5415C12.4766 11.0644 12.2829 10.0936 12.762 9.3748C13.2391 8.65605 14.2099 8.4623 14.9287 8.94147L20.137 12.4144C20.8558 12.8936 21.0495 13.8623 20.5704 14.5811C20.2683 15.0331 19.7745 15.2769 19.2704 15.2769Z" fill="#6D4C41"/>
<path d="M30.7282 15.2769C30.224 15.2769 29.7282 15.0332 29.4261 14.5811C28.9469 13.8624 29.1407 12.8936 29.8594 12.4144L35.0678 8.94152C35.7823 8.46236 36.7553 8.65402 37.2344 9.37486C37.7136 10.0936 37.5198 11.0624 36.8011 11.5415L31.5928 15.0144C31.3282 15.1936 31.0282 15.2769 30.7282 15.2769Z" fill="#6D4C41"/>
</svg>
