<svg width="50" height="50" viewBox="0 0 50 50" fill="none" xmlns="http://www.w3.org/2000/svg">
<path d="M25 50C38.8071 50 50 38.8071 50 25C50 11.1929 38.8071 0 25 0C11.1929 0 0 11.1929 0 25C0 38.8071 11.1929 50 25 50Z" fill="#FFD54F"/>
<path d="M14.0623 22.9167C13.5706 22.9167 13.0852 22.6854 12.781 22.25C12.2873 21.5438 12.4581 20.5688 13.1665 20.075L16.5456 17.7084L13.1665 15.3417C12.4581 14.8479 12.2873 13.873 12.7831 13.1667C13.279 12.4584 14.2539 12.2875 14.9581 12.7834L20.1664 16.4292C20.5831 16.7209 20.8331 17.1979 20.8331 17.7084C20.8331 18.2188 20.5831 18.6959 20.1664 18.9875L14.9581 22.6334C14.6852 22.825 14.3727 22.9167 14.0623 22.9167Z" fill="#6D4C41"/>
<path d="M35.9378 22.9167C35.6274 22.9167 35.3149 22.825 35.042 22.6333L29.8337 18.9875C29.417 18.6958 29.167 18.2188 29.167 17.7083C29.167 17.1979 29.417 16.7208 29.8337 16.4292L35.042 12.7834C35.7503 12.2896 36.7253 12.4604 37.217 13.1667C37.7128 13.8729 37.5399 14.8479 36.8337 15.3417L33.4545 17.7083L36.8357 20.075C37.542 20.5688 37.7149 21.5438 37.2191 22.25C36.9149 22.6854 36.4295 22.9167 35.9378 22.9167Z" fill="#6D4C41"/>
<path d="M36.9797 37.5001C36.7255 37.5001 36.4693 37.4397 36.2318 37.3084L31.2193 34.5751L25.7005 37.3355C25.261 37.5543 24.7422 37.5543 24.3026 37.3355L18.7839 34.5751L13.7714 37.3084C13.0151 37.7251 12.0651 37.4438 11.6505 36.6855C11.236 35.9272 11.5172 34.9793 12.2735 34.5647L18.0026 31.4397C18.4505 31.1938 18.9922 31.1855 19.4505 31.4126L25.0005 34.1918L30.5526 31.4147C31.013 31.1876 31.5505 31.1959 32.0005 31.4418L37.7297 34.5668C38.486 34.9793 38.7672 35.9293 38.3526 36.6876C38.0672 37.2063 37.5318 37.5001 36.9797 37.5001Z" fill="#6D4C41"/>
</svg>
