<svg width="50" height="50" viewBox="0 0 50 50" fill="none" xmlns="http://www.w3.org/2000/svg">
<path d="M25 50C38.8071 50 50 38.8071 50 25C50 11.1929 38.8071 0 25 0C11.1929 0 0 11.1929 0 25C0 38.8071 11.1929 50 25 50Z" fill="#FFD54F"/>
<path d="M25.5215 43.75C24.659 43.75 23.959 43.05 23.959 42.1875C23.959 41.325 24.659 40.625 25.5215 40.625C30.2486 40.625 34.7402 38.3375 37.5361 34.5063C38.0444 33.8083 39.0194 33.6563 39.7194 34.1646C40.4152 34.6729 40.5694 35.65 40.0611 36.3479C36.6777 40.9834 31.2444 43.75 25.5215 43.75Z" fill="#6D4C41"/>
<path d="M43.4215 14.948C42.8965 14.8834 31.084 13.473 25.0007 16.7209C18.9173 13.475 7.10482 14.8834 6.57982 14.948C5.79648 15.0459 5.20898 15.7105 5.20898 16.498C5.20898 20.8917 7.22982 29.2 14.8736 29.2C20.0027 29.2 23.234 25.9521 25.0007 22.7688C26.7673 25.9521 30.0007 29.2 35.1277 29.2C42.7715 29.2 44.7923 20.8917 44.7923 16.498C44.7923 15.7105 44.2048 15.0459 43.4215 14.948Z" fill="#455A64"/>
</svg>
