<svg width="50" height="50" viewBox="0 0 50 50" fill="none" xmlns="http://www.w3.org/2000/svg">
<path d="M25 50C38.8071 50 50 38.8071 50 25C50 11.1929 38.8071 0 25 0C11.1929 0 0 11.1929 0 25C0 38.8071 11.1929 50 25 50Z" fill="#FFD54F"/>
<path d="M16.666 16.146V48.5627C14.416 47.771 12.3118 46.6668 10.416 45.2918V16.146H16.666Z" fill="#00BCD4"/>
<path d="M39.584 16.146V45.3127C37.6882 46.6877 35.584 47.7918 33.334 48.5627V16.146H39.584Z" fill="#00BCD4"/>
<path d="M25 29.2708C21.5542 29.2708 18.75 32.0749 18.75 35.5207V37.3958C18.75 40.8416 21.5542 43.6458 25 43.6458C28.4458 43.6458 31.25 40.8416 31.25 37.3958V35.5207C31.25 32.0749 28.4458 29.2708 25 29.2708Z" fill="#E53935"/>
<path d="M19.2708 17.7085H7.8125C6.95 17.7085 6.25 17.0085 6.25 16.146C6.25 15.2835 6.95 14.5835 7.8125 14.5835H19.2708C20.1333 14.5835 20.8333 15.2835 20.8333 16.146C20.8333 17.0085 20.1333 17.7085 19.2708 17.7085Z" fill="#6D4C41"/>
<path d="M42.1869 17.7085H30.7285C29.866 17.7085 29.166 17.0085 29.166 16.146C29.166 15.2835 29.866 14.5835 30.7285 14.5835H42.1869C43.0494 14.5835 43.7494 15.2835 43.7494 16.146C43.7494 17.0085 43.0494 17.7085 42.1869 17.7085Z" fill="#6D4C41"/>
</svg>
