<svg width="845" height="415" viewBox="0 0 845 415" fill="none" xmlns="http://www.w3.org/2000/svg">
<rect width="158" height="30" fill="#145E82"/>
<path d="M40.0732 19.1104H40.9009C41.6089 17.6943 42.168 16.2808 42.5781 14.8696C42.9883 13.4536 43.2935 11.9277 43.4937 10.292H49.7339V19.1104H51.1621V24.1201H48.9722V21H42.2632V24.1201H40.0732V19.1104ZM45.2954 12.1816C45.1392 13.2998 44.8779 14.4839 44.5117 15.7339C44.1504 16.9839 43.7427 18.1094 43.2886 19.1104H47.4707V12.1816H45.2954ZM54.8022 12.8115V16.0488C54.8022 16.3906 54.7461 17.2256 54.6338 18.5537L58.4131 12.8115H61.1011V21H58.9404V17.7334C58.9404 17.1523 58.9893 16.332 59.0869 15.2725L55.3223 21H52.6416V12.8115H54.8022ZM65.4883 15.9609C66.333 15.9609 66.9312 15.8926 67.2827 15.7559C67.6392 15.6191 67.8174 15.4019 67.8174 15.104C67.8174 14.8403 67.688 14.6426 67.4292 14.5107C67.1704 14.3789 66.7432 14.313 66.1475 14.313C65.7715 14.313 65.3442 14.3594 64.8657 14.4521C64.3921 14.5449 63.96 14.6719 63.5693 14.833L62.9102 13.2729C63.4912 13.0532 64.0552 12.897 64.6021 12.8042C65.1489 12.7065 65.7593 12.6577 66.4331 12.6577C67.4536 12.6577 68.2715 12.853 68.8867 13.2437C69.502 13.6343 69.8096 14.1641 69.8096 14.833C69.8096 15.7559 69.2651 16.3564 68.1763 16.6348V16.708C68.8452 16.874 69.3213 17.1108 69.6045 17.4185C69.8926 17.7212 70.0366 18.1191 70.0366 18.6123C70.0366 19.1104 69.8755 19.5522 69.5532 19.938C69.231 20.3237 68.7646 20.6216 68.1543 20.8315C67.5439 21.0415 66.8262 21.1465 66.001 21.1465C64.6338 21.1465 63.584 20.978 62.8516 20.6411V18.7954C63.2715 18.9907 63.7305 19.1445 64.2285 19.2568C64.7314 19.3691 65.2173 19.4253 65.686 19.4253C66.4136 19.4253 66.958 19.3447 67.3193 19.1836C67.6807 19.0176 67.8613 18.7832 67.8613 18.4805C67.8613 18.1484 67.6709 17.9043 67.29 17.748C66.9092 17.5869 66.3232 17.5063 65.5322 17.5063H64.668V15.9609H65.4883ZM76.9873 21L76.5552 19.8867H76.4966C76.1206 20.3604 75.7324 20.6899 75.332 20.8755C74.9365 21.0562 74.4189 21.1465 73.7793 21.1465C72.9932 21.1465 72.373 20.9219 71.9189 20.4727C71.4697 20.0234 71.2451 19.3838 71.2451 18.5537C71.2451 17.6846 71.5479 17.0449 72.1533 16.6348C72.7637 16.2197 73.6816 15.9902 74.9072 15.9463L76.3281 15.9023V15.5435C76.3281 14.7134 75.9033 14.2983 75.0537 14.2983C74.3994 14.2983 73.6304 14.4961 72.7466 14.8916L72.0068 13.3828C72.9492 12.8896 73.9941 12.6431 75.1416 12.6431C76.2402 12.6431 77.0825 12.8823 77.6685 13.3608C78.2544 13.8394 78.5474 14.5669 78.5474 15.5435V21H76.9873ZM76.3281 17.2061L75.4639 17.2354C74.8145 17.2549 74.3311 17.3721 74.0137 17.5869C73.6963 17.8018 73.5376 18.1289 73.5376 18.5684C73.5376 19.1982 73.8989 19.5132 74.6216 19.5132C75.1392 19.5132 75.5518 19.3643 75.8594 19.0664C76.1719 18.7686 76.3281 18.373 76.3281 17.8799V17.2061ZM83.0151 12.8115V16.0488C83.0151 16.3906 82.959 17.2256 82.8467 18.5537L86.626 12.8115H89.314V21H87.1533V17.7334C87.1533 17.1523 87.2021 16.332 87.2998 15.2725L83.5352 21H80.8545V12.8115H83.0151ZM88.6548 9.28857C88.562 10.2017 88.2178 10.8682 87.6221 11.2881C87.0264 11.7031 86.167 11.9106 85.0439 11.9106C83.8867 11.9106 83.0298 11.7104 82.4731 11.3101C81.9214 10.9097 81.6113 10.2358 81.543 9.28857H83.5425C83.5767 9.7915 83.7012 10.1455 83.916 10.3506C84.1357 10.5508 84.5264 10.6509 85.0879 10.6509C85.5811 10.6509 85.9473 10.541 86.1865 10.3213C86.4307 10.0967 86.5796 9.75244 86.6333 9.28857H88.6548ZM93.8989 12.8115V15.9609H97.019V12.8115H99.2529V21H97.019V17.6235H93.8989V21H91.665V12.8115H93.8989ZM104.988 14.2471C104.514 14.2471 104.143 14.3984 103.875 14.7012C103.606 14.999 103.452 15.4238 103.413 15.9756H106.548C106.538 15.4238 106.394 14.999 106.116 14.7012C105.837 14.3984 105.461 14.2471 104.988 14.2471ZM105.303 21.1465C103.984 21.1465 102.954 20.7827 102.212 20.0552C101.47 19.3276 101.099 18.2974 101.099 16.9644C101.099 15.5923 101.44 14.5327 102.124 13.7856C102.812 13.0337 103.762 12.6577 104.973 12.6577C106.13 12.6577 107.031 12.9873 107.676 13.6465C108.32 14.3057 108.643 15.2163 108.643 16.3784V17.4624H103.362C103.386 18.0972 103.574 18.5928 103.926 18.9492C104.277 19.3057 104.771 19.4839 105.405 19.4839C105.898 19.4839 106.365 19.4326 106.804 19.3301C107.244 19.2275 107.703 19.064 108.181 18.8394V20.5679C107.791 20.7632 107.373 20.9072 106.929 21C106.484 21.0977 105.942 21.1465 105.303 21.1465ZM114.956 21.1465C113.994 21.1465 113.24 20.7974 112.693 20.0991H112.576C112.654 20.7827 112.693 21.1782 112.693 21.2856V24.6035H110.459V12.8115H112.275L112.59 13.8735H112.693C113.215 13.063 113.989 12.6577 115.015 12.6577C115.981 12.6577 116.738 13.0312 117.285 13.7783C117.832 14.5254 118.105 15.563 118.105 16.8911C118.105 17.7651 117.976 18.5244 117.717 19.1689C117.463 19.8135 117.1 20.3042 116.626 20.6411C116.152 20.978 115.596 21.1465 114.956 21.1465ZM114.297 14.4448C113.745 14.4448 113.342 14.6157 113.088 14.9575C112.834 15.2944 112.703 15.8535 112.693 16.6348V16.8765C112.693 17.7554 112.822 18.3853 113.081 18.7661C113.345 19.147 113.76 19.3374 114.326 19.3374C115.327 19.3374 115.828 18.5122 115.828 16.8618C115.828 16.0562 115.703 15.4531 115.454 15.0527C115.21 14.6475 114.824 14.4448 114.297 14.4448Z" fill="white"/>
<rect x="213" y="138" width="158" height="30" fill="#145E82"/>
<path d="M246.232 153.543C246.232 155.306 245.729 156.656 244.723 157.594C243.722 158.531 242.274 159 240.38 159H237.348V148.292H240.709C242.458 148.292 243.815 148.753 244.782 149.676C245.749 150.599 246.232 151.888 246.232 153.543ZM243.874 153.602C243.874 151.302 242.858 150.152 240.827 150.152H239.618V157.125H240.592C242.78 157.125 243.874 155.951 243.874 153.602ZM248.18 148.695C248.18 147.967 248.585 147.604 249.396 147.604C250.207 147.604 250.612 147.967 250.612 148.695C250.612 149.042 250.509 149.312 250.304 149.508C250.104 149.698 249.801 149.793 249.396 149.793C248.585 149.793 248.18 149.427 248.18 148.695ZM250.509 159H248.275V150.812H250.509V159ZM259.987 150.812V151.947L258.705 152.276C258.939 152.643 259.057 153.053 259.057 153.507C259.057 154.386 258.749 155.072 258.134 155.565C257.523 156.053 256.674 156.297 255.585 156.297L255.182 156.275L254.853 156.239C254.623 156.415 254.508 156.61 254.508 156.825C254.508 157.147 254.918 157.308 255.739 157.308H257.13C258.029 157.308 258.712 157.501 259.181 157.887C259.655 158.272 259.892 158.839 259.892 159.586C259.892 160.543 259.491 161.285 258.69 161.812C257.895 162.34 256.75 162.604 255.255 162.604C254.113 162.604 253.239 162.403 252.633 162.003C252.033 161.607 251.732 161.051 251.732 160.333C251.732 159.84 251.886 159.427 252.194 159.095C252.501 158.763 252.953 158.526 253.549 158.385C253.319 158.287 253.119 158.128 252.948 157.909C252.777 157.684 252.692 157.447 252.692 157.198C252.692 156.886 252.782 156.627 252.963 156.422C253.144 156.212 253.405 156.007 253.747 155.807C253.317 155.621 252.975 155.323 252.721 154.913C252.472 154.503 252.348 154.02 252.348 153.463C252.348 152.569 252.638 151.878 253.219 151.39C253.8 150.902 254.63 150.658 255.709 150.658C255.939 150.658 256.21 150.68 256.522 150.724C256.84 150.763 257.042 150.792 257.13 150.812H259.987ZM253.666 160.157C253.666 160.465 253.812 160.707 254.105 160.882C254.403 161.058 254.818 161.146 255.351 161.146C256.151 161.146 256.779 161.036 257.233 160.816C257.687 160.597 257.914 160.296 257.914 159.916C257.914 159.608 257.78 159.396 257.511 159.278C257.243 159.161 256.828 159.103 256.266 159.103H255.109C254.699 159.103 254.354 159.198 254.076 159.388C253.803 159.583 253.666 159.84 253.666 160.157ZM254.479 153.492C254.479 153.937 254.579 154.288 254.779 154.547C254.984 154.806 255.294 154.935 255.709 154.935C256.129 154.935 256.437 154.806 256.632 154.547C256.828 154.288 256.925 153.937 256.925 153.492C256.925 152.506 256.52 152.013 255.709 152.013C254.889 152.013 254.479 152.506 254.479 153.492ZM261.247 148.695C261.247 147.967 261.652 147.604 262.462 147.604C263.273 147.604 263.678 147.967 263.678 148.695C263.678 149.042 263.576 149.312 263.371 149.508C263.17 149.698 262.868 149.793 262.462 149.793C261.652 149.793 261.247 149.427 261.247 148.695ZM263.576 159H261.342V150.812H263.576V159ZM269.376 157.367C269.767 157.367 270.236 157.281 270.783 157.11V158.773C270.226 159.022 269.542 159.146 268.732 159.146C267.838 159.146 267.187 158.922 266.776 158.473C266.371 158.019 266.168 157.34 266.168 156.437V152.489H265.099V151.544L266.33 150.797L266.974 149.068H268.402V150.812H270.695V152.489H268.402V156.437C268.402 156.754 268.49 156.988 268.666 157.14C268.847 157.291 269.083 157.367 269.376 157.367ZM277.646 159L277.213 157.887H277.155C276.779 158.36 276.391 158.69 275.99 158.875C275.595 159.056 275.077 159.146 274.438 159.146C273.651 159.146 273.031 158.922 272.577 158.473C272.128 158.023 271.903 157.384 271.903 156.554C271.903 155.685 272.206 155.045 272.812 154.635C273.422 154.22 274.34 153.99 275.565 153.946L276.986 153.902V153.543C276.986 152.713 276.562 152.298 275.712 152.298C275.058 152.298 274.289 152.496 273.405 152.892L272.665 151.383C273.607 150.89 274.652 150.643 275.8 150.643C276.898 150.643 277.741 150.882 278.327 151.361C278.913 151.839 279.206 152.567 279.206 153.543V159H277.646ZM276.986 155.206L276.122 155.235C275.473 155.255 274.989 155.372 274.672 155.587C274.354 155.802 274.196 156.129 274.196 156.568C274.196 157.198 274.557 157.513 275.28 157.513C275.797 157.513 276.21 157.364 276.518 157.066C276.83 156.769 276.986 156.373 276.986 155.88V155.206ZM283.747 159H281.513V147.604H283.747V159ZM285.373 155.895V154.063H289.306V155.895H285.373ZM296.059 157.367V152.489H294.381C294.259 153.397 294.091 154.259 293.876 155.074C293.666 155.89 293.373 156.654 292.997 157.367H296.059ZM299.494 161.937H297.487V159H291.979V161.937H289.972V157.367H290.661C291.129 156.639 291.522 155.721 291.84 154.613C292.157 153.504 292.379 152.237 292.506 150.812H298.292V157.367H299.494V161.937ZM303.053 150.812V154.049C303.053 154.391 302.997 155.226 302.885 156.554L306.664 150.812H309.352V159H307.191V155.733C307.191 155.152 307.24 154.332 307.338 153.272L303.573 159H300.893V150.812H303.053ZM313.739 153.961C314.584 153.961 315.182 153.893 315.534 153.756C315.89 153.619 316.068 153.402 316.068 153.104C316.068 152.84 315.939 152.643 315.68 152.511C315.421 152.379 314.994 152.313 314.398 152.313C314.022 152.313 313.595 152.359 313.117 152.452C312.643 152.545 312.211 152.672 311.82 152.833L311.161 151.273C311.742 151.053 312.306 150.897 312.853 150.804C313.4 150.707 314.01 150.658 314.684 150.658C315.705 150.658 316.522 150.853 317.138 151.244C317.753 151.634 318.061 152.164 318.061 152.833C318.061 153.756 317.516 154.356 316.427 154.635V154.708C317.096 154.874 317.572 155.111 317.855 155.418C318.144 155.721 318.288 156.119 318.288 156.612C318.288 157.11 318.126 157.552 317.804 157.938C317.482 158.324 317.016 158.622 316.405 158.832C315.795 159.042 315.077 159.146 314.252 159.146C312.885 159.146 311.835 158.978 311.103 158.641V156.795C311.522 156.991 311.981 157.145 312.479 157.257C312.982 157.369 313.468 157.425 313.937 157.425C314.665 157.425 315.209 157.345 315.57 157.184C315.932 157.018 316.112 156.783 316.112 156.48C316.112 156.148 315.922 155.904 315.541 155.748C315.16 155.587 314.574 155.506 313.783 155.506H312.919V153.961H313.739ZM325.238 159L324.806 157.887H324.748C324.372 158.36 323.983 158.69 323.583 158.875C323.188 159.056 322.67 159.146 322.03 159.146C321.244 159.146 320.624 158.922 320.17 158.473C319.721 158.023 319.496 157.384 319.496 156.554C319.496 155.685 319.799 155.045 320.404 154.635C321.015 154.22 321.933 153.99 323.158 153.946L324.579 153.902V153.543C324.579 152.713 324.154 152.298 323.305 152.298C322.65 152.298 321.881 152.496 320.998 152.892L320.258 151.383C321.2 150.89 322.245 150.643 323.393 150.643C324.491 150.643 325.333 150.882 325.919 151.361C326.505 151.839 326.798 152.567 326.798 153.543V159H325.238ZM324.579 155.206L323.715 155.235C323.065 155.255 322.582 155.372 322.265 155.587C321.947 155.802 321.789 156.129 321.789 156.568C321.789 157.198 322.15 157.513 322.873 157.513C323.39 157.513 323.803 157.364 324.11 157.066C324.423 156.769 324.579 156.373 324.579 155.88V155.206ZM331.266 150.812V154.049C331.266 154.391 331.21 155.226 331.098 156.554L334.877 150.812H337.565V159H335.404V155.733C335.404 155.152 335.453 154.332 335.551 153.272L331.786 159H329.105V150.812H331.266ZM336.906 147.289C336.813 148.202 336.469 148.868 335.873 149.288C335.277 149.703 334.418 149.911 333.295 149.911C332.138 149.911 331.281 149.71 330.724 149.31C330.172 148.91 329.862 148.236 329.794 147.289H331.793C331.828 147.792 331.952 148.146 332.167 148.351C332.387 148.551 332.777 148.651 333.339 148.651C333.832 148.651 334.198 148.541 334.438 148.321C334.682 148.097 334.831 147.752 334.884 147.289H336.906ZM342.15 150.812V153.961H345.27V150.812H347.504V159H345.27V155.624H342.15V159H339.916V150.812H342.15Z" fill="white"/>
<rect x="212" y="328" width="216" height="30" fill="#145E82"/>
<path d="M235.073 347.11H235.901C236.609 345.694 237.168 344.281 237.578 342.87C237.988 341.454 238.293 339.928 238.494 338.292H244.734V347.11H246.162V352.12H243.972V349H237.263V352.12H235.073V347.11ZM240.295 340.182C240.139 341.3 239.878 342.484 239.512 343.734C239.15 344.984 238.743 346.109 238.289 347.11H242.471V340.182H240.295ZM249.802 340.812V344.049C249.802 344.391 249.746 345.226 249.634 346.554L253.413 340.812H256.101V349H253.94V345.733C253.94 345.152 253.989 344.332 254.087 343.272L250.322 349H247.642V340.812H249.802ZM260.488 343.961C261.333 343.961 261.931 343.893 262.283 343.756C262.639 343.619 262.817 343.402 262.817 343.104C262.817 342.84 262.688 342.643 262.429 342.511C262.17 342.379 261.743 342.313 261.147 342.313C260.771 342.313 260.344 342.359 259.866 342.452C259.392 342.545 258.96 342.672 258.569 342.833L257.91 341.273C258.491 341.053 259.055 340.897 259.602 340.804C260.149 340.707 260.759 340.658 261.433 340.658C262.454 340.658 263.271 340.853 263.887 341.244C264.502 341.634 264.81 342.164 264.81 342.833C264.81 343.756 264.265 344.356 263.176 344.635V344.708C263.845 344.874 264.321 345.111 264.604 345.418C264.893 345.721 265.037 346.119 265.037 346.612C265.037 347.11 264.875 347.552 264.553 347.938C264.231 348.324 263.765 348.622 263.154 348.832C262.544 349.042 261.826 349.146 261.001 349.146C259.634 349.146 258.584 348.978 257.852 348.641V346.795C258.271 346.991 258.73 347.145 259.229 347.257C259.731 347.369 260.217 347.425 260.686 347.425C261.414 347.425 261.958 347.345 262.319 347.184C262.681 347.018 262.861 346.783 262.861 346.48C262.861 346.148 262.671 345.904 262.29 345.748C261.909 345.587 261.323 345.506 260.532 345.506H259.668V343.961H260.488ZM271.987 349L271.555 347.887H271.497C271.121 348.36 270.732 348.69 270.332 348.875C269.937 349.056 269.419 349.146 268.779 349.146C267.993 349.146 267.373 348.922 266.919 348.473C266.47 348.023 266.245 347.384 266.245 346.554C266.245 345.685 266.548 345.045 267.153 344.635C267.764 344.22 268.682 343.99 269.907 343.946L271.328 343.902V343.543C271.328 342.713 270.903 342.298 270.054 342.298C269.399 342.298 268.63 342.496 267.747 342.892L267.007 341.383C267.949 340.89 268.994 340.643 270.142 340.643C271.24 340.643 272.083 340.882 272.668 341.361C273.254 341.839 273.547 342.567 273.547 343.543V349H271.987ZM271.328 345.206L270.464 345.235C269.814 345.255 269.331 345.372 269.014 345.587C268.696 345.802 268.538 346.129 268.538 346.568C268.538 347.198 268.899 347.513 269.622 347.513C270.139 347.513 270.552 347.364 270.859 347.066C271.172 346.769 271.328 346.373 271.328 345.88V345.206ZM278.015 340.812V344.049C278.015 344.391 277.959 345.226 277.847 346.554L281.626 340.812H284.314V349H282.153V345.733C282.153 345.152 282.202 344.332 282.3 343.272L278.535 349H275.854V340.812H278.015ZM283.655 337.289C283.562 338.202 283.218 338.868 282.622 339.288C282.026 339.703 281.167 339.911 280.044 339.911C278.887 339.911 278.03 339.71 277.473 339.31C276.921 338.91 276.611 338.236 276.543 337.289H278.542C278.577 337.792 278.701 338.146 278.916 338.351C279.136 338.551 279.526 338.651 280.088 338.651C280.581 338.651 280.947 338.541 281.187 338.321C281.431 338.097 281.58 337.752 281.633 337.289H283.655ZM288.899 340.812V343.961H292.019V340.812H294.253V349H292.019V345.624H288.899V349H286.665V340.812H288.899ZM307.935 340.812V349H305.693V342.489H302.727V349H300.493V340.812H307.935ZM314.775 349.146C313.813 349.146 313.059 348.797 312.512 348.099H312.395C312.473 348.783 312.512 349.178 312.512 349.286V352.604H310.278V340.812H312.095L312.41 341.874H312.512C313.035 341.063 313.809 340.658 314.834 340.658C315.801 340.658 316.558 341.031 317.104 341.778C317.651 342.525 317.925 343.563 317.925 344.891C317.925 345.765 317.795 346.524 317.537 347.169C317.283 347.813 316.919 348.304 316.445 348.641C315.972 348.978 315.415 349.146 314.775 349.146ZM314.116 342.445C313.564 342.445 313.162 342.616 312.908 342.958C312.654 343.294 312.522 343.854 312.512 344.635V344.876C312.512 345.755 312.642 346.385 312.9 346.766C313.164 347.147 313.579 347.337 314.146 347.337C315.146 347.337 315.647 346.512 315.647 344.862C315.647 344.056 315.522 343.453 315.273 343.053C315.029 342.647 314.644 342.445 314.116 342.445ZM321.931 340.812V344.049C321.931 344.391 321.875 345.226 321.763 346.554L325.542 340.812H328.23V349H326.069V345.733C326.069 345.152 326.118 344.332 326.216 343.272L322.451 349H319.771V340.812H321.931ZM337.913 349H335.679V342.489H333.621C333.464 344.32 333.274 345.687 333.049 346.59C332.825 347.489 332.524 348.141 332.148 348.546C331.777 348.946 331.289 349.146 330.684 349.146C330.166 349.146 329.741 349.068 329.409 348.912V347.125C329.648 347.223 329.888 347.271 330.127 347.271C330.405 347.271 330.637 347.071 330.823 346.671C331.013 346.271 331.182 345.604 331.328 344.671C331.479 343.734 331.609 342.447 331.716 340.812H337.913V349ZM342.043 344.891C342.043 345.702 342.175 346.314 342.439 346.729C342.708 347.145 343.142 347.352 343.743 347.352C344.338 347.352 344.766 347.147 345.024 346.737C345.288 346.322 345.42 345.707 345.42 344.891C345.42 344.081 345.288 343.473 345.024 343.067C344.761 342.662 344.329 342.459 343.728 342.459C343.132 342.459 342.703 342.662 342.439 343.067C342.175 343.468 342.043 344.076 342.043 344.891ZM347.705 344.891C347.705 346.224 347.354 347.267 346.65 348.019C345.947 348.771 344.968 349.146 343.713 349.146C342.927 349.146 342.234 348.976 341.633 348.634C341.033 348.287 340.571 347.792 340.249 347.147C339.927 346.502 339.766 345.75 339.766 344.891C339.766 343.553 340.115 342.513 340.813 341.771C341.511 341.029 342.493 340.658 343.757 340.658C344.543 340.658 345.237 340.829 345.837 341.17C346.438 341.512 346.899 342.003 347.222 342.643C347.544 343.282 347.705 344.032 347.705 344.891ZM353.887 344.789V340.812H355.967V344.789L358.882 340.812H361.189L358.171 344.737L361.475 349H359.087L355.967 344.847V349H353.887V344.847L350.767 349H348.379L351.682 344.737L348.665 340.812H350.972L353.887 344.789ZM366.038 342.247C365.564 342.247 365.193 342.398 364.924 342.701C364.656 342.999 364.502 343.424 364.463 343.976H367.598C367.588 343.424 367.444 342.999 367.166 342.701C366.887 342.398 366.511 342.247 366.038 342.247ZM366.353 349.146C365.034 349.146 364.004 348.783 363.262 348.055C362.52 347.328 362.148 346.297 362.148 344.964C362.148 343.592 362.49 342.533 363.174 341.786C363.862 341.034 364.812 340.658 366.023 340.658C367.18 340.658 368.081 340.987 368.726 341.646C369.37 342.306 369.692 343.216 369.692 344.378V345.462H364.412C364.436 346.097 364.624 346.593 364.976 346.949C365.327 347.306 365.82 347.484 366.455 347.484C366.948 347.484 367.415 347.433 367.854 347.33C368.293 347.228 368.752 347.064 369.231 346.839V348.568C368.84 348.763 368.423 348.907 367.979 349C367.534 349.098 366.992 349.146 366.353 349.146ZM373.743 340.812V343.961H376.863V340.812H379.097V349H376.863V345.624H373.743V349H371.509V340.812H373.743ZM383.601 340.812V344.049C383.601 344.391 383.545 345.226 383.433 346.554L387.212 340.812H389.9V349H387.739V345.733C387.739 345.152 387.788 344.332 387.886 343.272L384.121 349H381.44V340.812H383.601ZM394.412 340.812V344.049C394.412 344.391 394.355 345.226 394.243 346.554L398.022 340.812H400.71V349H398.55V345.733C398.55 345.152 398.599 344.332 398.696 343.272L394.932 349H392.251V340.812H394.412ZM400.051 337.289C399.958 338.202 399.614 338.868 399.019 339.288C398.423 339.703 397.563 339.911 396.44 339.911C395.283 339.911 394.426 339.71 393.87 339.31C393.318 338.91 393.008 338.236 392.939 337.289H394.939C394.973 337.792 395.098 338.146 395.312 338.351C395.532 338.551 395.923 338.651 396.484 338.651C396.978 338.651 397.344 338.541 397.583 338.321C397.827 338.097 397.976 337.752 398.03 337.289H400.051Z" fill="white"/>
<rect x="402" y="57" width="87" height="30" fill="#145E82"/>
<path d="M443.122 78H440.859V73.3784H436.618V78H434.348V67.292H436.618V71.4888H440.859V67.292H443.122V78ZM450.38 69.0278C449.526 69.0278 448.864 69.3501 448.396 69.9946C447.927 70.6343 447.692 71.5278 447.692 72.6753C447.692 75.063 448.588 76.2568 450.38 76.2568C451.132 76.2568 452.043 76.0688 453.112 75.6929V77.5972C452.233 77.9634 451.252 78.1465 450.168 78.1465C448.61 78.1465 447.419 77.6753 446.594 76.7329C445.769 75.7856 445.356 74.4282 445.356 72.6606C445.356 71.5474 445.559 70.5732 445.964 69.7383C446.369 68.8984 446.95 68.2563 447.707 67.812C448.469 67.3628 449.36 67.1382 450.38 67.1382C451.42 67.1382 452.465 67.3896 453.515 67.8926L452.783 69.7383C452.382 69.5479 451.979 69.3818 451.574 69.2402C451.169 69.0986 450.771 69.0278 450.38 69.0278ZM455.397 78V67.292H457.668V78H455.397Z" fill="white"/>
<rect x="402" width="136" height="30" fill="#145E82"/>
<rect x="213" width="114" height="30" fill="#145E82"/>
<path d="M258.063 10.292V17.2207C258.063 18.0117 257.885 18.7051 257.529 19.3008C257.177 19.8965 256.667 20.353 255.998 20.6704C255.329 20.9878 254.538 21.1465 253.625 21.1465C252.248 21.1465 251.179 20.7949 250.417 20.0918C249.655 19.3838 249.274 18.417 249.274 17.1914V10.292H251.538V16.8472C251.538 17.6724 251.704 18.2778 252.036 18.6636C252.368 19.0493 252.917 19.2422 253.684 19.2422C254.426 19.2422 254.963 19.0493 255.295 18.6636C255.632 18.2729 255.8 17.6626 255.8 16.8325V10.292H258.063ZM260.686 21V10.292H262.956V21H260.686ZM270.427 10.292L266.435 21H264.406L268.398 10.292H270.427ZM280.563 10.292V17.2207C280.563 18.0117 280.385 18.7051 280.029 19.3008C279.677 19.8965 279.167 20.353 278.498 20.6704C277.829 20.9878 277.038 21.1465 276.125 21.1465C274.748 21.1465 273.679 20.7949 272.917 20.0918C272.155 19.3838 271.774 18.417 271.774 17.1914V10.292H274.038V16.8472C274.038 17.6724 274.204 18.2778 274.536 18.6636C274.868 19.0493 275.417 19.2422 276.184 19.2422C276.926 19.2422 277.463 19.0493 277.795 18.6636C278.132 18.2729 278.3 17.6626 278.3 16.8325V10.292H280.563ZM291.843 21H289.25L286.76 16.9497L284.27 21H281.838L285.39 15.4775L282.065 10.292H284.57L286.877 14.1445L289.14 10.292H291.586L288.225 15.6021L291.843 21Z" fill="white"/>
<path d="M436.613 12.8115V21H434.372V14.4888H431.406V21H429.172V12.8115H436.613ZM442.282 21.1465C439.733 21.1465 438.459 19.7476 438.459 16.9497C438.459 15.5581 438.806 14.4961 439.499 13.7637C440.192 13.0264 441.186 12.6577 442.48 12.6577C443.427 12.6577 444.277 12.8433 445.029 13.2144L444.37 14.9429C444.018 14.8013 443.691 14.6865 443.388 14.5986C443.085 14.5059 442.783 14.4595 442.48 14.4595C441.318 14.4595 440.737 15.2847 440.737 16.9351C440.737 18.5366 441.318 19.3374 442.48 19.3374C442.91 19.3374 443.308 19.2812 443.674 19.1689C444.04 19.0518 444.406 18.8711 444.772 18.627V20.5386C444.411 20.7681 444.045 20.9268 443.674 21.0146C443.308 21.1025 442.844 21.1465 442.282 21.1465ZM448.837 12.8115V16.0488C448.837 16.3906 448.781 17.2256 448.669 18.5537L452.448 12.8115H455.136V21H452.976V17.7334C452.976 17.1523 453.024 16.332 453.122 15.2725L449.357 21H446.677V12.8115H448.837ZM459.165 16.8179L456.528 12.8115H459.062L460.651 15.4189L462.255 12.8115H464.79L462.124 16.8179L464.914 21H462.373L460.651 18.1948L458.923 21H456.389L459.165 16.8179ZM467.939 16.8911C467.939 17.7017 468.071 18.3145 468.334 18.7295C468.603 19.1445 469.038 19.3521 469.638 19.3521C470.234 19.3521 470.661 19.147 470.92 18.7368C471.184 18.3218 471.315 17.7065 471.315 16.8911C471.315 16.0806 471.184 15.4727 470.92 15.0674C470.656 14.6621 470.224 14.4595 469.624 14.4595C469.028 14.4595 468.598 14.6621 468.334 15.0674C468.071 15.4678 467.939 16.0757 467.939 16.8911ZM473.601 16.8911C473.601 18.2241 473.249 19.2666 472.546 20.0186C471.843 20.7705 470.864 21.1465 469.609 21.1465C468.823 21.1465 468.129 20.9756 467.529 20.6338C466.928 20.2871 466.467 19.7915 466.145 19.147C465.822 18.5024 465.661 17.7505 465.661 16.8911C465.661 15.5532 466.01 14.5132 466.708 13.771C467.407 13.0288 468.388 12.6577 469.653 12.6577C470.439 12.6577 471.132 12.8286 471.733 13.1704C472.333 13.5122 472.795 14.0029 473.117 14.6426C473.439 15.2822 473.601 16.0317 473.601 16.8911ZM482.778 21H480.544V14.4888H478.486C478.33 16.3198 478.139 17.687 477.915 18.5903C477.69 19.4888 477.39 20.1406 477.014 20.5459C476.643 20.9463 476.154 21.1465 475.549 21.1465C475.031 21.1465 474.606 21.0684 474.274 20.9121V19.125C474.514 19.2227 474.753 19.2715 474.992 19.2715C475.271 19.2715 475.502 19.0713 475.688 18.6709C475.878 18.2705 476.047 17.604 476.193 16.6714C476.345 15.7339 476.474 14.4473 476.582 12.8115H482.778V21ZM486.909 16.8911C486.909 17.7017 487.041 18.3145 487.304 18.7295C487.573 19.1445 488.007 19.3521 488.608 19.3521C489.204 19.3521 489.631 19.147 489.89 18.7368C490.153 18.3218 490.285 17.7065 490.285 16.8911C490.285 16.0806 490.153 15.4727 489.89 15.0674C489.626 14.6621 489.194 14.4595 488.593 14.4595C487.998 14.4595 487.568 14.6621 487.304 15.0674C487.041 15.4678 486.909 16.0757 486.909 16.8911ZM492.57 16.8911C492.57 18.2241 492.219 19.2666 491.516 20.0186C490.812 20.7705 489.833 21.1465 488.579 21.1465C487.792 21.1465 487.099 20.9756 486.499 20.6338C485.898 20.2871 485.437 19.7915 485.114 19.147C484.792 18.5024 484.631 17.7505 484.631 16.8911C484.631 15.5532 484.98 14.5132 485.678 13.771C486.376 13.0288 487.358 12.6577 488.623 12.6577C489.409 12.6577 490.102 12.8286 490.703 13.1704C491.303 13.5122 491.765 14.0029 492.087 14.6426C492.409 15.2822 492.57 16.0317 492.57 16.8911ZM500.07 12.8115V14.4888H496.65V21H494.416V12.8115H500.07ZM503.754 12.8115V16.0488C503.754 16.3906 503.698 17.2256 503.586 18.5537L507.365 12.8115H510.053V21H507.893V17.7334C507.893 17.1523 507.941 16.332 508.039 15.2725L504.274 21H501.594V12.8115H503.754ZM513.649 21H511.232L513.437 17.7627C512.91 17.543 512.509 17.2256 512.236 16.8105C511.967 16.3955 511.833 15.9072 511.833 15.3457C511.833 14.5547 512.128 13.9346 512.719 13.4854C513.315 13.0361 514.125 12.8115 515.151 12.8115H518.959V21H516.726V17.9531H515.495L513.649 21ZM514.023 15.3604C514.023 15.7021 514.157 15.9707 514.426 16.166C514.694 16.3564 515.046 16.4517 515.48 16.4517H516.726V14.3862H515.195C514.829 14.3862 514.541 14.4766 514.331 14.6572C514.125 14.833 514.023 15.0674 514.023 15.3604Z" fill="white"/>
<rect x="403" y="139" width="134" height="28" stroke="#145E82" stroke-width="2"/>
<path d="M431.618 153.331H432.365C433.063 153.331 433.586 153.194 433.933 152.921C434.279 152.643 434.453 152.24 434.453 151.712C434.453 151.18 434.306 150.787 434.013 150.533C433.725 150.279 433.271 150.152 432.651 150.152H431.618V153.331ZM436.745 151.632C436.745 152.784 436.384 153.666 435.661 154.276C434.943 154.886 433.92 155.191 432.592 155.191H431.618V159H429.348V148.292H432.768C434.067 148.292 435.053 148.573 435.727 149.134C436.406 149.691 436.745 150.523 436.745 151.632ZM446.149 159H443.916V154.217C443.916 153.036 443.476 152.445 442.597 152.445C441.972 152.445 441.521 152.657 441.242 153.082C440.964 153.507 440.825 154.195 440.825 155.147V159H438.591V147.604H440.825V149.925C440.825 150.106 440.808 150.531 440.773 151.2L440.722 151.859H440.839C441.337 151.058 442.128 150.658 443.212 150.658C444.174 150.658 444.904 150.917 445.402 151.434C445.9 151.952 446.149 152.694 446.149 153.661V159ZM450.229 154.891C450.229 155.702 450.361 156.314 450.625 156.729C450.893 157.145 451.328 157.352 451.928 157.352C452.524 157.352 452.951 157.147 453.21 156.737C453.474 156.322 453.605 155.707 453.605 154.891C453.605 154.081 453.474 153.473 453.21 153.067C452.946 152.662 452.514 152.459 451.914 152.459C451.318 152.459 450.888 152.662 450.625 153.067C450.361 153.468 450.229 154.076 450.229 154.891ZM455.891 154.891C455.891 156.224 455.539 157.267 454.836 158.019C454.133 158.771 453.154 159.146 451.899 159.146C451.113 159.146 450.419 158.976 449.819 158.634C449.218 158.287 448.757 157.792 448.435 157.147C448.112 156.502 447.951 155.75 447.951 154.891C447.951 153.553 448.3 152.513 448.999 151.771C449.697 151.029 450.678 150.658 451.943 150.658C452.729 150.658 453.422 150.829 454.023 151.17C454.624 151.512 455.085 152.003 455.407 152.643C455.729 153.282 455.891 154.032 455.891 154.891ZM461.186 157.367C461.577 157.367 462.045 157.281 462.592 157.11V158.773C462.036 159.022 461.352 159.146 460.542 159.146C459.648 159.146 458.996 158.922 458.586 158.473C458.181 158.019 457.978 157.34 457.978 156.437V152.489H456.909V151.544L458.139 150.797L458.784 149.068H460.212V150.812H462.504V152.489H460.212V156.437C460.212 156.754 460.3 156.988 460.476 157.14C460.656 157.291 460.893 157.367 461.186 157.367ZM466.035 154.891C466.035 155.702 466.167 156.314 466.43 156.729C466.699 157.145 467.133 157.352 467.734 157.352C468.33 157.352 468.757 157.147 469.016 156.737C469.279 156.322 469.411 155.707 469.411 154.891C469.411 154.081 469.279 153.473 469.016 153.067C468.752 152.662 468.32 152.459 467.719 152.459C467.124 152.459 466.694 152.662 466.43 153.067C466.167 153.468 466.035 154.076 466.035 154.891ZM471.696 154.891C471.696 156.224 471.345 157.267 470.642 158.019C469.938 158.771 468.959 159.146 467.705 159.146C466.918 159.146 466.225 158.976 465.625 158.634C465.024 158.287 464.562 157.792 464.24 157.147C463.918 156.502 463.757 155.75 463.757 154.891C463.757 153.553 464.106 152.513 464.804 151.771C465.502 151.029 466.484 150.658 467.749 150.658C468.535 150.658 469.228 150.829 469.829 151.17C470.429 151.512 470.891 152.003 471.213 152.643C471.535 153.282 471.696 154.032 471.696 154.891ZM479.255 156.568C479.255 157.408 478.962 158.048 478.376 158.487C477.795 158.927 476.923 159.146 475.761 159.146C475.166 159.146 474.658 159.105 474.238 159.022C473.818 158.944 473.425 158.827 473.059 158.67V156.825C473.474 157.02 473.94 157.184 474.458 157.315C474.98 157.447 475.439 157.513 475.834 157.513C476.645 157.513 477.05 157.279 477.05 156.81C477.05 156.634 476.997 156.493 476.889 156.385C476.782 156.273 476.596 156.148 476.333 156.012C476.069 155.87 475.717 155.707 475.278 155.521C474.648 155.257 474.184 155.013 473.886 154.789C473.593 154.564 473.378 154.308 473.242 154.02C473.11 153.727 473.044 153.368 473.044 152.943C473.044 152.215 473.325 151.654 473.886 151.258C474.453 150.858 475.253 150.658 476.289 150.658C477.275 150.658 478.234 150.873 479.167 151.302L478.493 152.914C478.083 152.738 477.7 152.594 477.343 152.481C476.987 152.369 476.623 152.313 476.252 152.313C475.593 152.313 475.263 152.491 475.263 152.848C475.263 153.048 475.368 153.221 475.578 153.368C475.793 153.514 476.259 153.731 476.977 154.02C477.617 154.278 478.085 154.52 478.383 154.745C478.681 154.969 478.901 155.228 479.042 155.521C479.184 155.814 479.255 156.163 479.255 156.568ZM488.557 159H486.323V154.217C486.323 153.036 485.883 152.445 485.004 152.445C484.379 152.445 483.928 152.657 483.649 153.082C483.371 153.507 483.232 154.195 483.232 155.147V159H480.998V147.604H483.232V149.925C483.232 150.106 483.215 150.531 483.181 151.2L483.129 151.859H483.247C483.745 151.058 484.536 150.658 485.62 150.658C486.582 150.658 487.312 150.917 487.81 151.434C488.308 151.952 488.557 152.694 488.557 153.661V159ZM492.636 154.891C492.636 155.702 492.768 156.314 493.032 156.729C493.3 157.145 493.735 157.352 494.335 157.352C494.931 157.352 495.358 157.147 495.617 156.737C495.881 156.322 496.013 155.707 496.013 154.891C496.013 154.081 495.881 153.473 495.617 153.067C495.354 152.662 494.921 152.459 494.321 152.459C493.725 152.459 493.295 152.662 493.032 153.067C492.768 153.468 492.636 154.076 492.636 154.891ZM498.298 154.891C498.298 156.224 497.946 157.267 497.243 158.019C496.54 158.771 495.561 159.146 494.306 159.146C493.52 159.146 492.827 158.976 492.226 158.634C491.625 158.287 491.164 157.792 490.842 157.147C490.52 156.502 490.358 155.75 490.358 154.891C490.358 153.553 490.708 152.513 491.406 151.771C492.104 151.029 493.085 150.658 494.35 150.658C495.136 150.658 495.83 150.829 496.43 151.17C497.031 151.512 497.492 152.003 497.814 152.643C498.137 153.282 498.298 154.032 498.298 154.891ZM504.641 159.146C503.679 159.146 502.924 158.797 502.377 158.099H502.26C502.338 158.783 502.377 159.178 502.377 159.286V162.604H500.144V150.812H501.96L502.275 151.874H502.377C502.9 151.063 503.674 150.658 504.699 150.658C505.666 150.658 506.423 151.031 506.97 151.778C507.517 152.525 507.79 153.563 507.79 154.891C507.79 155.765 507.661 156.524 507.402 157.169C507.148 157.813 506.784 158.304 506.311 158.641C505.837 158.978 505.28 159.146 504.641 159.146ZM503.981 152.445C503.43 152.445 503.027 152.616 502.773 152.958C502.519 153.294 502.387 153.854 502.377 154.635V154.876C502.377 155.755 502.507 156.385 502.766 156.766C503.029 157.147 503.444 157.337 504.011 157.337C505.012 157.337 505.512 156.512 505.512 154.862C505.512 154.056 505.388 153.453 505.139 153.053C504.895 152.647 504.509 152.445 503.981 152.445Z" fill="#145E82"/>
<rect x="486" y="329" width="152" height="28" fill="white" stroke="#145E82" stroke-width="2"/>
<path d="M526.674 349H524.088L522.638 343.375C522.584 343.175 522.492 342.762 522.36 342.137C522.233 341.507 522.16 341.085 522.14 340.87C522.111 341.134 522.038 341.559 521.92 342.145C521.803 342.726 521.713 343.141 521.649 343.39L520.207 349H517.628L514.896 338.292H517.13L518.5 344.137C518.739 345.216 518.913 346.151 519.02 346.942C519.049 346.664 519.115 346.234 519.218 345.653C519.325 345.067 519.425 344.613 519.518 344.291L521.078 338.292H523.224L524.784 344.291C524.853 344.559 524.938 344.969 525.041 345.521C525.143 346.073 525.221 346.546 525.275 346.942C525.324 346.561 525.402 346.087 525.509 345.521C525.617 344.95 525.714 344.488 525.802 344.137L527.165 338.292H529.398L526.674 349ZM533.961 342.247C533.488 342.247 533.117 342.398 532.848 342.701C532.58 342.999 532.426 343.424 532.387 343.976H535.521C535.512 343.424 535.368 342.999 535.089 342.701C534.811 342.398 534.435 342.247 533.961 342.247ZM534.276 349.146C532.958 349.146 531.928 348.783 531.186 348.055C530.443 347.328 530.072 346.297 530.072 344.964C530.072 343.592 530.414 342.533 531.098 341.786C531.786 341.034 532.736 340.658 533.947 340.658C535.104 340.658 536.005 340.987 536.649 341.646C537.294 342.306 537.616 343.216 537.616 344.378V345.462H532.335C532.36 346.097 532.548 346.593 532.899 346.949C533.251 347.306 533.744 347.484 534.379 347.484C534.872 347.484 535.338 347.433 535.778 347.33C536.217 347.228 536.676 347.064 537.155 346.839V348.568C536.764 348.763 536.347 348.907 535.902 349C535.458 349.098 534.916 349.146 534.276 349.146ZM543.988 340.658C544.955 340.658 545.712 341.036 546.259 341.793C546.806 342.545 547.079 343.578 547.079 344.891C547.079 346.244 546.796 347.291 546.229 348.033C545.668 348.775 544.901 349.146 543.93 349.146C542.968 349.146 542.213 348.797 541.667 348.099H541.513L541.139 349H539.433V337.604H541.667V340.255C541.667 340.592 541.637 341.131 541.579 341.874H541.667C542.189 341.063 542.963 340.658 543.988 340.658ZM543.271 342.445C542.719 342.445 542.316 342.616 542.062 342.958C541.808 343.294 541.676 343.854 541.667 344.635V344.876C541.667 345.755 541.796 346.385 542.055 346.766C542.318 347.147 542.733 347.337 543.3 347.337C543.759 347.337 544.123 347.127 544.391 346.708C544.665 346.283 544.801 345.667 544.801 344.862C544.801 344.056 544.665 343.453 544.391 343.053C544.118 342.647 543.744 342.445 543.271 342.445ZM548.2 345.895V344.063H552.133V345.895H548.2ZM558.886 347.367V342.489H557.208C557.086 343.397 556.918 344.259 556.703 345.074C556.493 345.89 556.2 346.654 555.824 347.367H558.886ZM562.321 351.937H560.314V349H554.806V351.937H552.799V347.367H553.488C553.957 346.639 554.35 345.721 554.667 344.613C554.984 343.504 555.207 342.237 555.333 340.812H561.12V347.367H562.321V351.937ZM565.88 340.812V344.049C565.88 344.391 565.824 345.226 565.712 346.554L569.491 340.812H572.179V349H570.019V345.733C570.019 345.152 570.067 344.332 570.165 343.272L566.4 349H563.72V340.812H565.88ZM576.566 343.961C577.411 343.961 578.009 343.893 578.361 343.756C578.717 343.619 578.896 343.402 578.896 343.104C578.896 342.84 578.766 342.643 578.507 342.511C578.249 342.379 577.821 342.313 577.226 342.313C576.85 342.313 576.422 342.359 575.944 342.452C575.47 342.545 575.038 342.672 574.647 342.833L573.988 341.273C574.569 341.053 575.133 340.897 575.68 340.804C576.227 340.707 576.837 340.658 577.511 340.658C578.532 340.658 579.35 340.853 579.965 341.244C580.58 341.634 580.888 342.164 580.888 342.833C580.888 343.756 580.343 344.356 579.254 344.635V344.708C579.923 344.874 580.399 345.111 580.683 345.418C580.971 345.721 581.115 346.119 581.115 346.612C581.115 347.11 580.954 347.552 580.631 347.938C580.309 348.324 579.843 348.622 579.232 348.832C578.622 349.042 577.904 349.146 577.079 349.146C575.712 349.146 574.662 348.978 573.93 348.641V346.795C574.35 346.991 574.809 347.145 575.307 347.257C575.81 347.369 576.295 347.425 576.764 347.425C577.492 347.425 578.036 347.345 578.397 347.184C578.759 347.018 578.939 346.783 578.939 346.48C578.939 346.148 578.749 345.904 578.368 345.748C577.987 345.587 577.401 345.506 576.61 345.506H575.746V343.961H576.566ZM588.065 349L587.633 347.887H587.575C587.199 348.36 586.811 348.69 586.41 348.875C586.015 349.056 585.497 349.146 584.857 349.146C584.071 349.146 583.451 348.922 582.997 348.473C582.548 348.023 582.323 347.384 582.323 346.554C582.323 345.685 582.626 345.045 583.231 344.635C583.842 344.22 584.76 343.99 585.985 343.946L587.406 343.902V343.543C587.406 342.713 586.981 342.298 586.132 342.298C585.478 342.298 584.708 342.496 583.825 342.892L583.085 341.383C584.027 340.89 585.072 340.643 586.22 340.643C587.318 340.643 588.161 340.882 588.747 341.361C589.333 341.839 589.625 342.567 589.625 343.543V349H588.065ZM587.406 345.206L586.542 345.235C585.893 345.255 585.409 345.372 585.092 345.587C584.774 345.802 584.616 346.129 584.616 346.568C584.616 347.198 584.977 347.513 585.7 347.513C586.217 347.513 586.63 347.364 586.938 347.066C587.25 346.769 587.406 346.373 587.406 345.88V345.206ZM594.093 340.812V344.049C594.093 344.391 594.037 345.226 593.925 346.554L597.704 340.812H600.392V349H598.231V345.733C598.231 345.152 598.28 344.332 598.378 343.272L594.613 349H591.933V340.812H594.093ZM599.733 337.289C599.64 338.202 599.296 338.868 598.7 339.288C598.104 339.703 597.245 339.911 596.122 339.911C594.965 339.911 594.108 339.71 593.551 339.31C593 338.91 592.689 338.236 592.621 337.289H594.621C594.655 337.792 594.779 338.146 594.994 338.351C595.214 338.551 595.604 338.651 596.166 338.651C596.659 338.651 597.025 338.541 597.265 338.321C597.509 338.097 597.658 337.752 597.711 337.289H599.733ZM604.977 340.812V343.961H608.097V340.812H610.331V349H608.097V345.624H604.977V349H602.743V340.812H604.977Z" fill="#145E82"/>
<rect x="486" y="386" width="202" height="28" stroke="#145E82" stroke-width="2"/>
<path d="M511.073 404.11H511.901C512.609 402.694 513.168 401.281 513.578 399.87C513.988 398.454 514.293 396.928 514.494 395.292H520.734V404.11H522.162V409.12H519.972V406H513.263V409.12H511.073V404.11ZM516.295 397.182C516.139 398.3 515.878 399.484 515.512 400.734C515.15 401.984 514.743 403.109 514.289 404.11H518.471V397.182H516.295ZM525.802 397.812V401.049C525.802 401.391 525.746 402.226 525.634 403.554L529.413 397.812H532.101V406H529.94V402.733C529.94 402.152 529.989 401.332 530.087 400.272L526.322 406H523.642V397.812H525.802ZM536.488 400.961C537.333 400.961 537.931 400.893 538.283 400.756C538.639 400.619 538.817 400.402 538.817 400.104C538.817 399.84 538.688 399.643 538.429 399.511C538.17 399.379 537.743 399.313 537.147 399.313C536.771 399.313 536.344 399.359 535.866 399.452C535.392 399.545 534.96 399.672 534.569 399.833L533.91 398.273C534.491 398.053 535.055 397.897 535.602 397.804C536.149 397.707 536.759 397.658 537.433 397.658C538.454 397.658 539.271 397.853 539.887 398.244C540.502 398.634 540.81 399.164 540.81 399.833C540.81 400.756 540.265 401.356 539.176 401.635V401.708C539.845 401.874 540.321 402.111 540.604 402.418C540.893 402.721 541.037 403.119 541.037 403.612C541.037 404.11 540.875 404.552 540.553 404.938C540.231 405.324 539.765 405.622 539.154 405.832C538.544 406.042 537.826 406.146 537.001 406.146C535.634 406.146 534.584 405.978 533.852 405.641V403.795C534.271 403.991 534.73 404.145 535.229 404.257C535.731 404.369 536.217 404.425 536.686 404.425C537.414 404.425 537.958 404.345 538.319 404.184C538.681 404.018 538.861 403.783 538.861 403.48C538.861 403.148 538.671 402.904 538.29 402.748C537.909 402.587 537.323 402.506 536.532 402.506H535.668V400.961H536.488ZM547.987 406L547.555 404.887H547.497C547.121 405.36 546.732 405.69 546.332 405.875C545.937 406.056 545.419 406.146 544.779 406.146C543.993 406.146 543.373 405.922 542.919 405.473C542.47 405.023 542.245 404.384 542.245 403.554C542.245 402.685 542.548 402.045 543.153 401.635C543.764 401.22 544.682 400.99 545.907 400.946L547.328 400.902V400.543C547.328 399.713 546.903 399.298 546.054 399.298C545.399 399.298 544.63 399.496 543.747 399.892L543.007 398.383C543.949 397.89 544.994 397.643 546.142 397.643C547.24 397.643 548.083 397.882 548.668 398.361C549.254 398.839 549.547 399.567 549.547 400.543V406H547.987ZM547.328 402.206L546.464 402.235C545.814 402.255 545.331 402.372 545.014 402.587C544.696 402.802 544.538 403.129 544.538 403.568C544.538 404.198 544.899 404.513 545.622 404.513C546.139 404.513 546.552 404.364 546.859 404.066C547.172 403.769 547.328 403.373 547.328 402.88V402.206ZM554.015 397.812V401.049C554.015 401.391 553.959 402.226 553.847 403.554L557.626 397.812H560.314V406H558.153V402.733C558.153 402.152 558.202 401.332 558.3 400.272L554.535 406H551.854V397.812H554.015ZM559.655 394.289C559.562 395.202 559.218 395.868 558.622 396.288C558.026 396.703 557.167 396.911 556.044 396.911C554.887 396.911 554.03 396.71 553.473 396.31C552.921 395.91 552.611 395.236 552.543 394.289H554.542C554.577 394.792 554.701 395.146 554.916 395.351C555.136 395.551 555.526 395.651 556.088 395.651C556.581 395.651 556.947 395.541 557.187 395.321C557.431 395.097 557.58 394.752 557.633 394.289H559.655ZM564.899 397.812V400.961H568.019V397.812H570.253V406H568.019V402.624H564.899V406H562.665V397.812H564.899ZM576.398 395.695C576.398 394.967 576.803 394.604 577.614 394.604C578.424 394.604 578.83 394.967 578.83 395.695C578.83 396.042 578.727 396.312 578.522 396.508C578.322 396.698 578.019 396.793 577.614 396.793C576.803 396.793 576.398 396.427 576.398 395.695ZM578.727 406H576.493V397.812H578.727V406ZM582.858 401.891C582.858 402.702 582.99 403.314 583.253 403.729C583.522 404.145 583.957 404.352 584.557 404.352C585.153 404.352 585.58 404.147 585.839 403.737C586.103 403.322 586.234 402.707 586.234 401.891C586.234 401.081 586.103 400.473 585.839 400.067C585.575 399.662 585.143 399.459 584.542 399.459C583.947 399.459 583.517 399.662 583.253 400.067C582.99 400.468 582.858 401.076 582.858 401.891ZM588.52 401.891C588.52 403.224 588.168 404.267 587.465 405.019C586.762 405.771 585.783 406.146 584.528 406.146C583.742 406.146 583.048 405.976 582.448 405.634C581.847 405.287 581.386 404.792 581.063 404.147C580.741 403.502 580.58 402.75 580.58 401.891C580.58 400.553 580.929 399.513 581.627 398.771C582.326 398.029 583.307 397.658 584.572 397.658C585.358 397.658 586.051 397.829 586.652 398.17C587.252 398.512 587.714 399.003 588.036 399.643C588.358 400.282 588.52 401.032 588.52 401.891ZM596.078 403.568C596.078 404.408 595.785 405.048 595.199 405.487C594.618 405.927 593.747 406.146 592.584 406.146C591.989 406.146 591.481 406.105 591.061 406.022C590.641 405.944 590.248 405.827 589.882 405.67V403.825C590.297 404.02 590.763 404.184 591.281 404.315C591.803 404.447 592.262 404.513 592.658 404.513C593.468 404.513 593.874 404.279 593.874 403.81C593.874 403.634 593.82 403.493 593.712 403.385C593.605 403.273 593.419 403.148 593.156 403.012C592.892 402.87 592.541 402.707 592.101 402.521C591.471 402.257 591.007 402.013 590.709 401.789C590.417 401.564 590.202 401.308 590.065 401.02C589.933 400.727 589.867 400.368 589.867 399.943C589.867 399.215 590.148 398.654 590.709 398.258C591.276 397.858 592.077 397.658 593.112 397.658C594.098 397.658 595.058 397.873 595.99 398.302L595.316 399.914C594.906 399.738 594.523 399.594 594.167 399.481C593.81 399.369 593.446 399.313 593.075 399.313C592.416 399.313 592.086 399.491 592.086 399.848C592.086 400.048 592.191 400.221 592.401 400.368C592.616 400.514 593.083 400.731 593.8 401.02C594.44 401.278 594.909 401.52 595.207 401.745C595.504 401.969 595.724 402.228 595.866 402.521C596.007 402.814 596.078 403.163 596.078 403.568ZM602.772 395.292L598.781 406H596.752L600.744 395.292H602.772ZM609.218 406L608.786 404.887H608.727C608.351 405.36 607.963 405.69 607.562 405.875C607.167 406.056 606.649 406.146 606.01 406.146C605.224 406.146 604.604 405.922 604.149 405.473C603.7 405.023 603.476 404.384 603.476 403.554C603.476 402.685 603.778 402.045 604.384 401.635C604.994 401.22 605.912 400.99 607.138 400.946L608.559 400.902V400.543C608.559 399.713 608.134 399.298 607.284 399.298C606.63 399.298 605.861 399.496 604.977 399.892L604.237 398.383C605.18 397.89 606.225 397.643 607.372 397.643C608.471 397.643 609.313 397.882 609.899 398.361C610.485 398.839 610.778 399.567 610.778 400.543V406H609.218ZM608.559 402.206L607.694 402.235C607.045 402.255 606.562 402.372 606.244 402.587C605.927 402.802 605.768 403.129 605.768 403.568C605.768 404.198 606.129 404.513 606.852 404.513C607.37 404.513 607.782 404.364 608.09 404.066C608.402 403.769 608.559 403.373 608.559 402.88V402.206ZM620.644 406H618.41V401.217C618.41 400.626 618.305 400.185 618.095 399.892C617.885 399.594 617.55 399.445 617.091 399.445C616.466 399.445 616.015 399.655 615.736 400.075C615.458 400.49 615.319 401.181 615.319 402.147V406H613.085V397.812H614.792L615.092 398.859H615.216C615.465 398.463 615.807 398.166 616.242 397.965C616.681 397.76 617.179 397.658 617.736 397.658C618.688 397.658 619.411 397.917 619.904 398.434C620.397 398.947 620.644 399.689 620.644 400.661V406ZM625.536 406.146C624.574 406.146 623.817 405.773 623.266 405.026C622.719 404.279 622.445 403.244 622.445 401.92C622.445 400.578 622.724 399.533 623.28 398.786C623.842 398.034 624.613 397.658 625.595 397.658C626.625 397.658 627.411 398.058 627.953 398.859H628.026C627.914 398.249 627.858 397.704 627.858 397.226V394.604H630.099V406H628.385L627.953 404.938H627.858C627.35 405.744 626.576 406.146 625.536 406.146ZM626.32 404.367C626.891 404.367 627.309 404.201 627.572 403.869C627.841 403.537 627.987 402.973 628.012 402.177V401.935C628.012 401.056 627.875 400.426 627.602 400.045C627.333 399.665 626.894 399.474 626.283 399.474C625.785 399.474 625.397 399.687 625.119 400.111C624.845 400.531 624.708 401.144 624.708 401.95C624.708 402.755 624.848 403.361 625.126 403.766C625.404 404.167 625.802 404.367 626.32 404.367ZM637.006 397.658C637.309 397.658 637.56 397.68 637.76 397.724L637.592 399.818C637.411 399.77 637.191 399.745 636.933 399.745C636.22 399.745 635.663 399.928 635.263 400.294C634.867 400.661 634.669 401.173 634.669 401.833V406H632.436V397.812H634.127L634.457 399.188H634.567C634.821 398.729 635.163 398.361 635.592 398.083C636.027 397.799 636.498 397.658 637.006 397.658ZM641.027 401.891C641.027 402.702 641.159 403.314 641.422 403.729C641.691 404.145 642.125 404.352 642.726 404.352C643.322 404.352 643.749 404.147 644.008 403.737C644.271 403.322 644.403 402.707 644.403 401.891C644.403 401.081 644.271 400.473 644.008 400.067C643.744 399.662 643.312 399.459 642.711 399.459C642.116 399.459 641.686 399.662 641.422 400.067C641.159 400.468 641.027 401.076 641.027 401.891ZM646.688 401.891C646.688 403.224 646.337 404.267 645.634 405.019C644.931 405.771 643.952 406.146 642.697 406.146C641.911 406.146 641.217 405.976 640.617 405.634C640.016 405.287 639.555 404.792 639.232 404.147C638.91 403.502 638.749 402.75 638.749 401.891C638.749 400.553 639.098 399.513 639.796 398.771C640.495 398.029 641.476 397.658 642.741 397.658C643.527 397.658 644.22 397.829 644.821 398.17C645.421 398.512 645.883 399.003 646.205 399.643C646.527 400.282 646.688 401.032 646.688 401.891ZM648.439 395.695C648.439 394.967 648.844 394.604 649.655 394.604C650.465 394.604 650.871 394.967 650.871 395.695C650.871 396.042 650.768 396.312 650.563 396.508C650.363 396.698 650.06 396.793 649.655 396.793C648.844 396.793 648.439 396.427 648.439 395.695ZM650.768 406H648.534V397.812H650.768V406ZM655.712 406.146C654.75 406.146 653.993 405.773 653.441 405.026C652.895 404.279 652.621 403.244 652.621 401.92C652.621 400.578 652.899 399.533 653.456 398.786C654.018 398.034 654.789 397.658 655.771 397.658C656.801 397.658 657.587 398.058 658.129 398.859H658.202C658.09 398.249 658.034 397.704 658.034 397.226V394.604H660.275V406H658.561L658.129 404.938H658.034C657.526 405.744 656.752 406.146 655.712 406.146ZM656.496 404.367C657.067 404.367 657.484 404.201 657.748 403.869C658.017 403.537 658.163 402.973 658.188 402.177V401.935C658.188 401.056 658.051 400.426 657.777 400.045C657.509 399.665 657.069 399.474 656.459 399.474C655.961 399.474 655.573 399.687 655.294 400.111C655.021 400.531 654.884 401.144 654.884 401.95C654.884 402.755 655.023 403.361 655.302 403.766C655.58 404.167 655.978 404.367 656.496 404.367Z" fill="#145E82"/>
<rect x="598" y="139" width="172.202" height="28" stroke="#CCCCCC" stroke-width="2"/>
<path d="M627.618 153.331H628.365C629.063 153.331 629.586 153.194 629.933 152.921C630.279 152.643 630.453 152.24 630.453 151.712C630.453 151.18 630.306 150.787 630.013 150.533C629.725 150.279 629.271 150.152 628.651 150.152H627.618V153.331ZM632.745 151.632C632.745 152.784 632.384 153.666 631.661 154.276C630.943 154.886 629.92 155.191 628.592 155.191H627.618V159H625.348V148.292H628.768C630.067 148.292 631.053 148.573 631.727 149.134C632.406 149.691 632.745 150.523 632.745 151.632ZM642.149 159H639.916V154.217C639.916 153.036 639.476 152.445 638.597 152.445C637.972 152.445 637.521 152.657 637.242 153.082C636.964 153.507 636.825 154.195 636.825 155.147V159H634.591V147.604H636.825V149.925C636.825 150.106 636.808 150.531 636.773 151.2L636.722 151.859H636.839C637.337 151.058 638.128 150.658 639.212 150.658C640.174 150.658 640.904 150.917 641.402 151.434C641.9 151.952 642.149 152.694 642.149 153.661V159ZM646.229 154.891C646.229 155.702 646.361 156.314 646.625 156.729C646.893 157.145 647.328 157.352 647.928 157.352C648.524 157.352 648.951 157.147 649.21 156.737C649.474 156.322 649.605 155.707 649.605 154.891C649.605 154.081 649.474 153.473 649.21 153.067C648.946 152.662 648.514 152.459 647.914 152.459C647.318 152.459 646.888 152.662 646.625 153.067C646.361 153.468 646.229 154.076 646.229 154.891ZM651.891 154.891C651.891 156.224 651.539 157.267 650.836 158.019C650.133 158.771 649.154 159.146 647.899 159.146C647.113 159.146 646.419 158.976 645.819 158.634C645.218 158.287 644.757 157.792 644.435 157.147C644.112 156.502 643.951 155.75 643.951 154.891C643.951 153.553 644.3 152.513 644.999 151.771C645.697 151.029 646.678 150.658 647.943 150.658C648.729 150.658 649.422 150.829 650.023 151.17C650.624 151.512 651.085 152.003 651.407 152.643C651.729 153.282 651.891 154.032 651.891 154.891ZM657.186 157.367C657.577 157.367 658.045 157.281 658.592 157.11V158.773C658.036 159.022 657.352 159.146 656.542 159.146C655.648 159.146 654.996 158.922 654.586 158.473C654.181 158.019 653.978 157.34 653.978 156.437V152.489H652.909V151.544L654.139 150.797L654.784 149.068H656.212V150.812H658.504V152.489H656.212V156.437C656.212 156.754 656.3 156.988 656.476 157.14C656.656 157.291 656.893 157.367 657.186 157.367ZM662.035 154.891C662.035 155.702 662.167 156.314 662.43 156.729C662.699 157.145 663.133 157.352 663.734 157.352C664.33 157.352 664.757 157.147 665.016 156.737C665.279 156.322 665.411 155.707 665.411 154.891C665.411 154.081 665.279 153.473 665.016 153.067C664.752 152.662 664.32 152.459 663.719 152.459C663.124 152.459 662.694 152.662 662.43 153.067C662.167 153.468 662.035 154.076 662.035 154.891ZM667.696 154.891C667.696 156.224 667.345 157.267 666.642 158.019C665.938 158.771 664.959 159.146 663.705 159.146C662.918 159.146 662.225 158.976 661.625 158.634C661.024 158.287 660.562 157.792 660.24 157.147C659.918 156.502 659.757 155.75 659.757 154.891C659.757 153.553 660.106 152.513 660.804 151.771C661.502 151.029 662.484 150.658 663.749 150.658C664.535 150.658 665.228 150.829 665.829 151.17C666.429 151.512 666.891 152.003 667.213 152.643C667.535 153.282 667.696 154.032 667.696 154.891ZM675.255 156.568C675.255 157.408 674.962 158.048 674.376 158.487C673.795 158.927 672.923 159.146 671.761 159.146C671.166 159.146 670.658 159.105 670.238 159.022C669.818 158.944 669.425 158.827 669.059 158.67V156.825C669.474 157.02 669.94 157.184 670.458 157.315C670.98 157.447 671.439 157.513 671.834 157.513C672.645 157.513 673.05 157.279 673.05 156.81C673.05 156.634 672.997 156.493 672.889 156.385C672.782 156.273 672.596 156.148 672.333 156.012C672.069 155.87 671.717 155.707 671.278 155.521C670.648 155.257 670.184 155.013 669.886 154.789C669.593 154.564 669.378 154.308 669.242 154.02C669.11 153.727 669.044 153.368 669.044 152.943C669.044 152.215 669.325 151.654 669.886 151.258C670.453 150.858 671.253 150.658 672.289 150.658C673.275 150.658 674.234 150.873 675.167 151.302L674.493 152.914C674.083 152.738 673.7 152.594 673.343 152.481C672.987 152.369 672.623 152.313 672.252 152.313C671.593 152.313 671.263 152.491 671.263 152.848C671.263 153.048 671.368 153.221 671.578 153.368C671.793 153.514 672.259 153.731 672.977 154.02C673.617 154.278 674.085 154.52 674.383 154.745C674.681 154.969 674.901 155.228 675.042 155.521C675.184 155.814 675.255 156.163 675.255 156.568ZM684.557 159H682.323V154.217C682.323 153.036 681.883 152.445 681.004 152.445C680.379 152.445 679.928 152.657 679.649 153.082C679.371 153.507 679.232 154.195 679.232 155.147V159H676.998V147.604H679.232V149.925C679.232 150.106 679.215 150.531 679.181 151.2L679.129 151.859H679.247C679.745 151.058 680.536 150.658 681.62 150.658C682.582 150.658 683.312 150.917 683.81 151.434C684.308 151.952 684.557 152.694 684.557 153.661V159ZM688.636 154.891C688.636 155.702 688.768 156.314 689.032 156.729C689.3 157.145 689.735 157.352 690.335 157.352C690.931 157.352 691.358 157.147 691.617 156.737C691.881 156.322 692.013 155.707 692.013 154.891C692.013 154.081 691.881 153.473 691.617 153.067C691.354 152.662 690.921 152.459 690.321 152.459C689.725 152.459 689.295 152.662 689.032 153.067C688.768 153.468 688.636 154.076 688.636 154.891ZM694.298 154.891C694.298 156.224 693.946 157.267 693.243 158.019C692.54 158.771 691.561 159.146 690.306 159.146C689.52 159.146 688.827 158.976 688.226 158.634C687.625 158.287 687.164 157.792 686.842 157.147C686.52 156.502 686.358 155.75 686.358 154.891C686.358 153.553 686.708 152.513 687.406 151.771C688.104 151.029 689.085 150.658 690.35 150.658C691.136 150.658 691.83 150.829 692.43 151.17C693.031 151.512 693.492 152.003 693.814 152.643C694.137 153.282 694.298 154.032 694.298 154.891ZM700.641 159.146C699.679 159.146 698.924 158.797 698.377 158.099H698.26C698.338 158.783 698.377 159.178 698.377 159.286V162.604H696.144V150.812H697.96L698.275 151.874H698.377C698.9 151.063 699.674 150.658 700.699 150.658C701.666 150.658 702.423 151.031 702.97 151.778C703.517 152.525 703.79 153.563 703.79 154.891C703.79 155.765 703.661 156.524 703.402 157.169C703.148 157.813 702.784 158.304 702.311 158.641C701.837 158.978 701.28 159.146 700.641 159.146ZM699.981 152.445C699.43 152.445 699.027 152.616 698.773 152.958C698.519 153.294 698.387 153.854 698.377 154.635V154.876C698.377 155.755 698.507 156.385 698.766 156.766C699.029 157.147 699.444 157.337 700.011 157.337C701.012 157.337 701.512 156.512 701.512 154.862C701.512 154.056 701.388 153.453 701.139 153.053C700.895 152.647 700.509 152.445 699.981 152.445ZM711.979 153.331H712.726C713.424 153.331 713.946 153.194 714.293 152.921C714.64 152.643 714.813 152.24 714.813 151.712C714.813 151.18 714.667 150.787 714.374 150.533C714.085 150.279 713.631 150.152 713.011 150.152H711.979V153.331ZM717.105 151.632C717.105 152.784 716.744 153.666 716.021 154.276C715.304 154.886 714.281 155.191 712.953 155.191H711.979V159H709.708V148.292H713.128C714.427 148.292 715.414 148.573 716.087 149.134C716.766 149.691 717.105 150.523 717.105 151.632ZM721.397 153.045H722.13C722.848 153.045 723.377 152.926 723.719 152.687C724.061 152.447 724.232 152.071 724.232 151.559C724.232 151.051 724.056 150.689 723.705 150.475C723.358 150.26 722.818 150.152 722.086 150.152H721.397V153.045ZM721.397 154.891V159H719.127V148.292H722.247C723.702 148.292 724.779 148.558 725.477 149.09C726.175 149.618 726.524 150.421 726.524 151.5C726.524 152.13 726.351 152.691 726.004 153.185C725.658 153.673 725.167 154.056 724.532 154.334C726.144 156.742 727.193 158.297 727.682 159H725.162L722.606 154.891H721.397ZM738.749 153.631C738.749 155.404 738.309 156.766 737.43 157.718C736.551 158.67 735.292 159.146 733.651 159.146C732.01 159.146 730.75 158.67 729.872 157.718C728.993 156.766 728.553 155.399 728.553 153.617C728.553 151.834 728.993 150.475 729.872 149.537C730.755 148.595 732.02 148.124 733.666 148.124C735.311 148.124 736.568 148.597 737.438 149.544C738.312 150.492 738.749 151.854 738.749 153.631ZM730.934 153.631C730.934 154.828 731.161 155.729 731.615 156.334C732.069 156.939 732.748 157.242 733.651 157.242C735.462 157.242 736.368 156.039 736.368 153.631C736.368 151.219 735.467 150.013 733.666 150.013C732.762 150.013 732.081 150.318 731.622 150.929C731.163 151.534 730.934 152.435 730.934 153.631Z" fill="#CCCCCC"/>
<rect x="544" y="58" width="207" height="28" stroke="#145E82" stroke-width="2"/>
<path d="M578.822 78H576.559V69.1816H572.618V78H570.348V67.292H578.822V78ZM585.846 78.1465C584.884 78.1465 584.129 77.7974 583.583 77.0991H583.465C583.543 77.7827 583.583 78.1782 583.583 78.2856V81.6035H581.349V69.8115H583.165L583.48 70.8735H583.583C584.105 70.063 584.879 69.6577 585.904 69.6577C586.871 69.6577 587.628 70.0312 588.175 70.7783C588.722 71.5254 588.995 72.563 588.995 73.8911C588.995 74.7651 588.866 75.5244 588.607 76.1689C588.353 76.8135 587.989 77.3042 587.516 77.6411C587.042 77.978 586.485 78.1465 585.846 78.1465ZM585.187 71.4448C584.635 71.4448 584.232 71.6157 583.978 71.9575C583.724 72.2944 583.592 72.8535 583.583 73.6348V73.8765C583.583 74.7554 583.712 75.3853 583.971 75.7661C584.234 76.147 584.649 76.3374 585.216 76.3374C586.217 76.3374 586.717 75.5122 586.717 73.8618C586.717 73.0562 586.593 72.4531 586.344 72.0527C586.1 71.6475 585.714 71.4448 585.187 71.4448ZM592.621 73.8911C592.621 74.7017 592.752 75.3145 593.016 75.7295C593.285 76.1445 593.719 76.3521 594.32 76.3521C594.916 76.3521 595.343 76.147 595.602 75.7368C595.865 75.3218 595.997 74.7065 595.997 73.8911C595.997 73.0806 595.865 72.4727 595.602 72.0674C595.338 71.6621 594.906 71.4595 594.305 71.4595C593.709 71.4595 593.28 71.6621 593.016 72.0674C592.752 72.4678 592.621 73.0757 592.621 73.8911ZM598.282 73.8911C598.282 75.2241 597.931 76.2666 597.228 77.0186C596.524 77.7705 595.545 78.1465 594.291 78.1465C593.504 78.1465 592.811 77.9756 592.21 77.6338C591.61 77.2871 591.148 76.7915 590.826 76.147C590.504 75.5024 590.343 74.7505 590.343 73.8911C590.343 72.5532 590.692 71.5132 591.39 70.771C592.088 70.0288 593.07 69.6577 594.334 69.6577C595.121 69.6577 595.814 69.8286 596.415 70.1704C597.015 70.5122 597.477 71.0029 597.799 71.6426C598.121 72.2822 598.282 73.0317 598.282 73.8911ZM606.903 69.8115V71.4888H604.222V78H601.988V71.4888H599.3V69.8115H606.903ZM610.213 73.8911C610.213 74.7017 610.345 75.3145 610.609 75.7295C610.877 76.1445 611.312 76.3521 611.913 76.3521C612.508 76.3521 612.936 76.147 613.194 75.7368C613.458 75.3218 613.59 74.7065 613.59 73.8911C613.59 73.0806 613.458 72.4727 613.194 72.0674C612.931 71.6621 612.499 71.4595 611.898 71.4595C611.302 71.4595 610.873 71.6621 610.609 72.0674C610.345 72.4678 610.213 73.0757 610.213 73.8911ZM615.875 73.8911C615.875 75.2241 615.523 76.2666 614.82 77.0186C614.117 77.7705 613.138 78.1465 611.883 78.1465C611.097 78.1465 610.404 77.9756 609.803 77.6338C609.203 77.2871 608.741 76.7915 608.419 76.147C608.097 75.5024 607.936 74.7505 607.936 73.8911C607.936 72.5532 608.285 71.5132 608.983 70.771C609.681 70.0288 610.663 69.6577 611.927 69.6577C612.713 69.6577 613.407 69.8286 614.007 70.1704C614.608 70.5122 615.069 71.0029 615.392 71.6426C615.714 72.2822 615.875 73.0317 615.875 73.8911ZM624.496 69.8115V71.4888H621.815V78H619.581V71.4888H616.893V69.8115H624.496ZM628.187 69.8115V73.0488C628.187 73.3906 628.131 74.2256 628.019 75.5537L631.798 69.8115H634.486V78H632.325V74.7334C632.325 74.1523 632.374 73.332 632.472 72.2725L628.707 78H626.026V69.8115H628.187ZM644.278 69.8115V78H642.037V71.4888H639.071V78H636.837V69.8115H644.278ZM648.783 69.8115V73.0488C648.783 73.3906 648.727 74.2256 648.614 75.5537L652.394 69.8115H655.082V78H652.921V74.7334C652.921 74.1523 652.97 73.332 653.067 72.2725L649.303 78H646.622V69.8115H648.783ZM661.93 78.1465C660.968 78.1465 660.213 77.7974 659.667 77.0991H659.549C659.627 77.7827 659.667 78.1782 659.667 78.2856V81.6035H657.433V69.8115H659.249L659.564 70.8735H659.667C660.189 70.063 660.963 69.6577 661.988 69.6577C662.955 69.6577 663.712 70.0312 664.259 70.7783C664.806 71.5254 665.079 72.563 665.079 73.8911C665.079 74.7651 664.95 75.5244 664.691 76.1689C664.437 76.8135 664.073 77.3042 663.6 77.6411C663.126 77.978 662.569 78.1465 661.93 78.1465ZM661.271 71.4448C660.719 71.4448 660.316 71.6157 660.062 71.9575C659.808 72.2944 659.676 72.8535 659.667 73.6348V73.8765C659.667 74.7554 659.796 75.3853 660.055 75.7661C660.318 76.147 660.733 76.3374 661.3 76.3374C662.301 76.3374 662.801 75.5122 662.801 73.8618C662.801 73.0562 662.677 72.4531 662.428 72.0527C662.184 71.6475 661.798 71.4448 661.271 71.4448ZM668.705 73.8911C668.705 74.7017 668.836 75.3145 669.1 75.7295C669.369 76.1445 669.803 76.3521 670.404 76.3521C671 76.3521 671.427 76.147 671.686 75.7368C671.949 75.3218 672.081 74.7065 672.081 73.8911C672.081 73.0806 671.949 72.4727 671.686 72.0674C671.422 71.6621 670.99 71.4595 670.389 71.4595C669.793 71.4595 669.364 71.6621 669.1 72.0674C668.836 72.4678 668.705 73.0757 668.705 73.8911ZM674.366 73.8911C674.366 75.2241 674.015 76.2666 673.312 77.0186C672.608 77.7705 671.629 78.1465 670.375 78.1465C669.588 78.1465 668.895 77.9756 668.294 77.6338C667.694 77.2871 667.232 76.7915 666.91 76.147C666.588 75.5024 666.427 74.7505 666.427 73.8911C666.427 72.5532 666.776 71.5132 667.474 70.771C668.172 70.0288 669.154 69.6577 670.418 69.6577C671.205 69.6577 671.898 69.8286 672.499 70.1704C673.099 70.5122 673.561 71.0029 673.883 71.6426C674.205 72.2822 674.366 73.0317 674.366 73.8911ZM683.771 71.9575C683.771 72.397 683.631 72.7729 683.353 73.0854C683.08 73.3931 682.674 73.5908 682.137 73.6787V73.7373C682.718 73.8057 683.177 74.0059 683.514 74.3379C683.856 74.665 684.027 75.0703 684.027 75.5537C684.027 76.3496 683.714 76.9575 683.089 77.3774C682.464 77.7925 681.571 78 680.409 78H676.212V69.8115H680.409C681.532 69.8115 682.372 69.9946 682.928 70.3608C683.49 70.7222 683.771 71.2544 683.771 71.9575ZM681.712 75.4365C681.712 75.1143 681.588 74.8823 681.339 74.7407C681.09 74.5942 680.716 74.521 680.218 74.521H678.446V76.4546H680.262C680.736 76.4546 681.095 76.3667 681.339 76.1909C681.588 76.0103 681.712 75.7588 681.712 75.4365ZM681.507 72.1333C681.507 71.6353 681.112 71.3862 680.321 71.3862H678.446V73.0049H680.064C680.538 73.0049 680.897 72.9365 681.141 72.7998C681.385 72.6631 681.507 72.4409 681.507 72.1333ZM691.007 78L690.575 76.8867H690.516C690.14 77.3604 689.752 77.6899 689.352 77.8755C688.956 78.0562 688.438 78.1465 687.799 78.1465C687.013 78.1465 686.393 77.9219 685.938 77.4727C685.489 77.0234 685.265 76.3838 685.265 75.5537C685.265 74.6846 685.567 74.0449 686.173 73.6348C686.783 73.2197 687.701 72.9902 688.927 72.9463L690.348 72.9023V72.5435C690.348 71.7134 689.923 71.2983 689.073 71.2983C688.419 71.2983 687.65 71.4961 686.766 71.8916L686.026 70.3828C686.969 69.8896 688.014 69.6431 689.161 69.6431C690.26 69.6431 691.102 69.8823 691.688 70.3608C692.274 70.8394 692.567 71.5669 692.567 72.5435V78H691.007ZM690.348 74.2061L689.483 74.2354C688.834 74.2549 688.351 74.3721 688.033 74.5869C687.716 74.8018 687.557 75.1289 687.557 75.5684C687.557 76.1982 687.918 76.5132 688.641 76.5132C689.159 76.5132 689.571 76.3643 689.879 76.0664C690.191 75.7686 690.348 75.373 690.348 74.8799V74.2061ZM697.108 69.8115V72.9609H700.228V69.8115H702.462V78H700.228V74.6235H697.108V78H694.874V69.8115H697.108ZM706.966 69.8115V73.0488C706.966 73.3906 706.91 74.2256 706.798 75.5537L710.577 69.8115H713.265V78H711.104V74.7334C711.104 74.1523 711.153 73.332 711.251 72.2725L707.486 78H704.806V69.8115H706.966ZM719.007 71.2471C718.534 71.2471 718.163 71.3984 717.894 71.7012C717.625 71.999 717.472 72.4238 717.433 72.9756H720.567C720.558 72.4238 720.414 71.999 720.135 71.7012C719.857 71.3984 719.481 71.2471 719.007 71.2471ZM719.322 78.1465C718.004 78.1465 716.974 77.7827 716.231 77.0552C715.489 76.3276 715.118 75.2974 715.118 73.9644C715.118 72.5923 715.46 71.5327 716.144 70.7856C716.832 70.0337 717.782 69.6577 718.993 69.6577C720.15 69.6577 721.051 69.9873 721.695 70.6465C722.34 71.3057 722.662 72.2163 722.662 73.3784V74.4624H717.381C717.406 75.0972 717.594 75.5928 717.945 75.9492C718.297 76.3057 718.79 76.4839 719.425 76.4839C719.918 76.4839 720.384 76.4326 720.824 76.3301C721.263 76.2275 721.722 76.064 722.201 75.8394V77.5679C721.81 77.7632 721.393 77.9072 720.948 78C720.504 78.0977 719.962 78.1465 719.322 78.1465Z" fill="#145E82"/>
<rect x="403" y="196" width="92" height="28" stroke="#145E82" stroke-width="2"/>
<path d="M427.582 216H425.348V205.292H431.485V207.152H427.582V209.914H431.214V211.767H427.582V216ZM433.309 205.695C433.309 204.967 433.714 204.604 434.525 204.604C435.335 204.604 435.741 204.967 435.741 205.695C435.741 206.042 435.638 206.312 435.433 206.508C435.233 206.698 434.93 206.793 434.525 206.793C433.714 206.793 433.309 206.427 433.309 205.695ZM435.638 216H433.404V207.812H435.638V216ZM445.116 207.812V208.947L443.834 209.276C444.068 209.643 444.186 210.053 444.186 210.507C444.186 211.386 443.878 212.072 443.263 212.565C442.652 213.053 441.803 213.297 440.714 213.297L440.311 213.275L439.981 213.239C439.752 213.415 439.637 213.61 439.637 213.825C439.637 214.147 440.047 214.308 440.868 214.308H442.259C443.158 214.308 443.841 214.501 444.31 214.887C444.784 215.272 445.021 215.839 445.021 216.586C445.021 217.543 444.62 218.285 443.819 218.812C443.023 219.34 441.878 219.604 440.384 219.604C439.242 219.604 438.368 219.403 437.762 219.003C437.162 218.607 436.861 218.051 436.861 217.333C436.861 216.84 437.015 216.427 437.323 216.095C437.63 215.763 438.082 215.526 438.678 215.385C438.448 215.287 438.248 215.128 438.077 214.909C437.906 214.684 437.821 214.447 437.821 214.198C437.821 213.886 437.911 213.627 438.092 213.422C438.272 213.212 438.534 213.007 438.875 212.807C438.446 212.621 438.104 212.323 437.85 211.913C437.601 211.503 437.477 211.02 437.477 210.463C437.477 209.569 437.767 208.878 438.348 208.39C438.929 207.902 439.759 207.658 440.838 207.658C441.068 207.658 441.339 207.68 441.651 207.724C441.969 207.763 442.171 207.792 442.259 207.812H445.116ZM438.795 217.157C438.795 217.465 438.941 217.707 439.234 217.882C439.532 218.058 439.947 218.146 440.479 218.146C441.28 218.146 441.908 218.036 442.362 217.816C442.816 217.597 443.043 217.296 443.043 216.916C443.043 216.608 442.909 216.396 442.64 216.278C442.372 216.161 441.957 216.103 441.395 216.103H440.238C439.828 216.103 439.483 216.198 439.205 216.388C438.932 216.583 438.795 216.84 438.795 217.157ZM439.608 210.492C439.608 210.937 439.708 211.288 439.908 211.547C440.113 211.806 440.423 211.935 440.838 211.935C441.258 211.935 441.566 211.806 441.761 211.547C441.957 211.288 442.054 210.937 442.054 210.492C442.054 209.506 441.649 209.013 440.838 209.013C440.018 209.013 439.608 209.506 439.608 210.492ZM453.802 216H451.568V211.217C451.568 210.626 451.468 210.185 451.268 209.892C451.073 209.594 450.763 209.445 450.338 209.445C449.767 209.445 449.352 209.655 449.093 210.075C448.834 210.495 448.705 211.186 448.705 212.147V216H446.471V207.812H448.177L448.478 208.859H448.602C448.822 208.483 449.139 208.19 449.554 207.98C449.969 207.765 450.445 207.658 450.982 207.658C452.208 207.658 453.038 208.058 453.473 208.859H453.67C453.89 208.478 454.212 208.183 454.637 207.973C455.067 207.763 455.55 207.658 456.087 207.658C457.015 207.658 457.716 207.897 458.189 208.375C458.668 208.849 458.907 209.611 458.907 210.661V216H456.666V211.217C456.666 210.626 456.566 210.185 456.366 209.892C456.17 209.594 455.86 209.445 455.436 209.445C454.889 209.445 454.479 209.64 454.205 210.031C453.937 210.421 453.802 211.042 453.802 211.891V216ZM466.407 216L465.975 214.887H465.917C465.541 215.36 465.152 215.69 464.752 215.875C464.356 216.056 463.839 216.146 463.199 216.146C462.413 216.146 461.793 215.922 461.339 215.473C460.89 215.023 460.665 214.384 460.665 213.554C460.665 212.685 460.968 212.045 461.573 211.635C462.184 211.22 463.102 210.99 464.327 210.946L465.748 210.902V210.543C465.748 209.713 465.323 209.298 464.474 209.298C463.819 209.298 463.05 209.496 462.167 209.892L461.427 208.383C462.369 207.89 463.414 207.643 464.562 207.643C465.66 207.643 466.502 207.882 467.088 208.361C467.674 208.839 467.967 209.567 467.967 210.543V216H466.407ZM465.748 212.206L464.884 212.235C464.234 212.255 463.751 212.372 463.434 212.587C463.116 212.802 462.958 213.129 462.958 213.568C462.958 214.198 463.319 214.513 464.042 214.513C464.559 214.513 464.972 214.364 465.279 214.066C465.592 213.769 465.748 213.373 465.748 212.88V212.206Z" fill="#145E82"/>
<rect x="403" y="253" width="110.264" height="28" stroke="#145E82" stroke-width="2"/>
<path d="M418.348 273V262.292H420.618V273H418.348ZM425.372 273H423.138V261.604H425.372V273ZM429.957 273H427.723V261.604H429.957V273ZM438.108 273L437.808 271.953H437.691C437.452 272.333 437.112 272.629 436.673 272.839C436.233 273.044 435.733 273.146 435.171 273.146C434.209 273.146 433.484 272.89 432.996 272.377C432.508 271.86 432.264 271.118 432.264 270.151V264.812H434.498V269.594C434.498 270.185 434.603 270.629 434.812 270.927C435.022 271.22 435.357 271.367 435.816 271.367C436.441 271.367 436.893 271.159 437.171 270.744C437.449 270.324 437.588 269.631 437.588 268.664V264.812H439.822V273H438.108ZM447.879 270.568C447.879 271.408 447.586 272.048 447 272.487C446.419 272.927 445.547 273.146 444.385 273.146C443.79 273.146 443.282 273.105 442.862 273.022C442.442 272.944 442.049 272.827 441.683 272.67V270.825C442.098 271.02 442.564 271.184 443.082 271.315C443.604 271.447 444.063 271.513 444.458 271.513C445.269 271.513 445.674 271.279 445.674 270.81C445.674 270.634 445.621 270.493 445.513 270.385C445.406 270.273 445.22 270.148 444.957 270.012C444.693 269.87 444.341 269.707 443.902 269.521C443.272 269.257 442.808 269.013 442.51 268.789C442.217 268.564 442.002 268.308 441.866 268.02C441.734 267.727 441.668 267.368 441.668 266.943C441.668 266.215 441.949 265.654 442.51 265.258C443.077 264.858 443.877 264.658 444.913 264.658C445.899 264.658 446.858 264.873 447.791 265.302L447.117 266.914C446.707 266.738 446.324 266.594 445.967 266.481C445.611 266.369 445.247 266.313 444.876 266.313C444.217 266.313 443.887 266.491 443.887 266.848C443.887 267.048 443.992 267.221 444.202 267.368C444.417 267.514 444.883 267.731 445.601 268.02C446.241 268.278 446.709 268.52 447.007 268.745C447.305 268.969 447.525 269.228 447.667 269.521C447.808 269.814 447.879 270.163 447.879 270.568ZM453.072 271.367C453.462 271.367 453.931 271.281 454.478 271.11V272.773C453.921 273.022 453.238 273.146 452.427 273.146C451.534 273.146 450.882 272.922 450.472 272.473C450.066 272.019 449.864 271.34 449.864 270.437V266.489H448.794V265.544L450.025 264.797L450.669 263.068H452.098V264.812H454.39V266.489H452.098V270.437C452.098 270.754 452.186 270.988 452.361 271.14C452.542 271.291 452.779 271.367 453.072 271.367ZM460.711 264.658C461.014 264.658 461.265 264.68 461.465 264.724L461.297 266.818C461.116 266.77 460.896 266.745 460.638 266.745C459.925 266.745 459.368 266.928 458.968 267.294C458.572 267.661 458.375 268.173 458.375 268.833V273H456.141V264.812H457.833L458.162 266.188H458.272C458.526 265.729 458.868 265.361 459.297 265.083C459.732 264.799 460.203 264.658 460.711 264.658ZM468.152 273L467.72 271.887H467.662C467.286 272.36 466.897 272.69 466.497 272.875C466.102 273.056 465.584 273.146 464.944 273.146C464.158 273.146 463.538 272.922 463.084 272.473C462.635 272.023 462.41 271.384 462.41 270.554C462.41 269.685 462.713 269.045 463.318 268.635C463.929 268.22 464.847 267.99 466.072 267.946L467.493 267.902V267.543C467.493 266.713 467.068 266.298 466.219 266.298C465.564 266.298 464.795 266.496 463.912 266.892L463.172 265.383C464.114 264.89 465.159 264.643 466.307 264.643C467.405 264.643 468.248 264.882 468.833 265.361C469.419 265.839 469.712 266.567 469.712 267.543V273H468.152ZM467.493 269.206L466.629 269.235C465.979 269.255 465.496 269.372 465.179 269.587C464.861 269.802 464.703 270.129 464.703 270.568C464.703 271.198 465.064 271.513 465.787 271.513C466.304 271.513 466.717 271.364 467.024 271.066C467.337 270.769 467.493 270.373 467.493 269.88V269.206ZM475.469 271.367C475.86 271.367 476.329 271.281 476.875 271.11V272.773C476.319 273.022 475.635 273.146 474.825 273.146C473.931 273.146 473.279 272.922 472.869 272.473C472.464 272.019 472.261 271.34 472.261 270.437V266.489H471.192V265.544L472.422 264.797L473.067 263.068H474.495V264.812H476.788V266.489H474.495V270.437C474.495 270.754 474.583 270.988 474.759 271.14C474.939 271.291 475.176 271.367 475.469 271.367ZM480.318 268.891C480.318 269.702 480.45 270.314 480.713 270.729C480.982 271.145 481.417 271.352 482.017 271.352C482.613 271.352 483.04 271.147 483.299 270.737C483.562 270.322 483.694 269.707 483.694 268.891C483.694 268.081 483.562 267.473 483.299 267.067C483.035 266.662 482.603 266.459 482.002 266.459C481.407 266.459 480.977 266.662 480.713 267.067C480.45 267.468 480.318 268.076 480.318 268.891ZM485.979 268.891C485.979 270.224 485.628 271.267 484.925 272.019C484.222 272.771 483.243 273.146 481.988 273.146C481.202 273.146 480.508 272.976 479.908 272.634C479.307 272.287 478.846 271.792 478.523 271.147C478.201 270.502 478.04 269.75 478.04 268.891C478.04 267.553 478.389 266.513 479.087 265.771C479.786 265.029 480.767 264.658 482.032 264.658C482.818 264.658 483.511 264.829 484.112 265.17C484.712 265.512 485.174 266.003 485.496 266.643C485.818 267.282 485.979 268.032 485.979 268.891ZM492.396 264.658C492.698 264.658 492.95 264.68 493.15 264.724L492.981 266.818C492.801 266.77 492.581 266.745 492.322 266.745C491.609 266.745 491.053 266.928 490.652 267.294C490.257 267.661 490.059 268.173 490.059 268.833V273H487.825V264.812H489.517L489.847 266.188H489.957C490.21 265.729 490.552 265.361 490.982 265.083C491.417 264.799 491.888 264.658 492.396 264.658Z" fill="#145E82"/>
<rect x="733" y="329" width="110.264" height="28" stroke="#CCCCCC" stroke-width="2"/>
<path d="M755.73 349H753.497V344.217C753.497 343.036 753.057 342.445 752.178 342.445C751.553 342.445 751.102 342.657 750.823 343.082C750.545 343.507 750.406 344.195 750.406 345.147V349H748.172V337.604H750.406V339.925C750.406 340.106 750.389 340.531 750.354 341.2L750.303 341.859H750.42C750.918 341.058 751.709 340.658 752.793 340.658C753.755 340.658 754.485 340.917 754.983 341.434C755.481 341.952 755.73 342.694 755.73 343.661V349ZM761.48 347.367C761.871 347.367 762.339 347.281 762.886 347.11V348.773C762.33 349.022 761.646 349.146 760.835 349.146C759.942 349.146 759.29 348.922 758.88 348.473C758.475 348.019 758.272 347.34 758.272 346.437V342.489H757.203V341.544L758.433 340.797L759.078 339.068H760.506V340.812H762.798V342.489H760.506V346.437C760.506 346.754 760.594 346.988 760.77 347.14C760.95 347.291 761.187 347.367 761.48 347.367ZM771.88 349H769.646V344.217C769.646 343.626 769.546 343.185 769.346 342.892C769.151 342.594 768.841 342.445 768.416 342.445C767.845 342.445 767.43 342.655 767.171 343.075C766.912 343.495 766.783 344.186 766.783 345.147V349H764.549V340.812H766.255L766.556 341.859H766.68C766.9 341.483 767.217 341.19 767.632 340.98C768.047 340.765 768.523 340.658 769.061 340.658C770.286 340.658 771.116 341.058 771.551 341.859H771.749C771.968 341.478 772.291 341.183 772.715 340.973C773.145 340.763 773.628 340.658 774.166 340.658C775.093 340.658 775.794 340.897 776.268 341.375C776.746 341.849 776.985 342.611 776.985 343.661V349H774.744V344.217C774.744 343.626 774.644 343.185 774.444 342.892C774.249 342.594 773.938 342.445 773.514 342.445C772.967 342.445 772.557 342.64 772.283 343.031C772.015 343.421 771.88 344.042 771.88 344.891V349ZM781.519 349H779.285V337.604H781.519V349ZM788.821 338.292L784.83 349H782.801L786.792 338.292H788.821ZM793.392 349.146C790.843 349.146 789.568 347.748 789.568 344.95C789.568 343.558 789.915 342.496 790.608 341.764C791.302 341.026 792.295 340.658 793.589 340.658C794.537 340.658 795.386 340.843 796.138 341.214L795.479 342.943C795.127 342.801 794.8 342.687 794.498 342.599C794.195 342.506 793.892 342.459 793.589 342.459C792.427 342.459 791.846 343.285 791.846 344.935C791.846 346.537 792.427 347.337 793.589 347.337C794.019 347.337 794.417 347.281 794.783 347.169C795.149 347.052 795.516 346.871 795.882 346.627V348.539C795.521 348.768 795.154 348.927 794.783 349.015C794.417 349.103 793.953 349.146 793.392 349.146ZM803.499 346.568C803.499 347.408 803.206 348.048 802.62 348.487C802.039 348.927 801.167 349.146 800.005 349.146C799.41 349.146 798.902 349.105 798.482 349.022C798.062 348.944 797.669 348.827 797.303 348.67V346.825C797.718 347.02 798.184 347.184 798.702 347.315C799.224 347.447 799.683 347.513 800.079 347.513C800.889 347.513 801.294 347.279 801.294 346.81C801.294 346.634 801.241 346.493 801.133 346.385C801.026 346.273 800.84 346.148 800.577 346.012C800.313 345.87 799.961 345.707 799.522 345.521C798.892 345.257 798.428 345.013 798.13 344.789C797.837 344.564 797.623 344.308 797.486 344.02C797.354 343.727 797.288 343.368 797.288 342.943C797.288 342.215 797.569 341.654 798.13 341.258C798.697 340.858 799.498 340.658 800.533 340.658C801.519 340.658 802.479 340.873 803.411 341.302L802.737 342.914C802.327 342.738 801.944 342.594 801.587 342.481C801.231 342.369 800.867 342.313 800.496 342.313C799.837 342.313 799.507 342.491 799.507 342.848C799.507 343.048 799.612 343.221 799.822 343.368C800.037 343.514 800.503 343.731 801.221 344.02C801.861 344.278 802.33 344.52 802.627 344.745C802.925 344.969 803.145 345.228 803.287 345.521C803.428 345.814 803.499 346.163 803.499 346.568ZM810.955 346.568C810.955 347.408 810.662 348.048 810.076 348.487C809.495 348.927 808.624 349.146 807.461 349.146C806.866 349.146 806.358 349.105 805.938 349.022C805.518 348.944 805.125 348.827 804.759 348.67V346.825C805.174 347.02 805.64 347.184 806.158 347.315C806.68 347.447 807.139 347.513 807.535 347.513C808.345 347.513 808.75 347.279 808.75 346.81C808.75 346.634 808.697 346.493 808.589 346.385C808.482 346.273 808.296 346.148 808.033 346.012C807.769 345.87 807.417 345.707 806.978 345.521C806.348 345.257 805.884 345.013 805.586 344.789C805.293 344.564 805.079 344.308 804.942 344.02C804.81 343.727 804.744 343.368 804.744 342.943C804.744 342.215 805.025 341.654 805.586 341.258C806.153 340.858 806.954 340.658 807.989 340.658C808.975 340.658 809.935 340.873 810.867 341.302L810.193 342.914C809.783 342.738 809.4 342.594 809.043 342.481C808.687 342.369 808.323 342.313 807.952 342.313C807.293 342.313 806.963 342.491 806.963 342.848C806.963 343.048 807.068 343.221 807.278 343.368C807.493 343.514 807.959 343.731 808.677 344.02C809.317 344.278 809.786 344.52 810.083 344.745C810.381 344.969 810.601 345.228 810.743 345.521C810.884 345.814 810.955 346.163 810.955 346.568Z" fill="#CCCCCC"/>
<rect x="598" y="253" width="153" height="28" stroke="#CCCCCC" stroke-width="2"/>
<path d="M619.058 273V262.292H621.328V273H619.058ZM626.082 273H623.848V261.604H626.082V273ZM630.667 273H628.433V261.604H630.667V273ZM638.819 273L638.518 271.953H638.401C638.162 272.333 637.822 272.629 637.383 272.839C636.944 273.044 636.443 273.146 635.882 273.146C634.92 273.146 634.195 272.89 633.706 272.377C633.218 271.86 632.974 271.118 632.974 270.151V264.812H635.208V269.594C635.208 270.185 635.313 270.629 635.523 270.927C635.733 271.22 636.067 271.367 636.526 271.367C637.151 271.367 637.603 271.159 637.881 270.744C638.159 270.324 638.299 269.631 638.299 268.664V264.812H640.532V273H638.819ZM648.589 270.568C648.589 271.408 648.296 272.048 647.71 272.487C647.129 272.927 646.258 273.146 645.095 273.146C644.5 273.146 643.992 273.105 643.572 273.022C643.152 272.944 642.759 272.827 642.393 272.67V270.825C642.808 271.02 643.274 271.184 643.792 271.315C644.314 271.447 644.773 271.513 645.169 271.513C645.979 271.513 646.384 271.279 646.384 270.81C646.384 270.634 646.331 270.493 646.223 270.385C646.116 270.273 645.93 270.148 645.667 270.012C645.403 269.87 645.051 269.707 644.612 269.521C643.982 269.257 643.518 269.013 643.22 268.789C642.927 268.564 642.713 268.308 642.576 268.02C642.444 267.727 642.378 267.368 642.378 266.943C642.378 266.215 642.659 265.654 643.22 265.258C643.787 264.858 644.588 264.658 645.623 264.658C646.609 264.658 647.569 264.873 648.501 265.302L647.827 266.914C647.417 266.738 647.034 266.594 646.677 266.481C646.321 266.369 645.957 266.313 645.586 266.313C644.927 266.313 644.597 266.491 644.597 266.848C644.597 267.048 644.702 267.221 644.912 267.368C645.127 267.514 645.593 267.731 646.311 268.02C646.951 268.278 647.42 268.52 647.717 268.745C648.015 268.969 648.235 269.228 648.377 269.521C648.518 269.814 648.589 270.163 648.589 270.568ZM653.782 271.367C654.173 271.367 654.641 271.281 655.188 271.11V272.773C654.632 273.022 653.948 273.146 653.137 273.146C652.244 273.146 651.592 272.922 651.182 272.473C650.777 272.019 650.574 271.34 650.574 270.437V266.489H649.505V265.544L650.735 264.797L651.38 263.068H652.808V264.812H655.1V266.489H652.808V270.437C652.808 270.754 652.896 270.988 653.072 271.14C653.252 271.291 653.489 271.367 653.782 271.367ZM661.421 264.658C661.724 264.658 661.975 264.68 662.176 264.724L662.007 266.818C661.826 266.77 661.607 266.745 661.348 266.745C660.635 266.745 660.078 266.928 659.678 267.294C659.282 267.661 659.085 268.173 659.085 268.833V273H656.851V264.812H658.543L658.872 266.188H658.982C659.236 265.729 659.578 265.361 660.008 265.083C660.442 264.799 660.913 264.658 661.421 264.658ZM668.863 273L668.43 271.887H668.372C667.996 272.36 667.608 272.69 667.207 272.875C666.812 273.056 666.294 273.146 665.655 273.146C664.868 273.146 664.248 272.922 663.794 272.473C663.345 272.023 663.12 271.384 663.12 270.554C663.12 269.685 663.423 269.045 664.029 268.635C664.639 268.22 665.557 267.99 666.782 267.946L668.203 267.902V267.543C668.203 266.713 667.779 266.298 666.929 266.298C666.275 266.298 665.506 266.496 664.622 266.892L663.882 265.383C664.824 264.89 665.869 264.643 667.017 264.643C668.115 264.643 668.958 264.882 669.544 265.361C670.13 265.839 670.423 266.567 670.423 267.543V273H668.863ZM668.203 269.206L667.339 269.235C666.69 269.255 666.206 269.372 665.889 269.587C665.572 269.802 665.413 270.129 665.413 270.568C665.413 271.198 665.774 271.513 666.497 271.513C667.014 271.513 667.427 271.364 667.735 271.066C668.047 270.769 668.203 270.373 668.203 269.88V269.206ZM676.179 271.367C676.57 271.367 677.039 271.281 677.586 271.11V272.773C677.029 273.022 676.345 273.146 675.535 273.146C674.641 273.146 673.989 272.922 673.579 272.473C673.174 272.019 672.971 271.34 672.971 270.437V266.489H671.902V265.544L673.133 264.797L673.777 263.068H675.205V264.812H677.498V266.489H675.205V270.437C675.205 270.754 675.293 270.988 675.469 271.14C675.65 271.291 675.886 271.367 676.179 271.367ZM681.028 268.891C681.028 269.702 681.16 270.314 681.424 270.729C681.692 271.145 682.127 271.352 682.727 271.352C683.323 271.352 683.75 271.147 684.009 270.737C684.273 270.322 684.405 269.707 684.405 268.891C684.405 268.081 684.273 267.473 684.009 267.067C683.745 266.662 683.313 266.459 682.713 266.459C682.117 266.459 681.687 266.662 681.424 267.067C681.16 267.468 681.028 268.076 681.028 268.891ZM686.69 268.891C686.69 270.224 686.338 271.267 685.635 272.019C684.932 272.771 683.953 273.146 682.698 273.146C681.912 273.146 681.218 272.976 680.618 272.634C680.017 272.287 679.556 271.792 679.234 271.147C678.911 270.502 678.75 269.75 678.75 268.891C678.75 267.553 679.099 266.513 679.798 265.771C680.496 265.029 681.477 264.658 682.742 264.658C683.528 264.658 684.221 264.829 684.822 265.17C685.423 265.512 685.884 266.003 686.206 266.643C686.529 267.282 686.69 268.032 686.69 268.891ZM693.106 264.658C693.408 264.658 693.66 264.68 693.86 264.724L693.692 266.818C693.511 266.77 693.291 266.745 693.032 266.745C692.32 266.745 691.763 266.928 691.363 267.294C690.967 267.661 690.769 268.173 690.769 268.833V273H688.535V264.812H690.227L690.557 266.188H690.667C690.921 265.729 691.262 265.361 691.692 265.083C692.127 264.799 692.598 264.658 693.106 264.658ZM701.69 267.331H702.437C703.135 267.331 703.657 267.194 704.004 266.921C704.351 266.643 704.524 266.24 704.524 265.712C704.524 265.18 704.378 264.787 704.085 264.533C703.797 264.279 703.342 264.152 702.722 264.152H701.69V267.331ZM706.817 265.632C706.817 266.784 706.455 267.666 705.733 268.276C705.015 268.886 703.992 269.191 702.664 269.191H701.69V273H699.419V262.292H702.84C704.138 262.292 705.125 262.573 705.799 263.134C706.477 263.691 706.817 264.523 706.817 265.632ZM711.109 267.045H711.841C712.559 267.045 713.089 266.926 713.43 266.687C713.772 266.447 713.943 266.071 713.943 265.559C713.943 265.051 713.767 264.689 713.416 264.475C713.069 264.26 712.53 264.152 711.797 264.152H711.109V267.045ZM711.109 268.891V273H708.838V262.292H711.958C713.413 262.292 714.49 262.558 715.188 263.09C715.886 263.618 716.236 264.421 716.236 265.5C716.236 266.13 716.062 266.691 715.716 267.185C715.369 267.673 714.878 268.056 714.243 268.334C715.855 270.742 716.905 272.297 717.393 273H714.873L712.317 268.891H711.109ZM728.46 267.631C728.46 269.404 728.02 270.766 727.141 271.718C726.262 272.67 725.003 273.146 723.362 273.146C721.721 273.146 720.462 272.67 719.583 271.718C718.704 270.766 718.264 269.399 718.264 267.617C718.264 265.834 718.704 264.475 719.583 263.537C720.467 262.595 721.731 262.124 723.377 262.124C725.022 262.124 726.28 262.597 727.149 263.544C728.023 264.492 728.46 265.854 728.46 267.631ZM720.645 267.631C720.645 268.828 720.872 269.729 721.326 270.334C721.78 270.939 722.459 271.242 723.362 271.242C725.174 271.242 726.079 270.039 726.079 267.631C726.079 265.219 725.178 264.013 723.377 264.013C722.473 264.013 721.792 264.318 721.333 264.929C720.874 265.534 720.645 266.435 720.645 267.631Z" fill="#CCCCCC"/>
<rect x="633" y="343" width="100" height="2" fill="#C4C4C4"/>
<rect x="513" y="266" width="85" height="2" fill="#C4C4C4"/>
<rect x="537" y="152" width="61" height="2" fill="#C4C4C4"/>
<rect x="483" y="70" width="61" height="2" fill="#145E82"/>
<rect x="315" y="15" width="87" height="2" fill="#145E82"/>
<rect x="461" y="400" width="24" height="2" fill="#145E82"/>
<rect x="378" y="71" width="24" height="2" fill="#145E82"/>
<rect x="385" y="209" width="17" height="2" fill="#145E82"/>
<rect x="192" y="152" width="21" height="2" fill="#145E82"/>
<rect x="192" y="341" width="21" height="2" fill="#145E82"/>
<rect x="385" y="267" width="17" height="2" fill="#145E82"/>
<rect x="398" y="343" width="87" height="2" fill="#145E82"/>
<rect x="371" y="154" width="31" height="2" fill="#145E82"/>
<rect x="145" y="14" width="87" height="2" fill="#145E82"/>
<rect x="191" y="382" width="366" height="2.00002" transform="rotate(-90 191 382)" fill="#145E82"/>
<rect x="376" y="73" width="58" height="2" transform="rotate(-90 376 73)" fill="#145E82"/>
<rect x="461" y="402" width="58" height="2" transform="rotate(-90 461 402)" fill="#145E82"/>
<rect x="383" y="269" width="114" height="2.00001" transform="rotate(-90 383 269)" fill="#145E82"/>
</svg>
