<svg width="50" height="50" viewBox="0 0 50 50" fill="none" xmlns="http://www.w3.org/2000/svg">
<path d="M25 50C38.8071 50 50 38.8071 50 25C50 11.1929 38.8071 0 25 0C11.1929 0 0 11.1929 0 25C0 38.8071 11.1929 50 25 50Z" fill="#FFD54F"/>
<path d="M14.5827 22.9166C16.8839 22.9166 18.7493 21.0511 18.7493 18.7499C18.7493 16.4487 16.8839 14.5833 14.5827 14.5833C12.2815 14.5833 10.416 16.4487 10.416 18.7499C10.416 21.0511 12.2815 22.9166 14.5827 22.9166Z" fill="#6D4C41"/>
<path d="M35.4167 22.9166C37.7178 22.9166 39.5833 21.0511 39.5833 18.7499C39.5833 16.4487 37.7178 14.5833 35.4167 14.5833C33.1155 14.5833 31.25 16.4487 31.25 18.7499C31.25 21.0511 33.1155 22.9166 35.4167 22.9166Z" fill="#6D4C41"/>
<path d="M42.4043 29.8022C42.1085 29.4022 41.6418 29.1667 41.146 29.1667H8.8543C8.35846 29.1667 7.89179 29.4022 7.59596 29.8022C7.30221 30.2022 7.21471 30.7167 7.36263 31.1917C9.77721 38.9772 16.8668 44.2084 25.0001 44.2084C33.1335 44.2084 40.223 38.9772 42.6376 31.1917C42.7855 30.7188 42.698 30.2022 42.4043 29.8022Z" fill="#E53935"/>
</svg>
