<svg width="283" height="74" viewBox="0 0 283 74" fill="none" xmlns="http://www.w3.org/2000/svg">
<path d="M72.5655 11.9602H86.1615C94.2175 11.9602 98.2517 15.133 98.2517 21.4724C98.2517 24.6143 96.8698 27.2294 94.1121 29.3115C98.1153 31.0467 100.117 34.1451 100.117 38.6069C100.117 42.0214 98.9395 44.748 96.5785 46.7744C95.4259 47.7411 94.1927 48.4166 92.879 48.8008C91.5652 49.185 89.7929 49.3771 87.562 49.3771H85.4489V39.7533H87.3389C88.4544 39.7533 89.2414 39.6108 89.6938 39.3257C90.1523 39.0407 90.3816 38.5449 90.3816 37.8323C90.3816 36.6239 89.4521 36.0228 87.5868 36.0228H85.4489V26.0458C87.4939 26.0458 88.5163 25.3455 88.5163 23.9326C88.5163 22.6375 87.593 21.9868 85.7463 21.9868H83.689V49.3709H72.5593V11.9602H72.5655Z" fill="#145E82"/>
<path d="M118.832 21.7759V32.7382C118.119 32.3354 117.468 32.1371 116.886 32.1371C115.021 32.1371 114.091 33.5624 114.091 36.413V49.3769H103.841V34.4362C103.841 30.4887 104.92 27.3407 107.076 24.9921C109.233 22.6434 112.108 21.4722 115.708 21.4722C116.514 21.4722 117.555 21.5714 118.832 21.7759Z" fill="#145E82"/>
<path d="M137.032 39.1274V49.7302C136.189 49.879 135.421 49.9471 134.727 49.9471C130.612 49.9471 127.191 48.5962 124.446 45.8882C121.701 43.1801 120.338 39.7966 120.338 35.7191C120.338 31.753 121.72 28.3943 124.49 25.6305C127.26 22.8729 130.625 21.491 134.591 21.491C139.015 21.491 142.498 22.7861 145.045 25.3702C147.598 27.9543 148.868 31.4866 148.868 35.9669V49.3708H138.619V36.7044C138.619 35.2605 138.265 34.1079 137.565 33.2527C136.859 32.3913 135.917 31.9637 134.727 31.9637C133.649 31.9637 132.719 32.3541 131.932 33.1411C131.145 33.9281 130.755 34.8577 130.755 35.936C130.755 37.07 131.114 37.9995 131.827 38.7308C132.539 39.462 133.444 39.8276 134.541 39.8276C135.433 39.84 136.27 39.5983 137.032 39.1274Z" fill="#145E82"/>
<path d="M165.104 22.0486H154.854V49.377H165.104V22.0486Z" fill="#145E82"/>
<path d="M160.004 9.84698C161.392 9.84698 162.594 10.3365 163.611 11.3156C164.627 12.2948 165.135 13.4474 165.135 14.7859C165.135 16.2112 164.658 17.3824 163.697 18.2934C162.737 19.2043 161.51 19.6629 160.01 19.6629C158.51 19.6629 157.283 19.2043 156.323 18.2934C155.362 17.3824 154.885 16.2112 154.885 14.7859C154.885 13.4536 155.393 12.2948 156.41 11.3156C157.414 10.3365 158.616 9.84698 160.004 9.84698Z" fill="#145E82"/>
<path d="M195.5 49.3769H185.25V33.9466C185.25 32.3726 184.599 31.5918 183.304 31.5918C182.027 31.5918 181.383 32.3788 181.383 33.9466V49.3769H171.133V34.1387C171.133 30.5755 172.311 27.5762 174.672 25.1346C177.027 22.693 179.914 21.4722 183.335 21.4722C187.245 21.4722 190.381 22.8913 192.736 25.7233C194.582 27.9356 195.506 31.0155 195.506 34.9629V49.3769H195.5Z" fill="#145E82"/>
<path d="M218.608 22.4328V33.234C217.164 33.234 216.173 33.5066 215.633 34.0396C215.094 34.5787 214.754 35.6446 214.605 37.231C214.128 42.5107 212.083 46.2413 208.464 48.4164C206.543 49.5504 203.822 50.1143 200.296 50.1143H198.871V39.2574H199.336C200.978 39.2574 202.155 38.9165 202.855 38.2287C203.556 37.5408 203.965 36.3448 204.076 34.6221C204.225 31.8273 204.485 29.8629 204.857 28.7288C205.229 27.5948 205.997 26.4731 207.144 25.3577C209.152 23.3995 211.94 22.4266 215.503 22.4266H218.608V22.4328Z" fill="#145E82"/>
<path d="M249.01 11.9602V36.2211C249.01 40.4969 247.733 43.9176 245.187 46.4707C242.64 49.0301 239.244 50.3066 235.005 50.3066C230.785 50.3066 227.55 49.0672 225.313 46.5761C223.076 44.0911 221.954 40.5155 221.954 35.8616V11.9602H233.084V35.8369C233.084 38.1235 233.896 39.2638 235.526 39.2638C237.1 39.2638 237.88 38.1235 237.88 35.8369V11.9602H249.01Z" fill="#145E82"/>
<path d="M264.657 59.4902H254.408V36.6856C254.408 32.5027 255.505 29.0944 257.698 26.4607C258.962 24.9425 260.561 23.7403 262.507 22.8417C264.453 21.9432 266.448 21.497 268.499 21.497C272.577 21.497 276.01 22.8665 278.805 25.6056C281.6 28.3446 283 31.7095 283 35.6941C283 39.5672 281.612 42.9135 278.836 45.7269C276.06 48.5403 272.769 49.947 268.97 49.947C268.351 49.947 267.434 49.885 266.231 49.7549V38.4641C267.074 39.1396 267.911 39.4804 268.754 39.4804C269.813 39.4804 270.724 39.09 271.48 38.303C272.236 37.516 272.62 36.5865 272.62 35.5082C272.62 34.4299 272.23 33.5128 271.443 32.7506C270.656 31.9946 269.714 31.6103 268.617 31.6103C265.984 31.6103 264.67 33.426 264.67 37.0636V59.4902H264.657Z" fill="#145E82"/>
<path d="M62.8921 28.6297C62.5451 28.8838 62.6442 29.299 62.5389 29.6336C61.9378 31.5608 60.8595 33.141 59.2112 34.3122C58.8455 34.5725 58.7712 34.7212 59.0624 35.1426C61.0021 37.9684 61.2623 40.9863 59.6883 44.0228C58.1081 47.0593 55.4806 48.6023 52.0475 48.6581C49.4634 48.7014 46.9227 48.2801 44.413 47.6913C44.2952 47.6666 44.1775 47.6542 43.942 47.6232C45.2371 49.3645 46.4022 51.0749 47.4494 52.8596C48.5897 54.793 49.6245 56.7822 50.5665 58.8148C51.2172 60.2153 50.7648 61.6282 49.513 62.2231C48.224 62.8304 46.8607 62.2665 46.1791 60.8226C43.8924 55.9766 41.1658 51.4219 37.4724 47.4869C35.7435 45.6464 33.8472 43.9856 31.951 42.3124C31.7093 42.0956 31.4676 42.1203 31.195 42.1389C29.2925 42.2567 27.3839 42.3372 25.4814 42.3062C21.6703 42.2505 18.9561 40.472 17.3263 37.0513C17.1466 36.6795 16.9607 36.5493 16.5517 36.5555C14.9591 36.5741 13.3975 36.8344 11.8296 37.0389C9.14639 37.3859 6.5375 37.3177 4.20126 35.7127C-0.192339 32.6949 -0.979346 26.8636 2.5219 22.6807C3.19117 21.8813 3.35229 21.2492 3.09202 20.2267C1.87743 15.4675 4.87673 10.7082 9.68552 9.65477C10.0883 9.56802 10.2618 9.4007 10.361 9.02269C11.9288 3.20999 18.2434 0.601096 23.4241 3.63758C23.7835 3.84827 23.9384 3.81729 24.1863 3.50745C25.6859 1.67936 27.6318 0.588706 29.9556 0.154923C30.0919 0.130135 30.2654 0.185907 30.3336 0C30.4327 0 30.5319 0 30.631 0C31.1764 0.123938 31.7217 0.123938 32.267 0C32.4158 0 32.5645 0 32.7132 0C34.7644 0.161119 36.4871 1.04108 38.024 2.35482C38.247 2.54693 38.4887 2.72663 38.6498 2.98071C39.0093 3.55082 39.4183 3.61899 40.0132 3.27816C41.7731 2.27426 43.6755 1.93343 45.6709 2.28666C49.3147 2.93114 51.7191 5.05667 52.9027 8.53314C53.101 9.12184 53.3923 9.4069 53.9934 9.56802C58.4613 10.764 61.2809 15.263 60.4134 19.7805C60.3204 20.2577 60.2646 20.6853 60.6488 21.0881C61.944 22.4576 62.7 24.0812 62.8921 25.9588C62.8921 26.058 62.8921 26.1571 62.8921 26.2563C62.7682 26.8016 62.7682 27.3469 62.8921 27.8861C62.8921 28.1339 62.8921 28.3818 62.8921 28.6297Z" fill="#145E82"/>
<path d="M62.8924 27.8922C62.6818 27.3468 62.6198 26.8015 62.8924 26.2624C62.8924 26.8015 62.8924 27.3468 62.8924 27.8922Z" fill="#363636"/>
<path d="M0.00619704 58.6039C0.0495754 58.6039 0.0991513 58.6039 0.14253 58.6039C0.365618 58.8518 0.371815 59.0997 0.136333 59.3476H0.0681663H0C0.0061969 59.0935 0.00619704 58.8456 0.00619704 58.6039Z" fill="#EDEDED"/>
<path d="M0.142822 59.3476C0.142822 59.0997 0.142821 58.8519 0.149018 58.604C0.328728 57.9409 0.743922 57.439 1.22728 56.9556C5.00119 53.2065 8.76271 49.445 12.5242 45.6835C13.9247 44.283 15.1703 44.2768 16.5522 45.6587C20.4377 49.5379 24.3293 53.4172 28.2086 57.3026C29.3426 58.4367 29.3116 60.0851 28.1528 61.0022C27.1923 61.7644 25.8538 61.6777 24.9242 60.7543C22.5818 58.4429 20.2518 56.119 17.9217 53.8014C16.9364 52.8223 15.9387 51.868 14.9844 50.8641C14.625 50.486 14.4391 50.5046 14.0797 50.8703C10.9254 54.0493 7.69065 57.1477 4.60459 60.3949C3.05537 62.0185 0.60759 61.5351 0.142822 59.3476Z" fill="#145E82"/>
<path d="M29.0204 70.9729C29.0142 72.1689 28.5433 72.8878 27.6323 73.3154C26.771 73.712 25.6803 73.5013 24.9677 72.7948C21.6647 69.5229 18.3556 66.2509 15.0712 62.9541C14.6498 62.5327 14.4577 62.477 14.0116 62.9293C10.7954 66.1889 7.54199 69.4113 4.30101 72.6399C3.61935 73.3216 2.80136 73.5694 1.86563 73.2844C0.960878 73.0117 0.41555 72.3734 0.211053 71.4687C0.0375394 70.6879 0.254432 69.9814 0.805956 69.4237C4.84634 65.3771 8.88671 61.3367 12.9457 57.3149C13.9248 56.342 15.3067 56.4474 16.3788 57.5133C19.4648 60.5869 22.5447 63.6668 25.6245 66.7404C26.4983 67.6142 27.3721 68.4942 28.252 69.3617C28.7478 69.8637 29.0514 70.4338 29.0204 70.9729Z" fill="#145E82"/>
<path d="M39.1829 40.8561C40.5896 40.4099 41.9095 40.0195 43.1613 39.4432C44.3573 38.8917 44.915 37.6833 44.5432 36.5121C44.1218 35.1859 42.6903 34.4175 41.4014 34.969C36.2518 37.1689 30.8047 37.4788 25.3204 37.485C23.1267 37.485 21.4164 35.6941 21.4164 33.55C21.4164 31.4058 23.1329 29.6893 25.339 29.6397C27.7186 29.5839 30.0796 29.4166 32.3167 28.4747C35.5887 27.1052 37.2433 24.0935 36.5616 20.7286C35.8861 17.4132 32.8744 14.9283 29.5219 14.9283C28.078 14.9283 27.0308 15.8888 26.975 17.2583C26.9192 18.603 27.9355 19.6503 29.3856 19.7309C29.869 19.7557 30.3089 19.8734 30.7117 20.1399C31.4925 20.6604 31.8953 21.3792 31.8458 22.3274C31.8024 23.2197 31.1827 23.6907 30.4639 24.0067C28.9146 24.6884 27.2601 24.7813 25.5931 24.7875C24.1368 24.7875 22.7487 25.0664 21.4412 25.7295C19.1607 26.8945 17.6487 28.6916 16.9422 31.1456C16.8121 31.6041 16.6386 31.7652 16.149 31.7591C14.4573 31.7343 12.8027 32.0565 11.1295 32.2548C10.1442 32.3725 9.14032 32.4965 8.1736 32.2548C5.45316 31.5793 4.32533 28.5614 5.88075 26.2004C6.32073 25.5374 6.86605 24.9734 7.49194 24.4715C8.83047 23.3932 9.08454 22.1291 8.29754 20.6108C7.31843 18.727 7.44237 16.9609 8.65696 15.5727C8.83667 15.3683 9.04117 15.1885 9.25806 15.0274C10.3425 14.2156 10.5036 14.2714 11.1605 15.4116C12.8337 18.3242 15.393 19.8238 18.7269 20.0035C20.1398 20.0779 21.2615 19.0492 21.311 17.7107C21.3668 16.2544 20.3877 15.2319 18.8323 15.1638C17.2273 15.0894 16.0313 14.3582 15.331 12.9391C14.6556 11.5757 14.7547 10.2062 15.6099 8.92967C16.8307 7.10778 19.3032 6.64302 21.1003 7.8762C21.7014 8.28519 22.0794 8.74996 22.0175 9.57414C21.9369 10.6772 22.6062 11.5324 23.6225 11.8918C24.5892 12.2326 25.6179 11.9352 26.2933 11.1234C26.6714 10.6648 26.7767 10.1257 26.8139 9.54316C26.9936 6.6492 29.1935 4.6724 31.9573 4.88929C33.8288 5.03801 35.4771 6.37655 36.0101 8.29139C36.3323 9.44401 36.8343 10.3612 38.1294 10.5533C39.4741 10.7516 40.3727 10.1814 41.0544 9.01643C41.9777 7.44861 43.7004 6.84131 45.4108 7.34946C47.1211 7.85141 48.2985 9.41303 48.2861 11.1482C48.2737 12.8833 47.0654 14.4511 45.3674 14.9097C45.0142 15.0026 44.6362 15.0026 44.2644 15.046C42.7771 15.2071 41.8228 16.2854 41.9343 17.6735C42.0397 19.0058 43.1489 19.954 44.6176 19.8672C48.0569 19.6627 50.6224 18.0577 52.1902 14.9716C52.4814 14.4015 52.7355 14.3582 53.2499 14.5998C55.2639 15.548 56.1252 17.9028 55.1647 19.9168C54.229 21.8874 54.483 22.7983 56.2863 23.9324C57.6559 24.7937 58.3437 26.5475 57.9471 28.1339C57.5319 29.776 56.0385 31.065 54.3963 31.1332C53.3738 31.1765 52.3885 31.4058 51.397 31.6103C50.2258 31.852 49.5255 32.9674 49.6495 34.2502C49.7672 35.4214 50.7525 36.289 52.0415 36.3448C53.9439 36.4315 55.456 37.6585 55.7658 39.3564C56.2306 41.891 54.3219 43.9484 51.6015 43.843C48.3419 43.7129 45.1815 43.0684 42.1016 42.0149C41.1349 41.6865 40.1806 41.3642 39.1829 40.8561Z" fill="#CFE1EA"/>
</svg>
