<svg width="50" height="50" viewBox="0 0 50 50" fill="none" xmlns="http://www.w3.org/2000/svg">
<path d="M25 50C38.8071 50 50 38.8071 50 25C50 11.1929 38.8071 0 25 0C11.1929 0 0 11.1929 0 25C0 38.8071 11.1929 50 25 50Z" fill="#FFD54F"/>
<path d="M14.5827 22.9168C16.8839 22.9168 18.7493 21.0513 18.7493 18.7502C18.7493 16.449 16.8839 14.5835 14.5827 14.5835C12.2815 14.5835 10.416 16.449 10.416 18.7502C10.416 21.0513 12.2815 22.9168 14.5827 22.9168Z" fill="#6D4C41"/>
<path d="M35.4167 22.9168C37.7178 22.9168 39.5833 21.0513 39.5833 18.7502C39.5833 16.449 37.7178 14.5835 35.4167 14.5835C33.1155 14.5835 31.25 16.449 31.25 18.7502C31.25 21.0513 33.1155 22.9168 35.4167 22.9168Z" fill="#6D4C41"/>
<path d="M31.7702 37.5H18.2285C17.366 37.5 16.666 36.8 16.666 35.9375C16.666 35.075 17.366 34.375 18.2285 34.375H31.7702C32.6327 34.375 33.3327 35.075 33.3327 35.9375C33.3327 36.8 32.6327 37.5 31.7702 37.5Z" fill="#6D4C41"/>
</svg>
