<svg width="18" height="17" viewBox="0 0 18 17" fill="none" xmlns="http://www.w3.org/2000/svg">
<path d="M9 1.55849C11.2667 1.55849 11.55 1.55849 12.4708 1.62932C14.8083 1.70015 15.8708 2.83349 15.9417 5.10015C16.0125 6.02099 16.0125 6.23349 16.0125 8.50015C16.0125 10.7668 16.0125 11.0502 15.9417 11.9002C15.8708 14.1668 14.7375 15.3002 12.4708 15.371C11.55 15.4418 11.3375 15.4418 9 15.4418C6.73333 15.4418 6.45 15.4418 5.6 15.371C3.2625 15.3002 2.2 14.1668 2.12917 11.9002C2.05833 10.9793 2.05833 10.7668 2.05833 8.50015C2.05833 6.23349 2.05833 5.95015 2.12917 5.10015C2.2 2.83349 3.33333 1.70015 5.6 1.62932C6.45 1.55849 6.73333 1.55849 9 1.55849ZM9 0.000152588C6.6625 0.000152588 6.37917 0.000152588 5.52917 0.0709859C2.4125 0.212653 0.7125 1.91265 0.570833 5.02932C0.5 5.87932 0.5 6.16265 0.5 8.50015C0.5 10.8377 0.5 11.121 0.570833 11.971C0.7125 15.0877 2.4125 16.7877 5.52917 16.9293C6.37917 17.0002 6.6625 17.0002 9 17.0002C11.3375 17.0002 11.6208 17.0002 12.4708 16.9293C15.5875 16.7877 17.2875 15.0877 17.4292 11.971C17.5 11.121 17.5 10.8377 17.5 8.50015C17.5 6.16265 17.5 5.87932 17.4292 5.02932C17.2875 1.91265 15.5875 0.212653 12.4708 0.0709859C11.6208 0.000152588 11.3375 0.000152588 9 0.000152588ZM9 4.10849C6.59167 4.10849 4.60833 6.09182 4.60833 8.50015C4.60833 10.9085 6.59167 12.8918 9 12.8918C11.4083 12.8918 13.3917 10.9085 13.3917 8.50015C13.3917 6.09182 11.4083 4.10849 9 4.10849ZM9 11.3335C7.44167 11.3335 6.16667 10.0585 6.16667 8.50015C6.16667 6.94182 7.44167 5.66682 9 5.66682C10.5583 5.66682 11.8333 6.94182 11.8333 8.50015C11.8333 10.0585 10.5583 11.3335 9 11.3335ZM13.5333 2.97515C12.9667 2.97515 12.5417 3.40015 12.5417 3.96682C12.5417 4.53349 12.9667 4.95849 13.5333 4.95849C14.1 4.95849 14.525 4.53349 14.525 3.96682C14.525 3.40015 14.1 2.97515 13.5333 2.97515Z" fill="#CACDD0"/>
</svg>
