<svg width="24" height="17" viewBox="0 0 24 17" fill="none" xmlns="http://www.w3.org/2000/svg">
<path d="M11.3281 11.2316C10.3159 11.731 9.125 11.0047 9.125 9.88785V7.18348C9.125 6.06667 10.3159 5.34029 11.3281 5.83975L14.0685 7.19193C15.1905 7.74558 15.1905 9.32576 14.0684 9.87941L11.3281 11.2316Z" fill="#CACDD0"/>
<path fill-rule="evenodd" clip-rule="evenodd" d="M0.5 8.53562C0.5 14.3993 0.979167 16.5746 4.71667 16.8583C8.16667 17.0474 15.8333 17.0474 19.2833 16.8583C23.0208 16.6691 23.5 14.3993 23.5 8.53562C23.5 2.67192 23.0208 0.496676 19.2833 0.212948C15.8333 -0.0707793 8.16667 -0.0707793 4.71667 0.212948C0.979167 0.496676 0.5 2.67192 0.5 8.53562ZM19.164 1.62671L19.1731 1.62741C19.9836 1.68894 20.4721 1.84429 20.7832 2.0272C21.064 2.19234 21.2885 2.4307 21.4782 2.8547C21.683 3.31253 21.8394 3.97271 21.9362 4.94071C22.0322 5.90109 22.0625 7.079 22.0625 8.53562C22.0625 9.99204 22.0323 11.1764 21.9361 12.1448C21.8391 13.1213 21.6823 13.7915 21.4763 14.2563C21.2849 14.6879 21.0612 14.9226 20.7904 15.0797C20.4901 15.2539 20.0124 15.4009 19.2097 15.4415L19.2036 15.4418C15.812 15.6278 8.21678 15.6281 4.81216 15.4427C4.01047 15.3804 3.52602 15.2258 3.21683 15.044C2.93597 14.8789 2.7115 14.6405 2.52184 14.2165C2.31704 13.7587 2.16064 13.0985 2.06382 12.1305C1.96775 11.1701 1.9375 9.99224 1.9375 8.53562C1.9375 7.079 1.96775 5.90109 2.06382 4.94071C2.16064 3.97271 2.31704 3.31253 2.52184 2.8547C2.7115 2.4307 2.93597 2.19234 3.21683 2.0272C3.52791 1.84429 4.01641 1.68894 4.82692 1.62741L4.83604 1.62668C8.2066 1.34949 15.7934 1.34952 19.164 1.62671Z" fill="#CACDD0"/>
</svg>
