<svg width="200" height="200" viewBox="0 0 200 200" fill="none" xmlns="http://www.w3.org/2000/svg">
    <path opacity="0.2" d="M137.789 181.682C140.108 186.695 137.935 192.69 132.717 194.497C116.219 200.209 98.5071 201.502 81.3552 198.247C75.9293 197.217 72.9093 191.601 74.4756 186.305C76.0419 181.009 81.6035 178.052 87.0536 178.946C99.4999 180.987 112.257 180.056 124.275 176.228C129.538 174.552 135.47 176.67 137.789 181.682Z" fill="#C4C4C4"/>
    <path d="M72.1885 185.595C70.4818 190.848 64.8138 193.768 59.7579 191.545C48.858 186.754 38.8759 180.043 30.2997 171.707C19.3274 161.042 10.949 148.001 5.80947 133.588C0.669979 119.175 -1.09346 103.775 0.654931 88.5738C2.40332 73.3724 7.6169 58.775 15.8943 45.9054C24.1716 33.0359 35.292 22.2375 48.3991 14.3417C61.5062 6.44591 76.2505 1.66333 91.4967 0.362187C106.743 -0.938958 122.084 1.27604 136.34 6.83664C147.482 11.1829 157.729 17.4825 166.61 25.4134C170.729 29.0921 170.422 35.4609 166.351 39.1924C162.279 42.9238 155.989 42.5919 151.779 39.0173C145.032 33.2879 137.362 28.7029 129.072 25.4693C117.668 21.0208 105.394 19.2488 93.1974 20.2897C81.0004 21.3307 69.205 25.1567 58.7193 31.4734C48.2336 37.79 39.3373 46.4287 32.7154 56.7243C26.0935 67.02 21.9227 78.6979 20.5239 90.8591C19.1252 103.02 20.536 115.34 24.6476 126.87C28.7592 138.4 35.4619 148.833 44.2398 157.365C50.6203 163.568 57.9736 168.645 65.9856 172.409C70.9844 174.757 73.8951 180.343 72.1885 185.595Z" fill="url(#paint0_linear_196_3683)"/>
    <path opacity="0.5" d="M168.106 41.1643C172.285 37.5539 178.646 37.9895 181.821 42.5084C188.637 52.2089 193.69 63.0669 196.716 74.5847C200.592 89.3343 201.043 104.775 198.035 119.726C195.027 134.676 188.639 148.741 179.36 160.844C172.114 170.295 163.256 178.354 153.218 184.663C148.542 187.602 142.508 185.544 140.05 180.598C137.592 175.652 139.654 169.7 144.254 166.645C151.595 161.771 158.099 155.704 163.488 148.675C170.911 138.993 176.022 127.741 178.428 115.781C180.835 103.82 180.474 91.4674 177.373 79.6678C175.122 71.1015 171.47 62.9913 166.586 55.6574C163.525 51.0605 163.926 44.7748 168.106 41.1643Z" fill="#C4C4C4"/>
    <g clip-path="url(#clip0_196_3683)">
        <path d="M45.1382 92.4V105H42.2222V94.74H39.7022V92.4H45.1382ZM49.001 101.652C49.505 101.652 49.919 101.814 50.243 102.138C50.567 102.45 50.729 102.864 50.729 103.38C50.729 103.62 50.699 103.86 50.639 104.1C50.579 104.34 50.447 104.7 50.243 105.18L49.217 107.772H47.435L48.227 104.91C47.927 104.79 47.687 104.598 47.507 104.334C47.339 104.058 47.255 103.74 47.255 103.38C47.255 102.864 47.417 102.45 47.741 102.138C48.077 101.814 48.497 101.652 49.001 101.652ZM56.3579 97.134C58.1339 97.134 59.4419 97.488 60.2819 98.196C61.1339 98.904 61.5599 99.852 61.5599 101.04C61.5599 101.808 61.3679 102.51 60.9839 103.146C60.5999 103.77 60.0119 104.274 59.2199 104.658C58.4399 105.03 57.4739 105.216 56.3219 105.216C55.4339 105.216 54.5579 105.102 53.6939 104.874C52.8419 104.634 52.1159 104.298 51.5159 103.866L52.6679 101.634C53.1479 101.994 53.6999 102.276 54.3239 102.48C54.9479 102.672 55.5899 102.768 56.2499 102.768C56.9819 102.768 57.5579 102.624 57.9779 102.336C58.3979 102.048 58.6079 101.646 58.6079 101.13C58.6079 100.59 58.3859 100.182 57.9419 99.906C57.5099 99.63 56.7539 99.492 55.6739 99.492H52.4519L53.0999 92.4H60.7859V94.74H55.5299L55.3319 97.134H56.3579ZM68.143 105.216C67.099 105.216 66.169 104.958 65.353 104.442C64.537 103.926 63.895 103.182 63.427 102.21C62.971 101.226 62.743 100.056 62.743 98.7C62.743 97.344 62.971 96.18 63.427 95.208C63.895 94.224 64.537 93.474 65.353 92.958C66.169 92.442 67.099 92.184 68.143 92.184C69.187 92.184 70.117 92.442 70.933 92.958C71.749 93.474 72.385 94.224 72.841 95.208C73.309 96.18 73.543 97.344 73.543 98.7C73.543 100.056 73.309 101.226 72.841 102.21C72.385 103.182 71.749 103.926 70.933 104.442C70.117 104.958 69.187 105.216 68.143 105.216ZM68.143 102.75C68.911 102.75 69.511 102.42 69.943 101.76C70.387 101.1 70.609 100.08 70.609 98.7C70.609 97.32 70.387 96.3 69.943 95.64C69.511 94.98 68.911 94.65 68.143 94.65C67.387 94.65 66.787 94.98 66.343 95.64C65.911 96.3 65.695 97.32 65.695 98.7C65.695 100.08 65.911 101.1 66.343 101.76C66.787 102.42 67.387 102.75 68.143 102.75ZM80.3598 105.216C79.3158 105.216 78.3858 104.958 77.5698 104.442C76.7538 103.926 76.1118 103.182 75.6438 102.21C75.1878 101.226 74.9598 100.056 74.9598 98.7C74.9598 97.344 75.1878 96.18 75.6438 95.208C76.1118 94.224 76.7538 93.474 77.5698 92.958C78.3858 92.442 79.3158 92.184 80.3598 92.184C81.4038 92.184 82.3338 92.442 83.1498 92.958C83.9658 93.474 84.6018 94.224 85.0578 95.208C85.5258 96.18 85.7598 97.344 85.7598 98.7C85.7598 100.056 85.5258 101.226 85.0578 102.21C84.6018 103.182 83.9658 103.926 83.1498 104.442C82.3338 104.958 81.4038 105.216 80.3598 105.216ZM80.3598 102.75C81.1278 102.75 81.7278 102.42 82.1598 101.76C82.6038 101.1 82.8258 100.08 82.8258 98.7C82.8258 97.32 82.6038 96.3 82.1598 95.64C81.7278 94.98 81.1278 94.65 80.3598 94.65C79.6038 94.65 79.0038 94.98 78.5598 95.64C78.1278 96.3 77.9118 97.32 77.9118 98.7C77.9118 100.08 78.1278 101.1 78.5598 101.76C79.0038 102.42 79.6038 102.75 80.3598 102.75ZM88.6221 101.652C89.1261 101.652 89.5401 101.814 89.8641 102.138C90.1881 102.45 90.3501 102.864 90.3501 103.38C90.3501 103.62 90.3201 103.86 90.2601 104.1C90.2001 104.34 90.0681 104.7 89.8641 105.18L88.8381 107.772H87.0561L87.8481 104.91C87.5481 104.79 87.3081 104.598 87.1281 104.334C86.9601 104.058 86.8761 103.74 86.8761 103.38C86.8761 102.864 87.0381 102.45 87.3621 102.138C87.6981 101.814 88.1181 101.652 88.6221 101.652ZM100.457 98.376C101.081 98.688 101.555 99.096 101.879 99.6C102.215 100.104 102.383 100.686 102.383 101.346C102.383 102.126 102.161 102.81 101.717 103.398C101.273 103.974 100.649 104.424 99.8448 104.748C99.0408 105.06 98.1108 105.216 97.0548 105.216C95.9988 105.216 95.0688 105.06 94.2648 104.748C93.4728 104.424 92.8548 103.974 92.4108 103.398C91.9788 102.81 91.7628 102.126 91.7628 101.346C91.7628 100.686 91.9248 100.104 92.2488 99.6C92.5848 99.096 93.0588 98.688 93.6708 98.376C93.2028 98.088 92.8428 97.728 92.5908 97.296C92.3388 96.852 92.2128 96.348 92.2128 95.784C92.2128 95.052 92.4168 94.416 92.8248 93.876C93.2328 93.336 93.8028 92.922 94.5348 92.634C95.2668 92.334 96.1068 92.184 97.0548 92.184C98.0148 92.184 98.8608 92.334 99.5928 92.634C100.337 92.922 100.913 93.336 101.321 93.876C101.729 94.416 101.933 95.052 101.933 95.784C101.933 96.348 101.807 96.852 101.555 97.296C101.303 97.728 100.937 98.088 100.457 98.376ZM97.0548 94.326C96.4668 94.326 95.9928 94.47 95.6328 94.758C95.2848 95.034 95.1108 95.418 95.1108 95.91C95.1108 96.39 95.2848 96.768 95.6328 97.044C95.9808 97.32 96.4548 97.458 97.0548 97.458C97.6548 97.458 98.1348 97.32 98.4948 97.044C98.8548 96.768 99.0348 96.39 99.0348 95.91C99.0348 95.418 98.8548 95.034 98.4948 94.758C98.1348 94.47 97.6548 94.326 97.0548 94.326ZM97.0548 103.074C97.7868 103.074 98.3628 102.912 98.7828 102.588C99.2148 102.252 99.4308 101.808 99.4308 101.256C99.4308 100.704 99.2148 100.266 98.7828 99.942C98.3628 99.618 97.7868 99.456 97.0548 99.456C96.3348 99.456 95.7648 99.618 95.3448 99.942C94.9248 100.266 94.7148 100.704 94.7148 101.256C94.7148 101.82 94.9248 102.264 95.3448 102.588C95.7648 102.912 96.3348 103.074 97.0548 103.074ZM113.132 102.624V105H103.61V103.11L108.47 98.52C108.986 98.028 109.334 97.608 109.514 97.26C109.694 96.9 109.784 96.546 109.784 96.198C109.784 95.694 109.61 95.31 109.262 95.046C108.926 94.77 108.428 94.632 107.768 94.632C107.216 94.632 106.718 94.74 106.274 94.956C105.83 95.16 105.458 95.472 105.158 95.892L103.034 94.524C103.526 93.792 104.204 93.222 105.068 92.814C105.932 92.394 106.922 92.184 108.038 92.184C108.974 92.184 109.79 92.34 110.486 92.652C111.194 92.952 111.74 93.384 112.124 93.948C112.52 94.5 112.718 95.154 112.718 95.91C112.718 96.594 112.574 97.236 112.286 97.836C111.998 98.436 111.44 99.12 110.612 99.888L107.714 102.624H113.132ZM125.697 102.354H123.645V105H120.801V102.354H114.015V100.392L119.955 92.4H123.015L117.507 99.978H120.891V97.62H123.645V99.978H125.697V102.354ZM128.595 101.652C129.099 101.652 129.513 101.814 129.837 102.138C130.161 102.45 130.323 102.864 130.323 103.38C130.323 103.62 130.293 103.86 130.233 104.1C130.173 104.34 130.041 104.7 129.837 105.18L128.811 107.772H127.029L127.821 104.91C127.521 104.79 127.281 104.598 127.101 104.334C126.933 104.058 126.849 103.74 126.849 103.38C126.849 102.864 127.011 102.45 127.335 102.138C127.671 101.814 128.091 101.652 128.595 101.652ZM141.221 102.624V105H131.699V103.11L136.559 98.52C137.075 98.028 137.423 97.608 137.603 97.26C137.783 96.9 137.873 96.546 137.873 96.198C137.873 95.694 137.699 95.31 137.351 95.046C137.015 94.77 136.517 94.632 135.857 94.632C135.305 94.632 134.807 94.74 134.363 94.956C133.919 95.16 133.547 95.472 133.247 95.892L131.123 94.524C131.615 93.792 132.293 93.222 133.157 92.814C134.021 92.394 135.011 92.184 136.127 92.184C137.063 92.184 137.879 92.34 138.575 92.652C139.283 92.952 139.829 93.384 140.213 93.948C140.609 94.5 140.807 95.154 140.807 95.91C140.807 96.594 140.663 97.236 140.375 97.836C140.087 98.436 139.529 99.12 138.701 99.888L135.803 102.624H141.221ZM147.285 92.4V105H144.369V94.74H141.849V92.4H147.285ZM155.359 97.53C156.463 97.71 157.309 98.124 157.897 98.772C158.485 99.408 158.779 100.2 158.779 101.148C158.779 101.88 158.587 102.558 158.203 103.182C157.819 103.794 157.231 104.286 156.439 104.658C155.659 105.03 154.699 105.216 153.559 105.216C152.671 105.216 151.795 105.102 150.931 104.874C150.079 104.634 149.353 104.298 148.753 103.866L149.887 101.634C150.367 101.994 150.919 102.276 151.543 102.48C152.179 102.672 152.827 102.768 153.487 102.768C154.219 102.768 154.795 102.63 155.215 102.354C155.635 102.066 155.845 101.664 155.845 101.148C155.845 100.116 155.059 99.6 153.487 99.6H152.155V97.674L154.747 94.74H149.383V92.4H158.203V94.29L155.359 97.53Z" fill="white"/>
        <path d="M84.0422 145.096C82.9329 145.096 81.9249 144.851 81.0182 144.36C80.1222 143.859 79.4182 143.176 78.9062 142.312C78.4049 141.448 78.1542 140.477 78.1542 139.4C78.1542 138.323 78.4049 137.352 78.9062 136.488C79.4182 135.624 80.1222 134.947 81.0182 134.456C81.9249 133.955 82.9329 133.704 84.0422 133.704C85.1515 133.704 86.1489 133.949 87.0342 134.44C87.9302 134.931 88.6342 135.613 89.1462 136.488C89.6582 137.352 89.9142 138.323 89.9142 139.4C89.9142 140.477 89.6582 141.453 89.1462 142.328C88.6342 143.192 87.9302 143.869 87.0342 144.36C86.1489 144.851 85.1515 145.096 84.0422 145.096ZM84.0422 144.04C84.9275 144.04 85.7275 143.843 86.4422 143.448C87.1569 143.043 87.7169 142.488 88.1222 141.784C88.5275 141.069 88.7302 140.275 88.7302 139.4C88.7302 138.525 88.5275 137.736 88.1222 137.032C87.7169 136.317 87.1569 135.763 86.4422 135.368C85.7275 134.963 84.9275 134.76 84.0422 134.76C83.1569 134.76 82.3515 134.963 81.6262 135.368C80.9115 135.763 80.3462 136.317 79.9302 137.032C79.5249 137.736 79.3222 138.525 79.3222 139.4C79.3222 140.275 79.5249 141.069 79.9302 141.784C80.3462 142.488 80.9115 143.043 81.6262 143.448C82.3515 143.843 83.1569 144.04 84.0422 144.04ZM100.02 136.584V145H98.8836V137.592H93.6036V145H92.4676V136.584H100.02ZM106.785 139.56C107.841 139.571 108.646 139.805 109.201 140.264C109.755 140.723 110.033 141.384 110.033 142.248C110.033 143.144 109.734 143.832 109.137 144.312C108.539 144.792 107.686 145.027 106.577 145.016L103.249 145V136.584H104.385V139.528L106.785 139.56ZM111.441 136.584H112.577V145H111.441V136.584ZM106.513 144.152C107.291 144.163 107.878 144.008 108.273 143.688C108.678 143.357 108.881 142.877 108.881 142.248C108.881 141.629 108.683 141.171 108.289 140.872C107.894 140.573 107.302 140.419 106.513 140.408L104.385 140.376V144.12L106.513 144.152ZM121.731 137.592H118.547V145H117.411V137.592H114.227V136.584H121.731V137.592Z" fill="white"/>
    </g>
    <defs>
        <linearGradient id="paint0_linear_196_3683" x1="171" y1="100" x2="14.3785" y2="147.455" gradientUnits="userSpaceOnUse">
            <stop offset="0.0238222" stop-color="#E95616"/>
            <stop offset="1" stop-color="#2B2D83"/>
        </linearGradient>
        <clipPath id="clip0_196_3683">
            <rect width="120" height="75" fill="white" transform="translate(39.5 76)"/>
        </clipPath>
    </defs>
</svg>
