<svg width="178" height="268" viewBox="0 0 178 268" fill="none" xmlns="http://www.w3.org/2000/svg">
    <rect width="174" height="264" rx="16" fill="url(#paint0_linear_196_3763)"/>
    <g filter="url(#filter0_dii_196_3763)">
        <rect x="7" y="197" width="159" height="53" rx="20" fill="#2C2D84"/>
    </g>
    <path d="M131.014 68.6286C131.014 89.1341 114.391 105.757 93.8856 105.757C73.3801 105.757 56.7571 89.1341 56.7571 68.6286C56.7571 48.123 73.3801 31.5 93.8856 31.5C114.391 31.5 131.014 48.123 131.014 68.6286Z" fill="#190A09" stroke="white" stroke-width="3"/>
    <path d="M113.757 95.2547C113.757 115.76 97.1341 132.383 76.6286 132.383C56.123 132.383 39.5 115.76 39.5 95.2547C39.5 74.7492 56.123 58.1262 76.6286 58.1262C97.1341 58.1262 113.757 74.7492 113.757 95.2547Z" fill="#1A0B0A" stroke="white" stroke-width="3"/>
    <path d="M22.4086 183.014C20.2462 183.014 18.2951 182.567 16.5552 181.672C14.8153 180.777 13.4483 179.534 12.454 177.944C11.4847 176.353 11 174.551 11 172.537C11 170.549 11.4847 168.759 12.454 167.169C13.4483 165.578 14.8029 164.348 16.5179 163.478C18.2578 162.583 20.2214 162.135 22.4086 162.135C24.5959 162.135 26.5595 162.583 28.2994 163.478C30.0392 164.348 31.3939 165.578 32.3632 167.169C33.3326 168.735 33.8173 170.524 33.8173 172.537C33.8173 174.551 33.3326 176.353 32.3632 177.944C31.3939 179.534 30.0392 180.777 28.2994 181.672C26.5595 182.567 24.5959 183.014 22.4086 183.014ZM22.4086 177.384C23.6514 177.384 24.6705 176.962 25.4658 176.117C26.2612 175.247 26.6589 174.054 26.6589 172.537C26.6589 171.046 26.2612 169.878 25.4658 169.033C24.6705 168.188 23.6514 167.765 22.4086 167.765C21.1659 167.765 20.1468 168.188 19.3514 169.033C18.556 169.878 18.1584 171.046 18.1584 172.537C18.1584 174.054 18.556 175.247 19.3514 176.117C20.1468 176.962 21.1659 177.384 22.4086 177.384Z" fill="white"/>
    <path d="M58.0181 162.471V182.678H50.9716V168.101H44.186V182.678H37.1395V162.471H58.0181Z" fill="white"/>
    <path d="M80.8895 168.101H74.4022V182.678H67.3557V168.101H60.8312V162.471H80.8895V168.101Z" fill="white"/>
    <path d="M83.6342 162.471H90.6807V173.059L99.1439 162.471H105.668V182.678H98.5847V172.053L90.196 182.678H83.6342V162.471Z" fill="white"/>
    <path d="M130.042 182.678V172.053L124.86 180.889H121.84L116.807 171.904V182.678H110.431V162.471H117.888L123.518 173.022L129.707 162.471H136.38L136.418 182.678H130.042Z" fill="white"/>
    <path d="M149.437 162.135C152.792 162.135 155.352 162.906 157.117 164.447C158.882 165.963 159.764 168.3 159.764 171.456V182.678H153.165V180.069C152.146 182.032 150.158 183.014 147.2 183.014C145.634 183.014 144.279 182.741 143.136 182.194C141.993 181.647 141.123 180.914 140.526 179.994C139.954 179.05 139.669 177.981 139.669 176.788C139.669 174.874 140.402 173.395 141.868 172.351C143.335 171.282 145.597 170.748 148.654 170.748H152.68C152.556 168.61 151.127 167.542 148.393 167.542C147.424 167.542 146.442 167.703 145.448 168.026C144.453 168.324 143.608 168.747 142.912 169.294L140.526 164.484C141.645 163.739 142.999 163.167 144.59 162.769C146.206 162.347 147.821 162.135 149.437 162.135ZM149.176 178.54C149.996 178.54 150.717 178.341 151.338 177.944C151.96 177.546 152.407 176.962 152.68 176.191V174.439H149.623C147.56 174.439 146.529 175.122 146.529 176.489C146.529 177.111 146.765 177.608 147.237 177.981C147.709 178.354 148.356 178.54 149.176 178.54Z" fill="white"/>
    <path d="M43.15 217.2V227H40.896V219.048H36.472V227H34.218V217.2H43.15ZM48.9393 227.112C48.146 227.112 47.432 226.949 46.7973 226.622C46.172 226.286 45.682 225.824 45.3273 225.236C44.9727 224.648 44.7953 223.981 44.7953 223.234C44.7953 222.487 44.9727 221.82 45.3273 221.232C45.682 220.644 46.172 220.187 46.7973 219.86C47.432 219.524 48.146 219.356 48.9393 219.356C49.7327 219.356 50.442 219.524 51.0673 219.86C51.6927 220.187 52.1827 220.644 52.5373 221.232C52.892 221.82 53.0693 222.487 53.0693 223.234C53.0693 223.981 52.892 224.648 52.5373 225.236C52.1827 225.824 51.6927 226.286 51.0673 226.622C50.442 226.949 49.7327 227.112 48.9393 227.112ZM48.9393 225.32C49.4993 225.32 49.9567 225.133 50.3113 224.76C50.6753 224.377 50.8573 223.869 50.8573 223.234C50.8573 222.599 50.6753 222.095 50.3113 221.722C49.9567 221.339 49.4993 221.148 48.9393 221.148C48.3793 221.148 47.9173 221.339 47.5533 221.722C47.1893 222.095 47.0073 222.599 47.0073 223.234C47.0073 223.869 47.1893 224.377 47.5533 224.76C47.9173 225.133 48.3793 225.32 48.9393 225.32ZM62.9041 225.208V228.624H60.8741V227H55.5821V228.624H53.5521V225.208H53.8601C54.3268 225.199 54.6488 224.923 54.8261 224.382C55.0034 223.841 55.1154 223.071 55.1621 222.072L55.2601 219.468H61.8261V225.208H62.9041ZM57.1361 222.226C57.1081 222.991 57.0474 223.617 56.9541 224.102C56.8701 224.587 56.7068 224.956 56.4641 225.208H59.6421V221.26H57.1781L57.1361 222.226ZM67.5965 224.144H66.4625V227H64.2785V219.468H66.4625V222.394H67.6385L69.6825 219.468H72.0065L69.3745 223.08L72.1885 227H69.6125L67.5965 224.144ZM80.4849 219.468V227H78.3009V221.26H75.9209L75.8509 222.59C75.8136 223.579 75.7203 224.401 75.5709 225.054C75.4216 225.707 75.1789 226.221 74.8429 226.594C74.5069 226.967 74.0403 227.154 73.4429 227.154C73.1256 227.154 72.7476 227.098 72.3089 226.986L72.4209 225.194C72.5703 225.213 72.6776 225.222 72.7429 225.222C73.0696 225.222 73.3123 225.105 73.4709 224.872C73.6389 224.629 73.7509 224.326 73.8069 223.962C73.8629 223.589 73.9049 223.099 73.9329 222.492L74.0449 219.468H80.4849ZM89.7112 219.356C90.4765 219.356 91.1625 219.524 91.7692 219.86C92.3758 220.187 92.8518 220.644 93.1972 221.232C93.5425 221.82 93.7152 222.487 93.7152 223.234C93.7152 223.981 93.5425 224.648 93.1972 225.236C92.8518 225.824 92.3758 226.286 91.7692 226.622C91.1625 226.949 90.4765 227.112 89.7112 227.112C89.0485 227.112 88.4418 226.991 87.8912 226.748C87.3405 226.496 86.8832 226.146 86.5192 225.698C86.1552 225.241 85.9125 224.718 85.7912 224.13H84.7552V227H82.5852V219.468H84.7552V222.24H85.8052C86.0198 221.363 86.4772 220.663 87.1772 220.14C87.8772 219.617 88.7218 219.356 89.7112 219.356ZM89.7112 225.32C90.2432 225.32 90.6818 225.133 91.0272 224.76C91.3818 224.377 91.5592 223.869 91.5592 223.234C91.5592 222.59 91.3818 222.081 91.0272 221.708C90.6818 221.335 90.2432 221.148 89.7112 221.148C89.1698 221.148 88.7218 221.335 88.3672 221.708C88.0218 222.081 87.8492 222.59 87.8492 223.234C87.8492 223.869 88.0218 224.377 88.3672 224.76C88.7218 225.133 89.1698 225.32 89.7112 225.32ZM102.008 219.468V227H99.8236V224.2C99.189 224.517 98.489 224.676 97.7236 224.676C96.7063 224.676 95.9363 224.447 95.4136 223.99C94.9003 223.523 94.6436 222.805 94.6436 221.834V219.468H96.8276V221.694C96.8276 222.151 96.9443 222.483 97.1776 222.688C97.4203 222.893 97.7656 222.996 98.2136 222.996C98.783 222.996 99.3196 222.875 99.8236 222.632V219.468H102.008ZM104.105 219.468H106.275V223.948L109.943 219.468H111.945V227H109.775V222.52L106.121 227H104.105V219.468ZM120.372 221.26H117.824V227H115.654V221.26H113.106V219.468H120.372V221.26ZM124.806 227.112C124.003 227.112 123.28 226.949 122.636 226.622C122.001 226.286 121.502 225.824 121.138 225.236C120.783 224.648 120.606 223.981 120.606 223.234C120.606 222.487 120.783 221.82 121.138 221.232C121.502 220.644 122.001 220.187 122.636 219.86C123.28 219.524 124.003 219.356 124.806 219.356C125.599 219.356 126.29 219.524 126.878 219.86C127.475 220.187 127.909 220.658 128.18 221.274L126.486 222.184C126.094 221.493 125.529 221.148 124.792 221.148C124.223 221.148 123.751 221.335 123.378 221.708C123.005 222.081 122.818 222.59 122.818 223.234C122.818 223.878 123.005 224.387 123.378 224.76C123.751 225.133 124.223 225.32 124.792 225.32C125.539 225.32 126.103 224.975 126.486 224.284L128.18 225.208C127.909 225.805 127.475 226.272 126.878 226.608C126.29 226.944 125.599 227.112 124.806 227.112ZM136.008 219.468V227H134.062V224.844H132.452L131.024 227H128.7L130.422 224.536C129.899 224.331 129.498 224.037 129.218 223.654C128.947 223.262 128.812 222.791 128.812 222.24C128.812 221.353 129.129 220.672 129.764 220.196C130.408 219.711 131.29 219.468 132.41 219.468H136.008ZM132.452 221.246C131.985 221.246 131.63 221.33 131.388 221.498C131.154 221.666 131.038 221.937 131.038 222.31C131.038 222.683 131.15 222.959 131.374 223.136C131.607 223.304 131.957 223.388 132.424 223.388H134.062V221.246H132.452Z" fill="white"/>
    <defs>
        <filter id="filter0_dii_196_3763" x="6.06073" y="189" width="171" height="78.3867" filterUnits="userSpaceOnUse" color-interpolation-filters="sRGB">
            <feFlood flood-opacity="0" result="BackgroundImageFix"/>
            <feColorMatrix in="SourceAlpha" type="matrix" values="0 0 0 0 0 0 0 0 0 0 0 0 0 0 0 0 0 0 127 0" result="hardAlpha"/>
            <feOffset dx="5.06073" dy="11.3867"/>
            <feGaussianBlur stdDeviation="3"/>
            <feColorMatrix type="matrix" values="0 0 0 0 0 0 0 0 0 0 0 0 0 0 0 0 0 0 0.5 0"/>
            <feBlend mode="normal" in2="BackgroundImageFix" result="effect1_dropShadow_196_3763"/>
            <feBlend mode="normal" in="SourceGraphic" in2="effect1_dropShadow_196_3763" result="shape"/>
            <feColorMatrix in="SourceAlpha" type="matrix" values="0 0 0 0 0 0 0 0 0 0 0 0 0 0 0 0 0 0 127 0" result="hardAlpha"/>
            <feOffset dy="2.53037"/>
            <feGaussianBlur stdDeviation="12.5"/>
            <feComposite in2="hardAlpha" operator="arithmetic" k2="-1" k3="1"/>
            <feColorMatrix type="matrix" values="0 0 0 0 0.408281 0 0 0 0 0.413159 0 0 0 0 0.8375 0 0 0 1 0"/>
            <feBlend mode="normal" in2="shape" result="effect2_innerShadow_196_3763"/>
            <feColorMatrix in="SourceAlpha" type="matrix" values="0 0 0 0 0 0 0 0 0 0 0 0 0 0 0 0 0 0 127 0" result="hardAlpha"/>
            <feOffset dy="-8"/>
            <feGaussianBlur stdDeviation="6.5"/>
            <feComposite in2="hardAlpha" operator="arithmetic" k2="-1" k3="1"/>
            <feColorMatrix type="matrix" values="0 0 0 0 0.04 0 0 0 0 0.0418182 0 0 0 0 0.2 0 0 0 1 0"/>
            <feBlend mode="normal" in2="effect2_innerShadow_196_3763" result="effect3_innerShadow_196_3763"/>
        </filter>
        <linearGradient id="paint0_linear_196_3763" x1="203.73" y1="228.956" x2="-68.3785" y2="154.171" gradientUnits="userSpaceOnUse">
            <stop offset="0.0238222" stop-color="#E95616"/>
            <stop offset="1" stop-color="#2B2D83"/>
        </linearGradient>
    </defs>
</svg>
