<svg width="330" height="104" viewBox="0 0 330 104" fill="none" xmlns="http://www.w3.org/2000/svg">
<rect width="252" height="104" rx="10" fill="#17151C"/>
<path d="M23.444 63.2V73H22.436V64.096H20.126V63.2H23.444ZM28.6226 63.2V73H27.6146V64.096H25.3046V63.2H28.6226ZM31.8412 67.106C31.6359 67.106 31.4585 67.0313 31.3092 66.882C31.1692 66.7327 31.0992 66.5507 31.0992 66.336C31.0992 66.1213 31.1692 65.944 31.3092 65.804C31.4585 65.6547 31.6359 65.58 31.8412 65.58C32.0465 65.58 32.2239 65.6547 32.3732 65.804C32.5225 65.944 32.5972 66.1213 32.5972 66.336C32.5972 66.5507 32.5225 66.7327 32.3732 66.882C32.2239 67.0313 32.0465 67.106 31.8412 67.106ZM31.8412 73.07C31.6359 73.07 31.4585 72.9953 31.3092 72.846C31.1692 72.6967 31.0992 72.5147 31.0992 72.3C31.0992 72.0853 31.1692 71.908 31.3092 71.768C31.4585 71.6187 31.6359 71.544 31.8412 71.544C32.0465 71.544 32.2239 71.6187 32.3732 71.768C32.5225 71.908 32.5972 72.0853 32.5972 72.3C32.5972 72.5147 32.5225 72.6967 32.3732 72.846C32.2239 72.9953 32.0465 73.07 31.8412 73.07ZM38.078 73.084C37.322 73.084 36.6453 72.8833 36.048 72.482C35.46 72.0807 34.998 71.5067 34.662 70.76C34.3353 70.004 34.172 69.1173 34.172 68.1C34.172 67.0827 34.3353 66.2007 34.662 65.454C34.998 64.698 35.46 64.1193 36.048 63.718C36.6453 63.3167 37.322 63.116 38.078 63.116C38.834 63.116 39.506 63.3167 40.094 63.718C40.6913 64.1193 41.158 64.698 41.494 65.454C41.83 66.2007 41.998 67.0827 41.998 68.1C41.998 69.1173 41.83 70.004 41.494 70.76C41.158 71.5067 40.6913 72.0807 40.094 72.482C39.506 72.8833 38.834 73.084 38.078 73.084ZM38.078 72.16C38.6473 72.16 39.1467 72.0013 39.576 71.684C40.0147 71.3667 40.3553 70.9047 40.598 70.298C40.8407 69.6913 40.962 68.9587 40.962 68.1C40.962 67.2413 40.8407 66.5087 40.598 65.902C40.3553 65.2953 40.0147 64.8333 39.576 64.516C39.1467 64.1987 38.6473 64.04 38.078 64.04C37.5087 64.04 37.0047 64.1987 36.566 64.516C36.1367 64.8333 35.8007 65.2953 35.558 65.902C35.3153 66.5087 35.194 67.2413 35.194 68.1C35.194 68.9587 35.3153 69.6913 35.558 70.298C35.8007 70.9047 36.1367 71.3667 36.566 71.684C37.0047 72.0013 37.5087 72.16 38.078 72.16ZM47.4675 73.084C46.7115 73.084 46.0348 72.8833 45.4375 72.482C44.8495 72.0807 44.3875 71.5067 44.0515 70.76C43.7248 70.004 43.5615 69.1173 43.5615 68.1C43.5615 67.0827 43.7248 66.2007 44.0515 65.454C44.3875 64.698 44.8495 64.1193 45.4375 63.718C46.0348 63.3167 46.7115 63.116 47.4675 63.116C48.2235 63.116 48.8955 63.3167 49.4835 63.718C50.0808 64.1193 50.5475 64.698 50.8835 65.454C51.2195 66.2007 51.3875 67.0827 51.3875 68.1C51.3875 69.1173 51.2195 70.004 50.8835 70.76C50.5475 71.5067 50.0808 72.0807 49.4835 72.482C48.8955 72.8833 48.2235 73.084 47.4675 73.084ZM47.4675 72.16C48.0368 72.16 48.5362 72.0013 48.9655 71.684C49.4042 71.3667 49.7448 70.9047 49.9875 70.298C50.2302 69.6913 50.3515 68.9587 50.3515 68.1C50.3515 67.2413 50.2302 66.5087 49.9875 65.902C49.7448 65.2953 49.4042 64.8333 48.9655 64.516C48.5362 64.1987 48.0368 64.04 47.4675 64.04C46.8982 64.04 46.3942 64.1987 45.9555 64.516C45.5262 64.8333 45.1902 65.2953 44.9475 65.902C44.7048 66.5087 44.5835 67.2413 44.5835 68.1C44.5835 68.9587 44.7048 69.6913 44.9475 70.298C45.1902 70.9047 45.5262 71.3667 45.9555 71.684C46.3942 72.0013 46.8982 72.16 47.4675 72.16ZM61.2711 63.2C62.5218 63.2 63.5018 63.4987 64.2111 64.096C64.9204 64.6933 65.2751 65.5147 65.2751 66.56C65.2751 67.6053 64.9204 68.4267 64.2111 69.024C63.5018 69.612 62.5218 69.906 61.2711 69.906H58.6391V73H57.6031V63.2H61.2711ZM61.2431 68.996C62.2138 68.996 62.9558 68.786 63.4691 68.366C63.9824 67.9367 64.2391 67.3347 64.2391 66.56C64.2391 65.7667 63.9824 65.16 63.4691 64.74C62.9558 64.3107 62.2138 64.096 61.2431 64.096H58.6391V68.996H61.2431ZM77.8132 63.2V73H76.8192V65.16L72.9692 71.754H72.4792L68.6292 65.202V73H67.6352V63.2H68.4892L72.7452 70.466L76.9592 63.2H77.8132ZM83.3144 68.842H97.3144V69.556H83.3144V68.842ZM110.276 70.424H108.316V73H107.308V70.424H101.778V69.696L106.972 63.2H108.092L103.08 69.528H107.336V67.26H108.316V69.528H110.276V70.424ZM112.16 67.106C111.955 67.106 111.778 67.0313 111.628 66.882C111.488 66.7327 111.418 66.5507 111.418 66.336C111.418 66.1213 111.488 65.944 111.628 65.804C111.778 65.6547 111.955 65.58 112.16 65.58C112.366 65.58 112.543 65.6547 112.692 65.804C112.842 65.944 112.916 66.1213 112.916 66.336C112.916 66.5507 112.842 66.7327 112.692 66.882C112.543 67.0313 112.366 67.106 112.16 67.106ZM112.16 73.07C111.955 73.07 111.778 72.9953 111.628 72.846C111.488 72.6967 111.418 72.5147 111.418 72.3C111.418 72.0853 111.488 71.908 111.628 71.768C111.778 71.6187 111.955 71.544 112.16 71.544C112.366 71.544 112.543 71.6187 112.692 71.768C112.842 71.908 112.916 72.0853 112.916 72.3C112.916 72.5147 112.842 72.6967 112.692 72.846C112.543 72.9953 112.366 73.07 112.16 73.07ZM118.397 73.084C117.641 73.084 116.964 72.8833 116.367 72.482C115.779 72.0807 115.317 71.5067 114.981 70.76C114.654 70.004 114.491 69.1173 114.491 68.1C114.491 67.0827 114.654 66.2007 114.981 65.454C115.317 64.698 115.779 64.1193 116.367 63.718C116.964 63.3167 117.641 63.116 118.397 63.116C119.153 63.116 119.825 63.3167 120.413 63.718C121.01 64.1193 121.477 64.698 121.813 65.454C122.149 66.2007 122.317 67.0827 122.317 68.1C122.317 69.1173 122.149 70.004 121.813 70.76C121.477 71.5067 121.01 72.0807 120.413 72.482C119.825 72.8833 119.153 73.084 118.397 73.084ZM118.397 72.16C118.966 72.16 119.466 72.0013 119.895 71.684C120.334 71.3667 120.674 70.9047 120.917 70.298C121.16 69.6913 121.281 68.9587 121.281 68.1C121.281 67.2413 121.16 66.5087 120.917 65.902C120.674 65.2953 120.334 64.8333 119.895 64.516C119.466 64.1987 118.966 64.04 118.397 64.04C117.828 64.04 117.324 64.1987 116.885 64.516C116.456 64.8333 116.12 65.2953 115.877 65.902C115.634 66.5087 115.513 67.2413 115.513 68.1C115.513 68.9587 115.634 69.6913 115.877 70.298C116.12 70.9047 116.456 71.3667 116.885 71.684C117.324 72.0013 117.828 72.16 118.397 72.16ZM127.787 73.084C127.031 73.084 126.354 72.8833 125.757 72.482C125.169 72.0807 124.707 71.5067 124.371 70.76C124.044 70.004 123.881 69.1173 123.881 68.1C123.881 67.0827 124.044 66.2007 124.371 65.454C124.707 64.698 125.169 64.1193 125.757 63.718C126.354 63.3167 127.031 63.116 127.787 63.116C128.543 63.116 129.215 63.3167 129.803 63.718C130.4 64.1193 130.867 64.698 131.203 65.454C131.539 66.2007 131.707 67.0827 131.707 68.1C131.707 69.1173 131.539 70.004 131.203 70.76C130.867 71.5067 130.4 72.0807 129.803 72.482C129.215 72.8833 128.543 73.084 127.787 73.084ZM127.787 72.16C128.356 72.16 128.855 72.0013 129.285 71.684C129.723 71.3667 130.064 70.9047 130.307 70.298C130.549 69.6913 130.671 68.9587 130.671 68.1C130.671 67.2413 130.549 66.5087 130.307 65.902C130.064 65.2953 129.723 64.8333 129.285 64.516C128.855 64.1987 128.356 64.04 127.787 64.04C127.217 64.04 126.713 64.1987 126.275 64.516C125.845 64.8333 125.509 65.2953 125.267 65.902C125.024 66.5087 124.903 67.2413 124.903 68.1C124.903 68.9587 125.024 69.6913 125.267 70.298C125.509 70.9047 125.845 71.3667 126.275 71.684C126.713 72.0013 127.217 72.16 127.787 72.16ZM144.068 70.382H138.608L137.432 73H136.354L140.834 63.2H141.856L146.336 73H145.244L144.068 70.382ZM143.69 69.542L141.338 64.278L138.986 69.542H143.69ZM158.255 63.2V73H157.261V65.16L153.411 71.754H152.921L149.071 65.202V73H148.077V63.2H148.931L153.187 70.466L157.401 63.2H158.255Z" fill="#9590A0"/>
<path d="M32.924 33.4V46H30.62V35.38H24.086V46H21.782V33.4H32.924ZM40.5089 46.126C39.5369 46.126 38.6609 45.916 37.8809 45.496C37.1009 45.076 36.4889 44.494 36.0449 43.75C35.6129 42.994 35.3969 42.142 35.3969 41.194C35.3969 40.246 35.6129 39.4 36.0449 38.656C36.4889 37.912 37.1009 37.33 37.8809 36.91C38.6609 36.49 39.5369 36.28 40.5089 36.28C41.4929 36.28 42.3749 36.49 43.1549 36.91C43.9349 37.33 44.5409 37.912 44.9729 38.656C45.4169 39.4 45.6389 40.246 45.6389 41.194C45.6389 42.142 45.4169 42.994 44.9729 43.75C44.5409 44.494 43.9349 45.076 43.1549 45.496C42.3749 45.916 41.4929 46.126 40.5089 46.126ZM40.5089 44.2C41.3369 44.2 42.0209 43.924 42.5609 43.372C43.1009 42.82 43.3709 42.094 43.3709 41.194C43.3709 40.294 43.1009 39.568 42.5609 39.016C42.0209 38.464 41.3369 38.188 40.5089 38.188C39.6809 38.188 38.9969 38.464 38.4569 39.016C37.9289 39.568 37.6649 40.294 37.6649 41.194C37.6649 42.094 37.9289 42.82 38.4569 43.372C38.9969 43.924 39.6809 44.2 40.5089 44.2ZM53.463 40.996C54.063 41.164 54.525 41.44 54.849 41.824C55.185 42.196 55.353 42.646 55.353 43.174C55.353 43.762 55.155 44.284 54.759 44.74C54.363 45.184 53.817 45.532 53.121 45.784C52.425 46.036 51.633 46.162 50.745 46.162C50.001 46.162 49.275 46.078 48.567 45.91C47.859 45.73 47.217 45.478 46.641 45.154L47.289 43.48C47.757 43.744 48.285 43.948 48.873 44.092C49.461 44.236 50.049 44.308 50.637 44.308C51.393 44.308 51.981 44.194 52.401 43.966C52.833 43.726 53.049 43.402 53.049 42.994C53.049 42.622 52.881 42.334 52.545 42.13C52.221 41.926 51.759 41.824 51.159 41.824H49.287V40.312H50.979C51.543 40.312 51.981 40.216 52.293 40.024C52.617 39.832 52.779 39.562 52.779 39.214C52.779 38.866 52.587 38.59 52.203 38.386C51.819 38.182 51.291 38.08 50.619 38.08C49.659 38.08 48.645 38.314 47.577 38.782L47.001 37.126C48.261 36.538 49.533 36.244 50.817 36.244C51.633 36.244 52.365 36.358 53.013 36.586C53.661 36.802 54.165 37.114 54.525 37.522C54.897 37.918 55.083 38.374 55.083 38.89C55.083 39.358 54.939 39.778 54.651 40.15C54.363 40.51 53.967 40.792 53.463 40.996ZM64.6538 40.996C65.8418 41.356 66.4358 42.124 66.4358 43.3C66.4358 44.164 66.1118 44.83 65.4638 45.298C64.8158 45.766 63.8558 46 62.5838 46H57.6878V36.388H62.3858C63.5618 36.388 64.4798 36.604 65.1398 37.036C65.7998 37.468 66.1298 38.08 66.1298 38.872C66.1298 39.364 65.9978 39.79 65.7338 40.15C65.4818 40.51 65.1218 40.792 64.6538 40.996ZM59.8298 40.402H62.1878C63.3518 40.402 63.9338 40 63.9338 39.196C63.9338 38.416 63.3518 38.026 62.1878 38.026H59.8298V40.402ZM62.4038 44.362C63.6398 44.362 64.2578 43.96 64.2578 43.156C64.2578 42.736 64.1138 42.424 63.8258 42.22C63.5378 42.004 63.0878 41.896 62.4758 41.896H59.8298V44.362H62.4038ZM73.1163 46.126C72.1443 46.126 71.2683 45.916 70.4883 45.496C69.7083 45.076 69.0963 44.494 68.6523 43.75C68.2203 42.994 68.0043 42.142 68.0043 41.194C68.0043 40.246 68.2203 39.4 68.6523 38.656C69.0963 37.912 69.7083 37.33 70.4883 36.91C71.2683 36.49 72.1443 36.28 73.1163 36.28C74.1003 36.28 74.9823 36.49 75.7623 36.91C76.5423 37.33 77.1483 37.912 77.5803 38.656C78.0243 39.4 78.2463 40.246 78.2463 41.194C78.2463 42.142 78.0243 42.994 77.5803 43.75C77.1483 44.494 76.5423 45.076 75.7623 45.496C74.9823 45.916 74.1003 46.126 73.1163 46.126ZM73.1163 44.2C73.9443 44.2 74.6283 43.924 75.1683 43.372C75.7083 42.82 75.9783 42.094 75.9783 41.194C75.9783 40.294 75.7083 39.568 75.1683 39.016C74.6283 38.464 73.9443 38.188 73.1163 38.188C72.2883 38.188 71.6043 38.464 71.0643 39.016C70.5363 39.568 70.2723 40.294 70.2723 41.194C70.2723 42.094 70.5363 42.82 71.0643 43.372C71.6043 43.924 72.2883 44.2 73.1163 44.2ZM80.469 36.388H82.719V40.294H87.561V36.388H89.811V46H87.561V42.202H82.719V46H80.469V36.388ZM92.8265 36.388H95.0765V42.724L100.386 36.388H102.438V46H100.188V39.664L94.8965 46H92.8265V36.388ZM113.079 38.296H109.713V46H107.463V38.296H104.079V36.388H113.079V38.296ZM119.535 39.556C120.759 39.556 121.695 39.832 122.343 40.384C123.003 40.936 123.333 41.716 123.333 42.724C123.333 43.78 122.973 44.596 122.253 45.172C121.533 45.748 120.519 46.03 119.211 46.018L114.711 46V36.388H116.961V39.538L119.535 39.556ZM119.013 44.362C119.673 44.374 120.177 44.236 120.525 43.948C120.873 43.66 121.047 43.24 121.047 42.688C121.047 42.148 120.879 41.752 120.543 41.5C120.207 41.248 119.697 41.116 119.013 41.104L116.961 41.086V44.344L119.013 44.362ZM139.735 46V39.628L136.495 44.992H135.523L132.337 39.61V46H130.285V36.388H132.643L136.063 42.4L139.645 36.388H141.751L141.769 46H139.735ZM148.369 36.28C149.785 36.28 150.865 36.622 151.609 37.306C152.365 37.978 152.743 38.998 152.743 40.366V46H150.619V44.83C150.343 45.25 149.947 45.574 149.431 45.802C148.927 46.018 148.315 46.126 147.595 46.126C146.875 46.126 146.245 46.006 145.705 45.766C145.165 45.514 144.745 45.172 144.445 44.74C144.157 44.296 144.013 43.798 144.013 43.246C144.013 42.382 144.331 41.692 144.967 41.176C145.615 40.648 146.629 40.384 148.009 40.384H150.493V40.24C150.493 39.568 150.289 39.052 149.881 38.692C149.485 38.332 148.891 38.152 148.099 38.152C147.559 38.152 147.025 38.236 146.497 38.404C145.981 38.572 145.543 38.806 145.183 39.106L144.301 37.468C144.805 37.084 145.411 36.79 146.119 36.586C146.827 36.382 147.577 36.28 148.369 36.28ZM148.063 44.488C148.627 44.488 149.125 44.362 149.557 44.11C150.001 43.846 150.313 43.474 150.493 42.994V41.878H148.171C146.875 41.878 146.227 42.304 146.227 43.156C146.227 43.564 146.389 43.888 146.713 44.128C147.037 44.368 147.487 44.488 148.063 44.488ZM164.978 46V39.628L161.738 44.992H160.766L157.58 39.61V46H155.528V36.388H157.886L161.306 42.4L164.888 36.388H166.994L167.012 46H164.978ZM179.03 41.248C179.03 41.404 179.018 41.626 178.994 41.914H171.452C171.584 42.622 171.926 43.186 172.478 43.606C173.042 44.014 173.738 44.218 174.566 44.218C175.622 44.218 176.492 43.87 177.176 43.174L178.382 44.56C177.95 45.076 177.404 45.466 176.744 45.73C176.084 45.994 175.34 46.126 174.512 46.126C173.456 46.126 172.526 45.916 171.722 45.496C170.918 45.076 170.294 44.494 169.85 43.75C169.418 42.994 169.202 42.142 169.202 41.194C169.202 40.258 169.412 39.418 169.832 38.674C170.264 37.918 170.858 37.33 171.614 36.91C172.37 36.49 173.222 36.28 174.17 36.28C175.106 36.28 175.94 36.49 176.672 36.91C177.416 37.318 177.992 37.9 178.4 38.656C178.82 39.4 179.03 40.264 179.03 41.248ZM174.17 38.08C173.45 38.08 172.838 38.296 172.334 38.728C171.842 39.148 171.542 39.712 171.434 40.42H176.888C176.792 39.724 176.498 39.16 176.006 38.728C175.514 38.296 174.902 38.08 174.17 38.08Z" fill="#EEECF1"/>
<path d="M0 8C0 3.58172 3.58172 0 8 0V104C3.58172 104 0 100.418 0 96V8Z" fill="url(#paint0_linear_0_1)"/>
<circle cx="216" cy="34" r="24" fill="url(#paint1_linear_0_1)"/>
<path d="M218.938 28C219.915 28.1906 220.813 28.6683 221.516 29.3719C222.22 30.0756 222.698 30.9733 222.888 31.95M218.938 24C220.967 24.2254 222.86 25.1342 224.304 26.577C225.749 28.0198 226.66 29.911 226.888 31.94M225.888 39.92V42.92C225.889 43.1985 225.832 43.4742 225.721 43.7293C225.609 43.9845 225.445 44.2136 225.24 44.4019C225.035 44.5901 224.793 44.7335 224.529 44.8227C224.265 44.9119 223.985 44.9451 223.708 44.92C220.631 44.5856 217.675 43.5341 215.078 41.85C212.662 40.3147 210.613 38.2662 209.078 35.85C207.388 33.2412 206.336 30.271 206.008 27.18C205.983 26.9035 206.016 26.6248 206.105 26.3616C206.193 26.0985 206.336 25.8567 206.523 25.6516C206.71 25.4466 206.938 25.2827 207.192 25.1705C207.446 25.0583 207.72 25.0003 207.998 25H210.998C211.483 24.9952 211.954 25.1671 212.322 25.4835C212.69 25.8 212.93 26.2394 212.998 26.72C213.125 27.6801 213.36 28.6227 213.698 29.53C213.833 29.8879 213.862 30.2769 213.782 30.6509C213.702 31.0248 213.517 31.3681 213.248 31.64L211.978 32.91C213.402 35.4135 215.475 37.4864 217.978 38.91L219.248 37.64C219.52 37.3711 219.863 37.1858 220.237 37.1061C220.611 37.0263 221 37.0555 221.358 37.19C222.265 37.5286 223.208 37.7634 224.168 37.89C224.654 37.9585 225.098 38.2032 225.415 38.5775C225.732 38.9518 225.9 39.4296 225.888 39.92Z" stroke="white" stroke-width="2" stroke-linecap="round" stroke-linejoin="round"/>
<defs>
<linearGradient id="paint0_linear_0_1" x1="9.36691" y1="90.1947" x2="-4.07498" y2="89.7635" gradientUnits="userSpaceOnUse">
<stop offset="0.0238222" stop-color="#E95616"/>
<stop offset="1" stop-color="#2B2D83"/>
</linearGradient>
<linearGradient id="paint1_linear_0_1" x1="248.201" y1="51.6283" x2="179.426" y2="22.9497" gradientUnits="userSpaceOnUse">
<stop offset="0.0238222" stop-color="#E95616"/>
<stop offset="1" stop-color="#2B2D83"/>
</linearGradient>
</defs>
</svg>
