<svg width="178" height="11" viewBox="0 0 178 11" fill="none" xmlns="http://www.w3.org/2000/svg">
    <path d="M162.152 9.192C161.408 9.192 160.748 9.02 160.172 8.676C159.604 8.324 159.156 7.82 158.828 7.164C158.508 6.5 158.348 5.712 158.348 4.8C158.348 3.888 158.508 3.104 158.828 2.448C159.156 1.784 159.604 1.28 160.172 0.935999C160.748 0.584 161.408 0.408 162.152 0.408C162.896 0.408 163.552 0.584 164.12 0.935999C164.696 1.28 165.144 1.784 165.464 2.448C165.792 3.104 165.956 3.888 165.956 4.8C165.956 5.712 165.792 6.5 165.464 7.164C165.144 7.82 164.696 8.324 164.12 8.676C163.552 9.02 162.896 9.192 162.152 9.192ZM162.152 6.924C162.792 6.924 163.112 6.216 163.112 4.8C163.112 3.384 162.792 2.676 162.152 2.676C161.512 2.676 161.192 3.384 161.192 4.8C161.192 6.216 161.512 6.924 162.152 6.924ZM168.733 5.16C168.077 5.16 167.541 4.952 167.125 4.536C166.709 4.12 166.501 3.548 166.501 2.82C166.501 2.332 166.597 1.912 166.789 1.56C166.981 1.208 167.245 0.94 167.581 0.756C167.925 0.572 168.309 0.48 168.733 0.48C169.157 0.48 169.537 0.572 169.873 0.756C170.217 0.94 170.485 1.208 170.677 1.56C170.869 1.912 170.965 2.332 170.965 2.82C170.965 3.548 170.757 4.12 170.341 4.536C169.925 4.952 169.389 5.16 168.733 5.16ZM173.665 0.599999H175.693L169.957 9H167.929L173.665 0.599999ZM168.733 3.864C168.885 3.864 169.009 3.784 169.105 3.624C169.209 3.456 169.261 3.188 169.261 2.82C169.261 2.452 169.209 2.188 169.105 2.028C169.009 1.86 168.885 1.776 168.733 1.776C168.581 1.776 168.453 1.86 168.349 2.028C168.253 2.188 168.205 2.452 168.205 2.82C168.205 3.188 168.253 3.456 168.349 3.624C168.453 3.784 168.581 3.864 168.733 3.864ZM174.889 9.12C174.233 9.12 173.697 8.912 173.281 8.496C172.865 8.08 172.657 7.508 172.657 6.78C172.657 6.292 172.753 5.872 172.945 5.52C173.137 5.168 173.401 4.9 173.737 4.716C174.081 4.532 174.465 4.44 174.889 4.44C175.313 4.44 175.693 4.532 176.029 4.716C176.373 4.9 176.641 5.168 176.833 5.52C177.025 5.872 177.121 6.292 177.121 6.78C177.121 7.508 176.913 8.08 176.497 8.496C176.081 8.912 175.545 9.12 174.889 9.12ZM174.889 7.824C175.041 7.824 175.165 7.744 175.261 7.584C175.365 7.416 175.417 7.148 175.417 6.78C175.417 6.412 175.365 6.148 175.261 5.988C175.165 5.82 175.041 5.736 174.889 5.736C174.737 5.736 174.609 5.82 174.505 5.988C174.409 6.148 174.361 6.412 174.361 6.78C174.361 7.148 174.409 7.416 174.505 7.584C174.609 7.744 174.737 7.824 174.889 7.824Z" fill="white"/>
    <path opacity="0.6" d="M4 7H133" stroke="#D5D5D5" stroke-width="7" stroke-linecap="round" stroke-linejoin="round"/>
</svg>
