<svg width="42" height="42" viewBox="0 0 42 42" fill="none" xmlns="http://www.w3.org/2000/svg">
    <circle cx="21" cy="21" r="20" stroke="#08A652" stroke-width="2"/>
    <path d="M11.2734 15.6641C9.33451 15.6641 7.75781 14.0874 7.75781 12.1484C7.75781 10.2095 9.33451 8.63281 11.2734 8.63281C13.2124 8.63281 14.7891 10.2095 14.7891 12.1484C14.7891 14.0874 13.2124 15.6641 11.2734 15.6641Z" fill="#08A652"/>
    <path d="M30.7266 15.6641C28.7876 15.6641 27.2109 14.0874 27.2109 12.1484C27.2109 10.2095 28.7876 8.63281 30.7266 8.63281C32.6655 8.63281 34.2422 10.2095 34.2422 12.1484C34.2422 14.0874 32.6655 15.6641 30.7266 15.6641Z" fill="#08A652"/>
    <path d="M21 13.7891C18.577 13.7891 16.6055 11.8176 16.6055 9.39453C16.6055 6.9715 18.577 5 21 5C23.423 5 25.3945 6.9715 25.3945 9.39453C25.3945 11.8176 23.423 13.7891 21 13.7891Z" fill="#08A652"/>
    <path d="M21.8789 13.8779V19.9414C21.8789 20.4272 21.4858 20.8204 21 20.8204C20.5142 20.8204 20.1211 20.4272 20.1211 19.9414V13.8779C17.1475 14.309 14.8477 16.8503 14.8477 19.9414V25.2149C14.8477 25.7007 15.2408 26.0938 15.7266 26.0938H17.6955L18.3667 34.195C18.4045 34.6498 18.7856 35 19.2422 35H22.7578C23.2144 35 23.5955 34.6498 23.6333 34.195L24.3045 26.0938H26.2734C26.7592 26.0938 27.1523 25.7007 27.1523 25.2149V19.9414C27.1523 16.8503 24.8525 14.309 21.8789 13.8779V13.8779Z" fill="#08A652"/>
    <path d="M13.0313 25.332V20.0586C13.0313 18.7412 13.3857 17.5169 13.9577 16.4233C13.1685 15.9522 12.2575 15.6641 11.2734 15.6641C8.36549 15.6641 6 18.0296 6 20.9375V25.332C6 25.8178 6.39311 26.2109 6.87891 26.2109H7.84107L8.641 34.2086C8.68564 34.6575 9.06416 35 9.51563 35H13.0313C13.4827 35 13.8612 34.6575 13.9059 34.2086L14.5555 27.7139C13.6581 27.2928 13.0313 26.3871 13.0313 25.332V25.332Z" fill="#08A652"/>
    <path d="M35.9999 20.9375C35.9999 18.0296 33.6345 15.6641 30.7265 15.6641C29.7425 15.6641 28.8315 15.9522 28.0423 16.4233C28.6142 17.5169 28.9687 18.7412 28.9687 20.0586V25.332C28.9687 26.3871 28.3418 27.2928 27.4445 27.7139L28.0941 34.2086C28.1387 34.6575 28.5172 35 28.9687 35H32.4843C32.9358 35 33.3143 34.6575 33.359 34.2086L34.1589 26.2109H35.121C35.6068 26.2109 35.9999 25.8178 35.9999 25.332V20.9375Z" fill="#08A652"/>
</svg>
