<svg width="196" height="40" viewBox="0 0 196 40" fill="none" xmlns="http://www.w3.org/2000/svg">
    <path d="M36.7801 15.0343C36.7801 22.9918 30.3293 29.4426 22.3719 29.4426C14.4144 29.4426 7.96362 22.9918 7.96362 15.0343C7.96362 7.07688 14.4144 0.626099 22.3719 0.626099C30.3293 0.626099 36.7801 7.07688 36.7801 15.0343Z" fill="#E95616"/>
    <path d="M29.043 24.9657C29.043 32.9232 22.5922 39.3739 14.6348 39.3739C6.67735 39.3739 0.226562 32.9232 0.226562 24.9657C0.226562 17.0083 6.67735 10.5575 14.6348 10.5575C22.5922 10.5575 29.043 17.0083 29.043 24.9657Z" fill="#2C2D84"/>
    <path d="M58.6157 33.7342C56.4532 33.7342 54.5021 33.2869 52.7622 32.3921C51.0223 31.4973 49.6553 30.2545 48.6611 28.6637C47.6917 27.073 47.207 25.271 47.207 23.2577C47.207 21.2693 47.6917 19.4797 48.6611 17.8889C49.6553 16.2982 51.0099 15.0678 52.7249 14.1979C54.4648 13.3031 56.4284 12.8557 58.6157 12.8557C60.8029 12.8557 62.7665 13.3031 64.5064 14.1979C66.2463 15.0678 67.6009 16.2982 68.5702 17.8889C69.5396 19.4548 70.0243 21.2444 70.0243 23.2577C70.0243 25.271 69.5396 27.073 68.5702 28.6637C67.6009 30.2545 66.2463 31.4973 64.5064 32.3921C62.7665 33.2869 60.8029 33.7342 58.6157 33.7342ZM58.6157 28.1045C59.8584 28.1045 60.8775 27.682 61.6729 26.8369C62.4682 25.9669 62.8659 24.7739 62.8659 23.2577C62.8659 21.7664 62.4682 20.5982 61.6729 19.7531C60.8775 18.908 59.8584 18.4855 58.6157 18.4855C57.3729 18.4855 56.3538 18.908 55.5584 19.7531C54.7631 20.5982 54.3654 21.7664 54.3654 23.2577C54.3654 24.7739 54.7631 25.9669 55.5584 26.8369C56.3538 27.682 57.3729 28.1045 58.6157 28.1045Z" fill="white"/>
    <path d="M94.2251 13.1913V33.3987H87.1786V18.821H80.3931V33.3987H73.3466V13.1913H94.2251Z" fill="white"/>
    <path d="M117.097 18.821H110.609V33.3987H103.563V18.821H97.0382V13.1913H117.097V18.821Z" fill="white"/>
    <path d="M119.841 13.1913H126.888V23.7797L135.351 13.1913H141.876V33.3987H134.792V22.773L126.403 33.3987H119.841V13.1913Z" fill="white"/>
    <path d="M166.249 33.3987V22.773L161.067 31.6091H158.047L153.014 22.6239V33.3987H146.638V13.1913H154.095L159.725 23.7424L165.914 13.1913H172.587L172.625 33.3987H166.249Z" fill="white"/>
    <path d="M185.644 12.8557C188.999 12.8557 191.559 13.6262 193.324 15.1673C195.089 16.6834 195.971 19.0199 195.971 22.1765V33.3987H189.372V30.7889C188.353 32.7525 186.365 33.7342 183.407 33.7342C181.841 33.7342 180.486 33.4608 179.343 32.914C178.2 32.3672 177.33 31.634 176.733 30.7143C176.161 29.7698 175.876 28.701 175.876 27.508C175.876 25.5941 176.609 24.1152 178.075 23.0713C179.542 22.0025 181.804 21.4681 184.861 21.4681H188.887C188.763 19.3305 187.334 18.2618 184.6 18.2618C183.631 18.2618 182.649 18.4233 181.655 18.7464C180.66 19.0447 179.815 19.4672 179.119 20.0141L176.733 15.2045C177.852 14.4589 179.206 13.8872 180.797 13.4895C182.413 13.067 184.028 12.8557 185.644 12.8557ZM185.383 29.2603C186.203 29.2603 186.924 29.0614 187.545 28.6637C188.167 28.2661 188.614 27.682 188.887 26.9114V25.1591H185.83C183.767 25.1591 182.736 25.8427 182.736 27.2097C182.736 27.8311 182.972 28.3282 183.444 28.701C183.916 29.0739 184.563 29.2603 185.383 29.2603Z" fill="white"/>
</svg>
