<svg width="14" height="11" viewBox="0 0 14 11" fill="none" xmlns="http://www.w3.org/2000/svg">
    <path fill-rule="evenodd" clip-rule="evenodd" d="M12.2 0.000152588H1.8C1.085 0.000152588 0.5065 0.585153 0.5065 1.30015L0.5 9.10015C0.5 9.81515 1.085 10.4002 1.8 10.4002H12.2C12.915 10.4002 13.5 9.81515 13.5 9.10015V1.30015C13.5 0.585153 12.915 0.000152588 12.2 0.000152588ZM11.55 9.10015H2.45C2.0925 9.10015 1.8 8.80765 1.8 8.45015V2.60015L6.311 5.42115C6.7335 5.68765 7.2665 5.68765 7.689 5.42115L12.2 2.60015V8.45015C12.2 8.80765 11.9075 9.10015 11.55 9.10015ZM7 4.55015L1.8 1.30015H12.2L7 4.55015Z" fill="#C0C0C0"/>
</svg>
