<svg width="296" height="310" viewBox="0 0 296 310" fill="none" xmlns="http://www.w3.org/2000/svg">
    <path d="M207.443 134.839C207.443 177.288 173.032 211.699 130.583 211.699C88.1341 211.699 53.7226 177.288 53.7226 134.839C53.7226 92.3903 88.1341 57.9788 130.583 57.9788C173.032 57.9788 207.443 92.3903 207.443 134.839Z" stroke="white" stroke-width="9"/>
    <path d="M206.569 146.469L202.12 145.794L200.621 155.668L209.011 150.249L206.569 146.469ZM88.9337 70.2304L84.4847 69.5551L82.9859 79.4298L91.3754 74.0104L88.9337 70.2304ZM237.28 81.8602C237.28 107.368 224.085 129.797 204.127 142.689L209.011 150.249C231.426 135.769 246.28 110.551 246.28 81.8602H237.28ZM164.92 9.5C204.883 9.5 237.28 41.8968 237.28 81.8602H246.28C246.28 36.9262 209.854 0.5 164.92 0.5V9.5ZM93.3828 70.9057C98.6593 36.1417 128.682 9.5 164.92 9.5V0.5C124.167 0.5 90.4188 30.4588 84.4847 69.5551L93.3828 70.9057ZM91.3754 74.0104C102.67 66.7141 116.125 62.4788 130.583 62.4788V53.4788C114.341 53.4788 99.1984 58.2425 86.492 66.4505L91.3754 74.0104ZM130.583 62.4788C170.546 62.4788 202.943 94.8755 202.943 134.839H211.943C211.943 89.905 175.517 53.4788 130.583 53.4788V62.4788ZM202.943 134.839C202.943 138.566 202.662 142.224 202.12 145.794L211.018 147.144C211.627 143.129 211.943 139.019 211.943 134.839H202.943Z" fill="white"/>
    <path d="M22.7 309.456C18.3974 309.456 14.5152 308.566 11.0533 306.785C7.59141 305.005 4.87136 302.532 2.89314 299.367C0.964381 296.202 0 292.616 0 288.61C0 284.654 0.964381 281.093 2.89314 277.928C4.87136 274.763 7.56668 272.315 10.9791 270.584C14.441 268.804 18.348 267.913 22.7 267.913C27.0521 267.913 30.9591 268.804 34.421 270.584C37.8829 272.315 40.5782 274.763 42.5069 277.928C44.4357 281.044 45.4001 284.605 45.4001 288.61C45.4001 292.616 44.4357 296.202 42.5069 299.367C40.5782 302.532 37.8829 305.005 34.421 306.785C30.9591 308.566 27.0521 309.456 22.7 309.456ZM22.7 298.254C25.1728 298.254 27.2005 297.414 28.7831 295.732C30.3656 294.001 31.1569 291.627 31.1569 288.61C31.1569 285.643 30.3656 283.319 28.7831 281.637C27.2005 279.956 25.1728 279.115 22.7 279.115C20.2273 279.115 18.1996 279.956 16.617 281.637C15.0345 283.319 14.2432 285.643 14.2432 288.61C14.2432 291.627 15.0345 294.001 16.617 295.732C18.1996 297.414 20.2273 298.254 22.7 298.254Z" fill="white"/>
    <path d="M93.5531 268.581V308.788H79.5325V279.783H66.0311V308.788H52.0105V268.581H93.5531Z" fill="white"/>
    <path d="M139.061 279.783H126.153V308.788H112.132V279.783H99.1504V268.581H139.061V279.783Z" fill="white"/>
    <path d="M144.522 268.581H158.543V289.649L175.382 268.581H188.364V308.788H174.27V287.646L157.578 308.788H144.522V268.581Z" fill="white"/>
    <path d="M236.862 308.788V287.646L226.55 305.228H220.541L210.527 287.349V308.788H197.841V268.581H212.678L223.88 289.575L236.194 268.581H249.473L249.547 308.788H236.862Z" fill="white"/>
    <path d="M275.451 267.913C282.128 267.913 287.222 269.447 290.733 272.513C294.244 275.53 296 280.178 296 286.459V308.788H282.87V303.595C280.842 307.502 276.885 309.456 271 309.456C267.885 309.456 265.189 308.912 262.914 307.824C260.639 306.736 258.908 305.277 257.722 303.447C256.584 301.568 256.015 299.441 256.015 297.067C256.015 293.259 257.474 290.317 260.392 288.24C263.31 286.113 267.81 285.05 273.893 285.05H281.905C281.658 280.797 278.814 278.67 273.374 278.67C271.445 278.67 269.492 278.991 267.514 279.634C265.535 280.228 263.854 281.069 262.469 282.157L257.722 272.587C259.947 271.103 262.642 269.966 265.807 269.175C269.022 268.334 272.237 267.913 275.451 267.913ZM274.932 300.554C276.564 300.554 277.998 300.158 279.235 299.367C280.471 298.576 281.361 297.414 281.905 295.88V292.394H275.822C271.717 292.394 269.665 293.754 269.665 296.474C269.665 297.71 270.135 298.699 271.074 299.441C272.014 300.183 273.3 300.554 274.932 300.554Z" fill="white"/>
</svg>
