<svg width="13" height="13" viewBox="0 0 13 13" fill="none" xmlns="http://www.w3.org/2000/svg">
    <path fill-rule="evenodd" clip-rule="evenodd" d="M9.36333 7.98136H8.77159L8.56186 7.78546C9.4607 6.76971 9.9251 5.38394 9.67043 3.9111C9.31838 1.8941 7.58064 0.283413 5.48336 0.0367307C2.31497 -0.340548 -0.351575 2.24236 0.03792 5.31138C0.29259 7.34289 1.95543 9.02613 4.03773 9.36713C5.55826 9.61381 6.9889 9.16398 8.03754 8.29334L8.23978 8.49649V9.06966L11.4232 12.1532C11.7303 12.4507 12.2321 12.4507 12.5392 12.1532C12.8463 11.8557 12.8463 11.3696 12.5392 11.0721L9.36333 7.98136ZM4.86941 7.98137C3.00433 7.98137 1.49878 6.52304 1.49878 4.71645C1.49878 2.90987 3.00433 1.45154 4.86941 1.45154C6.73449 1.45154 8.24004 2.90987 8.24004 4.71645C8.24004 6.52304 6.73449 7.98137 4.86941 7.98137Z" fill="#434344"/>
</svg>
