<svg width="131" height="138" viewBox="0 0 131 138" fill="none" xmlns="http://www.w3.org/2000/svg">
<g clip-path="url(#clip0_122_494)">
<path d="M117.696 71.6603C117.696 101.07 94.2861 124.91 65.3961 124.91C53.0692 124.92 41.1489 120.502 31.806 112.46C22.5988 104.598 16.3453 93.8332 14.076 81.9403C13.415 78.5535 13.0802 75.111 13.076 71.6603C13.096 42.2503 36.5061 18.3703 65.3961 18.3703C75.6579 18.3723 85.6857 21.4363 94.196 27.1703C98.4981 30.0661 102.35 33.5806 105.626 37.6003C113.457 47.1984 117.723 59.2127 117.696 71.6003V71.6603Z" fill="#F93052"/>
<path d="M114.956 54.6103L48.646 122.12C42.4698 119.993 36.7524 116.715 31.796 112.46C32.006 112.19 32.226 111.95 32.466 111.7L103.776 39.0903C104.328 38.5335 104.946 38.0465 105.616 37.6403C109.735 42.6824 112.9 48.4331 114.956 54.6103Z" fill="#F15A24"/>
<path d="M94.196 27.2103C94.016 27.4203 93.846 27.6203 93.646 27.8203L22.326 100.43C22.126 100.63 21.936 100.81 21.726 100.99C17.9695 95.2112 15.3682 88.7589 14.066 81.9903L75.456 19.3703C82.1623 20.7102 88.5335 23.3756 94.196 27.2103Z" fill="#F15A24"/>
<path d="M129.766 62.8703C127.499 78.3071 119.754 92.4133 107.947 102.613C96.1403 112.812 81.0585 118.424 65.4561 118.424C49.8536 118.424 34.7718 112.812 22.9648 102.613C11.1577 92.4133 3.41341 78.3071 1.14605 62.8703C0.687829 66.0162 0.45723 69.1912 0.456055 72.3703C0.456055 89.6094 7.30425 106.142 19.4941 118.332C31.684 130.522 48.217 137.37 65.4561 137.37C82.6951 137.37 99.2281 130.522 111.418 118.332C123.608 106.142 130.456 89.6094 130.456 72.3703C130.455 69.1912 130.224 66.0162 129.766 62.8703Z" fill="#ED1C24"/>
<path d="M65.4561 20.3703C74.3562 20.3703 83.0565 23.0095 90.4567 27.9542C97.857 32.8988 103.625 39.9269 107.031 48.1495C110.437 56.3722 111.328 65.4202 109.591 74.1494C107.855 82.8785 103.569 90.8967 97.2759 97.1901C90.9825 103.483 82.9643 107.769 74.2352 109.506C65.506 111.242 56.458 110.351 48.2353 106.945C40.0127 103.539 32.9846 97.7712 28.04 90.371C23.0953 82.9707 20.4561 74.2705 20.4561 65.3703C20.4693 53.4396 25.2146 42.0014 33.6509 33.5651C42.0872 25.1288 53.5254 20.3835 65.4561 20.3703ZM65.4561 0.3703C52.6003 0.3703 40.0332 4.18248 29.344 11.3248C18.6548 18.4671 10.3236 28.6187 5.40391 40.4959C0.484218 52.3731 -0.802999 65.4424 1.70504 78.0512C4.21308 90.6599 10.4037 102.242 19.4941 111.332C28.5846 120.423 40.1665 126.613 52.7752 129.121C65.384 131.629 78.4533 130.342 90.3305 125.422C102.208 120.503 112.359 112.172 119.502 101.482C126.644 90.7932 130.456 78.2261 130.456 65.3703C130.456 48.1312 123.608 31.5982 111.418 19.4084C99.2282 7.2185 82.6952 0.3703 65.4561 0.3703V0.3703Z" fill="#F7931E"/>
<path d="M65.9561 111.37C40.6861 111.37 18.1961 101.48 3.84607 86.1103C8.14594 98.8607 16.2969 109.962 27.1743 117.884C38.0517 125.805 51.1193 130.155 64.574 130.334C78.0287 130.513 91.2074 126.511 102.291 118.882C113.376 111.253 121.819 100.372 126.456 87.7403C112.096 102.18 90.3161 111.37 65.9561 111.37Z" fill="#F15A24"/>
<path d="M69.1061 80.3703L76.4561 100.97C76.4965 101.081 76.5467 101.188 76.6061 101.29C77.4361 102.88 79.8861 103.49 82.2761 102.63C84.6661 101.77 86.1661 99.7503 85.8061 97.9903C85.7861 97.8745 85.756 97.7608 85.7161 97.6503L78.3561 77.0103C77.6961 75.1803 75.0761 74.4303 72.5361 75.3403C71.3643 75.7387 70.3444 76.4896 69.6161 77.4903C69.3022 77.8921 69.0916 78.3648 69.0027 78.8668C68.9138 79.3689 68.9493 79.8851 69.1061 80.3703Z" fill="#ED1C24"/>
<path d="M66.996 79.1603L59.516 100.03C59.4756 100.141 59.4254 100.248 59.366 100.35C58.526 101.96 56.066 102.58 53.686 101.73C51.306 100.88 49.796 98.8303 50.166 97.0603C50.186 96.9445 50.2161 96.8308 50.256 96.7203L57.736 75.8503C58.396 74.0003 61.026 73.2303 63.576 74.1403C64.7356 74.5412 65.742 75.2925 66.456 76.2903C66.7718 76.6892 66.9859 77.1588 67.08 77.6587C67.1741 78.1586 67.1452 78.674 66.996 79.1603Z" fill="#ED1C24"/>
<path d="M66.3661 46.0403C66.5861 45.6003 66.946 45.6003 67.166 46.0403L69.706 51.1903C69.8411 51.4303 70.0262 51.6385 70.2487 51.8007C70.4713 51.9629 70.7262 52.0753 70.9961 52.1303L76.6861 52.9603C77.1761 53.0303 77.2861 53.3703 76.9361 53.7203L72.816 57.7203C72.6301 57.9237 72.4901 58.1647 72.4055 58.4269C72.321 58.6892 72.2939 58.9666 72.3261 59.2403L73.3261 64.9103C73.4061 65.4003 73.1161 65.6103 72.6761 65.3803L67.586 62.7003C67.3364 62.5867 67.0653 62.528 66.791 62.528C66.5168 62.528 66.2457 62.5867 65.9961 62.7003L60.876 65.3703C60.436 65.6003 60.1461 65.3703 60.2261 64.9003L61.226 59.2303C61.2582 58.9566 61.2311 58.6792 61.1466 58.4169C61.062 58.1547 60.922 57.9137 60.736 57.7103L56.616 53.7103C56.266 53.3603 56.376 53.0203 56.866 52.9503L62.556 52.1203C62.8259 52.0653 63.0808 51.9529 63.3034 51.7907C63.5259 51.6285 63.711 51.4203 63.846 51.1803L66.3661 46.0403Z" fill="#ED1C24"/>
<path d="M68.0261 79.6603L75.4561 100.3C75.4965 100.411 75.5467 100.518 75.6061 100.62C76.4361 102.21 78.8861 102.82 81.2761 101.96C83.6661 101.1 85.1661 99.0803 84.8061 97.3203C84.7861 97.2045 84.756 97.0908 84.7161 96.9803L77.2861 76.3703C76.6261 74.5403 74.0061 73.7903 71.4661 74.7003C70.2943 75.0987 69.2744 75.8496 68.5461 76.8503C68.2418 77.2434 68.0359 77.7035 67.9455 78.1923C67.855 78.681 67.8827 79.1844 68.0261 79.6603Z" fill="white"/>
<path d="M65.9161 78.4903L58.4561 99.3703C58.4156 99.4812 58.3654 99.5883 58.3061 99.6903C57.4661 101.3 55.0061 101.92 52.6261 101.07C50.2461 100.22 48.7161 98.1703 49.0961 96.3703C49.116 96.2545 49.1461 96.1408 49.1861 96.0303L56.6661 75.1703C57.3261 73.3203 59.9561 72.5503 62.5061 73.4603C63.6927 73.851 64.7253 74.6071 65.4561 75.6203C65.7583 76.0262 65.958 76.4992 66.0381 76.9989C66.1182 77.4986 66.0763 78.0103 65.9161 78.4903Z" fill="white"/>
<path d="M64.626 44.6403C64.846 44.2003 65.206 44.2003 65.426 44.6403L67.966 49.7903C68.1011 50.0303 68.2861 50.2385 68.5087 50.4007C68.7313 50.5629 68.9862 50.6753 69.256 50.7303L74.946 51.5603C75.436 51.6303 75.546 51.9703 75.196 52.3203L71.076 56.3203C70.8901 56.5237 70.7501 56.7647 70.6655 57.0269C70.581 57.2892 70.5538 57.5666 70.586 57.8403L71.586 63.5103C71.666 64.0003 71.376 64.2103 70.936 63.9803L65.846 61.3003C65.5964 61.1867 65.3253 61.128 65.051 61.128C64.7768 61.128 64.5057 61.1867 64.256 61.3003L59.166 63.9803C58.726 64.2103 58.436 63.9803 58.516 63.5103L59.516 57.8403C59.5344 57.5711 59.4958 57.301 59.4027 57.0477C59.3097 56.7945 59.1643 56.5636 58.976 56.3703L54.856 52.3703C54.506 52.0203 54.616 51.6803 55.106 51.6103L60.796 50.7803C61.0659 50.7253 61.3208 50.6129 61.5433 50.4507C61.7659 50.2885 61.951 50.0803 62.086 49.8403L64.626 44.6403Z" fill="white"/>
<path d="M65.9161 77.7103C61.5961 77.7103 57.3731 76.4292 53.7814 74.0289C50.1896 71.6286 47.3903 68.2171 45.7376 64.2258C44.0849 60.2345 43.6529 55.8427 44.4964 51.6058C45.34 47.369 47.421 43.4775 50.4764 40.4236C53.5318 37.3696 57.4242 35.2903 61.6614 34.4487C65.8986 33.6072 70.2902 34.0411 74.2808 35.6956C78.2714 37.3502 81.6816 40.151 84.0802 43.7439C86.4788 47.3368 87.758 51.5603 87.7561 55.8803C87.7481 61.6693 85.4443 67.2187 81.3499 71.3112C77.2555 75.4037 71.705 77.705 65.9161 77.7103ZM65.9161 41.1003C62.9957 41.1023 60.1414 41.97 57.7141 43.5937C55.2867 45.2174 53.3951 47.5242 52.2784 50.2227C51.1618 52.9211 50.8701 55.8901 51.4403 58.7542C52.0106 61.6184 53.4171 64.2492 55.4821 66.3143C57.5471 68.3793 60.178 69.7858 63.0421 70.356C65.9063 70.9262 68.8752 70.6346 71.5737 69.5179C74.2721 68.4012 76.579 66.5097 78.2027 64.0823C79.8264 61.6549 80.6941 58.8007 80.6961 55.8803C80.6961 53.9398 80.3137 52.0184 79.5708 50.2258C78.8279 48.4331 77.7391 46.8044 76.3665 45.4328C74.9939 44.0611 73.3645 42.9734 71.5714 42.2317C69.7782 41.4901 67.8565 41.109 65.9161 41.1103V41.1003Z" fill="white"/>
</g>
<defs>
<clipPath id="clip0_122_494">
<rect width="130" height="137" fill="white" transform="translate(0.456055 0.3703)"/>
</clipPath>
</defs>
</svg>
