<svg width="131" height="138" viewBox="0 0 131 138" fill="none" xmlns="http://www.w3.org/2000/svg">
<g clip-path="url(#clip0_122_477)">
<path d="M116.556 69.0403C116.556 98.4503 93.146 122.29 64.256 122.29C51.9292 122.3 40.0089 117.882 30.666 109.84C21.4588 101.978 15.2052 91.2132 12.936 79.3203C12.275 75.9335 11.9401 72.491 11.936 69.0403C11.936 39.6303 35.346 15.7903 64.236 15.7903C74.4978 15.7923 84.5257 18.8563 93.036 24.5903C97.3346 27.4869 101.183 31.0013 104.456 35.0203C112.287 44.6184 116.552 56.6327 116.526 69.0203L116.556 69.0403Z" fill="#F93052"/>
<path d="M113.826 51.9903L47.516 119.5C41.3398 117.373 35.6224 114.095 30.666 109.84C30.876 109.57 31.096 109.33 31.336 109.08L102.656 36.4703C103.195 35.9161 103.8 35.4292 104.456 35.0203C108.585 40.0601 111.761 45.8109 113.826 51.9903Z" fill="#F15A24"/>
<path d="M93.056 24.5903C92.876 24.8003 92.706 25.0003 92.506 25.2003L21.196 97.8003C20.996 98.0003 20.806 98.1803 20.596 98.3603C16.8395 92.5811 14.2382 86.1289 12.936 79.3603L74.356 16.7903C81.0454 18.123 87.4024 20.7746 93.056 24.5903Z" fill="#F15A24"/>
<path d="M129.766 62.8703C127.499 78.3071 119.754 92.4133 107.947 102.613C96.1403 112.812 81.0585 118.424 65.4561 118.424C49.8536 118.424 34.7718 112.812 22.9648 102.613C11.1577 92.4133 3.41341 78.3071 1.14605 62.8703C0.687829 66.0162 0.45723 69.1912 0.456055 72.3703C0.456055 89.6094 7.30425 106.142 19.4941 118.332C31.684 130.522 48.217 137.37 65.4561 137.37C82.6951 137.37 99.2281 130.522 111.418 118.332C123.608 106.142 130.456 89.6094 130.456 72.3703C130.455 69.1912 130.224 66.0162 129.766 62.8703Z" fill="#ED1C24"/>
<path d="M65.4561 20.3703C74.3562 20.3703 83.0565 23.0095 90.4567 27.9542C97.857 32.8988 103.625 39.9269 107.031 48.1495C110.437 56.3722 111.328 65.4202 109.591 74.1494C107.855 82.8785 103.569 90.8967 97.2759 97.1901C90.9825 103.483 82.9643 107.769 74.2352 109.506C65.506 111.242 56.458 110.351 48.2353 106.945C40.0127 103.539 32.9846 97.7712 28.04 90.371C23.0953 82.9707 20.4561 74.2705 20.4561 65.3703C20.4693 53.4396 25.2146 42.0014 33.6509 33.5651C42.0872 25.1288 53.5254 20.3835 65.4561 20.3703ZM65.4561 0.3703C52.6003 0.3703 40.0332 4.18248 29.344 11.3248C18.6548 18.4671 10.3236 28.6187 5.40391 40.4959C0.484218 52.3731 -0.802999 65.4424 1.70504 78.0512C4.21308 90.6599 10.4037 102.242 19.4941 111.332C28.5846 120.423 40.1665 126.613 52.7752 129.121C65.384 131.629 78.4533 130.342 90.3305 125.422C102.208 120.503 112.359 112.172 119.502 101.482C126.644 90.7932 130.456 78.2261 130.456 65.3703C130.456 48.1312 123.608 31.5982 111.418 19.4084C99.2282 7.2185 82.6952 0.3703 65.4561 0.3703V0.3703Z" fill="#F7931E"/>
<path d="M65.9559 111.37C40.6859 111.37 18.1959 101.48 3.84595 86.1103C8.14581 98.8607 16.2968 109.962 27.1742 117.884C38.0515 125.805 51.1191 130.155 64.5739 130.334C78.0286 130.513 91.2072 126.511 102.291 118.882C113.375 111.253 121.819 100.372 126.456 87.7403C112.096 102.18 90.3159 111.37 65.9559 111.37Z" fill="#F15A24"/>
<path d="M95.0361 58.6903H53.3961C46.9896 58.6903 41.7961 63.8838 41.7961 70.2903V70.3003C41.7961 76.7068 46.9896 81.9003 53.3961 81.9003H95.0361C101.443 81.9003 106.636 76.7068 106.636 70.3003V70.2903C106.636 63.8838 101.443 58.6903 95.0361 58.6903Z" fill="#C1272D"/>
<path d="M32.036 80.1403L52.886 92.1403C54.6243 93.1416 56.5953 93.6681 58.6014 93.6672C60.6074 93.6663 62.578 93.1378 64.3153 92.1349C66.0527 91.132 67.4958 89.6899 68.4999 87.9532C69.5039 86.2165 70.0337 84.2463 70.036 82.2403V58.2003C70.0337 56.1942 69.5039 54.2241 68.4999 52.4874C67.4958 50.7507 66.0527 49.3086 64.3153 48.3057C62.578 47.3028 60.6074 46.7743 58.6014 46.7734C56.5953 46.7724 54.6243 47.299 52.886 48.3003L32.036 60.3703C30.3073 61.3773 28.873 62.8201 27.8761 64.5546C26.8791 66.2891 26.3545 68.2547 26.3545 70.2553C26.3545 72.2559 26.8791 74.2215 27.8761 75.956C28.873 77.6905 30.3073 79.1333 32.036 80.1403Z" fill="#C1272D"/>
<g style="mix-blend-mode:soft-light">
<path d="M54.706 88.6103C55.8382 88.6103 56.756 87.6925 56.756 86.5603C56.756 85.4281 55.8382 84.5103 54.706 84.5103C53.5738 84.5103 52.656 85.4281 52.656 86.5603C52.656 87.6925 53.5738 88.6103 54.706 88.6103Z" fill="#C1272D"/>
</g>
<path d="M92.9961 55.9603H51.3561C44.9496 55.9603 39.7561 61.1538 39.7561 67.5603V67.5703C39.7561 73.9768 44.9496 79.1703 51.3561 79.1703H92.9961C99.4026 79.1703 104.596 73.9768 104.596 67.5703V67.5603C104.596 61.1538 99.4026 55.9603 92.9961 55.9603Z" fill="white"/>
<path d="M29.9861 77.3703L50.8361 89.3703C52.5744 90.3716 54.5455 90.8982 56.5515 90.8972C58.5576 90.8963 60.5281 90.3678 62.2655 89.3649C64.0028 88.362 65.4459 86.9199 66.45 85.1832C67.4541 83.4465 67.9838 81.4763 67.9861 79.4703V55.4703C67.9838 53.4642 67.4541 51.4941 66.45 49.7574C65.4459 48.0207 64.0028 46.5786 62.2655 45.5757C60.5281 44.5728 58.5576 44.0443 56.5515 44.0434C54.5455 44.0425 52.5744 44.569 50.8361 45.5703L29.9861 57.5703C28.2505 58.5754 26.8095 60.0191 25.8078 61.7566C24.8061 63.4942 24.2788 65.4646 24.2788 67.4703C24.2788 69.476 24.8061 71.4464 25.8078 73.184C26.8095 74.9216 28.2505 76.3652 29.9861 77.3703Z" fill="white"/>
<g style="mix-blend-mode:soft-light">
<path d="M57.5462 58.8103C60.3021 58.8103 62.5362 56.5762 62.5362 53.8203C62.5362 51.0644 60.3021 48.8303 57.5462 48.8303C54.7903 48.8303 52.5562 51.0644 52.5562 53.8203C52.5562 56.5762 54.7903 58.8103 57.5462 58.8103Z" fill="white"/>
</g>
<g style="mix-blend-mode:soft-light">
<path d="M50.5061 62.2803C51.8813 62.2803 52.9961 61.1655 52.9961 59.7903C52.9961 58.4151 51.8813 57.3003 50.5061 57.3003C49.1309 57.3003 48.0161 58.4151 48.0161 59.7903C48.0161 61.1655 49.1309 62.2803 50.5061 62.2803Z" fill="white"/>
</g>
</g>
<defs>
<clipPath id="clip0_122_477">
<rect width="130" height="137" fill="white" transform="translate(0.456055 0.3703)"/>
</clipPath>
</defs>
</svg>
