<svg width="42" height="45" viewBox="0 0 42 45" fill="none" xmlns="http://www.w3.org/2000/svg">
    <path d="M38.9403 22.3063C38.9326 26.8005 37.2346 31.1273 34.1838 34.4273C31.1329 37.7273 26.9524 39.7589 22.4726 40.1187C17.9929 40.4784 13.5417 39.1399 10.0033 36.3691C6.46498 33.5982 4.09833 29.5978 3.37354 25.1624C2.64875 20.7271 3.61884 16.1814 6.09112 12.4283C8.56339 8.67526 12.3569 5.98946 16.7182 4.90447C21.0794 3.81948 25.6892 4.41467 29.6318 6.57183C33.5745 8.72898 36.5614 12.2902 37.9994 16.5482C38.6243 18.4035 38.9422 20.3485 38.9403 22.3063Z" fill="#F93052"/>
    <path d="M37.9993 16.5482L15.1981 39.3494C13.0843 38.6324 11.1236 37.5257 9.41748 36.0866C9.49134 35.9967 9.56521 35.9132 9.6487 35.8297L34.1712 11.3071C34.3643 11.1175 34.58 10.9525 34.8135 10.8158C36.2175 12.5154 37.2974 14.4584 37.9993 16.5482Z" fill="#F15A24"/>
    <path d="M30.8603 7.2928C30.7992 7.36345 30.7382 7.43089 30.6708 7.49834L6.14824 32.0209C6.0808 32.0883 6.01336 32.1493 5.94271 32.2104C4.65281 30.2625 3.75809 28.0802 3.30933 25.7875L24.4277 4.65942C26.7238 5.10698 28.9095 6.00175 30.8603 7.2928Z" fill="#F15A24"/>
    <path d="M41.5286 20.54C40.8004 25.4974 38.3134 30.0276 34.5216 33.3031C30.7299 36.5786 25.8864 38.3809 20.8758 38.3809C15.8652 38.3809 11.0217 36.5786 7.23 33.3031C3.43824 30.0276 0.9512 25.4974 0.223054 20.54C0.0758978 21.5503 0.0018424 22.5699 0.00146484 23.5909C0.00146484 29.1271 2.20072 34.4366 6.11542 38.3513C10.0301 42.266 15.3396 44.4652 20.8758 44.4652C26.412 44.4652 31.7215 42.266 35.6362 38.3513C39.5509 34.4366 41.7502 29.1271 41.7502 23.5909C41.7498 22.5699 41.6757 21.5503 41.5286 20.54Z" fill="#ED1C24"/>
    <path d="M20.8758 6.89138C23.7341 6.89138 26.5281 7.73895 28.9046 9.3269C31.2812 10.9148 33.1334 13.1719 34.2272 15.8125C35.321 18.4532 35.6072 21.3589 35.0496 24.1622C34.492 26.9655 33.1156 29.5405 31.0946 31.5616C29.0735 33.5827 26.4985 34.959 23.6952 35.5167C20.8919 36.0743 17.9861 35.7881 15.3455 34.6943C12.7048 33.6005 10.4478 31.7482 8.85986 29.3717C7.27192 26.9951 6.42435 24.2011 6.42435 21.3429C6.4286 17.5114 7.95253 13.8381 10.6618 11.1288C13.371 8.41956 17.0444 6.89563 20.8758 6.89138ZM20.8758 0.468506C16.7473 0.468506 12.7114 1.69277 9.27866 3.98647C5.84589 6.28017 3.17037 9.5403 1.59044 13.3546C0.0105092 17.1689 -0.402872 21.366 0.402569 25.4152C1.20801 29.4645 3.1961 33.1839 6.11543 36.1033C9.03476 39.0226 12.7542 41.0107 16.8034 41.8161C20.8527 42.6216 25.0498 42.2082 28.8641 40.6282C32.6784 39.0483 35.9385 36.3728 38.2322 32.94C40.5259 29.5073 41.7502 25.4714 41.7502 21.3429C41.7502 15.8066 39.5509 10.4972 35.6362 6.58246C31.7215 2.66776 26.412 0.468506 20.8758 0.468506V0.468506Z" fill="#F7931E"/>
    <path d="M21.0363 36.1155C12.921 36.1155 5.6985 32.9394 1.09009 28.0034C2.47096 32.0981 5.0886 35.6633 8.5818 38.2072C12.075 40.751 16.2716 42.148 20.5925 42.2055C24.9134 42.2629 29.1456 40.9779 32.7052 38.5279C36.2648 36.0778 38.9763 32.5834 40.4655 28.5269C35.8539 33.1642 28.8594 36.1155 21.0363 36.1155Z" fill="#F15A24"/>
    <path d="M33.0408 18.9054L33.1724 18.7737V19.0371L33.0408 18.9054Z" fill="#ED1C24"/>
    <path d="M18.1365 21.2722C18.1604 20.5834 18.4509 19.9308 18.9467 19.452C19.4424 18.9732 20.1047 18.7055 20.7939 18.7055C21.4832 18.7055 22.1455 18.9732 22.6412 19.452C23.137 19.9308 23.4275 20.5834 23.4514 21.2722C23.4519 21.4579 23.4325 21.643 23.3936 21.8246C23.2688 21.2275 22.9422 20.6915 22.4688 20.3069C21.9954 19.9222 21.404 19.7122 20.7939 19.7122C20.1839 19.7122 19.5925 19.9222 19.1191 20.3069C18.6457 20.6915 18.3191 21.2275 18.1943 21.8246C18.1554 21.643 18.136 21.4579 18.1365 21.2722Z" fill="#C1272D"/>
    <path d="M26.255 23.2986L26.1233 23.4303L25.9949 23.2986H26.255Z" fill="#ED1C24"/>
    <g style="mix-blend-mode:soft-light">
        <path d="M27.3598 16.4839C28.0798 16.4839 28.6636 15.9002 28.6636 15.1801C28.6636 14.46 28.0798 13.8763 27.3598 13.8763C26.6397 13.8763 26.0559 14.46 26.0559 15.1801C26.0559 15.9002 26.6397 16.4839 27.3598 16.4839Z" fill="white"/>
    </g>
    <g style="mix-blend-mode:soft-light">
        <path d="M25.8406 17.5694C26.2007 17.5694 26.4926 17.2775 26.4926 16.9175C26.4926 16.5574 26.2007 16.2656 25.8406 16.2656C25.4806 16.2656 25.1887 16.5574 25.1887 16.9175C25.1887 17.2775 25.4806 17.5694 25.8406 17.5694Z" fill="white"/>
    </g>
    <g filter="url(#filter0_d_122_1563)">
        <path fill-rule="evenodd" clip-rule="evenodd" d="M27.7781 12.8158H26.7781V11.8158C26.7781 11.2658 26.3281 10.8158 25.7781 10.8158C25.2281 10.8158 24.7781 11.2658 24.7781 11.8158V12.8158H16.7781V11.8158C16.7781 11.2658 16.3281 10.8158 15.7781 10.8158C15.2281 10.8158 14.7781 11.2658 14.7781 11.8158V12.8158H13.7781C12.6681 12.8158 11.7881 13.7158 11.7881 14.8158L11.7781 28.8158C11.7781 29.9158 12.6681 30.8158 13.7781 30.8158H27.7781C28.8781 30.8158 29.7781 29.9158 29.7781 28.8158V14.8158C29.7781 13.7158 28.8781 12.8158 27.7781 12.8158ZM27.7781 27.8158C27.7781 28.3658 27.3281 28.8158 26.7781 28.8158H14.7781C14.2281 28.8158 13.7781 28.3658 13.7781 27.8158V17.8158H27.7781V27.8158ZM15.7781 19.8158H17.7781V21.8158H15.7781V19.8158ZM19.7781 19.8158H21.7781V21.8158H19.7781V19.8158ZM23.7781 19.8158H25.7781V21.8158H23.7781V19.8158Z" fill="white"/>
    </g>
    <defs>
        <filter id="filter0_d_122_1563" x="11.7781" y="10.8158" width="18" height="21" filterUnits="userSpaceOnUse" color-interpolation-filters="sRGB">
            <feFlood flood-opacity="0" result="BackgroundImageFix"/>
            <feColorMatrix in="SourceAlpha" type="matrix" values="0 0 0 0 0 0 0 0 0 0 0 0 0 0 0 0 0 0 127 0" result="hardAlpha"/>
            <feOffset dy="1"/>
            <feComposite in2="hardAlpha" operator="out"/>
            <feColorMatrix type="matrix" values="0 0 0 0 0.839216 0 0 0 0 0.105882 0 0 0 0 0.133333 0 0 0 1 0"/>
            <feBlend mode="normal" in2="BackgroundImageFix" result="effect1_dropShadow_122_1563"/>
            <feBlend mode="normal" in="SourceGraphic" in2="effect1_dropShadow_122_1563" result="shape"/>
        </filter>
    </defs>
</svg>
