<svg width="139" height="149" viewBox="0 0 139 149" fill="none" xmlns="http://www.w3.org/2000/svg">
<g clip-path="url(#clip0_122_459)">
<path d="M121.226 71.0803C121.226 100.49 97.816 124.33 68.926 124.33C56.5991 124.34 44.6788 119.922 35.336 111.88C26.1307 104.021 19.8773 93.2596 17.606 81.3703C16.9449 77.9835 16.6101 74.541 16.606 71.0903C16.606 41.6803 40.016 17.8403 68.906 17.8403C79.1678 17.8423 89.1956 20.9063 97.706 26.6403C102.008 29.5361 105.859 33.0506 109.136 37.0703C116.967 46.6684 121.232 58.6827 121.206 71.0703L121.226 71.0803Z" fill="#F93052"/>
<path d="M118.456 54.0303L52.1859 121.54C46.0097 119.413 40.2923 116.135 35.3359 111.88C35.5459 111.61 35.7659 111.37 36.0059 111.12L107.316 38.5103C107.868 37.9535 108.486 37.4665 109.156 37.0603C113.26 42.1055 116.412 47.856 118.456 54.0303Z" fill="#F15A24"/>
<path d="M97.736 26.6303C97.556 26.8403 97.386 27.0403 97.186 27.2403L25.866 99.8403C25.666 100.04 25.476 100.22 25.266 100.4C21.5094 94.6211 18.9082 88.1689 17.606 81.4003L79.026 18.8303C85.7188 20.1618 92.0793 22.8134 97.736 26.6303Z" fill="#F15A24"/>
<path d="M137.456 67.8003C132.586 101.68 103.926 127.67 69.3161 127.67C34.7061 127.67 6.06605 101.67 1.18605 67.8003C0.700755 71.1954 0.45681 74.6207 0.456055 78.0503C0.456055 116.78 31.2861 148.17 69.3361 148.17C107.386 148.17 138.216 116.78 138.216 78.0503C138.205 74.62 137.951 71.1947 137.456 67.8003Z" fill="#ED1C24"/>
<path d="M69.3361 21.9503C95.6261 21.9503 117.016 43.7303 117.016 70.5003C117.016 97.2703 95.6261 119.05 69.3361 119.05C43.0461 119.05 21.6461 97.2603 21.6461 70.4903C21.6461 43.7203 43.0361 21.9503 69.3361 21.9503ZM69.3361 0.3703C31.2961 0.3703 0.456055 31.7703 0.456055 70.4903C0.456055 109.21 31.2961 140.61 69.3361 140.61C107.376 140.61 138.216 109.21 138.216 70.4903C138.216 31.7703 107.366 0.3703 69.3361 0.3703Z" fill="#F7931E"/>
<path d="M69.8561 120.12C43.0761 120.12 19.2461 109.45 4.04614 92.8703C13.2061 120.63 38.9661 140.62 69.3261 140.62C99.0361 140.62 124.326 121.47 134.006 94.6203C118.756 110.21 95.6761 120.12 69.8561 120.12Z" fill="#F15A24"/>
<path d="M95.2261 61.9303L55.6861 102.19C54.8546 103.039 53.862 103.714 52.7665 104.174C51.6709 104.635 50.4945 104.872 49.3061 104.872C48.1177 104.872 46.9413 104.635 45.8458 104.174C44.7502 103.714 43.7576 103.039 42.9261 102.19C41.2352 100.449 40.2893 98.1175 40.2893 95.6903C40.2893 93.2631 41.2352 90.9315 42.9261 89.1903L82.4561 48.9503C83.2876 48.1013 84.2802 47.4267 85.3758 46.9662C86.4713 46.5057 87.6477 46.2685 88.8361 46.2685C90.0245 46.2685 91.2009 46.5057 92.2965 46.9662C93.392 47.4267 94.3846 48.1013 95.2161 48.9503C96.9047 50.6927 97.849 53.0239 97.849 55.4503C97.849 57.8767 96.9047 60.2079 95.2161 61.9503L95.2261 61.9303Z" fill="#C1272D"/>
<path d="M57.2161 46.5703L96.7561 86.8303C96.9669 87.0443 97.164 87.2714 97.3461 87.5103C98.7549 89.2833 99.4699 91.5085 99.3577 93.7703C99.2454 96.032 98.3135 98.1755 96.7361 99.8003C95.1692 101.4 93.0582 102.351 90.8221 102.466C88.5861 102.581 86.3887 101.851 84.6661 100.42C84.4338 100.234 84.2133 100.034 84.0061 99.8203L44.4561 59.5503C42.7652 57.8091 41.8193 55.4775 41.8193 53.0503C41.8193 50.6231 42.7652 48.2915 44.4561 46.5503C45.2883 45.7025 46.2812 45.0291 47.3766 44.5693C48.4721 44.1096 49.6481 43.8728 50.8361 43.8728C52.0241 43.8728 53.2002 44.1096 54.2957 44.5693C55.3911 45.0291 56.3839 45.7025 57.2161 46.5503V46.5703Z" fill="#C1272D"/>
<path d="M95.2261 59.3703L55.6861 99.5903C54.8546 100.439 53.862 101.114 52.7665 101.574C51.6709 102.035 50.4945 102.272 49.3061 102.272C48.1177 102.272 46.9413 102.035 45.8458 101.574C44.7502 101.114 43.7576 100.439 42.9261 99.5903C41.2352 97.8491 40.2893 95.5175 40.2893 93.0903C40.2893 90.6631 41.2352 88.3315 42.9261 86.5903L82.4561 46.3703C83.2876 45.5213 84.2802 44.8467 85.3758 44.3862C86.4713 43.9257 87.6477 43.6885 88.8361 43.6885C90.0245 43.6885 91.2009 43.9257 92.2965 44.3862C93.392 44.8467 94.3846 45.5213 95.2161 46.3703C96.9047 48.1127 97.849 50.4439 97.849 52.8703C97.849 55.2967 96.9047 57.6279 95.2161 59.3703H95.2261Z" fill="white"/>
<path d="M54.6661 46.5703L94.2061 86.8303C94.4169 87.0443 94.6139 87.2714 94.7961 87.5103C96.2048 89.2833 96.9199 91.5085 96.8076 93.7703C96.6954 96.032 95.7635 98.1755 94.1861 99.8003C92.6192 101.4 90.5081 102.351 88.2721 102.466C86.0361 102.581 83.8386 101.851 82.1161 100.42C81.8837 100.234 81.6633 100.034 81.4561 99.8203L41.9061 59.5503C40.2151 57.8091 39.2693 55.4775 39.2693 53.0503C39.2693 50.6231 40.2151 48.2915 41.9061 46.5503C42.7383 45.7025 43.7311 45.0291 44.8266 44.5693C45.922 44.1096 47.0981 43.8728 48.2861 43.8728C49.4741 43.8728 50.6502 44.1096 51.7456 44.5693C52.8411 45.0291 53.8339 45.7025 54.6661 46.5503V46.5703Z" fill="white"/>
<path d="M59.5161 95.7003L55.6861 99.6003C54.8546 100.449 53.862 101.124 52.7665 101.584C51.6709 102.045 50.4945 102.282 49.3061 102.282C48.1177 102.282 46.9413 102.045 45.8458 101.584C44.7502 101.124 43.7576 100.449 42.9261 99.6003C41.2352 97.8591 40.2893 95.5275 40.2893 93.1003C40.2893 90.6731 41.2352 88.3415 42.9261 86.6003L46.7561 82.7003C47.5876 81.8513 48.5802 81.1767 49.6758 80.7162C50.7713 80.2557 51.9477 80.0185 53.1361 80.0185C54.3245 80.0185 55.5009 80.2557 56.5965 80.7162C57.692 81.1767 58.6846 81.8513 59.5161 82.7003C61.2047 84.4427 62.149 86.7739 62.149 89.2003C62.149 91.6267 61.2047 93.9579 59.5161 95.7003Z" fill="white"/>
<path d="M94.786 87.5003C96.1948 89.2733 96.9098 91.4985 96.7976 93.7603C96.6853 96.022 95.7534 98.1655 94.176 99.7903C92.6091 101.39 90.4981 102.341 88.262 102.456C86.026 102.571 83.8286 101.841 82.106 100.41C80.6973 98.6373 79.9822 96.4121 80.0945 94.1503C80.2067 91.8886 81.1386 89.7451 82.716 88.1203C84.2841 86.5231 86.3948 85.573 88.6302 85.4582C90.8656 85.3434 93.0625 86.0722 94.786 87.5003Z" fill="white"/>
<g style="mix-blend-mode:soft-light">
<path d="M86.6461 59.2103C89.3743 59.2103 91.5861 56.9986 91.5861 54.2703C91.5861 51.542 89.3743 49.3303 86.6461 49.3303C83.9178 49.3303 81.7061 51.542 81.7061 54.2703C81.7061 56.9986 83.9178 59.2103 86.6461 59.2103Z" fill="white"/>
</g>
<g style="mix-blend-mode:soft-light">
<path d="M80.876 63.3303C82.2402 63.3303 83.346 62.2244 83.346 60.8603C83.346 59.4962 82.2402 58.3903 80.876 58.3903C79.5119 58.3903 78.406 59.4962 78.406 60.8603C78.406 62.2244 79.5119 63.3303 80.876 63.3303Z" fill="white"/>
</g>
</g>
<defs>
<clipPath id="clip0_122_459">
<rect width="137.75" height="147.8" fill="white" transform="translate(0.456055 0.3703)"/>
</clipPath>
</defs>
</svg>
