<svg width="131" height="138" viewBox="0 0 131 138" fill="none" xmlns="http://www.w3.org/2000/svg">
<g clip-path="url(#clip0_122_443)">
<path d="M117.276 70.8703C117.276 100.28 93.866 124.12 64.976 124.12C52.6491 124.13 40.7288 119.712 31.386 111.67C22.1788 103.808 15.9252 93.0432 13.656 81.1503C12.995 77.7635 12.6601 74.321 12.656 70.8703C12.656 41.4603 36.066 17.6203 64.956 17.6203C75.2194 17.6035 85.2543 20.6502 93.776 26.3703C98.0816 29.2814 101.933 32.8129 105.206 36.8503C113.037 46.4484 117.302 58.4627 117.276 70.8503V70.8703Z" fill="#F93052"/>
<path d="M114.546 53.8203L48.206 121.37C42.0298 119.243 36.3123 115.965 31.356 111.71C31.566 111.44 31.786 111.2 32.026 110.95L103.336 38.3403C103.895 37.7675 104.523 37.2669 105.206 36.8503C109.325 41.8924 112.49 47.6431 114.546 53.8203Z" fill="#F15A24"/>
<path d="M93.776 26.3703C93.596 26.5803 93.426 26.7803 93.226 26.9803L21.916 99.6403C21.716 99.8403 21.526 100.02 21.316 100.2C17.5595 94.4212 14.9582 87.9689 13.656 81.2003L75.076 18.6203C81.7617 19.9378 88.1184 22.5723 93.776 26.3703Z" fill="#F15A24"/>
<path d="M129.516 62.8703C127.249 78.3071 119.504 92.4133 107.697 102.613C95.8903 112.812 80.8085 118.424 65.2061 118.424C49.6036 118.424 34.5218 112.812 22.7148 102.613C10.9077 92.4133 3.16341 78.3071 0.896055 62.8703C0.437829 66.0162 0.20723 69.1912 0.206055 72.3703C0.206055 89.6094 7.05425 106.142 19.2441 118.332C31.434 130.522 47.967 137.37 65.2061 137.37C82.4451 137.37 98.9781 130.522 111.168 118.332C123.358 106.142 130.206 89.6094 130.206 72.3703C130.205 69.1912 129.974 66.0162 129.516 62.8703Z" fill="#ED1C24"/>
<path d="M65.2061 20.3703C74.1062 20.3703 82.8065 23.0095 90.2067 27.9542C97.607 32.8988 103.375 39.9269 106.781 48.1495C110.187 56.3722 111.078 65.4202 109.341 74.1494C107.605 82.8785 103.319 90.8967 97.0259 97.1901C90.7325 103.483 82.7143 107.769 73.9852 109.506C65.256 111.242 56.208 110.351 47.9853 106.945C39.7627 103.539 32.7346 97.7712 27.79 90.371C22.8453 82.9707 20.2061 74.2705 20.2061 65.3703C20.2193 53.4396 24.9646 42.0014 33.4009 33.5651C41.8372 25.1288 53.2754 20.3835 65.2061 20.3703ZM65.2061 0.3703C52.3503 0.3703 39.7832 4.18248 29.094 11.3248C18.4048 18.4671 10.0736 28.6187 5.15391 40.4959C0.234218 52.3731 -1.053 65.4424 1.45504 78.0512C3.96308 90.6599 10.1537 102.242 19.2441 111.332C28.3346 120.423 39.9165 126.613 52.5252 129.121C65.134 131.629 78.2033 130.342 90.0805 125.422C101.958 120.503 112.109 112.172 119.252 101.482C126.394 90.7932 130.206 78.2261 130.206 65.3703C130.206 48.1312 123.358 31.5982 111.168 19.4084C98.9782 7.2185 82.4452 0.3703 65.2061 0.3703V0.3703Z" fill="#F7931E"/>
<path d="M65.7059 111.37C40.4359 111.37 17.9459 101.48 3.59595 86.1103C7.89581 98.8607 16.0468 109.962 26.9242 117.884C37.8015 125.805 50.8691 130.155 64.3239 130.334C77.7786 130.513 90.9572 126.511 102.041 118.882C113.125 111.253 121.569 100.372 126.206 87.7403C111.846 102.18 90.0659 111.37 65.7059 111.37Z" fill="#F15A24"/>
<path d="M96.906 58.6903L62.506 93.0903C62.3245 93.2733 62.1307 93.4437 61.926 93.6003C60.2694 94.7877 58.2449 95.3481 56.2136 95.1816C54.1822 95.0152 52.276 94.1327 50.8348 92.6915C49.3936 91.2503 48.5111 89.3441 48.3447 87.3127C48.1782 85.2813 48.7386 83.2569 49.926 81.6003C50.0826 81.3956 50.253 81.2018 50.436 81.0203L84.836 46.6203C87.886 43.5703 93.096 43.7803 96.406 47.0903C97.9889 48.6502 98.9246 50.7502 99.026 52.9703C99.0931 54.019 98.939 55.0702 98.5738 56.0556C98.2086 57.041 97.6404 57.9386 96.906 58.6903Z" fill="#ED1C24"/>
<path d="M61.679 82.2534L46.151 66.7254C43.222 63.7964 38.4733 63.7964 35.5444 66.7254C32.6154 69.6543 32.6154 74.403 35.5444 77.332L51.0724 92.86C54.0014 95.789 58.7501 95.789 61.679 92.86C64.608 89.9311 64.608 85.1824 61.679 82.2534Z" fill="#ED1C24"/>
<path d="M94.906 56.6903L60.506 91.0903C60.3245 91.2733 60.1307 91.4437 59.926 91.6003C58.2694 92.7877 56.2449 93.3481 54.2136 93.1816C52.1822 93.0152 50.276 92.1327 48.8348 90.6915C47.3936 89.2503 46.5111 87.3441 46.3447 85.3127C46.1782 83.2813 46.7386 81.2569 47.926 79.6003C48.0826 79.3956 48.253 79.2018 48.436 79.0203L82.836 44.6203C85.886 41.5703 91.096 41.7803 94.406 45.0903C95.9889 46.6502 96.9246 48.7502 97.026 50.9703C97.0931 52.019 96.939 53.0702 96.5738 54.0556C96.2086 55.041 95.6404 55.9386 94.906 56.6903Z" fill="white"/>
<path d="M59.679 80.255L44.151 64.7269C41.222 61.798 36.4733 61.798 33.5444 64.7269C30.6154 67.6559 30.6154 72.4046 33.5444 75.3335L49.0724 90.8616C52.0014 93.7905 56.7501 93.7905 59.679 90.8616C62.608 87.9327 62.608 83.1839 59.679 80.255Z" fill="white"/>
<g style="mix-blend-mode:soft-light">
<path d="M39.1561 73.9603C41.4371 73.9603 43.2861 72.1112 43.2861 69.8303C43.2861 67.5494 41.4371 65.7003 39.1561 65.7003C36.8752 65.7003 35.0261 67.5494 35.0261 69.8303C35.0261 72.1112 36.8752 73.9603 39.1561 73.9603Z" fill="white"/>
</g>
<g style="mix-blend-mode:soft-light">
<path d="M44.6559 76.7003C45.7937 76.7003 46.7159 75.778 46.7159 74.6403C46.7159 73.5026 45.7937 72.5803 44.6559 72.5803C43.5182 72.5803 42.5959 73.5026 42.5959 74.6403C42.5959 75.778 43.5182 76.7003 44.6559 76.7003Z" fill="white"/>
</g>
</g>
<defs>
<clipPath id="clip0_122_443">
<rect width="130" height="137" fill="white" transform="translate(0.206055 0.3703)"/>
</clipPath>
</defs>
</svg>
