<svg width="131" height="138" viewBox="0 0 131 138" fill="none" xmlns="http://www.w3.org/2000/svg">
<g clip-path="url(#clip0_122_420)">
<path d="M117.856 71.6603C117.856 101.07 94.4461 124.91 65.5561 124.91C53.2292 124.92 41.3089 120.502 31.9661 112.46C22.7589 104.598 16.5053 93.8332 14.2361 81.9403C13.5751 78.5535 13.2402 75.111 13.2361 71.6603C13.2561 42.2503 36.6761 18.3703 65.5561 18.3703C75.8179 18.3723 85.8457 21.4363 94.3561 27.1703C98.6581 30.0661 102.51 33.5806 105.786 37.6003C113.617 47.1984 117.883 59.2127 117.856 71.6003V71.6603Z" fill="#F93052"/>
<path d="M115.126 54.6103L48.8161 122.12C42.6399 119.993 36.9224 116.715 31.9661 112.46C32.1761 112.19 32.3961 111.95 32.6361 111.7L103.956 39.0903C104.508 38.5335 105.126 38.0465 105.796 37.6403C109.911 42.6832 113.073 48.4338 115.126 54.6103Z" fill="#F15A24"/>
<path d="M94.356 27.2103C94.176 27.4203 94.006 27.6203 93.806 27.8203L22.456 100.43C22.256 100.63 22.066 100.81 21.856 100.99C18.0995 95.2112 15.4983 88.7589 14.196 81.9903L75.656 19.3703C82.3484 20.7152 88.7055 23.3805 94.356 27.2103Z" fill="#F15A24"/>
<path d="M129.766 62.8703C127.499 78.3071 119.754 92.4133 107.947 102.613C96.1403 112.812 81.0585 118.424 65.4561 118.424C49.8536 118.424 34.7718 112.812 22.9648 102.613C11.1577 92.4133 3.41341 78.3071 1.14605 62.8703C0.687829 66.0162 0.45723 69.1912 0.456055 72.3703C0.456055 89.6094 7.30425 106.142 19.4941 118.332C31.684 130.522 48.217 137.37 65.4561 137.37C82.6951 137.37 99.2281 130.522 111.418 118.332C123.608 106.142 130.456 89.6094 130.456 72.3703C130.455 69.1912 130.224 66.0162 129.766 62.8703Z" fill="#ED1C24"/>
<path d="M65.4561 20.3703C74.3562 20.3703 83.0565 23.0095 90.4567 27.9542C97.857 32.8988 103.625 39.9269 107.031 48.1495C110.437 56.3722 111.328 65.4202 109.591 74.1494C107.855 82.8785 103.569 90.8967 97.2759 97.1901C90.9825 103.483 82.9643 107.769 74.2352 109.506C65.506 111.242 56.458 110.351 48.2353 106.945C40.0127 103.539 32.9846 97.7712 28.04 90.371C23.0953 82.9707 20.4561 74.2705 20.4561 65.3703C20.4693 53.4396 25.2146 42.0014 33.6509 33.5651C42.0872 25.1288 53.5254 20.3835 65.4561 20.3703ZM65.4561 0.3703C52.6003 0.3703 40.0332 4.18248 29.344 11.3248C18.6548 18.4671 10.3236 28.6187 5.40391 40.4959C0.484218 52.3731 -0.802999 65.4424 1.70504 78.0512C4.21308 90.6599 10.4037 102.242 19.4941 111.332C28.5846 120.423 40.1665 126.613 52.7752 129.121C65.384 131.629 78.4533 130.342 90.3305 125.422C102.208 120.503 112.359 112.172 119.502 101.482C126.644 90.7932 130.456 78.2261 130.456 65.3703C130.456 48.1312 123.608 31.5982 111.418 19.4084C99.2282 7.2185 82.6952 0.3703 65.4561 0.3703V0.3703Z" fill="#F7931E"/>
<path d="M65.9561 111.37C40.6861 111.37 18.1961 101.48 3.84607 86.1103C8.14594 98.8607 16.2969 109.962 27.1743 117.884C38.0517 125.805 51.1193 130.155 64.574 130.334C78.0287 130.513 91.2074 126.511 102.291 118.882C113.376 111.253 121.819 100.372 126.456 87.7403C112.096 102.18 90.3161 111.37 65.9561 111.37Z" fill="#F15A24"/>
<path d="M62.6959 59.8834L45.0309 60.3028C42.3144 60.3673 40.1646 62.6217 40.2291 65.3382L40.2293 65.3482C40.2938 68.0647 42.5482 70.2145 45.2647 70.15L62.9297 69.7306C65.6462 69.6661 67.7961 67.4117 67.7316 64.6952L67.7313 64.6853C67.6668 61.9688 65.4124 59.8189 62.6959 59.8834Z" fill="#C1272D"/>
<path d="M37.246 70.1903L44.086 73.9303C44.9409 74.3975 45.9037 74.6314 46.8776 74.6086C47.8516 74.5858 48.8023 74.307 49.6344 73.8002C50.4664 73.2935 51.1504 72.5767 51.6176 71.7219C52.0848 70.867 52.3188 69.9042 52.296 68.9303L52.116 61.1403C52.0937 60.1656 51.815 59.2141 51.308 58.3813C50.801 57.5486 50.0836 56.8642 49.228 56.3968C48.3724 55.9295 47.4087 55.6958 46.4341 55.7192C45.4595 55.7426 44.5082 56.0224 43.676 56.5303L37.026 60.5903C36.1962 61.0973 35.514 61.8134 35.048 62.6669C34.582 63.5204 34.3484 64.4815 34.3707 65.4537C34.393 66.4259 34.6703 67.3752 35.175 68.2065C35.6796 69.0378 36.3938 69.7219 37.246 70.1903Z" fill="#C1272D"/>
<path d="M61.7991 58.7351L44.1341 59.1545C41.4176 59.219 39.2677 61.4734 39.3322 64.1899L39.3325 64.1999C39.397 66.9163 41.6514 69.0662 44.3679 69.0017L62.0329 68.5823C64.7493 68.5178 66.8992 66.2634 66.8347 63.5469L66.8345 63.5369C66.77 60.8205 64.5156 58.6706 61.7991 58.7351Z" fill="white"/>
<path d="M36.8261 69.3103L42.7061 72.5203C43.6095 73.0144 44.6273 73.2618 45.6567 73.2374C46.6862 73.213 47.6911 72.9177 48.5701 72.3814C49.4492 71.845 50.1714 71.0865 50.664 70.1822C51.1566 69.2779 51.4022 68.2597 51.3761 67.2303L51.2161 60.5303C51.1927 59.5012 50.8987 58.4964 50.3637 57.617C49.8286 56.7377 49.0713 56.0147 48.1681 55.5211C47.2648 55.0274 46.2475 54.7803 45.2184 54.8047C44.1893 54.8292 43.1848 55.1243 42.3061 55.6603L36.5761 59.1503C35.695 59.6856 34.9708 60.4438 34.4764 61.3484C33.982 62.253 33.7351 63.2721 33.7604 64.3027C33.7858 65.3332 34.0826 66.3389 34.6208 67.2181C35.1591 68.0973 35.9198 68.819 36.8261 69.3103Z" fill="white"/>
<path d="M57.2482 50.8235C57.2373 53.3143 59.2477 55.3423 61.7385 55.3531C64.2292 55.364 66.2572 53.3536 66.2681 50.8629L66.3068 41.9829C66.3177 39.4922 64.3073 37.4642 61.8166 37.4533C59.3258 37.4424 57.2978 39.4528 57.2869 41.9436L57.2482 50.8235Z" fill="#C1272D"/>
<path d="M57.1753 86.8442C57.1644 89.3349 59.1748 91.3629 61.6656 91.3738C64.1564 91.3847 66.1843 89.3743 66.1952 86.8835L66.234 78.0036C66.2448 75.5128 64.2345 73.4848 61.7437 73.474C59.2529 73.4631 57.2249 75.4735 57.214 77.9642L57.1753 86.8442Z" fill="#C1272D"/>
<path d="M55.2631 85.4725C55.2522 87.9633 57.2626 89.9913 59.7533 90.0021C62.2441 90.013 64.2721 88.0026 64.283 85.5118L64.318 77.4819C64.3289 74.9911 62.3185 72.9631 59.8277 72.9523C57.337 72.9414 55.309 74.9518 55.2981 77.4426L55.2631 85.4725Z" fill="white"/>
<path d="M61.5077 38.8328C59.0169 38.822 56.9889 40.8323 56.9781 43.3231C56.9672 45.8139 58.9776 47.8419 61.4683 47.8527L87.0981 47.9646C89.5889 47.9754 91.6169 45.9651 91.6277 43.4743C91.6386 40.9835 89.6282 38.9555 87.1374 38.9447L61.5077 38.8328Z" fill="#C1272D"/>
<path d="M61.6378 83.1562C59.147 83.1454 57.119 85.1557 57.1082 87.6465C57.0973 90.1373 59.1077 92.1653 61.5985 92.1762L87.2282 92.288C89.719 92.2989 91.747 90.2885 91.7579 87.7977C91.7687 85.3069 89.7584 83.2789 87.2676 83.2681L61.6378 83.1562Z" fill="#C1272D"/>
<path d="M54.468 49.9757C54.4572 52.4665 56.4675 54.4944 58.9583 54.5053C61.4491 54.5162 63.4771 52.5058 63.4879 50.015L63.523 41.9751C63.5339 39.4843 61.5235 37.4563 59.0327 37.4455C56.542 37.4346 54.514 39.445 54.5031 41.9358L54.468 49.9757Z" fill="white"/>
<path d="M83.9263 87.1568C83.9154 89.6476 85.9258 91.6755 88.4166 91.6864C90.9073 91.6973 92.9353 89.6869 92.9462 87.1961L93.1257 46.0665C93.1365 43.5757 91.1262 41.5478 88.6354 41.5369C86.1446 41.526 84.1166 43.5364 84.1057 46.0272L83.9263 87.1568Z" fill="#C1272D"/>
<path d="M59.6919 37.0027C57.2011 36.9919 55.1731 39.0022 55.1623 41.493C55.1514 43.9838 57.1618 46.0118 59.6525 46.0226L86.2723 46.1388C88.7631 46.1497 90.791 44.1393 90.8019 41.6485C90.8128 39.1577 88.8024 37.1297 86.3116 37.1189L59.6919 37.0027Z" fill="white"/>
<path d="M59.812 81.3261C57.3212 81.3152 55.2932 83.3256 55.2824 85.8164C55.2715 88.3072 57.2819 90.3352 59.7727 90.346L86.3924 90.4622C88.8832 90.473 90.9112 88.4627 90.922 85.9719C90.9329 83.4811 88.9225 81.4531 86.4318 81.4423L59.812 81.3261Z" fill="white"/>
<path d="M82.0195 85.7351C82.0087 88.2259 84.019 90.2538 86.5098 90.2647C89.0006 90.2756 91.0286 88.2652 91.0395 85.7744L91.2294 42.2349C91.2403 39.7441 89.2299 37.7161 86.7392 37.7052C84.2484 37.6943 82.2204 39.7047 82.2095 42.1955L82.0195 85.7351Z" fill="white"/>
</g>
<defs>
<clipPath id="clip0_122_420">
<rect width="130" height="137" fill="white" transform="translate(0.456055 0.3703)"/>
</clipPath>
</defs>
</svg>
