<svg width="131" height="138" viewBox="0 0 131 138" fill="none" xmlns="http://www.w3.org/2000/svg">
<g clip-path="url(#clip0_122_409)">
<path d="M117.696 71.6603C117.696 101.07 94.2861 124.91 65.3961 124.91C53.0692 124.92 41.1489 120.502 31.806 112.46C22.5988 104.598 16.3453 93.8332 14.076 81.9403C13.415 78.5535 13.0802 75.111 13.076 71.6603C13.096 42.2503 36.5061 18.3703 65.3961 18.3703C75.6579 18.3723 85.6857 21.4363 94.196 27.1703C98.4981 30.0661 102.35 33.5806 105.626 37.6003C113.457 47.1984 117.723 59.2127 117.696 71.6003V71.6603Z" fill="#F93052"/>
<path d="M114.956 54.6103L48.646 122.12C42.4698 119.993 36.7524 116.715 31.796 112.46C32.006 112.19 32.226 111.95 32.466 111.7L103.776 39.0903C104.328 38.5335 104.946 38.0465 105.616 37.6403C109.735 42.6824 112.9 48.4331 114.956 54.6103Z" fill="#F15A24"/>
<path d="M94.196 27.2103C94.016 27.4203 93.846 27.6203 93.646 27.8203L22.326 100.43C22.126 100.63 21.936 100.81 21.726 100.99C17.9695 95.2112 15.3682 88.7589 14.066 81.9903L75.456 19.3703C82.1623 20.7102 88.5335 23.3756 94.196 27.2103Z" fill="#F15A24"/>
<path d="M129.766 62.8703C127.499 78.3071 119.754 92.4133 107.947 102.613C96.1403 112.812 81.0585 118.424 65.4561 118.424C49.8536 118.424 34.7718 112.812 22.9648 102.613C11.1577 92.4133 3.41341 78.3071 1.14605 62.8703C0.687829 66.0162 0.45723 69.1912 0.456055 72.3703C0.456055 89.6094 7.30425 106.142 19.4941 118.332C31.684 130.522 48.217 137.37 65.4561 137.37C82.6951 137.37 99.2281 130.522 111.418 118.332C123.608 106.142 130.456 89.6094 130.456 72.3703C130.455 69.1912 130.224 66.0162 129.766 62.8703Z" fill="#ED1C24"/>
<path d="M65.4561 20.3703C74.3562 20.3703 83.0565 23.0095 90.4567 27.9542C97.857 32.8988 103.625 39.9269 107.031 48.1495C110.437 56.3722 111.328 65.4202 109.591 74.1494C107.855 82.8785 103.569 90.8967 97.2759 97.1901C90.9825 103.483 82.9643 107.769 74.2352 109.506C65.506 111.242 56.458 110.351 48.2353 106.945C40.0127 103.539 32.9846 97.7712 28.04 90.371C23.0953 82.9707 20.4561 74.2705 20.4561 65.3703C20.4693 53.4396 25.2146 42.0014 33.6509 33.5651C42.0872 25.1288 53.5254 20.3835 65.4561 20.3703ZM65.4561 0.3703C52.6003 0.3703 40.0332 4.18248 29.344 11.3248C18.6548 18.4671 10.3236 28.6187 5.40391 40.4959C0.484218 52.3731 -0.802999 65.4424 1.70504 78.0512C4.21308 90.6599 10.4037 102.242 19.4941 111.332C28.5846 120.423 40.1665 126.613 52.7752 129.121C65.384 131.629 78.4533 130.342 90.3305 125.422C102.208 120.503 112.359 112.172 119.502 101.482C126.644 90.7932 130.456 78.2261 130.456 65.3703C130.456 48.1312 123.608 31.5982 111.418 19.4084C99.2282 7.2185 82.6952 0.3703 65.4561 0.3703V0.3703Z" fill="#F7931E"/>
<path d="M65.9561 111.37C40.6861 111.37 18.1961 101.48 3.84607 86.1103C8.14594 98.8607 16.2969 109.962 27.1743 117.884C38.0517 125.805 51.1193 130.155 64.574 130.334C78.0287 130.513 91.2074 126.511 102.291 118.882C113.376 111.253 121.819 100.372 126.456 87.7403C112.096 102.18 90.3161 111.37 65.9561 111.37Z" fill="#F15A24"/>
<path d="M66.6761 38.0203C69.9872 38.0393 73.2612 38.7192 76.3061 40.0203C79.4364 41.2545 82.1784 43.3058 84.2461 45.9603C86.0437 48.1986 87.0306 50.9796 87.0461 53.8503C87.0617 55.4452 86.7089 57.0222 86.0151 58.4584C85.3213 59.8946 84.3052 61.1512 83.0461 62.1303C81.0653 63.4483 78.9781 64.599 76.8061 65.5703C75.7876 66.0319 74.8412 66.6381 73.9961 67.3703C73.3423 68.052 72.8201 68.8487 72.4561 69.7203C71.9048 71.2221 71.0349 72.5867 69.9061 73.7203C68.7601 74.3755 67.4412 74.6651 66.1261 74.5503C65.3934 74.5839 64.6615 74.4692 63.9742 74.2132C63.2868 73.9572 62.6583 73.565 62.1261 73.0603C61.615 72.5182 61.2194 71.8779 60.9633 71.1783C60.7072 70.4786 60.5958 69.7343 60.6361 68.9903C60.6687 67.2619 61.0603 65.5592 61.7861 63.9903C61.9861 63.5636 63.0761 61.867 65.0561 58.9003C66.7259 56.626 67.6862 53.9088 67.8161 51.0903C67.8615 50.0279 67.5711 48.9783 66.9861 48.0903C66.7633 47.7339 66.4538 47.4397 66.0866 47.2351C65.7194 47.0305 65.3064 46.9222 64.8861 46.9203C64.5293 46.8858 64.1696 46.9441 63.842 47.0895C63.5143 47.2349 63.2299 47.4625 63.0161 47.7503C62.5284 48.7213 62.2523 49.7847 62.2061 50.8703C62.1106 53.3405 61.098 55.6864 59.3661 57.4503C57.6443 59.018 55.3725 59.8412 53.0461 59.7403C51.435 59.8097 49.858 59.2626 48.6361 58.2103C47.9928 57.6617 47.4797 56.9769 47.1338 56.2056C46.7878 55.4342 46.6179 54.5955 46.6361 53.7503C46.6886 50.8493 47.6778 48.043 49.4561 45.7503C51.2919 43.2016 53.7979 41.2113 56.6961 40.0003C59.8538 38.6694 63.2495 37.9957 66.6761 38.0203ZM65.7461 78.6703C66.9346 78.6588 68.112 78.8988 69.2012 79.3745C70.2904 79.8501 71.2667 80.5507 72.0661 81.4303C73.1305 82.5062 73.913 83.828 74.3443 85.2787C74.7757 86.7293 74.8425 88.264 74.5388 89.7466C74.2351 91.2292 73.5704 92.6141 72.6035 93.7784C71.6366 94.9426 70.3975 95.8504 68.9958 96.4212C67.5942 96.992 66.0734 97.2082 64.5682 97.0507C63.063 96.8932 61.6199 96.3667 60.3668 95.518C59.1138 94.6694 58.0894 93.5247 57.3846 92.1854C56.6797 90.8461 56.3162 89.3537 56.3261 87.8403C56.2996 86.6852 56.5074 85.5368 56.9371 84.4643C57.3668 83.3918 58.0094 82.4175 58.8261 81.6003C59.7089 80.6537 60.7816 79.9043 61.9742 79.4011C63.1667 78.8979 64.4521 78.6523 65.7461 78.6803V78.6703Z" fill="#C1272D"/>
<path d="M63.6761 35.0203C66.9872 35.0393 70.2612 35.7192 73.3061 37.0203C76.4364 38.2545 79.1784 40.3058 81.2461 42.9603C83.0437 45.1986 84.0306 47.9796 84.0461 50.8503C84.0617 52.4452 83.7089 54.0222 83.0151 55.4584C82.3213 56.8946 81.3052 58.1512 80.0461 59.1303C78.0653 60.4483 75.9781 61.599 73.8061 62.5703C72.7876 63.0319 71.8412 63.6381 70.9961 64.3703C70.3423 65.052 69.8201 65.8487 69.4561 66.7203C68.9048 68.2221 68.0349 69.5867 66.9061 70.7203C65.7601 71.3755 64.4412 71.6651 63.1261 71.5503C62.3934 71.5839 61.6615 71.4692 60.9742 71.2132C60.2868 70.9572 59.6583 70.565 59.1261 70.0603C58.615 69.5182 58.2194 68.8779 57.9633 68.1783C57.7072 67.4786 57.5958 66.7343 57.6361 65.9903C57.6687 64.2619 58.0603 62.5592 58.7861 60.9903C58.9861 60.5636 60.0761 58.867 62.0561 55.9003C63.7259 53.626 64.6862 50.9088 64.8161 48.0903C64.8615 47.0279 64.5711 45.9783 63.9861 45.0903C63.7633 44.7339 63.4538 44.4397 63.0866 44.2351C62.7194 44.0305 62.3064 43.9222 61.8861 43.9203C61.5293 43.8858 61.1696 43.9441 60.842 44.0895C60.5143 44.2349 60.2299 44.4625 60.0161 44.7503C59.5284 45.7213 59.2523 46.7847 59.2061 47.8703C59.1106 50.3405 58.098 52.6864 56.3661 54.4503C54.6443 56.018 52.3725 56.8412 50.0461 56.7403C48.435 56.8097 46.858 56.2626 45.6361 55.2103C44.9928 54.6617 44.4797 53.9769 44.1338 53.2056C43.7878 52.4342 43.6179 51.5955 43.6361 50.7503C43.6886 47.8493 44.6778 45.043 46.4561 42.7503C48.2919 40.2016 50.7979 38.2113 53.6961 37.0003C56.8538 35.6694 60.2495 34.9957 63.6761 35.0203ZM62.7461 75.6703C63.9346 75.6588 65.112 75.8988 66.2012 76.3745C67.2904 76.8501 68.2667 77.5507 69.0661 78.4303C70.1305 79.5062 70.913 80.828 71.3443 82.2787C71.7757 83.7293 71.8425 85.264 71.5388 86.7466C71.2351 88.2292 70.5704 89.6141 69.6035 90.7784C68.6366 91.9426 67.3975 92.8504 65.9958 93.4212C64.5942 93.992 63.0734 94.2082 61.5682 94.0507C60.063 93.8932 58.6199 93.3667 57.3668 92.518C56.1138 91.6694 55.0894 90.5247 54.3846 89.1854C53.6797 87.8461 53.3162 86.3537 53.3261 84.8403C53.2996 83.6852 53.5074 82.5368 53.9371 81.4643C54.3668 80.3918 55.0094 79.4175 55.8261 78.6003C56.7089 77.6537 57.7816 76.9043 58.9742 76.4011C60.1667 75.8979 61.4521 75.6523 62.7461 75.6803V75.6703Z" fill="white"/>
</g>
<defs>
<clipPath id="clip0_122_409">
<rect width="130" height="137" fill="white" transform="translate(0.456055 0.3703)"/>
</clipPath>
</defs>
</svg>
