<svg width="131" height="138" viewBox="0 0 131 138" fill="none" xmlns="http://www.w3.org/2000/svg">
<g clip-path="url(#clip0_122_387)">
<path d="M117.526 67.8703C117.526 97.2803 94.116 121.12 65.226 121.12C52.8991 121.13 40.9788 116.712 31.636 108.67C22.4288 100.808 16.1752 90.0432 13.906 78.1503C13.245 74.7635 12.9101 71.321 12.906 67.8703C12.906 38.4603 36.316 14.6203 65.206 14.6203C75.4694 14.6035 85.5043 17.6502 94.026 23.3703C98.3316 26.2814 102.183 29.8129 105.456 33.8503C113.287 43.4484 117.552 55.4627 117.526 67.8503V67.8703Z" fill="#F93052"/>
<path d="M114.796 50.8203L48.4561 118.37C42.2799 116.243 36.5625 112.965 31.6061 108.71C31.8161 108.44 32.0361 108.2 32.2761 107.95L103.586 35.3403C104.145 34.7675 104.773 34.2669 105.456 33.8503C109.575 38.8924 112.74 44.6431 114.796 50.8203Z" fill="#F15A24"/>
<path d="M94.026 23.3703C93.846 23.5803 93.676 23.7803 93.476 23.9803L22.166 96.6403C21.966 96.8403 21.776 97.0203 21.566 97.2003C17.8095 91.4212 15.2082 84.9689 13.906 78.2003L75.326 15.6203C82.0117 16.9378 88.3684 19.5723 94.026 23.3703Z" fill="#F15A24"/>
<path d="M129.766 62.8703C127.499 78.3071 119.754 92.4133 107.947 102.613C96.1403 112.812 81.0585 118.424 65.4561 118.424C49.8536 118.424 34.7718 112.812 22.9648 102.613C11.1577 92.4133 3.41341 78.3071 1.14605 62.8703C0.687829 66.0162 0.45723 69.1912 0.456055 72.3703C0.456055 89.6094 7.30425 106.142 19.4941 118.332C31.684 130.522 48.217 137.37 65.4561 137.37C82.6951 137.37 99.2281 130.522 111.418 118.332C123.608 106.142 130.456 89.6094 130.456 72.3703C130.455 69.1912 130.224 66.0162 129.766 62.8703Z" fill="#ED1C24"/>
<path d="M65.4561 20.3703C74.3562 20.3703 83.0565 23.0095 90.4567 27.9542C97.857 32.8988 103.625 39.9269 107.031 48.1495C110.437 56.3722 111.328 65.4202 109.591 74.1494C107.855 82.8785 103.569 90.8967 97.2759 97.1901C90.9825 103.483 82.9643 107.769 74.2352 109.506C65.506 111.242 56.458 110.351 48.2353 106.945C40.0127 103.539 32.9846 97.7712 28.04 90.371C23.0953 82.9707 20.4561 74.2705 20.4561 65.3703C20.4693 53.4396 25.2146 42.0014 33.6509 33.5651C42.0872 25.1288 53.5254 20.3835 65.4561 20.3703ZM65.4561 0.3703C52.6003 0.3703 40.0332 4.18248 29.344 11.3248C18.6548 18.4671 10.3236 28.6187 5.40391 40.4959C0.484218 52.3731 -0.802999 65.4424 1.70504 78.0512C4.21308 90.6599 10.4037 102.242 19.4941 111.332C28.5846 120.423 40.1665 126.613 52.7752 129.121C65.384 131.629 78.4533 130.342 90.3305 125.422C102.208 120.503 112.359 112.172 119.502 101.482C126.644 90.7932 130.456 78.2261 130.456 65.3703C130.456 48.1312 123.608 31.5982 111.418 19.4084C99.2282 7.2185 82.6952 0.3703 65.4561 0.3703V0.3703Z" fill="#F7931E"/>
<path d="M65.9561 111.37C40.6861 111.37 18.1961 101.48 3.84607 86.1103C8.14594 98.8607 16.2969 109.962 27.1743 117.884C38.0517 125.805 51.1193 130.155 64.574 130.334C78.0287 130.513 91.2074 126.511 102.291 118.882C113.376 111.253 121.819 100.372 126.456 87.7403C112.096 102.18 90.3161 111.37 65.9561 111.37Z" fill="#F15A24"/>
<path d="M89.1861 33.3903H88.7661C87.1093 33.3903 85.7661 34.7335 85.7661 36.3903V54.5003C85.7661 56.1572 87.1093 57.5003 88.7661 57.5003H89.1861C90.843 57.5003 92.1861 56.1572 92.1861 54.5003V36.3903C92.1861 34.7335 90.843 33.3903 89.1861 33.3903Z" fill="#ED1C24"/>
<path d="M60.5161 31.5503L39.8861 53.4903C38.8701 54.5732 38.1936 55.9299 37.9402 57.393C37.6867 58.8561 37.8674 60.3613 38.4598 61.7229C39.0523 63.0844 40.0307 64.2425 41.274 65.0543C42.5174 65.866 43.9713 66.2957 45.4561 66.2903H86.6761C88.1575 66.2879 89.606 65.8525 90.8433 65.0378C92.0805 64.223 93.0527 63.0644 93.6403 61.7045C94.2278 60.3445 94.4051 58.8425 94.1503 57.3831C93.8955 55.9238 93.2197 54.5707 92.2061 53.4903L71.5861 31.5503C70.8755 30.7951 70.0179 30.1933 69.066 29.7819C68.1141 29.3706 67.0881 29.1583 66.0511 29.1583C65.0141 29.1583 63.9881 29.3706 63.0362 29.7819C62.0843 30.1933 61.2267 30.7951 60.5161 31.5503Z" fill="#ED1C24"/>
<path d="M78.376 65.8203H78.306C78.0299 65.8203 77.806 66.0442 77.806 66.3203V84.6003C77.806 84.8764 78.0299 85.1003 78.306 85.1003H78.376C78.6522 85.1003 78.876 84.8764 78.876 84.6003V66.3203C78.876 66.0442 78.6522 65.8203 78.376 65.8203Z" fill="#ED1C24"/>
<path d="M89.596 75.6903C89.839 75.6903 90.036 75.4933 90.036 75.2503C90.036 75.0073 89.839 74.8103 89.596 74.8103H69.066C68.823 74.8103 68.626 75.0073 68.626 75.2503C68.626 75.4933 68.823 75.6903 69.066 75.6903H89.596Z" fill="#ED1C24"/>
<path d="M79.326 54.4403H52.076C45.656 54.4403 40.396 59.1703 40.396 64.9503V88.6103C40.396 94.3903 45.646 99.1203 52.076 99.1203H79.326C85.746 99.1203 91.006 94.3903 91.006 88.6103V64.9503C91.006 59.1703 85.746 54.4403 79.326 54.4403ZM89.056 82.0603C89.0198 82.6634 88.7478 83.2281 88.2987 83.6322C87.8497 84.0364 87.2596 84.2477 86.656 84.2203H71.996C71.3924 84.2477 70.8023 84.0364 70.3533 83.6322C69.9042 83.2281 69.6322 82.6634 69.596 82.0603V68.8703C69.6322 68.2672 69.9042 67.7025 70.3533 67.2984C70.8023 66.8942 71.3924 66.6829 71.996 66.7103H86.656C87.2596 66.6829 87.8497 66.8942 88.2987 67.2984C88.7478 67.7025 89.0198 68.2672 89.056 68.8703V82.0603Z" fill="#ED1C24"/>
<path d="M88.216 32.5103H87.796C86.1392 32.5103 84.796 33.8534 84.796 35.5103V53.6203C84.796 55.2772 86.1392 56.6203 87.796 56.6203H88.216C89.8729 56.6203 91.216 55.2772 91.216 53.6203V35.5103C91.216 33.8534 89.8729 32.5103 88.216 32.5103Z" fill="white"/>
<path d="M59.536 30.6803L38.916 52.6103C37.9149 53.6928 37.2503 55.0432 37.0032 56.4968C36.7561 57.9505 36.9372 59.4446 37.5245 60.7971C38.1117 62.1496 39.0797 63.3021 40.3104 64.1141C41.5412 64.9261 42.9816 65.3626 44.456 65.3703H85.696C87.1775 65.3679 88.6259 64.9325 89.8632 64.1177C91.1005 63.303 92.0727 62.1444 92.6602 60.7845C93.2478 59.4245 93.425 57.9225 93.1702 56.4631C92.9154 55.0038 92.2397 53.6507 91.226 52.5703L70.606 30.6803C69.8954 29.9251 69.0378 29.3233 68.0859 28.9119C67.134 28.5006 66.108 28.2883 65.071 28.2883C64.0341 28.2883 63.0081 28.5006 62.0562 28.9119C61.1043 29.3233 60.2466 29.9251 59.536 30.6803Z" fill="white"/>
<path d="M77.4061 64.9503H77.3361C77.0599 64.9503 76.8361 65.1742 76.8361 65.4503V83.7303C76.8361 84.0064 77.0599 84.2303 77.3361 84.2303H77.4061C77.6822 84.2303 77.9061 84.0064 77.9061 83.7303V65.4503C77.9061 65.1742 77.6822 64.9503 77.4061 64.9503Z" fill="#EFDCDD"/>
<path d="M88.616 74.8103C88.859 74.8103 89.056 74.6133 89.056 74.3703C89.056 74.1273 88.859 73.9303 88.616 73.9303H68.086C67.843 73.9303 67.646 74.1273 67.646 74.3703C67.646 74.6133 67.843 74.8103 68.086 74.8103H88.616Z" fill="#EFDCDD"/>
<path d="M78.3561 53.5603H51.1061C44.6861 53.5603 39.4561 58.3003 39.4561 64.0803V87.7303C39.4561 93.5103 44.7061 98.2403 51.1361 98.2403H78.3561C84.7761 98.2403 90.0361 93.5103 90.0361 87.7303V64.0803C90.0261 58.3003 84.7761 53.5603 78.3561 53.5603ZM86.7061 81.1803C86.7048 81.4726 86.6453 81.7618 86.531 82.0308C86.4168 82.2999 86.25 82.5435 86.0406 82.7474C85.8311 82.9513 85.5831 83.1114 85.311 83.2183C85.0389 83.3253 84.7483 83.3769 84.4561 83.3703H70.8561C70.2743 83.3783 69.713 83.1556 69.2951 82.7507C68.8771 82.3459 68.6366 81.792 68.6261 81.2103V67.9903C68.6366 67.4086 68.8771 66.8547 69.2951 66.4499C69.713 66.045 70.2743 65.8223 70.8561 65.8303H84.4561C85.0378 65.8223 85.5991 66.045 86.0171 66.4499C86.435 66.8547 86.6755 67.4086 86.6861 67.9903L86.7061 81.1803Z" fill="white"/>
<g style="mix-blend-mode:soft-light">
<path d="M50.7061 61.1203C54.0198 61.1203 56.7061 58.434 56.7061 55.1203C56.7061 51.8066 54.0198 49.1203 50.7061 49.1203C47.3923 49.1203 44.7061 51.8066 44.7061 55.1203C44.7061 58.434 47.3923 61.1203 50.7061 61.1203Z" fill="white"/>
</g>
<g style="mix-blend-mode:soft-light">
<path d="M59.7061 50.1203C61.3629 50.1203 62.7061 48.7772 62.7061 47.1203C62.7061 45.4634 61.3629 44.1203 59.7061 44.1203C58.0492 44.1203 56.7061 45.4634 56.7061 47.1203C56.7061 48.7772 58.0492 50.1203 59.7061 50.1203Z" fill="white"/>
</g>
</g>
<defs>
<clipPath id="clip0_122_387">
<rect width="130" height="137" fill="white" transform="translate(0.456055 0.3703)"/>
</clipPath>
</defs>
</svg>
