<svg width="131" height="138" viewBox="0 0 131 138" fill="none" xmlns="http://www.w3.org/2000/svg">
<g clip-path="url(#clip0_122_371)">
<path d="M121.706 66.1203C121.682 80.1146 116.395 93.5878 106.895 103.863C97.3949 114.139 84.3773 120.465 70.4279 121.586C56.4785 122.706 42.6182 118.538 31.6001 109.91C20.5821 101.282 13.2127 88.8251 10.9558 75.014C8.69887 61.2029 11.7196 47.0481 19.418 35.3616C27.1163 23.6751 38.9289 15.3119 52.5092 11.9333C66.0896 8.55479 80.4439 10.4082 92.7207 17.1253C104.998 23.8423 114.299 34.9317 118.776 48.1903C120.722 53.9676 121.712 60.024 121.706 66.1203Z" fill="#F93052"/>
<path d="M118.776 48.1903L47.776 119.19C41.1941 116.958 35.0888 113.511 29.776 109.03C30.006 108.75 30.236 108.49 30.496 108.23L106.816 31.8703C107.417 31.2799 108.089 30.766 108.816 30.3403C113.202 35.6295 116.578 41.6801 118.776 48.1903Z" fill="#F15A24"/>
<path d="M96.5461 19.3703C96.3561 19.5903 96.1661 19.8003 95.9561 20.0103L19.5961 96.3703C19.3861 96.5803 19.1761 96.7703 18.9561 96.9603C14.9396 90.8949 12.1535 84.0996 10.7561 76.9603L76.5161 11.1703C83.6658 12.5639 90.4716 15.3501 96.5461 19.3703Z" fill="#F15A24"/>
<path d="M129.766 62.8703C127.499 78.3071 119.754 92.4133 107.947 102.613C96.1403 112.812 81.0585 118.424 65.4561 118.424C49.8536 118.424 34.7718 112.812 22.9648 102.613C11.1577 92.4133 3.41341 78.3071 1.14605 62.8703C0.687829 66.0162 0.45723 69.1912 0.456055 72.3703C0.456055 89.6094 7.30425 106.142 19.4941 118.332C31.684 130.522 48.217 137.37 65.4561 137.37C82.6951 137.37 99.2281 130.522 111.418 118.332C123.608 106.142 130.456 89.6094 130.456 72.3703C130.455 69.1912 130.224 66.0162 129.766 62.8703Z" fill="#ED1C24"/>
<path d="M65.4561 20.3703C74.3562 20.3703 83.0565 23.0095 90.4567 27.9542C97.857 32.8988 103.625 39.9269 107.031 48.1495C110.437 56.3722 111.328 65.4202 109.591 74.1494C107.855 82.8785 103.569 90.8967 97.2759 97.1901C90.9825 103.483 82.9643 107.769 74.2352 109.506C65.506 111.242 56.458 110.351 48.2353 106.945C40.0127 103.539 32.9846 97.7712 28.04 90.371C23.0953 82.9707 20.4561 74.2705 20.4561 65.3703C20.4693 53.4396 25.2146 42.0014 33.6509 33.5651C42.0872 25.1288 53.5254 20.3835 65.4561 20.3703ZM65.4561 0.3703C52.6003 0.3703 40.0332 4.18248 29.344 11.3248C18.6548 18.4671 10.3236 28.6187 5.40391 40.4959C0.484218 52.3731 -0.802999 65.4424 1.70504 78.0512C4.21308 90.6599 10.4037 102.242 19.4941 111.332C28.5846 120.423 40.1665 126.613 52.7752 129.121C65.384 131.629 78.4533 130.342 90.3305 125.422C102.208 120.503 112.359 112.172 119.502 101.482C126.644 90.7932 130.456 78.2261 130.456 65.3703C130.456 48.1312 123.608 31.5982 111.418 19.4084C99.2282 7.2185 82.6952 0.3703 65.4561 0.3703V0.3703Z" fill="#F7931E"/>
<path d="M65.9561 111.37C40.6861 111.37 18.1961 101.48 3.84607 86.1103C8.14594 98.8607 16.2969 109.962 27.1743 117.884C38.0517 125.805 51.1193 130.155 64.574 130.334C78.0287 130.513 91.2074 126.511 102.291 118.882C113.376 111.253 121.819 100.372 126.456 87.7403C112.096 102.18 90.3161 111.37 65.9561 111.37Z" fill="#F15A24"/>
<path d="M75.3561 60.3703V101.37C75.3572 101.588 75.3404 101.805 75.3061 102.02C74.8761 105.34 71.2361 107.97 66.8461 107.97C62.4561 107.97 58.8461 105.35 58.3861 102.02C58.3518 101.805 58.3351 101.588 58.3361 101.37V60.3703C58.3361 56.7303 62.1661 53.7503 66.8461 53.7503C69.0065 53.7204 71.1161 54.406 72.8461 55.7003C73.5943 56.2344 74.2097 56.9333 74.6449 57.743C75.0801 58.5527 75.3234 59.4516 75.3561 60.3703Z" fill="#ED1C24"/>
<path d="M66.4561 49.7203C71.4266 49.7203 75.4561 45.6909 75.4561 40.7203C75.4561 35.7497 71.4266 31.7203 66.4561 31.7203C61.4855 31.7203 57.4561 35.7497 57.4561 40.7203C57.4561 45.6909 61.4855 49.7203 66.4561 49.7203Z" fill="#ED1C24"/>
<path d="M73.3561 58.3703V99.3703C73.3572 99.588 73.3404 99.8054 73.3061 100.02C72.8761 103.34 69.2361 105.97 64.8461 105.97C60.4561 105.97 56.8461 103.35 56.3861 100.02C56.3518 99.8054 56.3351 99.588 56.3361 99.3703V58.3703C56.3361 54.7303 60.1661 51.7503 64.8461 51.7503C67.0065 51.7204 69.1161 52.406 70.8461 53.7003C71.5943 54.2344 72.2097 54.9333 72.6449 55.743C73.0801 56.5527 73.3234 57.4516 73.3561 58.3703Z" fill="white"/>
<path d="M64.4561 47.7203C69.4266 47.7203 73.4561 43.6909 73.4561 38.7203C73.4561 33.7497 69.4266 29.7203 64.4561 29.7203C59.4855 29.7203 55.4561 33.7497 55.4561 38.7203C55.4561 43.6909 59.4855 47.7203 64.4561 47.7203Z" fill="white"/>
<g style="mix-blend-mode:soft-light">
<path d="M66.876 39.2803C68.6323 39.2803 70.056 37.8566 70.056 36.1003C70.056 34.344 68.6323 32.9203 66.876 32.9203C65.1198 32.9203 63.696 34.344 63.696 36.1003C63.696 37.8566 65.1198 39.2803 66.876 39.2803Z" fill="white"/>
</g>
<g style="mix-blend-mode:soft-light">
<path d="M63.166 41.9203C64.0442 41.9203 64.7561 41.2084 64.7561 40.3303C64.7561 39.4522 64.0442 38.7403 63.166 38.7403C62.2879 38.7403 61.576 39.4522 61.576 40.3303C61.576 41.2084 62.2879 41.9203 63.166 41.9203Z" fill="white"/>
</g>
</g>
<defs>
<clipPath id="clip0_122_371">
<rect width="130" height="137" fill="white" transform="translate(0.456055 0.3703)"/>
</clipPath>
</defs>
</svg>
