<svg width="131" height="138" viewBox="0 0 131 138" fill="none" xmlns="http://www.w3.org/2000/svg">
<g clip-path="url(#clip0_122_265)">
<path d="M117.696 71.6603C117.696 101.07 94.2862 124.91 65.3962 124.91C53.0693 124.92 41.149 120.502 31.8062 112.46C22.599 104.598 16.3454 93.8332 14.0762 81.9403C13.4151 78.5535 13.0803 75.111 13.0762 71.6603C13.0962 42.2503 36.5062 18.3703 65.3962 18.3703C75.658 18.3723 85.6858 21.4363 94.1962 27.1703C98.4982 30.0661 102.35 33.5806 105.626 37.6003C113.458 47.1984 117.723 59.2127 117.696 71.6003V71.6603Z" fill="#F93052"/>
<path d="M114.956 54.6103L48.6461 122.12C42.4699 119.993 36.7525 116.715 31.7961 112.46C32.0061 112.19 32.2261 111.95 32.4661 111.7L103.776 39.0903C104.328 38.5335 104.946 38.0465 105.616 37.6403C109.735 42.6824 112.9 48.4331 114.956 54.6103Z" fill="#F15A24"/>
<path d="M94.1962 27.2103C94.0162 27.4203 93.8462 27.6203 93.6462 27.8203L22.3262 100.43C22.1262 100.63 21.9362 100.81 21.7262 100.99C17.9696 95.2112 15.3684 88.7589 14.0662 81.9903L75.4562 19.3703C82.1624 20.7102 88.5336 23.3756 94.1962 27.2103Z" fill="#F15A24"/>
<path d="M129.766 62.8703C127.499 78.3071 119.754 92.4133 107.947 102.613C96.1403 112.812 81.0585 118.424 65.4561 118.424C49.8536 118.424 34.7718 112.812 22.9648 102.613C11.1577 92.4133 3.41341 78.3071 1.14605 62.8703C0.687829 66.0162 0.45723 69.1912 0.456055 72.3703C0.456055 89.6094 7.30425 106.142 19.4941 118.332C31.684 130.522 48.217 137.37 65.4561 137.37C82.6951 137.37 99.2281 130.522 111.418 118.332C123.608 106.142 130.456 89.6094 130.456 72.3703C130.455 69.1912 130.224 66.0162 129.766 62.8703Z" fill="#ED1C24"/>
<path d="M65.4561 20.3703C74.3562 20.3703 83.0565 23.0095 90.4567 27.9542C97.857 32.8988 103.625 39.9269 107.031 48.1495C110.437 56.3722 111.328 65.4202 109.591 74.1494C107.855 82.8785 103.569 90.8967 97.2759 97.1901C90.9825 103.483 82.9643 107.769 74.2352 109.506C65.506 111.242 56.458 110.351 48.2353 106.945C40.0127 103.539 32.9846 97.7712 28.04 90.371C23.0953 82.9707 20.4561 74.2705 20.4561 65.3703C20.4693 53.4396 25.2146 42.0014 33.6509 33.5651C42.0872 25.1288 53.5254 20.3835 65.4561 20.3703ZM65.4561 0.3703C52.6003 0.3703 40.0332 4.18248 29.344 11.3248C18.6548 18.4671 10.3236 28.6187 5.40391 40.4959C0.484218 52.3731 -0.802999 65.4424 1.70504 78.0512C4.21308 90.6599 10.4037 102.242 19.4941 111.332C28.5846 120.423 40.1665 126.613 52.7752 129.121C65.384 131.629 78.4533 130.342 90.3305 125.422C102.208 120.503 112.359 112.172 119.502 101.482C126.644 90.7932 130.456 78.2261 130.456 65.3703C130.456 48.1312 123.608 31.5982 111.418 19.4084C99.2282 7.2185 82.6952 0.3703 65.4561 0.3703V0.3703Z" fill="#F7931E"/>
<path d="M65.9559 111.37C40.6859 111.37 18.1959 101.48 3.84595 86.1103C8.14581 98.8607 16.2968 109.962 27.1742 117.884C38.0515 125.805 51.1191 130.155 64.5739 130.334C78.0286 130.513 91.2072 126.511 102.291 118.882C113.375 111.253 121.819 100.372 126.456 87.7403C112.096 102.18 90.3159 111.37 65.9559 111.37Z" fill="#F15A24"/>
<path d="M90.3661 61.1203H42.7361C39.1462 61.1203 36.2361 64.0304 36.2361 67.6203V84.8703C36.2361 88.4602 39.1462 91.3703 42.7361 91.3703H90.3661C93.9559 91.3703 96.8661 88.4602 96.8661 84.8703V67.6203C96.8661 64.0304 93.9559 61.1203 90.3661 61.1203Z" fill="#C1272D"/>
<path d="M76.4861 38.3703H59.2361C55.6462 38.3703 52.7361 41.2804 52.7361 44.8703V62.1203C52.7361 65.7102 55.6462 68.6203 59.2361 68.6203H76.4861C80.0759 68.6203 82.9861 65.7102 82.9861 62.1203V44.8703C82.9861 41.2804 80.0759 38.3703 76.4861 38.3703Z" fill="#C1272D"/>
<path d="M57.926 59.0603H40.676C37.0862 59.0603 34.176 61.9705 34.176 65.5603V82.8103C34.176 86.4002 37.0862 89.3103 40.676 89.3103H57.926C61.5159 89.3103 64.426 86.4002 64.426 82.8103V65.5603C64.426 61.9705 61.5159 59.0603 57.926 59.0603Z" fill="white"/>
<path d="M88.166 59.0603H58.366C54.7761 59.0603 51.866 61.9705 51.866 65.5603V82.8103C51.866 86.4002 54.7761 89.3103 58.366 89.3103H88.166C91.7558 89.3103 94.666 86.4002 94.666 82.8103V65.5603C94.666 61.9705 91.7558 59.0603 88.166 59.0603Z" fill="white"/>
<path d="M73.0461 37.0603H55.7961C52.2063 37.0603 49.2961 39.9705 49.2961 43.5603V60.8103C49.2961 64.4002 52.2063 67.3103 55.7961 67.3103H73.0461C76.636 67.3103 79.5461 64.4002 79.5461 60.8103V43.5603C79.5461 39.9705 76.636 37.0603 73.0461 37.0603Z" fill="white"/>
<path d="M61.2461 54.7803C61.3461 54.7803 61.5961 54.7803 61.9861 54.8603C62.1292 54.8717 62.273 54.8717 62.4161 54.8603C63.0828 54.8603 63.4494 54.3603 63.5161 53.3603C63.5694 52.7936 63.5961 51.177 63.5961 48.5103C63.6269 48.2083 63.5371 47.9063 63.3461 47.6703C63.0856 47.4827 62.7654 47.3973 62.4461 47.4303H61.9961H61.6061C61.3804 47.4406 61.1591 47.3656 60.9861 47.2203C60.9086 47.1537 60.8469 47.0707 60.8054 46.9773C60.7639 46.8839 60.7436 46.7825 60.7461 46.6803C60.7543 46.5436 60.7905 46.4101 60.8524 46.2879C60.9143 46.1658 61.0007 46.0577 61.1061 45.9703C61.3975 45.7027 61.7368 45.4923 62.1061 45.3503C64.2448 44.4471 66.5446 43.9879 68.8661 44.0003C69.3507 43.9703 69.8358 44.0489 70.2861 44.2303C70.4248 44.2958 70.5408 44.4012 70.6192 44.5331C70.6976 44.6649 70.7348 44.8172 70.7261 44.9703C70.7361 45.1371 70.6825 45.3015 70.5761 45.4303C70.407 45.583 70.2101 45.7018 69.9961 45.7803C69.5361 45.9803 69.2661 46.2303 69.1961 46.5203C69.0806 47.6532 69.0272 48.7916 69.0361 49.9303C69.0961 51.9303 69.1294 53.0036 69.1361 53.1503C69.1519 53.3522 69.182 53.5527 69.2261 53.7503C69.2503 53.9147 69.308 54.0723 69.3958 54.2134C69.4835 54.3545 69.5994 54.476 69.7361 54.5703C70.1438 54.7563 70.5881 54.8485 71.0361 54.8403C71.7428 54.8403 72.0961 55.127 72.0961 55.7003C72.0961 56.2736 71.5994 56.647 70.6061 56.8203C69.1965 57.0698 67.7676 57.1937 66.3361 57.1903C65.4267 57.1926 64.5181 57.1358 63.6161 57.0203C62.7698 56.9208 61.9356 56.7366 61.1261 56.4703C60.5528 56.2636 60.2661 55.9503 60.2661 55.5303C60.2675 55.419 60.2933 55.3094 60.3416 55.2092C60.39 55.109 60.4598 55.0206 60.5461 54.9503C60.7524 54.8137 61.0001 54.7535 61.2461 54.7803Z" fill="#ED1C24"/>
<path d="M60.2461 53.7803C60.3461 53.7803 60.5961 53.7803 60.9861 53.8603C61.1292 53.8717 61.273 53.8717 61.4161 53.8603C62.0828 53.8603 62.4494 53.3603 62.5161 52.3603C62.5694 51.7936 62.5961 50.177 62.5961 47.5103C62.6269 47.2083 62.5371 46.9063 62.3461 46.6703C62.0856 46.4827 61.7654 46.3973 61.4461 46.4303H60.9961H60.6061C60.3804 46.4406 60.1591 46.3656 59.9861 46.2203C59.9086 46.1537 59.8469 46.0707 59.8054 45.9773C59.7639 45.8839 59.7436 45.7825 59.7461 45.6803C59.7543 45.5436 59.7905 45.4101 59.8524 45.2879C59.9143 45.1658 60.0007 45.0577 60.1061 44.9703C60.3975 44.7027 60.7368 44.4923 61.1061 44.3503C63.2448 43.4471 65.5446 42.9879 67.8661 43.0003C68.3507 42.9703 68.8358 43.0489 69.2861 43.2303C69.4248 43.2958 69.5408 43.4012 69.6192 43.5331C69.6976 43.6649 69.7348 43.8172 69.7261 43.9703C69.7361 44.1371 69.6825 44.3015 69.5761 44.4303C69.407 44.583 69.2101 44.7018 68.9961 44.7803C68.5361 44.9803 68.2661 45.2303 68.1961 45.5203C68.0806 46.6532 68.0272 47.7916 68.0361 48.9303C68.0961 50.9303 68.1294 52.0036 68.1361 52.1503C68.1519 52.3522 68.182 52.5527 68.2261 52.7503C68.2503 52.9147 68.308 53.0723 68.3958 53.2134C68.4835 53.3545 68.5994 53.476 68.7361 53.5703C69.1438 53.7563 69.5881 53.8485 70.0361 53.8403C70.7428 53.8403 71.0961 54.127 71.0961 54.7003C71.0961 55.2736 70.5994 55.647 69.6061 55.8203C68.1965 56.0698 66.7676 56.1937 65.3361 56.1903C64.4267 56.1926 63.5181 56.1358 62.6161 56.0203C61.7698 55.9208 60.9356 55.7366 60.1261 55.4703C59.5528 55.2636 59.2661 54.9503 59.2661 54.5303C59.2675 54.419 59.2933 54.3094 59.3416 54.2092C59.39 54.109 59.4598 54.0206 59.5461 53.9503C59.7524 53.8137 60.0001 53.7535 60.2461 53.7803Z" fill="#F15A24"/>
<path d="M82.276 68.0903C83.6031 68.0652 84.9188 68.3386 86.126 68.8903C86.5501 69.0913 86.9126 69.402 87.176 69.7903C87.4285 70.1546 87.5645 70.587 87.566 71.0303C87.5412 71.4735 87.4135 71.9049 87.193 72.2902C86.9726 72.6755 86.6655 73.0042 86.296 73.2503C86.056 73.4436 85.936 73.597 85.936 73.7103C85.936 73.9303 86.146 74.0803 86.576 74.1603C88.576 74.5336 89.576 75.657 89.576 77.5303C89.5686 78.7188 89.1277 79.8638 88.336 80.7503C87.4204 81.7715 86.218 82.4929 84.886 82.8203C83.7139 83.1446 82.5021 83.3028 81.286 83.2903C79.9245 83.3278 78.5679 83.1108 77.286 82.6503C76.6194 82.3836 76.286 81.9903 76.286 81.4703C76.2834 81.3182 76.3133 81.1672 76.3737 81.0275C76.434 80.8879 76.5235 80.7627 76.636 80.6603C76.868 80.4412 77.1771 80.3226 77.496 80.3303C78.0089 80.386 78.517 80.4795 79.016 80.6103C79.3976 80.6882 79.7868 80.7218 80.176 80.7103C80.942 80.7513 81.6995 80.5329 82.326 80.0903C82.5762 79.9214 82.7828 79.6955 82.9288 79.4313C83.0748 79.1671 83.1561 78.872 83.166 78.5703C83.1704 78.3159 83.1137 78.0641 83.0006 77.8361C82.8875 77.6082 82.7213 77.4107 82.516 77.2603C82.0337 76.9051 81.4445 76.7252 80.846 76.7503C80.4575 76.7442 80.0701 76.7947 79.696 76.9003C79.5541 76.95 79.4061 76.9803 79.256 76.9903C79.0627 76.9903 78.8627 76.7936 78.656 76.4003C78.4604 76.0444 78.354 75.6464 78.346 75.2403C78.3374 75.171 78.3467 75.1006 78.373 75.0358C78.3992 74.9711 78.4416 74.9141 78.496 74.8703C78.7961 74.726 79.1071 74.6057 79.426 74.5103C79.9443 74.3223 80.4104 74.0138 80.786 73.6103C80.9362 73.4704 81.0569 73.302 81.1411 73.1148C81.2252 72.9276 81.2711 72.7255 81.276 72.5203C81.2762 72.3094 81.2308 72.101 81.1427 71.9094C81.0547 71.7178 80.9262 71.5475 80.766 71.4103C80.439 71.1025 80.0051 70.934 79.556 70.9403C79.3122 70.9342 79.069 70.968 78.836 71.0403C78.4578 71.1919 78.0903 71.3689 77.736 71.5703C77.6232 71.6374 77.4968 71.6784 77.366 71.6903C77.1794 71.6903 77.0027 71.5603 76.836 71.3003C76.6734 71.054 76.5865 70.7655 76.586 70.4703C76.586 69.9636 77.036 69.4836 77.936 69.0303C78.572 68.7195 79.2437 68.4878 79.936 68.3403C80.7042 68.1696 81.4891 68.0858 82.276 68.0903Z" fill="#ED1C24"/>
<path d="M81.276 67.0903C82.6031 67.0652 83.9188 67.3386 85.126 67.8903C85.5501 68.0913 85.9126 68.402 86.176 68.7903C86.4285 69.1546 86.5645 69.587 86.566 70.0303C86.5412 70.4735 86.4135 70.9049 86.193 71.2902C85.9726 71.6755 85.6655 72.0042 85.296 72.2503C85.056 72.4436 84.936 72.597 84.936 72.7103C84.936 72.9303 85.146 73.0803 85.576 73.1603C87.576 73.5336 88.576 74.657 88.576 76.5303C88.5686 77.7188 88.1277 78.8638 87.336 79.7503C86.4204 80.7715 85.218 81.4929 83.886 81.8203C82.7139 82.1446 81.5021 82.3028 80.286 82.2903C78.9245 82.3278 77.5679 82.1108 76.286 81.6503C75.6194 81.3836 75.286 80.9903 75.286 80.4703C75.2834 80.3182 75.3133 80.1672 75.3737 80.0275C75.434 79.8879 75.5235 79.7627 75.636 79.6603C75.868 79.4412 76.1771 79.3226 76.496 79.3303C77.0089 79.386 77.517 79.4795 78.016 79.6103C78.3976 79.6882 78.7868 79.7218 79.176 79.7103C79.942 79.7513 80.6995 79.5329 81.326 79.0903C81.5762 78.9214 81.7828 78.6955 81.9288 78.4313C82.0748 78.1671 82.1561 77.872 82.166 77.5703C82.1704 77.3159 82.1137 77.0641 82.0006 76.8361C81.8875 76.6082 81.7213 76.4107 81.516 76.2603C81.0337 75.9051 80.4445 75.7252 79.846 75.7503C79.4575 75.7442 79.0701 75.7947 78.696 75.9003C78.5541 75.95 78.4061 75.9803 78.256 75.9903C78.0627 75.9903 77.8627 75.7936 77.656 75.4003C77.4604 75.0444 77.354 74.6464 77.346 74.2403C77.3374 74.171 77.3467 74.1006 77.373 74.0358C77.3992 73.9711 77.4416 73.9141 77.496 73.8703C77.7961 73.726 78.1071 73.6057 78.426 73.5103C78.9443 73.3223 79.4104 73.0138 79.786 72.6103C79.9362 72.4704 80.0569 72.302 80.1411 72.1148C80.2252 71.9276 80.2711 71.7255 80.276 71.5203C80.2762 71.3094 80.2308 71.101 80.1427 70.9094C80.0547 70.7178 79.9262 70.5475 79.766 70.4103C79.439 70.1025 79.0051 69.934 78.556 69.9403C78.3122 69.9342 78.069 69.968 77.836 70.0403C77.4578 70.1919 77.0903 70.3689 76.736 70.5703C76.6232 70.6374 76.4968 70.6784 76.366 70.6903C76.1794 70.6903 76.0027 70.5603 75.836 70.3003C75.6734 70.054 75.5865 69.7655 75.586 69.4703C75.586 68.9636 76.036 68.4836 76.936 68.0303C77.572 67.7195 78.2437 67.4878 78.936 67.3403C79.7042 67.1696 80.4891 67.0858 81.276 67.0903Z" fill="#F15A24"/>
<path d="M53.2359 80.9703H45.5859C44.9193 80.9703 44.5859 80.7803 44.5859 80.4003C44.5888 80.2009 44.6633 80.0092 44.7959 79.8603C44.9359 79.6936 45.3959 79.2436 46.1759 78.5103C47.4151 77.393 48.4951 76.1111 49.3859 74.7003C49.6993 74.2402 49.8856 73.7055 49.9259 73.1503C49.9332 72.9874 49.9077 72.8248 49.851 72.6719C49.7944 72.519 49.7076 72.3791 49.5959 72.2603C49.48 72.1474 49.342 72.0599 49.1905 72.0031C49.0391 71.9463 48.8775 71.9215 48.7159 71.9303C48.4453 71.9148 48.1748 71.9627 47.9259 72.0703C47.506 72.3456 47.1081 72.6532 46.7359 72.9903C46.5493 73.1309 46.3193 73.2016 46.0859 73.1903C45.9004 73.1916 45.7164 73.1561 45.5448 73.0857C45.3731 73.0153 45.2171 72.9115 45.0859 72.7803C44.9533 72.6719 44.8455 72.5364 44.7696 72.3829C44.6937 72.2294 44.6515 72.0614 44.6459 71.8903C44.6715 71.5234 44.8114 71.1736 45.0459 70.8903C45.3516 70.5062 45.7121 70.1693 46.1159 69.8903C47.6758 68.7474 49.5622 68.1373 51.4959 68.1503C52.7905 68.0994 54.075 68.3964 55.2159 69.0103C55.6585 69.2816 56.0254 69.6604 56.2824 70.1115C56.5394 70.5625 56.6782 71.0712 56.6859 71.5903C56.6859 72.9236 55.7793 74.347 53.9659 75.8603C53.2993 76.4003 52.9659 76.8036 52.9659 77.0703C52.9678 77.1755 52.9951 77.2787 53.0456 77.371C53.0961 77.4634 53.1683 77.542 53.2559 77.6003C53.4614 77.7509 53.7113 77.8283 53.9659 77.8203C54.2954 77.819 54.6212 77.751 54.9237 77.6204C55.2262 77.4898 55.4991 77.2992 55.7259 77.0603C55.8866 76.8932 56.0605 76.7394 56.2459 76.6003C56.3533 76.5428 56.4742 76.5151 56.5959 76.5203C57.2626 76.5203 57.5959 77.0836 57.5959 78.2103C57.5919 78.7948 57.4835 79.3739 57.2759 79.9203C57.0901 80.4482 56.8125 80.939 56.4559 81.3703C56.3054 81.5696 56.1125 81.7331 55.8911 81.849C55.6698 81.9648 55.4255 82.0302 55.1759 82.0403C55.0171 82.0477 54.86 82.0058 54.7259 81.9203C54.5742 81.7973 54.4456 81.6483 54.3459 81.4803C54.2539 81.3112 54.115 81.1724 53.9459 81.0803C53.7179 81.0011 53.4773 80.9638 53.2359 80.9703Z" fill="#ED1C24"/>
<path d="M52.2359 79.9703H44.5859C43.9193 79.9703 43.5859 79.7803 43.5859 79.4003C43.5888 79.2009 43.6633 79.0092 43.7959 78.8603C43.9359 78.6936 44.3959 78.2436 45.1759 77.5103C46.4151 76.393 47.4951 75.1111 48.3859 73.7003C48.6993 73.2402 48.8856 72.7055 48.9259 72.1503C48.9332 71.9874 48.9077 71.8248 48.851 71.6719C48.7944 71.519 48.7076 71.3791 48.5959 71.2603C48.48 71.1474 48.342 71.0599 48.1905 71.0031C48.0391 70.9463 47.8775 70.9215 47.7159 70.9303C47.4453 70.9148 47.1748 70.9627 46.9259 71.0703C46.506 71.3456 46.1081 71.6532 45.7359 71.9903C45.5493 72.1309 45.3193 72.2016 45.0859 72.1903C44.9004 72.1916 44.7164 72.1561 44.5448 72.0857C44.3731 72.0153 44.2171 71.9115 44.0859 71.7803C43.9533 71.6719 43.8455 71.5364 43.7696 71.3829C43.6937 71.2294 43.6515 71.0614 43.6459 70.8903C43.6715 70.5234 43.8114 70.1736 44.0459 69.8903C44.3516 69.5062 44.7121 69.1693 45.1159 68.8903C46.6758 67.7474 48.5622 67.1373 50.4959 67.1503C51.7905 67.0994 53.075 67.3964 54.2159 68.0103C54.6585 68.2816 55.0254 68.6604 55.2824 69.1115C55.5394 69.5625 55.6782 70.0712 55.6859 70.5903C55.6859 71.9236 54.7793 73.347 52.9659 74.8603C52.2993 75.4003 51.9659 75.8036 51.9659 76.0703C51.9678 76.1755 51.9951 76.2787 52.0456 76.371C52.0961 76.4634 52.1683 76.542 52.2559 76.6003C52.4614 76.7509 52.7113 76.8283 52.9659 76.8203C53.2954 76.819 53.6212 76.751 53.9237 76.6204C54.2262 76.4898 54.4991 76.2992 54.7259 76.0603C54.8866 75.8932 55.0605 75.7394 55.2459 75.6003C55.3533 75.5428 55.4742 75.5151 55.5959 75.5203C56.2626 75.5203 56.5959 76.0836 56.5959 77.2103C56.5919 77.7948 56.4835 78.3739 56.2759 78.9203C56.0901 79.4482 55.8125 79.939 55.4559 80.3703C55.3054 80.5696 55.1125 80.7331 54.8911 80.849C54.6698 80.9648 54.4255 81.0302 54.1759 81.0403C54.0171 81.0477 53.86 81.0058 53.7259 80.9203C53.5742 80.7973 53.4456 80.6483 53.3459 80.4803C53.2539 80.3112 53.115 80.1724 52.9459 80.0803C52.7179 80.0011 52.4773 79.9638 52.2359 79.9703Z" fill="#F15A24"/>
</g>
<defs>
<clipPath id="clip0_122_265">
<rect width="130" height="137" fill="white" transform="translate(0.456055 0.3703)"/>
</clipPath>
</defs>
</svg>
