<svg width="131" height="138" viewBox="0 0 131 138" fill="none" xmlns="http://www.w3.org/2000/svg">
<g clip-path="url(#clip0_122_285)">
<path d="M117.696 71.6603C117.696 101.07 94.2862 124.91 65.3962 124.91C53.0693 124.92 41.149 120.502 31.8062 112.46C22.599 104.598 16.3454 93.8332 14.0762 81.9403C13.4151 78.5535 13.0803 75.111 13.0762 71.6603C13.0962 42.2503 36.5062 18.3703 65.3962 18.3703C75.658 18.3723 85.6858 21.4363 94.1962 27.1703C98.4982 30.0661 102.35 33.5806 105.626 37.6003C113.458 47.1984 117.723 59.2127 117.696 71.6003V71.6603Z" fill="#F93052"/>
<path d="M114.956 54.6103L48.6461 122.12C42.4699 119.993 36.7525 116.715 31.7961 112.46C32.0061 112.19 32.2261 111.95 32.4661 111.7L103.776 39.0903C104.328 38.5335 104.946 38.0465 105.616 37.6403C109.735 42.6824 112.9 48.4331 114.956 54.6103Z" fill="#F15A24"/>
<path d="M94.1962 27.2103C94.0162 27.4203 93.8462 27.6203 93.6462 27.8203L22.3262 100.43C22.1262 100.63 21.9362 100.81 21.7262 100.99C17.9696 95.2112 15.3684 88.7589 14.0662 81.9903L75.4562 19.3703C82.1624 20.7102 88.5336 23.3756 94.1962 27.2103Z" fill="#F15A24"/>
<path d="M129.766 62.8703C127.499 78.3071 119.754 92.4133 107.947 102.613C96.1403 112.812 81.0585 118.424 65.4561 118.424C49.8536 118.424 34.7718 112.812 22.9648 102.613C11.1577 92.4133 3.41341 78.3071 1.14605 62.8703C0.687829 66.0162 0.45723 69.1912 0.456055 72.3703C0.456055 89.6094 7.30425 106.142 19.4941 118.332C31.684 130.522 48.217 137.37 65.4561 137.37C82.6951 137.37 99.2281 130.522 111.418 118.332C123.608 106.142 130.456 89.6094 130.456 72.3703C130.455 69.1912 130.224 66.0162 129.766 62.8703Z" fill="#ED1C24"/>
<path d="M65.4561 20.3703C74.3562 20.3703 83.0565 23.0095 90.4567 27.9542C97.857 32.8988 103.625 39.9269 107.031 48.1495C110.437 56.3722 111.328 65.4202 109.591 74.1494C107.855 82.8785 103.569 90.8967 97.2759 97.1901C90.9825 103.483 82.9643 107.769 74.2352 109.506C65.506 111.242 56.458 110.351 48.2353 106.945C40.0127 103.539 32.9846 97.7712 28.04 90.371C23.0953 82.9707 20.4561 74.2705 20.4561 65.3703C20.4693 53.4396 25.2146 42.0014 33.6509 33.5651C42.0872 25.1288 53.5254 20.3835 65.4561 20.3703ZM65.4561 0.3703C52.6003 0.3703 40.0332 4.18248 29.344 11.3248C18.6548 18.4671 10.3236 28.6187 5.40391 40.4959C0.484218 52.3731 -0.802999 65.4424 1.70504 78.0512C4.21308 90.6599 10.4037 102.242 19.4941 111.332C28.5846 120.423 40.1665 126.613 52.7752 129.121C65.384 131.629 78.4533 130.342 90.3305 125.422C102.208 120.503 112.359 112.172 119.502 101.482C126.644 90.7932 130.456 78.2261 130.456 65.3703C130.456 48.1312 123.608 31.5982 111.418 19.4084C99.2282 7.2185 82.6952 0.3703 65.4561 0.3703V0.3703Z" fill="#F7931E"/>
<path d="M65.9559 111.37C40.6859 111.37 18.1959 101.48 3.84595 86.1103C8.14581 98.8607 16.2968 109.962 27.1742 117.884C38.0515 125.805 51.1191 130.155 64.5739 130.334C78.0286 130.513 91.2072 126.511 102.291 118.882C113.375 111.253 121.819 100.372 126.456 87.7403C112.096 102.18 90.3159 111.37 65.9559 111.37Z" fill="#F15A24"/>
<path d="M78.7259 40.3003C78.1859 44.3703 77.9159 50.8003 75.7259 53.8203C75.1759 54.5903 74.6159 55.3703 74.0259 56.1303H59.5659C59.8094 55.7543 59.9602 55.3259 60.0059 54.8803C60.0059 54.8803 67.3259 48.4203 69.4559 41.6503C71.5859 34.8803 79.2659 36.2403 78.7259 40.3003Z" fill="#C1272D"/>
<path d="M49.6361 54.6103H45.5461C41.3653 54.6103 37.9761 57.9995 37.9761 62.1803V83.2003C37.9761 87.3811 41.3653 90.7703 45.5461 90.7703H49.6361C53.8169 90.7703 57.2061 87.3811 57.2061 83.2003V62.1803C57.2061 57.9995 53.8169 54.6103 49.6361 54.6103Z" fill="#C1272D"/>
<path d="M95.2461 84.5803C95.2739 86.2474 94.7462 87.8763 93.7461 89.2103C93.3368 89.7868 92.7998 90.2609 92.1771 90.5956C91.5544 90.9304 90.8627 91.1168 90.1561 91.1403H59.5161V78.0603H90.1461C91.0092 78.1001 91.8457 78.3707 92.5686 78.8438C93.2915 79.317 93.8742 79.9753 94.2561 80.7503C94.9132 81.9193 95.2544 83.2393 95.2461 84.5803Z" fill="#C1272D"/>
<path d="M95.2461 76.8903C95.2565 78.2423 94.9117 79.5734 94.2461 80.7503C94.0993 81.0247 93.9286 81.2858 93.7361 81.5303C93.3268 82.1068 92.7898 82.5809 92.1671 82.9156C91.5444 83.2504 90.8527 83.4368 90.1461 83.4603H59.5161V70.3703H90.1461C91.0092 70.4101 91.8457 70.6807 92.5686 71.1538C93.2915 71.627 93.8742 72.2853 94.2561 73.0603C94.9132 74.2293 95.2544 75.5493 95.2461 76.8903Z" fill="#C1272D"/>
<path d="M95.2461 69.1903C95.2565 70.5423 94.9117 71.8734 94.2461 73.0503C94.0993 73.3248 93.9287 73.5858 93.7361 73.8303C93.3268 74.4068 92.7898 74.8809 92.1671 75.2156C91.5444 75.5504 90.8527 75.7368 90.1461 75.7603H59.5161V62.6103H90.1461C91.0092 62.6501 91.8457 62.9207 92.5686 63.3938C93.2915 63.867 93.8742 64.5253 94.2561 65.3003C94.9233 66.487 95.2649 67.829 95.2461 69.1903Z" fill="#C1272D"/>
<path d="M95.2461 61.5003C95.2565 62.8523 94.9117 64.1834 94.2461 65.3603C94.0993 65.6348 93.9287 65.8958 93.7361 66.1403C93.3268 66.7168 92.7898 67.1909 92.1671 67.5256C91.5444 67.8604 90.8527 68.0468 90.1461 68.0703H59.5161V54.9503H90.1461C92.9461 54.9503 95.2461 57.9003 95.2461 61.5003Z" fill="#C1272D"/>
<path d="M76.4561 38.0003C75.9161 42.0703 75.6461 48.5003 73.4561 51.5203C72.9061 52.2903 72.3461 53.0703 71.7561 53.8303H57.2561C57.5163 53.4454 57.6777 53.0024 57.7261 52.5403C57.7261 52.5403 65.0461 46.1103 67.2161 39.3403C69.3861 32.5703 76.9561 33.9303 76.4561 38.0003Z" fill="white"/>
<path d="M47.326 52.3103H43.236C39.0552 52.3103 35.666 55.6995 35.666 59.8803V80.9003C35.666 85.0811 39.0552 88.4703 43.236 88.4703H47.326C51.5068 88.4703 54.896 85.0811 54.896 80.9003V59.8803C54.896 55.6995 51.5068 52.3103 47.326 52.3103Z" fill="white"/>
<path d="M92.9361 82.2803C92.9674 83.9416 92.4469 85.5664 91.4561 86.9003C91.0467 87.4768 90.5098 87.9509 89.887 88.2856C89.2643 88.6204 88.5727 88.8068 87.8661 88.8303H57.2061V75.7303H87.8061C88.6691 75.7701 89.5057 76.0407 90.2285 76.5138C90.9514 76.987 91.5342 77.6453 91.9161 78.4203C92.5886 79.5953 92.9404 80.9265 92.9361 82.2803Z" fill="white"/>
<path d="M92.9361 74.5803C92.9465 75.9323 92.6017 77.2634 91.9361 78.4403C91.7892 78.7147 91.6186 78.9758 91.4261 79.2203C91.0167 79.7968 90.4798 80.2709 89.857 80.6056C89.2343 80.9404 88.5427 81.1268 87.8361 81.1503H57.2061V68.0303H87.8061C88.6691 68.0701 89.5057 68.3407 90.2285 68.8138C90.9514 69.287 91.5342 69.9453 91.9161 70.7203C92.5886 71.8953 92.9404 73.2265 92.9361 74.5803Z" fill="white"/>
<path d="M92.9361 66.8903C92.9465 68.2423 92.6017 69.5734 91.9361 70.7503C91.7893 71.0248 91.6186 71.2858 91.4261 71.5303C91.0167 72.1068 90.4798 72.5809 89.857 72.9156C89.2343 73.2504 88.5427 73.4368 87.8361 73.4603H57.2061V60.3703H87.8061C88.6691 60.4101 89.5057 60.6807 90.2285 61.1538C90.9514 61.627 91.5342 62.2853 91.9161 63.0603C92.5836 64.2264 92.9352 65.5466 92.9361 66.8903Z" fill="white"/>
<path d="M92.9361 59.1903C92.9465 60.5423 92.6017 61.8734 91.9361 63.0503C91.7893 63.3248 91.6186 63.5858 91.4261 63.8303C91.0167 64.4068 90.4798 64.8809 89.857 65.2156C89.2343 65.5504 88.5427 65.7368 87.8361 65.7603H57.2061V52.6403H87.8061C90.6361 52.6403 92.9361 55.5903 92.9361 59.1903Z" fill="white"/>
</g>
<defs>
<clipPath id="clip0_122_285">
<rect width="130" height="137" fill="white" transform="translate(0.456055 0.3703)"/>
</clipPath>
</defs>
</svg>
