<svg width="131" height="138" viewBox="0 0 131 138" fill="none" xmlns="http://www.w3.org/2000/svg">
<g clip-path="url(#clip0_122_308)">
<path d="M117.896 68.9703C117.872 82.4075 112.794 95.3439 103.672 105.21C94.5489 115.076 82.0489 121.149 68.6547 122.223C55.2605 123.297 41.9523 119.294 31.3739 111.008C20.7955 102.722 13.7209 90.7604 11.5556 77.4989C9.39026 64.2373 12.2927 50.6464 19.6862 39.4262C27.0798 28.2059 38.4234 20.1774 51.4636 16.9355C64.5039 13.6936 78.2865 15.4755 90.0735 21.9273C101.86 28.3791 110.789 39.0286 115.086 51.7603C116.953 57.3058 117.902 63.1189 117.896 68.9703Z" fill="#F93052"/>
<path d="M115.076 51.7503L46.9159 119.92C40.5829 117.779 34.7078 114.469 29.5959 110.16C29.8159 109.89 30.0359 109.64 30.2859 109.39L103.606 36.0703C104.162 35.5146 104.783 35.0278 105.456 34.6203C109.686 39.6917 112.947 45.4984 115.076 51.7503Z" fill="#F15A24"/>
<path d="M93.736 24.0803C93.556 24.2903 93.376 24.4903 93.166 24.6903L19.856 98.0103C19.656 98.2103 19.456 98.3903 19.246 98.5803C15.3863 92.7549 12.7089 86.228 11.366 79.3703L74.456 16.2103C81.3373 17.5415 87.8888 20.2157 93.736 24.0803Z" fill="#F15A24"/>
<path d="M129.766 62.8703C127.499 78.3071 119.754 92.4133 107.947 102.613C96.1403 112.812 81.0585 118.424 65.4561 118.424C49.8536 118.424 34.7718 112.812 22.9648 102.613C11.1577 92.4133 3.41341 78.3071 1.14605 62.8703C0.687829 66.0162 0.45723 69.1912 0.456055 72.3703C0.456055 89.6094 7.30425 106.142 19.4941 118.332C31.684 130.522 48.217 137.37 65.4561 137.37C82.6951 137.37 99.2281 130.522 111.418 118.332C123.608 106.142 130.456 89.6094 130.456 72.3703C130.455 69.1912 130.224 66.0162 129.766 62.8703Z" fill="#ED1C24"/>
<path d="M65.4561 20.3703C74.3562 20.3703 83.0565 23.0095 90.4567 27.9542C97.857 32.8988 103.625 39.9269 107.031 48.1495C110.437 56.3722 111.328 65.4202 109.591 74.1494C107.855 82.8785 103.569 90.8967 97.2759 97.1901C90.9825 103.483 82.9643 107.769 74.2352 109.506C65.506 111.242 56.458 110.351 48.2353 106.945C40.0127 103.539 32.9846 97.7712 28.04 90.371C23.0953 82.9707 20.4561 74.2705 20.4561 65.3703C20.4693 53.4396 25.2146 42.0014 33.6509 33.5651C42.0872 25.1288 53.5254 20.3835 65.4561 20.3703ZM65.4561 0.3703C52.6003 0.3703 40.0332 4.18248 29.344 11.3248C18.6548 18.4671 10.3236 28.6187 5.40391 40.4959C0.484218 52.3731 -0.802999 65.4424 1.70504 78.0512C4.21308 90.6599 10.4037 102.242 19.4941 111.332C28.5846 120.423 40.1665 126.613 52.7752 129.121C65.384 131.629 78.4533 130.342 90.3305 125.422C102.208 120.503 112.359 112.172 119.502 101.482C126.644 90.7932 130.456 78.2261 130.456 65.3703C130.456 48.1312 123.608 31.5982 111.418 19.4084C99.2282 7.2185 82.6952 0.3703 65.4561 0.3703V0.3703Z" fill="#F7931E"/>
<path d="M65.9559 111.37C40.6859 111.37 18.1959 101.48 3.84595 86.1103C8.14581 98.8607 16.2968 109.962 27.1742 117.884C38.0515 125.805 51.1191 130.155 64.5739 130.334C78.0286 130.513 91.2072 126.511 102.291 118.882C113.375 111.253 121.819 100.372 126.456 87.7403C112.096 102.18 90.3159 111.37 65.9559 111.37Z" fill="#F15A24"/>
<path d="M51.016 53.0703C51.016 49.6682 48.2581 46.9103 44.856 46.9103C41.454 46.9103 38.696 49.6682 38.696 53.0703C38.696 56.4724 41.454 59.2303 44.856 59.2303C48.2581 59.2303 51.016 56.4724 51.016 53.0703Z" fill="#C1272D"/>
<path d="M89.4341 58.9481C92.1337 59.0235 94.3832 56.8984 94.4586 54.2016C94.5339 51.5047 92.4065 49.2573 89.7069 49.1819L61.9677 48.4071C59.2681 48.3317 57.0185 50.4568 56.9432 53.1537C56.8679 55.8505 58.9953 58.0979 61.6949 58.1733L89.4341 58.9481Z" fill="#C1272D"/>
<path d="M49.746 51.6703C49.746 48.2682 46.9881 45.5103 43.586 45.5103C40.184 45.5103 37.426 48.2682 37.426 51.6703C37.426 55.0724 40.184 57.8303 43.586 57.8303C46.9881 57.8303 49.746 55.0724 49.746 51.6703Z" fill="white"/>
<path d="M51.016 70.0703C51.016 66.6682 48.2581 63.9103 44.856 63.9103C41.454 63.9103 38.696 66.6682 38.696 70.0703C38.696 73.4724 41.454 76.2303 44.856 76.2303C48.2581 76.2303 51.016 73.4724 51.016 70.0703Z" fill="#C1272D"/>
<path d="M49.746 68.6703C49.746 65.2682 46.9881 62.5103 43.586 62.5103C40.184 62.5103 37.426 65.2682 37.426 68.6703C37.426 72.0724 40.184 74.8303 43.586 74.8303C46.9881 74.8303 49.746 72.0724 49.746 68.6703Z" fill="white"/>
<path d="M51.016 87.0703C51.016 83.6682 48.2581 80.9103 44.856 80.9103C41.454 80.9103 38.696 83.6682 38.696 87.0703C38.696 90.4724 41.454 93.2303 44.856 93.2303C48.2581 93.2303 51.016 90.4724 51.016 87.0703Z" fill="#C1272D"/>
<path d="M49.746 85.6703C49.746 82.2682 46.9881 79.5103 43.586 79.5103C40.184 79.5103 37.426 82.2682 37.426 85.6703C37.426 89.0724 40.184 91.8303 43.586 91.8303C46.9881 91.8303 49.746 89.0724 49.746 85.6703Z" fill="white"/>
<path d="M88.3584 56.9594C91.058 57.0348 93.3076 54.9097 93.3829 52.2128C93.4582 49.516 91.3308 47.2686 88.6312 47.1932L59.8224 46.3885C57.1228 46.3131 54.8733 48.4382 54.7979 51.135C54.7226 53.8319 56.85 56.0793 59.5496 56.1547L88.3584 56.9594Z" fill="white"/>
<path d="M89.4705 75.944C92.1701 76.0194 94.4196 73.8943 94.495 71.1974C94.5703 68.5006 92.4429 66.2532 89.7433 66.1778L61.9741 65.4021C59.2745 65.3267 57.0249 67.4518 56.9496 70.1487C56.8743 72.8456 59.0017 75.0929 61.7013 75.1683L89.4705 75.944Z" fill="#C1272D"/>
<path d="M88.355 73.9647C91.0546 74.0401 93.3041 71.915 93.3795 69.2182C93.4548 66.5213 91.3274 64.2739 88.6278 64.1985L59.819 63.3938C57.1194 63.3184 54.8698 65.4435 54.7945 68.1404C54.7192 70.8372 56.8466 73.0846 59.5462 73.16L88.355 73.9647Z" fill="white"/>
<path d="M89.467 92.9493C92.1667 93.0247 94.4162 90.8996 94.4915 88.2028C94.5669 85.5059 92.4394 83.2585 89.7398 83.1831L61.9707 82.4075C59.271 82.3321 57.0215 84.4572 56.9462 87.154C56.8708 89.8509 58.9982 92.0983 61.6979 92.1737L89.467 92.9493Z" fill="#C1272D"/>
<path d="M88.3516 90.96C91.0512 91.0355 93.3007 88.9103 93.3761 86.2135C93.4514 83.5166 91.324 81.2693 88.6244 81.1939L59.8156 80.3892C57.116 80.3137 54.8664 82.4389 54.7911 85.1357C54.7158 87.8326 56.8432 90.0799 59.5428 90.1553L88.3516 90.96Z" fill="white"/>
</g>
<defs>
<clipPath id="clip0_122_308">
<rect width="130" height="137" fill="white" transform="translate(0.456055 0.3703)"/>
</clipPath>
</defs>
</svg>
