<svg width="131" height="138" viewBox="0 0 131 138" fill="none" xmlns="http://www.w3.org/2000/svg">
<g clip-path="url(#clip0_122_349)">
<path d="M117.896 68.9703C117.872 82.4075 112.794 95.3439 103.672 105.21C94.5489 115.076 82.0489 121.149 68.6547 122.223C55.2605 123.297 41.9523 119.294 31.3739 111.008C20.7955 102.722 13.7209 90.7604 11.5556 77.4989C9.39026 64.2373 12.2927 50.6464 19.6862 39.4262C27.0798 28.2059 38.4234 20.1774 51.4636 16.9355C64.5039 13.6936 78.2865 15.4755 90.0735 21.9273C101.86 28.3791 110.789 39.0286 115.086 51.7603C116.953 57.3058 117.902 63.1189 117.896 68.9703Z" fill="#F93052"/>
<path d="M115.076 51.7503L46.9161 119.92C40.583 117.779 34.708 114.469 29.5961 110.16C29.8161 109.89 30.0361 109.64 30.2861 109.39L103.606 36.0703C104.162 35.5146 104.784 35.0278 105.456 34.6203C109.687 39.6917 112.948 45.4984 115.076 51.7503Z" fill="#F15A24"/>
<path d="M93.7361 24.0803C93.5561 24.2903 93.3761 24.4903 93.1661 24.6903L19.8561 98.0103C19.6561 98.2103 19.4561 98.3903 19.2461 98.5803C15.3865 92.7549 12.7091 86.228 11.3661 79.3703L74.4561 16.2103C81.3374 17.5415 87.8889 20.2157 93.7361 24.0803Z" fill="#F15A24"/>
<path d="M129.766 62.8703C127.499 78.3071 119.754 92.4133 107.947 102.613C96.1403 112.812 81.0585 118.424 65.4561 118.424C49.8536 118.424 34.7718 112.812 22.9648 102.613C11.1577 92.4133 3.41341 78.3071 1.14605 62.8703C0.687829 66.0162 0.45723 69.1912 0.456055 72.3703C0.456055 89.6094 7.30425 106.142 19.4941 118.332C31.684 130.522 48.217 137.37 65.4561 137.37C82.6951 137.37 99.2281 130.522 111.418 118.332C123.608 106.142 130.456 89.6094 130.456 72.3703C130.455 69.1912 130.224 66.0162 129.766 62.8703Z" fill="#ED1C24"/>
<path d="M65.4561 20.3703C74.3562 20.3703 83.0565 23.0095 90.4567 27.9542C97.857 32.8988 103.625 39.9269 107.031 48.1495C110.437 56.3722 111.328 65.4202 109.591 74.1494C107.855 82.8785 103.569 90.8967 97.2759 97.1901C90.9825 103.483 82.9643 107.769 74.2352 109.506C65.506 111.242 56.458 110.351 48.2353 106.945C40.0127 103.539 32.9846 97.7712 28.04 90.371C23.0953 82.9707 20.4561 74.2705 20.4561 65.3703C20.4693 53.4396 25.2146 42.0014 33.6509 33.5651C42.0872 25.1288 53.5254 20.3835 65.4561 20.3703ZM65.4561 0.3703C52.6003 0.3703 40.0332 4.18248 29.344 11.3248C18.6548 18.4671 10.3236 28.6187 5.40391 40.4959C0.484218 52.3731 -0.802999 65.4424 1.70504 78.0512C4.21308 90.6599 10.4037 102.242 19.4941 111.332C28.5846 120.423 40.1665 126.613 52.7752 129.121C65.384 131.629 78.4533 130.342 90.3305 125.422C102.208 120.503 112.359 112.172 119.502 101.482C126.644 90.7932 130.456 78.2261 130.456 65.3703C130.456 48.1312 123.608 31.5982 111.418 19.4084C99.2282 7.2185 82.6952 0.3703 65.4561 0.3703V0.3703Z" fill="#F7931E"/>
<path d="M65.9561 111.37C40.6861 111.37 18.1961 101.48 3.84607 86.1103C8.14594 98.8607 16.2969 109.962 27.1743 117.884C38.0517 125.805 51.1193 130.155 64.574 130.334C78.0287 130.513 91.2074 126.511 102.291 118.882C113.376 111.253 121.819 100.372 126.456 87.7403C112.096 102.18 90.3161 111.37 65.9561 111.37Z" fill="#F15A24"/>
<path d="M51.066 74.3403H47.946C43.2516 74.3403 39.446 78.1459 39.446 82.8403V85.9603C39.446 90.6547 43.2516 94.4603 47.946 94.4603H51.066C55.7605 94.4603 59.566 90.6547 59.566 85.9603V82.8403C59.566 78.1459 55.7605 74.3403 51.066 74.3403Z" fill="#C1272D"/>
<path d="M84.8961 73.1603H81.5861C76.6155 73.1603 72.5861 77.1897 72.5861 82.1603V85.4703C72.5861 90.4409 76.6155 94.4703 81.5861 94.4703H84.8961C89.8666 94.4703 93.8961 90.4409 93.8961 85.4703V82.1603C93.8961 77.1897 89.8666 73.1603 84.8961 73.1603Z" fill="#C1272D"/>
<path d="M54.5661 41.2003H52.7261C49.9647 41.2003 47.7261 43.4389 47.7261 46.2003V82.3603C47.7261 85.1217 49.9647 87.3603 52.7261 87.3603H54.5661C57.3275 87.3603 59.5661 85.1217 59.5661 82.3603V46.2003C59.5661 43.4389 57.3275 41.2003 54.5661 41.2003Z" fill="#C1272D"/>
<path d="M93.8861 48.0403V46.2003C93.8861 43.4389 91.6475 41.2003 88.8861 41.2003H52.7261C49.9647 41.2003 47.7261 43.4389 47.7261 46.2003V48.0403C47.7261 50.8017 49.9647 53.0403 52.7261 53.0403H88.8861C91.6475 53.0403 93.8861 50.8017 93.8861 48.0403Z" fill="#C1272D"/>
<path d="M88.896 41.2003H87.056C84.2946 41.2003 82.056 43.4389 82.056 46.2003V81.1803C82.056 83.9417 84.2946 86.1803 87.056 86.1803H88.896C91.6575 86.1803 93.896 83.9417 93.896 81.1803V46.2003C93.896 43.4389 91.6575 41.2003 88.896 41.2003Z" fill="#C1272D"/>
<path d="M56.016 80.8503C56.016 75.2943 51.512 70.7903 45.956 70.7903C40.4 70.7903 35.896 75.2943 35.896 80.8503C35.896 86.4063 40.4 90.9103 45.956 90.9103C51.512 90.9103 56.016 86.4063 56.016 80.8503Z" fill="white"/>
<path d="M79.696 69.6103H79.686C73.8042 69.6103 69.036 74.3785 69.036 80.2603V80.2703C69.036 86.1521 73.8042 90.9203 79.686 90.9203H79.696C85.5778 90.9203 90.346 86.1521 90.346 80.2703V80.2603C90.346 74.3785 85.5778 69.6103 79.696 69.6103Z" fill="white"/>
<path d="M51.016 37.6503H49.176C46.4146 37.6503 44.176 39.8889 44.176 42.6503V78.8103C44.176 81.5717 46.4146 83.8103 49.176 83.8103H51.016C53.7774 83.8103 56.016 81.5717 56.016 78.8103V42.6503C56.016 39.8889 53.7774 37.6503 51.016 37.6503Z" fill="white"/>
<path d="M90.3361 44.4903V42.6503C90.3361 39.8889 88.0975 37.6503 85.3361 37.6503H49.1761C46.4146 37.6503 44.1761 39.8889 44.1761 42.6503V44.4903C44.1761 47.2517 46.4146 49.4903 49.1761 49.4903H85.3361C88.0975 49.4903 90.3361 47.2517 90.3361 44.4903Z" fill="white"/>
<path d="M85.3461 37.6503H83.5061C80.7447 37.6503 78.5061 39.8889 78.5061 42.6503V77.6303C78.5061 80.3917 80.7447 82.6303 83.5061 82.6303H85.3461C88.1075 82.6303 90.3461 80.3917 90.3461 77.6303V42.6503C90.3461 39.8889 88.1075 37.6503 85.3461 37.6503Z" fill="white"/>
<g style="mix-blend-mode:soft-light">
<path d="M86.7367 45.0959C87.4776 43.7575 86.9933 42.0719 85.6549 41.3309C84.3165 40.5899 82.6308 41.0742 81.8899 42.4126C81.1489 43.751 81.6332 45.4367 82.9716 46.1777C84.31 46.9187 85.9957 46.4343 86.7367 45.0959Z" fill="white"/>
</g>
<g style="mix-blend-mode:soft-light">
<path d="M81.4946 46.9441C81.8637 46.2774 81.6224 45.4376 80.9556 45.0684C80.2888 44.6993 79.4491 44.9405 79.0799 45.6073C78.7108 46.2741 78.952 47.1139 79.6188 47.4831C80.2856 47.8522 81.1254 47.6109 81.4946 46.9441Z" fill="white"/>
</g>
</g>
<defs>
<clipPath id="clip0_122_349">
<rect width="130" height="137" fill="white" transform="translate(0.456055 0.3703)"/>
</clipPath>
</defs>
</svg>
