<svg width="131" height="138" viewBox="0 0 131 138" fill="none" xmlns="http://www.w3.org/2000/svg">
<g clip-path="url(#clip0_122_329)">
<path d="M114.186 69.7103C114.162 83.1475 109.084 96.0839 99.9616 105.95C90.839 115.816 78.3389 121.889 64.9448 122.963C51.5506 124.037 38.2424 120.034 27.6639 111.748C17.0855 103.462 10.0109 91.5005 7.84561 78.2389C5.6803 64.9773 8.58271 51.3864 15.9762 40.1662C23.3698 28.9459 34.7134 20.9174 47.7537 17.6755C60.7939 14.4336 74.5765 16.2155 86.3635 22.6673C98.1505 29.1191 107.079 39.7686 111.376 52.5003C113.243 58.0458 114.192 63.8589 114.186 69.7103Z" fill="#F93052"/>
<path d="M111.376 52.4903L43.2061 120.66C36.873 118.519 30.998 115.209 25.8861 110.9C26.1061 110.63 26.3261 110.38 26.5761 110.13L99.8961 36.8203C100.465 36.2621 101.1 35.7751 101.786 35.3703C106.005 40.4411 109.256 46.2442 111.376 52.4903Z" fill="#F15A24"/>
<path d="M90.036 24.8203C89.856 25.0303 89.676 25.2303 89.466 25.4303L16.156 98.7503C15.956 98.9503 15.756 99.1303 15.546 99.3203C11.684 93.4889 9.00649 86.9549 7.66602 80.0903L70.806 16.9503C77.6699 18.2877 84.2039 20.9618 90.036 24.8203Z" fill="#F15A24"/>
<path d="M129.766 62.8703C127.499 78.3071 119.754 92.4133 107.947 102.613C96.1403 112.812 81.0585 118.424 65.4561 118.424C49.8536 118.424 34.7718 112.812 22.9648 102.613C11.1577 92.4133 3.41341 78.3071 1.14605 62.8703C0.687829 66.0162 0.45723 69.1912 0.456055 72.3703C0.456055 89.6094 7.30425 106.142 19.4941 118.332C31.684 130.522 48.217 137.37 65.4561 137.37C82.6951 137.37 99.2281 130.522 111.418 118.332C123.608 106.142 130.456 89.6094 130.456 72.3703C130.455 69.1912 130.224 66.0162 129.766 62.8703Z" fill="#ED1C24"/>
<path d="M65.4561 20.3703C74.3562 20.3703 83.0565 23.0095 90.4567 27.9542C97.857 32.8988 103.625 39.9269 107.031 48.1495C110.437 56.3722 111.328 65.4202 109.591 74.1494C107.855 82.8785 103.569 90.8967 97.2759 97.1901C90.9825 103.483 82.9643 107.769 74.2352 109.506C65.506 111.242 56.458 110.351 48.2353 106.945C40.0127 103.539 32.9846 97.7712 28.04 90.371C23.0953 82.9707 20.4561 74.2705 20.4561 65.3703C20.4693 53.4396 25.2146 42.0014 33.6509 33.5651C42.0872 25.1288 53.5254 20.3835 65.4561 20.3703ZM65.4561 0.3703C52.6003 0.3703 40.0332 4.18248 29.344 11.3248C18.6548 18.4671 10.3236 28.6187 5.40391 40.4959C0.484218 52.3731 -0.802999 65.4424 1.70504 78.0512C4.21308 90.6599 10.4037 102.242 19.4941 111.332C28.5846 120.423 40.1665 126.613 52.7752 129.121C65.384 131.629 78.4533 130.342 90.3305 125.422C102.208 120.503 112.359 112.172 119.502 101.482C126.644 90.7932 130.456 78.2261 130.456 65.3703C130.456 48.1312 123.608 31.5982 111.418 19.4084C99.2282 7.2185 82.6952 0.3703 65.4561 0.3703V0.3703Z" fill="#F7931E"/>
<path d="M65.9561 111.37C40.6861 111.37 18.1961 101.48 3.84607 86.1103C8.14594 98.8607 16.2969 109.962 27.1743 117.884C38.0517 125.805 51.1193 130.155 64.574 130.334C78.0287 130.513 91.2074 126.511 102.291 118.882C113.376 111.253 121.819 100.372 126.456 87.7403C112.096 102.18 90.3161 111.37 65.9561 111.37Z" fill="#F15A24"/>
<path d="M52.0161 75.2703H50.2461C45.5517 75.2703 41.7461 79.0759 41.7461 83.7703V85.5403C41.7461 90.2347 45.5517 94.0403 50.2461 94.0403H52.0161C56.7105 94.0403 60.5161 90.2347 60.5161 85.5403V83.7703C60.5161 79.0759 56.7105 75.2703 52.0161 75.2703Z" fill="#C1272D"/>
<path d="M83.546 74.1603H81.666C76.6955 74.1603 72.666 78.1897 72.666 83.1603V85.0403C72.666 90.0109 76.6955 94.0403 81.666 94.0403H83.546C88.5166 94.0403 92.546 90.0109 92.546 85.0403V83.1603C92.546 78.1897 88.5166 74.1603 83.546 74.1603Z" fill="#C1272D"/>
<path d="M55.5161 44.3503H54.4761C51.7147 44.3503 49.4761 46.5889 49.4761 49.3503V82.4103C49.4761 85.1717 51.7147 87.4103 54.4761 87.4103H55.5161C58.2775 87.4103 60.5161 85.1717 60.5161 82.4103V49.3503C60.5161 46.5889 58.2775 44.3503 55.5161 44.3503Z" fill="#C1272D"/>
<path d="M92.536 50.3903V49.3503C92.536 46.5889 90.2974 44.3503 87.536 44.3503H54.476C51.7146 44.3503 49.476 46.5889 49.476 49.3503V50.3903C49.476 53.1517 51.7146 55.3903 54.476 55.3903H87.536C90.2974 55.3903 92.536 53.1517 92.536 50.3903Z" fill="#C1272D"/>
<path d="M87.5361 44.3503H86.4961C83.7347 44.3503 81.4961 46.5889 81.4961 49.3503V81.3103C81.4961 84.0717 83.7347 86.3103 86.4961 86.3103H87.5361C90.2975 86.3103 92.5361 84.0717 92.5361 81.3103V49.3503C92.5361 46.5889 90.2975 44.3503 87.5361 44.3503Z" fill="#C1272D"/>
<path d="M84.2261 41.0403H51.1661C50.4999 41.0398 49.8403 41.1724 49.2261 41.4303C48.3189 41.8122 47.5446 42.4534 47.0003 43.2734C46.4559 44.0935 46.1657 45.056 46.1661 46.0403V72.1103C43.8619 72.5274 41.7971 73.7912 40.3774 75.6534C38.9577 77.5155 38.2859 79.8413 38.4939 82.1737C38.7019 84.506 39.7748 86.6762 41.5017 88.2577C43.2285 89.8392 45.4845 90.7176 47.8261 90.7203C49.1694 90.7316 50.4992 90.4521 51.7243 89.9009C52.9493 89.3498 54.0406 88.54 54.9232 87.5273C55.8058 86.5146 56.4588 85.3228 56.8373 84.0339C57.2158 82.745 57.3109 81.3894 57.1161 80.0603C57.1829 79.7312 57.2164 79.3961 57.2161 79.0603V52.0603H78.2161V70.9203C75.7059 71.2192 73.404 72.4632 71.7786 74.3992C70.1531 76.3352 69.3264 78.8177 69.4665 81.3417C69.6067 83.8657 70.7032 86.2414 72.533 87.9855C74.3627 89.7297 76.7883 90.7112 79.3161 90.7303C81.9475 90.7146 84.4666 89.6623 86.3273 87.8015C88.188 85.9408 89.2403 83.4217 89.2561 80.7903C89.2519 80.2404 89.2018 79.6918 89.1061 79.1503C89.2011 78.7742 89.2515 78.3882 89.2561 78.0003V46.0003C89.2455 44.6759 88.7099 43.4099 87.7669 42.48C86.8239 41.5501 85.5504 41.0323 84.2261 41.0403Z" fill="white"/>
<g style="mix-blend-mode:soft-light">
<path d="M85.8549 47.9836C86.5451 46.737 86.094 45.1669 84.8474 44.4768C83.6008 43.7866 82.0307 44.2377 81.3406 45.4843C80.6504 46.7309 81.1015 48.301 82.3481 48.9911C83.5947 49.6813 85.1648 49.2302 85.8549 47.9836Z" fill="white"/>
</g>
<g style="mix-blend-mode:soft-light">
<path d="M80.9711 49.7065C81.3162 49.0832 81.0906 48.2982 80.4673 47.9531C79.844 47.608 79.059 47.8336 78.7139 48.4569C78.3689 49.0802 78.5944 49.8652 79.2177 50.2103C79.841 50.5554 80.626 50.3298 80.9711 49.7065Z" fill="white"/>
</g>
<path d="M93.2111 90.4712L44.8733 42.1334C43.4479 40.708 41.1368 40.708 39.7114 42.1334C38.286 43.5588 38.286 45.8699 39.7114 47.2953L88.0492 95.6331C89.4746 97.0585 91.7857 97.0585 93.2111 95.6331C94.6365 94.2077 94.6365 91.8966 93.2111 90.4712Z" fill="#C1272D"/>
<path d="M91.2068 90.467L42.869 42.1292C41.4436 40.7038 39.1326 40.7038 37.7071 42.1292C36.2817 43.5546 36.2817 45.8656 37.7071 47.2911L86.045 95.6289C87.4704 97.0543 89.7814 97.0543 91.2068 95.6289C92.6323 94.2035 92.6323 91.8924 91.2068 90.467Z" fill="white"/>
</g>
<defs>
<clipPath id="clip0_122_329">
<rect width="130" height="137" fill="white" transform="translate(0.456055 0.3703)"/>
</clipPath>
</defs>
</svg>
