<svg width="131" height="138" viewBox="0 0 131 138" fill="none" xmlns="http://www.w3.org/2000/svg">
<g clip-path="url(#clip0_122_245)">
<path d="M117.656 65.3703C117.656 94.7803 94.246 118.62 65.356 118.62C53.0257 118.632 41.1015 114.214 31.756 106.17C22.5525 98.3064 16.3026 87.5418 14.036 75.6503C13.3817 72.2628 13.0536 68.8204 13.056 65.3703C13.056 35.9603 36.456 12.1203 65.356 12.1203C75.6179 12.1223 85.6457 15.1863 94.156 20.9203C98.4595 23.8222 102.311 27.3435 105.586 31.3703C113.417 40.9684 117.683 52.9827 117.656 65.3703Z" fill="#F93052"/>
<path d="M114.916 48.3703L48.6061 115.83C42.4299 113.703 36.7125 110.425 31.7561 106.17C31.9661 105.9 32.1861 105.66 32.4261 105.41L103.736 32.8003C104.292 32.2499 104.913 31.7696 105.586 31.3703C109.704 36.4222 112.866 42.1832 114.916 48.3703Z" fill="#F15A24"/>
<path d="M94.156 20.9203C93.976 21.1303 93.806 21.3303 93.606 21.5303L22.286 94.1403C22.086 94.3403 21.896 94.5203 21.686 94.7003C17.9295 88.9212 15.3282 82.4689 14.026 75.7003L75.456 13.1203C82.1454 14.453 88.5023 17.1046 94.156 20.9203Z" fill="#F15A24"/>
<path d="M129.766 62.8703C127.499 78.3071 119.754 92.4133 107.947 102.613C96.1403 112.812 81.0585 118.424 65.4561 118.424C49.8536 118.424 34.7718 112.812 22.9648 102.613C11.1577 92.4133 3.41341 78.3071 1.14605 62.8703C0.687829 66.0162 0.45723 69.1912 0.456055 72.3703C0.456055 89.6094 7.30425 106.142 19.4941 118.332C31.684 130.522 48.217 137.37 65.4561 137.37C82.6951 137.37 99.2281 130.522 111.418 118.332C123.608 106.142 130.456 89.6094 130.456 72.3703C130.455 69.1912 130.224 66.0162 129.766 62.8703Z" fill="#ED1C24"/>
<path d="M65.4561 20.3703C74.3562 20.3703 83.0565 23.0095 90.4567 27.9542C97.857 32.8988 103.625 39.9269 107.031 48.1495C110.437 56.3722 111.328 65.4202 109.591 74.1494C107.855 82.8785 103.569 90.8967 97.2759 97.1901C90.9825 103.483 82.9643 107.769 74.2352 109.506C65.506 111.242 56.458 110.351 48.2353 106.945C40.0127 103.539 32.9846 97.7712 28.04 90.371C23.0953 82.9707 20.4561 74.2705 20.4561 65.3703C20.4693 53.4396 25.2146 42.0014 33.6509 33.5651C42.0872 25.1288 53.5254 20.3835 65.4561 20.3703ZM65.4561 0.3703C52.6003 0.3703 40.0332 4.18248 29.344 11.3248C18.6548 18.4671 10.3236 28.6187 5.40391 40.4959C0.484218 52.3731 -0.802999 65.4424 1.70504 78.0512C4.21308 90.6599 10.4037 102.242 19.4941 111.332C28.5846 120.423 40.1665 126.613 52.7752 129.121C65.384 131.629 78.4533 130.342 90.3305 125.422C102.208 120.503 112.359 112.172 119.502 101.482C126.644 90.7932 130.456 78.2261 130.456 65.3703C130.456 48.1312 123.608 31.5982 111.418 19.4084C99.2282 7.2185 82.6952 0.3703 65.4561 0.3703V0.3703Z" fill="#F7931E"/>
<path d="M65.9561 111.37C40.6861 111.37 18.1961 101.48 3.84607 86.1103C8.14594 98.8607 16.2969 109.962 27.1743 117.884C38.0517 125.805 51.1193 130.155 64.574 130.334C78.0287 130.513 91.2074 126.511 102.291 118.882C113.376 111.253 121.819 100.372 126.456 87.7403C112.096 102.18 90.3161 111.37 65.9561 111.37Z" fill="#F15A24"/>
<path d="M61.196 43.3703V96.1103C61.0901 98.2933 60.1483 100.352 58.5659 101.859C56.9834 103.367 54.8816 104.208 52.696 104.208C50.5105 104.208 48.4086 103.367 46.8262 101.859C45.2437 100.352 44.302 98.2933 44.196 96.1103V43.3703C44.302 41.1873 45.2437 39.1287 46.8262 37.6212C48.4086 36.1136 50.5105 35.2727 52.696 35.2727C54.8816 35.2727 56.9834 36.1136 58.5659 37.6212C60.1483 39.1287 61.0901 41.1873 61.196 43.3703Z" fill="#C1272D"/>
<path d="M88.4561 43.3703V96.1103C88.4567 96.3877 88.44 96.665 88.406 96.9403C88.2014 99.0421 87.2217 100.992 85.6578 102.412C84.0939 103.831 82.0578 104.617 79.946 104.617C77.8343 104.617 75.7982 103.831 74.2343 102.412C72.6704 100.992 71.6907 99.0421 71.486 96.9403C71.4521 96.665 71.4354 96.3877 71.4361 96.1103V43.3703C71.542 41.1873 72.4837 39.1287 74.0662 37.6212C75.6486 36.1136 77.7505 35.2727 79.9361 35.2727C82.1216 35.2727 84.2235 36.1136 85.8059 37.6212C87.3884 39.1287 88.3301 41.1873 88.4361 43.3703H88.4561Z" fill="#C1272D"/>
<path d="M59.4561 41.6303V94.3703C59.3501 96.5533 58.4084 98.6119 56.8259 100.119C55.2435 101.627 53.1416 102.468 50.9561 102.468C48.7705 102.468 46.6687 101.627 45.0862 100.119C43.5038 98.6119 42.562 96.5533 42.4561 94.3703V41.6303C42.562 39.4473 43.5038 37.3887 45.0862 35.8812C46.6687 34.3736 48.7705 33.5327 50.9561 33.5327C53.1416 33.5327 55.2435 34.3736 56.8259 35.8812C58.4084 37.3887 59.3501 39.4473 59.4561 41.6303Z" fill="white"/>
<path d="M86.7361 41.6303V94.3703C86.7367 94.6478 86.72 94.925 86.6861 95.2003C86.4815 97.3021 85.5018 99.2525 83.9379 100.672C82.374 102.091 80.3378 102.877 78.2261 102.877C76.1143 102.877 74.0782 102.091 72.5143 100.672C70.9504 99.2525 69.9707 97.3021 69.7661 95.2003C69.7321 94.925 69.7154 94.6478 69.7161 94.3703V41.6303C69.822 39.4473 70.7638 37.3887 72.3462 35.8812C73.9287 34.3736 76.0305 33.5327 78.2161 33.5327C80.4017 33.5327 82.5035 34.3736 84.0859 35.8812C85.6684 37.3887 86.6102 39.4473 86.7161 41.6303H86.7361Z" fill="white"/>
<path d="M59.4561 89.3003V94.3703C59.3501 96.5533 58.4084 98.6119 56.8259 100.119C55.2435 101.627 53.1416 102.468 50.9561 102.468C48.7705 102.468 46.6687 101.627 45.0862 100.119C43.5038 98.6119 42.562 96.5533 42.4561 94.3703V89.3003C42.562 87.1173 43.5038 85.0587 45.0862 83.5512C46.6687 82.0436 48.7705 81.2027 50.9561 81.2027C53.1416 81.2027 55.2435 82.0436 56.8259 83.5512C58.4084 85.0587 59.3501 87.1173 59.4561 89.3003Z" fill="white"/>
<path d="M86.6861 95.2403C86.4814 97.3421 85.5017 99.2925 83.9378 100.712C82.3739 102.131 80.3378 102.917 78.2261 102.917C76.1143 102.917 74.0782 102.131 72.5143 100.712C70.9504 99.2925 69.9707 97.3421 69.7661 95.2403C69.9931 93.1551 70.9822 91.2272 72.5436 89.8267C74.1049 88.4261 76.1285 87.6514 78.2261 87.6514C80.3236 87.6514 82.3472 88.4261 83.9085 89.8267C85.4699 91.2272 86.459 93.1551 86.6861 95.2403Z" fill="white"/>
<g style="mix-blend-mode:soft-light">
<path d="M52.5664 41.7053C53.8591 40.4126 53.8591 38.3169 52.5664 37.0242C51.2738 35.7316 49.178 35.7316 47.8854 37.0242C46.5927 38.3169 46.5927 40.4126 47.8854 41.7053C49.178 42.9979 51.2738 42.9979 52.5664 41.7053Z" fill="white"/>
</g>
<g style="mix-blend-mode:soft-light">
<path d="M51.778 46.3752C52.4223 45.7309 52.4223 44.6861 51.778 44.0418C51.1336 43.3974 50.0889 43.3974 49.4445 44.0418C48.8001 44.6861 48.8001 45.7309 49.4445 46.3752C50.0889 47.0196 51.1336 47.0196 51.778 46.3752Z" fill="white"/>
</g>
<g style="mix-blend-mode:soft-light">
<path d="M80.9499 99.2092C82.2425 97.9165 82.2425 95.8208 80.9499 94.5281C79.6572 93.2355 77.5614 93.2355 76.2688 94.5281C74.9762 95.8208 74.9762 97.9165 76.2688 99.2092C77.5614 100.502 79.6572 100.502 80.9499 99.2092Z" fill="white"/>
</g>
<g style="mix-blend-mode:soft-light">
<path d="M79.3908 92.1916C80.0352 91.5473 80.0352 90.5025 79.3908 89.8582C78.7464 89.2138 77.7017 89.2138 77.0573 89.8582C76.413 90.5025 76.413 91.5473 77.0574 92.1916C77.7017 92.836 78.7464 92.836 79.3908 92.1916Z" fill="white"/>
</g>
</g>
<defs>
<clipPath id="clip0_122_245">
<rect width="130" height="137" fill="white" transform="translate(0.456055 0.3703)"/>
</clipPath>
</defs>
</svg>
