<svg width="131" height="138" viewBox="0 0 131 138" fill="none" xmlns="http://www.w3.org/2000/svg">
<g clip-path="url(#clip0_122_231)">
<path d="M118.276 65.1203C118.276 94.5303 94.866 118.37 65.976 118.37C53.6491 118.38 41.7288 113.962 32.386 105.92C23.1729 98.0503 16.9188 87.274 14.656 75.3703C13.995 71.9835 13.6601 68.541 13.656 65.0903C13.656 35.6803 37.066 11.8403 65.956 11.8403C76.2178 11.8423 86.2456 14.9063 94.756 20.6403C99.0581 23.5361 102.91 27.0506 106.186 31.0703C114.017 40.6684 118.282 52.6827 118.256 65.0703L118.276 65.1203Z" fill="#F93052"/>
<path d="M115.546 48.0703L49.2361 115.58C43.0599 113.453 37.3425 110.175 32.3861 105.92C32.5961 105.65 32.8161 105.41 33.0561 105.16L104.366 32.5503C104.918 31.9935 105.536 31.5066 106.206 31.1003C110.325 36.1424 113.49 41.8931 115.546 48.0703Z" fill="#F15A24"/>
<path d="M94.776 20.6703C94.596 20.8803 94.426 21.0803 94.226 21.2803L22.916 93.8903C22.716 94.0903 22.526 94.2703 22.316 94.4503C18.5499 88.647 15.9483 82.1667 14.656 75.3703L76.076 12.8703C82.7654 14.203 89.1223 16.8546 94.776 20.6703Z" fill="#F15A24"/>
<path d="M129.766 62.8703C127.499 78.3071 119.754 92.4133 107.947 102.613C96.1403 112.812 81.0585 118.424 65.4561 118.424C49.8536 118.424 34.7718 112.812 22.9648 102.613C11.1577 92.4133 3.41341 78.3071 1.14605 62.8703C0.687829 66.0162 0.45723 69.1912 0.456055 72.3703C0.456055 89.6094 7.30425 106.142 19.4941 118.332C31.684 130.522 48.217 137.37 65.4561 137.37C82.6951 137.37 99.2281 130.522 111.418 118.332C123.608 106.142 130.456 89.6094 130.456 72.3703C130.455 69.1912 130.224 66.0162 129.766 62.8703Z" fill="#ED1C24"/>
<path d="M65.4561 20.3703C74.3562 20.3703 83.0565 23.0095 90.4567 27.9542C97.857 32.8988 103.625 39.9269 107.031 48.1495C110.437 56.3722 111.328 65.4202 109.591 74.1494C107.855 82.8785 103.569 90.8967 97.2759 97.1901C90.9825 103.483 82.9643 107.769 74.2352 109.506C65.506 111.242 56.458 110.351 48.2353 106.945C40.0127 103.539 32.9846 97.7712 28.04 90.371C23.0953 82.9707 20.4561 74.2705 20.4561 65.3703C20.4693 53.4396 25.2146 42.0014 33.6509 33.5651C42.0872 25.1288 53.5254 20.3835 65.4561 20.3703ZM65.4561 0.3703C52.6003 0.3703 40.0332 4.18248 29.344 11.3248C18.6548 18.4671 10.3236 28.6187 5.40391 40.4959C0.484218 52.3731 -0.802999 65.4424 1.70504 78.0512C4.21308 90.6599 10.4037 102.242 19.4941 111.332C28.5846 120.423 40.1665 126.613 52.7752 129.121C65.384 131.629 78.4533 130.342 90.3305 125.422C102.208 120.503 112.359 112.172 119.502 101.482C126.644 90.7932 130.456 78.2261 130.456 65.3703C130.456 48.1312 123.608 31.5982 111.418 19.4084C99.2282 7.2185 82.6952 0.3703 65.4561 0.3703V0.3703Z" fill="#F7931E"/>
<path d="M65.9561 111.37C40.6861 111.37 18.1961 101.48 3.84607 86.1103C8.14594 98.8607 16.2969 109.962 27.1743 117.884C38.0517 125.805 51.1193 130.155 64.574 130.334C78.0287 130.513 91.2074 126.511 102.291 118.882C113.376 111.253 121.819 100.372 126.456 87.7403C112.096 102.18 90.3161 111.37 65.9561 111.37Z" fill="#F15A24"/>
<path d="M100.186 57.3703L60.3861 34.3703C58.6478 33.369 56.6768 32.8424 54.6707 32.8434C52.6646 32.8443 50.6941 33.3728 48.9568 34.3757C47.2194 35.3786 45.7763 36.8207 44.7722 38.5574C43.7681 40.2941 43.2384 42.2642 43.2361 44.2703V90.2703C43.2384 92.2763 43.7681 94.2465 44.7722 95.9832C45.7763 97.7199 47.2194 99.162 48.9568 100.165C50.6941 101.168 52.6646 101.696 54.6707 101.697C56.6768 101.698 58.6478 101.172 60.3861 100.17L100.186 77.1703C101.922 76.1652 103.363 74.7215 104.364 72.9839C105.366 71.2464 105.893 69.2759 105.893 67.2703C105.893 65.2646 105.366 63.2942 104.364 61.5566C103.363 59.819 101.922 58.3753 100.186 57.3703Z" fill="#ED1C24"/>
<path d="M96.856 55.3703L59.046 33.5603C57.3077 32.559 55.3367 32.0324 53.3306 32.0334C51.3246 32.0343 49.354 32.5628 47.6167 33.5657C45.8793 34.5686 44.4362 36.0107 43.4321 37.7474C42.4281 39.4841 41.8983 41.4542 41.896 43.4603V87.1103C41.8983 89.1163 42.4281 91.0865 43.4321 92.8232C44.4362 94.5599 45.8793 96.002 47.6167 97.0049C49.354 98.0078 51.3246 98.5363 53.3306 98.5372C55.3367 98.5381 57.3077 98.0116 59.046 97.0103L96.856 75.1903C98.5964 74.1866 100.042 72.7423 101.047 71.0026C102.052 69.263 102.581 67.2893 102.581 65.2803C102.581 63.2713 102.052 61.2976 101.047 59.558C100.042 57.8183 98.5964 56.374 96.856 55.3703Z" fill="white"/>
<g style="mix-blend-mode:soft-light">
<path d="M54.4561 48.3703C57.7698 48.3703 60.4561 45.684 60.4561 42.3703C60.4561 39.0566 57.7698 36.3703 54.4561 36.3703C51.1423 36.3703 48.4561 39.0566 48.4561 42.3703C48.4561 45.684 51.1423 48.3703 54.4561 48.3703Z" fill="white"/>
</g>
<g style="mix-blend-mode:soft-light">
<path d="M63.4561 50.3703C65.1129 50.3703 66.4561 49.0272 66.4561 47.3703C66.4561 45.7134 65.1129 44.3703 63.4561 44.3703C61.7992 44.3703 60.4561 45.7134 60.4561 47.3703C60.4561 49.0272 61.7992 50.3703 63.4561 50.3703Z" fill="white"/>
</g>
</g>
<defs>
<clipPath id="clip0_122_231">
<rect width="130" height="137" fill="white" transform="translate(0.456055 0.3703)"/>
</clipPath>
</defs>
</svg>
