<svg width="131" height="138" viewBox="0 0 131 138" fill="none" xmlns="http://www.w3.org/2000/svg">
<g clip-path="url(#clip0_122_202)">
<path d="M122.596 60.6703C122.572 74.1075 117.494 87.044 108.372 96.9098C99.249 106.776 86.749 112.849 73.3548 113.923C59.9606 114.997 46.6524 110.994 36.074 102.708C25.4955 94.4223 18.421 82.4605 16.2556 69.1989C14.0903 55.9373 16.9927 42.3464 24.3863 31.1262C31.7798 19.906 43.1235 11.8774 56.1637 8.6355C69.204 5.39358 82.9866 7.17552 94.7735 13.6273C106.561 20.0791 115.489 30.7286 119.786 43.4603C121.653 49.0058 122.602 54.8189 122.596 60.6703Z" fill="#F93052"/>
<path d="M119.776 43.4503L51.616 111.62C45.2829 109.479 39.4079 106.169 34.296 101.86C34.516 101.59 34.736 101.34 34.986 101.09L108.306 27.7703C108.874 27.205 109.508 26.7114 110.196 26.3003C114.414 31.3808 117.662 37.1943 119.776 43.4503Z" fill="#F15A24"/>
<path d="M98.456 15.7803C98.276 15.9903 98.096 16.1903 97.886 16.3903L24.5561 89.7103C24.3561 89.9103 24.156 90.0903 23.946 90.2803C20.0875 84.4482 17.4135 77.9142 16.076 71.0503L79.2061 7.91031C86.0769 9.24523 92.6179 11.9194 98.456 15.7803Z" fill="#F15A24"/>
<path d="M129.766 62.8703C127.499 78.3071 119.754 92.4133 107.947 102.613C96.1403 112.812 81.0585 118.424 65.4561 118.424C49.8536 118.424 34.7718 112.812 22.9648 102.613C11.1577 92.4133 3.41341 78.3071 1.14605 62.8703C0.687829 66.0162 0.45723 69.1912 0.456055 72.3703C0.456055 89.6094 7.30425 106.142 19.4941 118.332C31.684 130.522 48.217 137.37 65.4561 137.37C82.6951 137.37 99.2281 130.522 111.418 118.332C123.608 106.142 130.456 89.6094 130.456 72.3703C130.455 69.1912 130.224 66.0162 129.766 62.8703Z" fill="#ED1C24"/>
<path d="M65.4561 20.3703C74.3562 20.3703 83.0565 23.0095 90.4567 27.9542C97.857 32.8988 103.625 39.9269 107.031 48.1495C110.437 56.3722 111.328 65.4202 109.591 74.1494C107.855 82.8785 103.569 90.8967 97.2759 97.1901C90.9825 103.483 82.9643 107.769 74.2352 109.506C65.506 111.242 56.458 110.351 48.2353 106.945C40.0127 103.539 32.9846 97.7712 28.04 90.371C23.0953 82.9707 20.4561 74.2705 20.4561 65.3703C20.4693 53.4396 25.2146 42.0014 33.6509 33.5651C42.0872 25.1288 53.5254 20.3835 65.4561 20.3703ZM65.4561 0.3703C52.6003 0.3703 40.0332 4.18248 29.344 11.3248C18.6548 18.4671 10.3236 28.6187 5.40391 40.4959C0.484218 52.3731 -0.802999 65.4424 1.70504 78.0512C4.21308 90.6599 10.4037 102.242 19.4941 111.332C28.5846 120.423 40.1665 126.613 52.7752 129.121C65.384 131.629 78.4533 130.342 90.3305 125.422C102.208 120.503 112.359 112.172 119.502 101.482C126.644 90.7932 130.456 78.2261 130.456 65.3703C130.456 48.1312 123.608 31.5982 111.418 19.4084C99.2282 7.2185 82.6952 0.3703 65.4561 0.3703V0.3703Z" fill="#F7931E"/>
<path d="M65.9561 111.37C40.6861 111.37 18.1961 101.48 3.84607 86.1103C8.14594 98.8607 16.2969 109.962 27.1743 117.884C38.0517 125.805 51.1193 130.155 64.574 130.334C78.0287 130.513 91.2074 126.511 102.291 118.882C113.376 111.253 121.819 100.372 126.456 87.7403C112.096 102.18 90.3161 111.37 65.9561 111.37Z" fill="#F15A24"/>
<path d="M46.4561 51.9203L60.4561 69.0803C60.5307 69.1712 60.5976 69.2682 60.6561 69.3703C61.6061 70.9103 60.9361 73.2803 59.0461 74.8203C57.1561 76.3603 54.6961 76.5403 53.3861 75.3003C53.2994 75.2236 53.2191 75.14 53.1461 75.0503L39.1461 57.8903C37.9061 56.3703 38.5361 53.7803 40.5461 52.1403C41.4617 51.3707 42.6019 50.9182 43.7961 50.8503C44.2922 50.8087 44.7912 50.8838 45.2531 51.0696C45.715 51.2554 46.1269 51.5467 46.4561 51.9203Z" fill="#ED1C24"/>
<path d="M35.256 45.6003L44.936 50.4403C44.9879 50.4658 45.0351 50.4996 45.076 50.5403C45.756 51.1403 45.466 53.2603 44.376 55.4403C43.286 57.6203 41.766 59.1203 40.876 58.9403C40.817 58.9333 40.7595 58.9164 40.706 58.8903L31.026 54.0503C30.166 53.6203 30.4161 51.3703 31.5761 49.0503C32.0647 48.0293 32.7242 47.0992 33.526 46.3003C34.206 45.6703 34.826 45.3703 35.256 45.6003Z" fill="#ED1C24"/>
<path d="M60.6861 70.5003L64.0061 80.8103C64.0153 80.8666 64.0153 80.924 64.0061 80.9803C64.0061 81.8903 62.3361 83.1603 60.0061 83.9103C57.6761 84.6603 55.5461 84.6203 55.0561 83.8503C55.0215 83.8049 54.9945 83.7543 54.9761 83.7003L51.6961 73.3703C51.4061 72.4603 53.1861 71.0603 55.6961 70.2603C56.7678 69.8953 57.894 69.716 59.0261 69.7303C59.9061 69.7903 60.5461 70.0403 60.6861 70.5003Z" fill="#ED1C24"/>
<path d="M57.0261 67.6703L83.4561 67.5803H83.8761C84.9598 67.7994 85.9343 68.3866 86.6343 69.2424C87.3344 70.0981 87.7168 71.1697 87.7168 72.2753C87.7168 73.3809 87.3344 74.4525 86.6343 75.3082C85.9343 76.164 84.9598 76.7512 83.8761 76.9703H83.4561L57.0261 77.0603C55.8447 76.9905 54.7379 76.4602 53.9432 75.5833C53.1486 74.7064 52.7295 73.5528 52.7761 72.3703C52.7653 71.1425 53.2067 69.9536 54.0161 69.0303C54.392 68.6024 54.8551 68.2596 55.3742 68.0251C55.8933 67.7906 56.4565 67.6696 57.0261 67.6703Z" fill="#ED1C24"/>
<path d="M57.016 49.9203L83.456 49.8203H83.876C86.016 49.9603 87.706 51.2003 87.716 52.7103C87.726 54.2203 86.036 55.4703 83.896 55.6203H83.476L57.046 55.7103C54.706 55.7103 52.776 54.4103 52.776 52.8103C52.7984 52.3905 52.9242 51.9827 53.1423 51.6233C53.3604 51.2639 53.664 50.964 54.026 50.7503C54.919 50.1849 55.9593 49.8961 57.016 49.9203Z" fill="#ED1C24"/>
<path d="M61.1561 58.2403L78.7761 58.1803H79.0561C79.7666 58.2639 80.4216 58.6054 80.897 59.1399C81.3723 59.6745 81.6349 60.3649 81.6349 61.0803C81.6349 61.7956 81.3723 62.4861 80.897 63.0207C80.4216 63.5552 79.7666 63.8967 79.0561 63.9803H78.7761L61.1561 64.0403C60.3931 64.0298 59.6652 63.7179 59.1313 63.1727C58.5974 62.6276 58.3007 61.8933 58.3061 61.1303C58.3017 60.3613 58.5998 59.6214 59.1361 59.0703C59.3997 58.8032 59.7144 58.5921 60.0615 58.4494C60.4086 58.3068 60.7809 58.2357 61.1561 58.2403Z" fill="#ED1C24"/>
<path d="M59.4561 81.5403L76.6561 81.4803H76.9261C78.3161 81.7103 79.4261 83.7303 79.4361 86.1703C79.4461 88.6103 78.3561 90.6303 76.9661 90.8703H76.6961L59.4561 90.9903C57.9261 90.9903 56.6761 88.8703 56.6661 86.2803C56.6366 85.1162 56.9124 83.9647 57.4661 82.9403C57.6429 82.5508 57.9206 82.2156 58.2705 81.9694C58.6204 81.7233 59.0297 81.5751 59.4561 81.5403Z" fill="#ED1C24"/>
<path d="M93.6461 51.9203L79.6461 69.0803C79.5749 69.1716 79.5114 69.2686 79.4561 69.3703C78.5061 70.9103 79.1761 73.2803 81.0661 74.8203C82.9561 76.3603 85.4161 76.5403 86.7261 75.3003C86.8128 75.2236 86.893 75.14 86.9661 75.0503L100.966 57.8903C102.206 56.3703 101.576 53.7803 99.5661 52.1403C98.6504 51.3707 97.5103 50.9182 96.3161 50.8503C95.8183 50.8071 95.3174 50.8814 94.8536 51.0673C94.3899 51.2531 93.9763 51.5453 93.6461 51.9203Z" fill="#ED1C24"/>
<path d="M57.2161 93.4303C61.1981 93.4303 64.4261 90.2023 64.4261 86.2203C64.4261 82.2383 61.1981 79.0103 57.2161 79.0103C53.2341 79.0103 50.0061 82.2383 50.0061 86.2203C50.0061 90.2023 53.2341 93.4303 57.2161 93.4303Z" fill="#ED1C24"/>
<path d="M79.406 93.4303C83.388 93.4303 86.6161 90.2023 86.6161 86.2203C86.6161 82.2383 83.388 79.0103 79.406 79.0103C75.4241 79.0103 72.196 82.2383 72.196 86.2203C72.196 90.2023 75.4241 93.4303 79.406 93.4303Z" fill="#ED1C24"/>
<path d="M44.266 49.7003L58.266 66.8603C58.3406 66.9512 58.4075 67.0482 58.466 67.1503C59.416 68.6903 58.746 71.0603 56.856 72.6003C54.966 74.1403 52.456 74.3703 51.186 73.0903C51.0993 73.0136 51.019 72.93 50.946 72.8403L36.946 55.6803C35.706 54.1603 36.336 51.5703 38.346 49.9303C39.2617 49.1607 40.4018 48.7082 41.596 48.6403C42.0929 48.5959 42.5934 48.6686 43.0571 48.8527C43.5208 49.0368 43.9348 49.3271 44.266 49.7003Z" fill="white"/>
<path d="M58.456 68.2803L61.776 78.5903C61.7851 78.6466 61.7851 78.704 61.776 78.7603C61.776 79.6703 60.106 80.9403 57.776 81.6903C55.446 82.4403 53.316 82.4003 52.826 81.6303C52.7914 81.5849 52.7644 81.5343 52.746 81.4803L49.456 71.1803C49.166 70.2703 50.946 68.8703 53.456 68.0703C54.5277 67.7053 55.6539 67.526 56.786 67.5403C57.686 67.5703 58.326 67.8203 58.456 68.2803Z" fill="white"/>
<path d="M54.8061 65.4503L81.2361 65.3703H81.6561C82.7398 65.5894 83.7143 66.1766 84.4144 67.0324C85.1144 67.8881 85.4969 68.9597 85.4969 70.0653C85.4969 71.1709 85.1144 72.2425 84.4144 73.0982C83.7143 73.954 82.7398 74.5412 81.6561 74.7603H81.2361L54.8061 74.8503C53.6158 74.7881 52.4983 74.2583 51.6967 73.3762C50.8951 72.4941 50.4744 71.3311 50.5261 70.1403C50.5153 68.9125 50.9567 67.7236 51.7661 66.8003C52.1463 66.3704 52.6146 66.0273 53.1391 65.7943C53.6637 65.5614 54.2322 65.4441 54.8061 65.4503Z" fill="white"/>
<path d="M54.796 47.7003L81.226 47.6103H81.646C83.786 47.7503 85.476 48.9903 85.486 50.5003C85.496 52.0103 83.816 53.2603 81.676 53.3703H81.256L54.826 53.4603C52.486 53.4603 50.556 52.1603 50.556 50.5603C50.5784 50.1405 50.7043 49.7327 50.9224 49.3733C51.1405 49.0139 51.444 48.714 51.806 48.5003C52.7023 47.9454 53.7424 47.6671 54.796 47.7003Z" fill="white"/>
<path d="M58.936 56.0203L76.556 55.9603H76.836C77.5465 56.0439 78.2015 56.3853 78.6769 56.9199C79.1522 57.4545 79.4148 58.1449 79.4148 58.8603C79.4148 59.5757 79.1522 60.2661 78.6769 60.8007C78.2015 61.3352 77.5465 61.6767 76.836 61.7603H76.556L58.936 61.8203C58.173 61.8098 57.4451 61.4979 56.9112 60.9527C56.3773 60.4075 56.0807 59.6733 56.086 58.9103C56.0816 58.1413 56.3797 57.4014 56.916 56.8503C57.1796 56.5832 57.4943 56.3721 57.8414 56.2294C58.1885 56.0868 58.5608 56.0157 58.936 56.0203Z" fill="white"/>
<path d="M57.206 79.3703L74.406 79.3103H74.676C76.066 79.5403 77.176 81.5603 77.186 84.0003C77.196 86.4403 76.106 88.4603 74.716 88.7003H74.446L57.246 88.7603C55.716 88.7603 54.466 86.6403 54.456 84.0503C54.4265 82.8862 54.7023 81.7347 55.256 80.7103C55.4376 80.3375 55.7126 80.0181 56.0544 79.7833C56.3961 79.5485 56.7929 79.4062 57.206 79.3703Z" fill="white"/>
<path d="M91.456 49.7003L77.456 66.8603C77.3814 66.9512 77.3145 67.0482 77.256 67.1503C76.306 68.6903 76.976 71.0603 78.866 72.6003C80.756 74.1403 83.216 74.3203 84.526 73.0803C84.6127 73.0036 84.693 72.92 84.766 72.8303L98.766 55.6703C100.006 54.1503 99.376 51.5603 97.366 49.9203C96.4503 49.1507 95.3102 48.6982 94.116 48.6303C93.6199 48.5887 93.1209 48.6638 92.659 48.8496C92.1971 49.0354 91.7851 49.3267 91.456 49.7003Z" fill="white"/>
<path d="M54.996 91.2103C58.978 91.2103 62.206 87.9823 62.206 84.0003C62.206 80.0183 58.978 76.7903 54.996 76.7903C51.014 76.7903 47.786 80.0183 47.786 84.0003C47.786 87.9823 51.014 91.2103 54.996 91.2103Z" fill="white"/>
<path d="M77.1861 91.2103C81.1681 91.2103 84.3961 87.9823 84.3961 84.0003C84.3961 80.0183 81.1681 76.7903 77.1861 76.7903C73.2041 76.7903 69.9761 80.0183 69.9761 84.0003C69.9761 87.9823 73.2041 91.2103 77.1861 91.2103Z" fill="white"/>
<path d="M42.1376 47.891L36.1654 44.6185C33.8018 43.3234 30.8359 44.1896 29.5408 46.5532C28.2457 48.9168 29.1118 51.8828 31.4754 53.1779L37.4477 56.4503C39.8112 57.7454 42.7772 56.8792 44.0723 54.5156C45.3674 52.152 44.5012 49.1861 42.1376 47.891Z" fill="white"/>
</g>
<defs>
<clipPath id="clip0_122_202">
<rect width="130" height="137" fill="white" transform="translate(0.456055 0.3703)"/>
</clipPath>
</defs>
</svg>
