<svg width="131" height="138" viewBox="0 0 131 138" fill="none" xmlns="http://www.w3.org/2000/svg">
<g clip-path="url(#clip0_122_184)">
<path d="M117.406 67.5003C117.406 96.9103 93.996 120.75 65.106 120.75C52.7791 120.76 40.8588 116.342 31.516 108.3C22.3088 100.438 16.0552 89.6732 13.786 77.7803C13.125 74.3935 12.7901 70.951 12.786 67.5003C12.786 38.0903 36.196 14.2503 65.086 14.2503C75.3478 14.2523 85.3756 17.3163 93.886 23.0503C98.1881 25.9461 102.04 29.4606 105.316 33.4803C113.147 43.0784 117.412 55.0927 117.386 67.4803L117.406 67.5003Z" fill="#F93052"/>
<path d="M114.666 50.4503L48.3561 117.96C42.1799 115.833 36.4625 112.555 31.5061 108.3C31.7161 108.03 31.9361 107.79 32.1761 107.54L103.456 34.9303C104.008 34.3735 104.626 33.8865 105.296 33.4803C109.425 38.5201 112.601 44.2709 114.666 50.4503Z" fill="#F15A24"/>
<path d="M93.906 23.0403C93.726 23.2503 93.556 23.4503 93.356 23.6503L22.036 96.2603C21.836 96.4603 21.646 96.6403 21.436 96.8203C17.6795 91.0412 15.0782 84.5889 13.776 77.8203L75.196 15.2503C81.8881 16.5787 88.2485 19.2269 93.906 23.0403Z" fill="#F15A24"/>
<path d="M129.766 62.8703C127.499 78.3071 119.754 92.4133 107.947 102.613C96.1403 112.812 81.0585 118.424 65.4561 118.424C49.8536 118.424 34.7718 112.812 22.9648 102.613C11.1577 92.4133 3.41341 78.3071 1.14605 62.8703C0.687829 66.0162 0.45723 69.1912 0.456055 72.3703C0.456055 89.6094 7.30425 106.142 19.4941 118.332C31.684 130.522 48.217 137.37 65.4561 137.37C82.6951 137.37 99.2281 130.522 111.418 118.332C123.608 106.142 130.456 89.6094 130.456 72.3703C130.455 69.1912 130.224 66.0162 129.766 62.8703Z" fill="#ED1C24"/>
<path d="M65.4561 20.3703C74.3562 20.3703 83.0565 23.0095 90.4567 27.9542C97.857 32.8988 103.625 39.9269 107.031 48.1495C110.437 56.3722 111.328 65.4202 109.591 74.1494C107.855 82.8785 103.569 90.8967 97.2759 97.1901C90.9825 103.483 82.9643 107.769 74.2352 109.506C65.506 111.242 56.458 110.351 48.2353 106.945C40.0127 103.539 32.9846 97.7712 28.04 90.371C23.0953 82.9707 20.4561 74.2705 20.4561 65.3703C20.4693 53.4396 25.2146 42.0014 33.6509 33.5651C42.0872 25.1288 53.5254 20.3835 65.4561 20.3703ZM65.4561 0.3703C52.6003 0.3703 40.0332 4.18248 29.344 11.3248C18.6548 18.4671 10.3236 28.6187 5.40391 40.4959C0.484218 52.3731 -0.802999 65.4424 1.70504 78.0512C4.21308 90.6599 10.4037 102.242 19.4941 111.332C28.5846 120.423 40.1665 126.613 52.7752 129.121C65.384 131.629 78.4533 130.342 90.3305 125.422C102.208 120.503 112.359 112.172 119.502 101.482C126.644 90.7932 130.456 78.2261 130.456 65.3703C130.456 48.1312 123.608 31.5982 111.418 19.4084C99.2282 7.2185 82.6952 0.3703 65.4561 0.3703V0.3703Z" fill="#F7931E"/>
<path d="M65.9561 111.37C40.6861 111.37 18.1961 101.48 3.84607 86.1103C8.14594 98.8607 16.2969 109.962 27.1743 117.884C38.0517 125.805 51.1193 130.155 64.574 130.334C78.0287 130.513 91.2074 126.511 102.291 118.882C113.376 111.253 121.819 100.372 126.456 87.7403C112.096 102.18 90.3161 111.37 65.9561 111.37Z" fill="#F15A24"/>
<path d="M84.656 50.8103L76.556 64.8103C76.1943 65.4368 76.0039 66.1474 76.004 66.8708C76.0041 67.5942 76.1947 68.3048 76.5565 68.9311C76.9183 69.5575 77.4387 70.0776 78.0653 70.4391C78.6919 70.8005 79.4026 70.9906 80.126 70.9903H96.336C97.0594 70.9906 97.7701 70.8005 98.3967 70.4391C99.0233 70.0776 99.5437 69.5575 99.9055 68.9311C100.267 68.3048 100.458 67.5942 100.458 66.8708C100.458 66.1474 100.268 65.4368 99.906 64.8103L91.806 50.8103C91.4453 50.1807 90.9248 49.6575 90.2971 49.2936C89.6693 48.9298 88.9566 48.7382 88.231 48.7382C87.5054 48.7382 86.7927 48.9298 86.1649 49.2936C85.5372 49.6575 85.0167 50.1807 84.656 50.8103Z" fill="#C1272D"/>
<path d="M66.686 95.0303C59.9787 95.0303 53.5461 92.3658 48.8033 87.623C44.0605 82.8803 41.396 76.4476 41.396 69.7403C41.396 63.033 44.0605 56.6004 48.8033 51.8576C53.5461 47.1148 59.9787 44.4503 66.686 44.4503C67.336 44.491 67.9461 44.7779 68.392 45.2526C68.8379 45.7273 69.0861 46.354 69.0861 47.0053C69.0861 47.6566 68.8379 48.2834 68.392 48.7581C67.9461 49.2327 67.336 49.5196 66.686 49.5603C62.698 49.5623 58.8001 50.7464 55.485 52.963C52.1698 55.1797 49.5861 58.3293 48.0604 62.0139C46.5347 65.6985 46.1356 69.7527 46.9133 73.6641C47.6911 77.5755 49.6109 81.1685 52.4301 83.9891C55.2494 86.8097 58.8415 88.7313 62.7525 89.511C66.6635 90.2908 70.7178 89.8936 74.4032 88.3697C78.0885 86.8459 81.2394 84.2638 83.4577 80.9497C85.676 77.6356 86.862 73.7383 86.866 69.7503C86.8442 69.4013 86.894 69.0516 87.0126 68.7226C87.1311 68.3937 87.3157 68.0925 87.5551 67.8377C87.7945 67.5828 88.0836 67.3797 88.4045 67.2409C88.7254 67.102 89.0713 67.0304 89.421 67.0304C89.7706 67.0304 90.1166 67.102 90.4375 67.2409C90.7584 67.3797 91.0475 67.5828 91.2869 67.8377C91.5263 68.0925 91.7109 68.3937 91.8294 68.7226C91.948 69.0516 91.9978 69.4013 91.976 69.7503C91.9654 76.4535 89.2972 82.8789 84.5564 87.6178C79.8156 92.3567 73.3892 95.0224 66.686 95.0303Z" fill="#C1272D"/>
<path d="M66.686 100.53C62.6426 100.53 58.6388 99.7339 54.9032 98.1866C51.1676 96.6392 47.7733 94.3712 44.9142 91.5121C42.0551 88.653 39.7871 85.2588 38.2397 81.5231C36.6924 77.7875 35.896 73.7837 35.896 69.7403C35.896 65.6969 36.6924 61.6931 38.2397 57.9575C39.7871 54.2219 42.0551 50.8276 44.9142 47.9685C47.7733 45.1094 51.1676 42.8414 54.9032 41.2941C58.6388 39.7467 62.6426 38.9503 66.686 38.9503C68.7732 39.0239 70.7504 39.9047 72.2009 41.4073C73.6515 42.9099 74.4621 44.9168 74.4621 47.0053C74.4621 49.0938 73.6515 51.1008 72.2009 52.6033C70.7504 54.1059 68.7732 54.9868 66.686 55.0603C63.7858 55.0623 60.9513 55.9239 58.5406 57.5361C56.1299 59.1484 54.2511 61.4391 53.1417 64.1187C52.0323 66.7983 51.7421 69.7466 52.3076 72.5911C52.8732 75.4356 54.2692 78.0486 56.3192 80.1C58.3693 82.1515 60.9813 83.5492 63.8255 84.1167C66.6696 84.6842 69.6181 84.396 72.2984 83.2884C74.9788 82.1808 77.2707 80.3037 78.8846 77.894C80.4986 75.4844 81.362 72.6505 81.366 69.7503C81.3279 68.6686 81.508 67.5904 81.8956 66.5798C82.2833 65.5693 82.8705 64.6471 83.6222 63.8684C84.374 63.0897 85.2748 62.4704 86.2711 62.0474C87.2674 61.6245 88.3386 61.4065 89.421 61.4065C90.5033 61.4065 91.5746 61.6245 92.5709 62.0474C93.5672 62.4704 94.468 63.0897 95.2198 63.8684C95.9715 64.6471 96.5587 65.5693 96.9463 66.5798C97.334 67.5904 97.5141 68.6686 97.476 69.7503C97.4654 77.9122 94.2178 85.7365 88.4455 91.5069C82.6733 97.2773 74.8478 100.522 66.686 100.53Z" fill="#C1272D"/>
<path d="M83.656 46.8103L75.556 60.8103C75.1943 61.4368 75.0039 62.1474 75.004 62.8708C75.0041 63.5942 75.1947 64.3048 75.5565 64.9311C75.9183 65.5575 76.4387 66.0776 77.0653 66.4391C77.6919 66.8005 78.4026 66.9906 79.126 66.9903H95.336C96.0594 66.9906 96.7701 66.8005 97.3967 66.4391C98.0233 66.0776 98.5437 65.5575 98.9055 64.9311C99.2673 64.3048 99.4579 63.5942 99.458 62.8708C99.4581 62.1474 99.2677 61.4368 98.906 60.8103L90.806 46.8103C90.4453 46.1807 89.9248 45.6575 89.2971 45.2936C88.6693 44.9298 87.9566 44.7382 87.231 44.7382C86.5054 44.7382 85.7927 44.9298 85.1649 45.2936C84.5372 45.6575 84.0167 46.1807 83.656 46.8103Z" fill="white"/>
<path d="M65.686 91.0303C58.9787 91.0303 52.5461 88.3658 47.8033 83.623C43.0605 78.8803 40.396 72.4476 40.396 65.7403C40.396 59.033 43.0605 52.6004 47.8033 47.8576C52.5461 43.1148 58.9787 40.4503 65.686 40.4503C66.336 40.491 66.9461 40.7779 67.392 41.2526C67.8379 41.7273 68.0861 42.354 68.0861 43.0053C68.0861 43.6566 67.8379 44.2834 67.392 44.7581C66.9461 45.2327 66.336 45.5196 65.686 45.5603C61.698 45.5623 57.8001 46.7464 54.485 48.963C51.1698 51.1797 48.5861 54.3293 47.0604 58.0139C45.5347 61.6985 45.1356 65.7527 45.9133 69.6641C46.6911 73.5755 48.6109 77.1685 51.4301 79.9891C54.2494 82.8097 57.8415 84.7313 61.7525 85.511C65.6635 86.2908 69.7178 85.8936 73.4032 84.3697C77.0885 82.8459 80.2394 80.2638 82.4577 76.9497C84.676 73.6356 85.862 69.7383 85.866 65.7503C85.8442 65.4013 85.894 65.0516 86.0126 64.7226C86.1311 64.3937 86.3157 64.0925 86.5551 63.8377C86.7945 63.5828 87.0836 63.3797 87.4045 63.2409C87.7254 63.102 88.0713 63.0304 88.421 63.0304C88.7706 63.0304 89.1166 63.102 89.4375 63.2409C89.7584 63.3797 90.0475 63.5828 90.2869 63.8377C90.5263 64.0925 90.7109 64.3937 90.8294 64.7226C90.948 65.0516 90.9978 65.4013 90.976 65.7503C90.9654 72.4535 88.2972 78.8789 83.5564 83.6178C78.8156 88.3567 72.3892 91.0224 65.686 91.0303Z" fill="#EFDCDD"/>
<path d="M65.686 96.5303C57.52 96.5303 49.6884 93.2864 43.9142 87.5121C38.1399 81.7379 34.896 73.9063 34.896 65.7403C34.896 57.5743 38.1399 49.7427 43.9142 43.9685C49.6884 38.1943 57.52 34.9503 65.686 34.9503C67.7732 35.0239 69.7504 35.9047 71.2009 37.4073C72.6515 38.9099 73.4621 40.9168 73.4621 43.0053C73.4621 45.0938 72.6515 47.1008 71.2009 48.6033C69.7504 50.1059 67.7732 50.9868 65.686 51.0603C62.7858 51.0623 59.9513 51.9239 57.5406 53.5361C55.1299 55.1484 53.2511 57.4391 52.1417 60.1187C51.0323 62.7983 50.7421 65.7466 51.3076 68.5911C51.8732 71.4356 53.2692 74.0486 55.3192 76.1C57.3693 78.1515 59.9813 79.5492 62.8255 80.1167C65.6696 80.6842 68.6181 80.396 71.2984 79.2884C73.9788 78.1808 76.2707 76.3037 77.8846 73.894C79.4986 71.4844 80.362 68.6505 80.366 65.7503C80.3279 64.6686 80.508 63.5904 80.8956 62.5798C81.2833 61.5693 81.8705 60.6471 82.6222 59.8684C83.374 59.0897 84.2748 58.4704 85.2711 58.0474C86.2674 57.6245 87.3386 57.4065 88.421 57.4065C89.5033 57.4065 90.5746 57.6245 91.5709 58.0474C92.5672 58.4704 93.468 59.0897 94.2198 59.8684C94.9715 60.6471 95.5587 61.5693 95.9463 62.5798C96.334 63.5904 96.5141 64.6686 96.476 65.7503C96.4654 73.9122 93.2178 81.7365 87.4455 87.5069C81.6733 93.2773 73.8478 96.5224 65.686 96.5303Z" fill="white"/>
<g style="mix-blend-mode:soft-light">
<path d="M90.8685 59.1193C92.7977 57.1901 92.7977 54.0623 90.8685 52.1331C88.9393 50.2039 85.8115 50.2039 83.8823 52.1331C81.9531 54.0623 81.9531 57.1901 83.8823 59.1193C85.8115 61.0485 88.9393 61.0485 90.8685 59.1193Z" fill="white"/>
</g>
<g style="mix-blend-mode:soft-light">
<path d="M89.7022 66.1128C90.6668 65.1482 90.6668 63.5843 89.7022 62.6197C88.7376 61.6551 87.1737 61.6551 86.2091 62.6197C85.2445 63.5843 85.2445 65.1482 86.2091 66.1128C87.1737 67.0774 88.7376 67.0774 89.7022 66.1128Z" fill="white"/>
</g>
</g>
<defs>
<clipPath id="clip0_122_184">
<rect width="130" height="137" fill="white" transform="translate(0.456055 0.3703)"/>
</clipPath>
</defs>
</svg>
