<svg width="131" height="138" viewBox="0 0 131 138" fill="none" xmlns="http://www.w3.org/2000/svg">
<g clip-path="url(#clip0_122_156)">
<path d="M121.706 68.3703C121.682 82.3645 116.395 95.8378 106.895 106.113C97.3949 116.389 84.3773 122.715 70.4279 123.836C56.4785 124.956 42.6182 120.788 31.6001 112.16C20.5821 103.532 13.2127 91.075 10.9558 77.264C8.69887 63.4529 11.7196 49.2981 19.418 37.6116C27.1163 25.9251 38.9289 17.5618 52.5092 14.1833C66.0896 10.8048 80.4439 12.6581 92.7207 19.3752C104.998 26.0923 114.299 37.1816 118.776 50.4403C120.722 56.2176 121.712 62.274 121.706 68.3703Z" fill="#F93052"/>
<path d="M118.776 50.4403L47.776 121.44C41.1941 119.208 35.0888 115.761 29.776 111.28C30.006 111 30.236 110.74 30.496 110.48L106.856 34.1203C107.457 33.5299 108.129 33.016 108.856 32.5903C113.228 37.8826 116.59 43.933 118.776 50.4403Z" fill="#F15A24"/>
<path d="M96.5461 21.6203C96.3561 21.8403 96.1661 22.0503 95.9561 22.2603L19.5961 98.6203C19.3861 98.8303 19.1761 99.0203 18.9561 99.2103C14.9396 93.1449 12.1535 86.3496 10.7561 79.2103L76.5161 13.4203C83.6658 14.8139 90.4716 17.6001 96.5461 21.6203Z" fill="#F15A24"/>
<path d="M129.766 62.8703C127.499 78.3071 119.754 92.4133 107.947 102.613C96.1403 112.812 81.0585 118.424 65.4561 118.424C49.8536 118.424 34.7718 112.812 22.9648 102.613C11.1577 92.4133 3.41341 78.3071 1.14605 62.8703C0.687829 66.0162 0.45723 69.1912 0.456055 72.3703C0.456055 89.6094 7.30425 106.142 19.4941 118.332C31.684 130.522 48.217 137.37 65.4561 137.37C82.6951 137.37 99.2281 130.522 111.418 118.332C123.608 106.142 130.456 89.6094 130.456 72.3703C130.455 69.1912 130.224 66.0162 129.766 62.8703Z" fill="#ED1C24"/>
<path d="M65.4561 20.3703C74.3562 20.3703 83.0565 23.0095 90.4567 27.9542C97.857 32.8988 103.625 39.9269 107.031 48.1495C110.437 56.3722 111.328 65.4202 109.591 74.1494C107.855 82.8785 103.569 90.8967 97.2759 97.1901C90.9825 103.483 82.9643 107.769 74.2352 109.506C65.506 111.242 56.458 110.351 48.2353 106.945C40.0127 103.539 32.9846 97.7712 28.04 90.371C23.0953 82.9707 20.4561 74.2705 20.4561 65.3703C20.4693 53.4396 25.2146 42.0014 33.6509 33.5651C42.0872 25.1288 53.5254 20.3835 65.4561 20.3703ZM65.4561 0.3703C52.6003 0.3703 40.0332 4.18248 29.344 11.3248C18.6548 18.4671 10.3236 28.6187 5.40391 40.4959C0.484218 52.3731 -0.802999 65.4424 1.70504 78.0512C4.21308 90.6599 10.4037 102.242 19.4941 111.332C28.5846 120.423 40.1665 126.613 52.7752 129.121C65.384 131.629 78.4533 130.342 90.3305 125.422C102.208 120.503 112.359 112.172 119.502 101.482C126.644 90.7932 130.456 78.2261 130.456 65.3703C130.456 48.1312 123.608 31.5982 111.418 19.4084C99.2282 7.2185 82.6952 0.3703 65.4561 0.3703V0.3703Z" fill="#F7931E"/>
<path d="M65.9561 111.37C40.6861 111.37 18.1961 101.48 3.84607 86.1103C8.14594 98.8607 16.2969 109.962 27.1743 117.884C38.0517 125.805 51.1193 130.155 64.574 130.334C78.0287 130.513 91.2074 126.511 102.291 118.882C113.376 111.253 121.819 100.372 126.456 87.7403C112.096 102.18 90.3161 111.37 65.9561 111.37Z" fill="#F15A24"/>
<path d="M103.336 57.7803L103.746 57.3703V58.1903L103.336 57.7803Z" fill="#ED1C24"/>
<path d="M56.9261 65.1503C57.0006 63.0054 57.9051 60.9733 59.4488 59.4823C60.9925 57.9913 63.0549 57.158 65.2011 57.158C67.3472 57.158 69.4096 57.9913 70.9533 59.4823C72.497 60.9733 73.4015 63.0054 73.476 65.1503C73.4776 65.7284 73.4173 66.305 73.296 66.8703C72.9074 65.011 71.8905 63.3422 70.4163 62.1443C68.9421 60.9465 67.1005 60.2926 65.2011 60.2926C63.3016 60.2926 61.46 60.9465 59.9858 62.1443C58.5116 63.3422 57.4947 65.011 57.1061 66.8703C56.9848 66.305 56.9245 65.7284 56.9261 65.1503Z" fill="#C1272D"/>
<path d="M92.2578 51.5462C94.6009 49.203 94.6009 45.404 92.2578 43.0609C89.9146 40.7177 86.1156 40.7177 83.7725 43.0609L75.2872 51.5462C72.9441 53.8893 72.9441 57.6883 75.2872 60.0314C77.6304 62.3746 81.4293 62.3746 83.7725 60.0314L92.2578 51.5462Z" fill="#AF1722"/>
<path d="M82.206 71.4603L81.796 71.8703L81.396 71.4603H82.206Z" fill="#ED1C24"/>
<path d="M91.2548 49.5448C93.598 47.2017 93.598 43.4027 91.2548 41.0596C88.9117 38.7164 85.1127 38.7164 82.7696 41.0596L74.2843 49.5448C71.9411 51.888 71.9411 55.687 74.2843 58.0301C76.6274 60.3733 80.4264 60.3733 82.7696 58.0301L91.2548 49.5448Z" fill="white"/>
<path d="M94.9561 74.8703C98.2698 74.8703 100.956 72.184 100.956 68.8703C100.956 65.5566 98.2698 62.8703 94.9561 62.8703H82.9561C79.6423 62.8703 76.9561 65.5566 76.9561 68.8703C76.9561 72.184 79.6423 74.8703 82.9561 74.8703H94.9561Z" fill="#AF1722"/>
<path d="M95.9561 72.8703C99.2698 72.8703 101.956 70.184 101.956 66.8703C101.956 63.5566 99.2698 60.8703 95.9561 60.8703H83.9561C80.6423 60.8703 77.9561 63.5566 77.9561 66.8703C77.9561 70.184 80.6423 72.8703 83.9561 72.8703H95.9561Z" fill="white"/>
<path d="M82.7873 92.6749C85.1305 95.0181 88.9295 95.0181 91.2726 92.6749C93.6158 90.3318 93.6158 86.5328 91.2726 84.1896L82.7873 75.7044C80.4442 73.3612 76.6452 73.3612 74.3021 75.7044C71.9589 78.0475 71.9589 81.8465 74.3021 84.1896L82.7873 92.6749Z" fill="white"/>
<path d="M59.4561 97.3703C59.4561 100.684 62.1423 103.37 65.4561 103.37C68.7698 103.37 71.4561 100.684 71.4561 97.3703V85.3703C71.4561 82.0566 68.7698 79.3703 65.4561 79.3703C62.1423 79.3703 59.4561 82.0566 59.4561 85.3703V97.3703Z" fill="white"/>
<path d="M39.6457 84.1958C37.3025 86.5389 37.3025 90.3379 39.6457 92.681C41.9888 95.0242 45.7878 95.0242 48.1309 92.681L56.6162 84.1958C58.9594 81.8526 58.9594 78.0536 56.6162 75.7105C54.2731 73.3673 50.4741 73.3673 48.1309 75.7105L39.6457 84.1958Z" fill="white"/>
<path d="M34.9561 60.8703C31.6423 60.8703 28.9561 63.5566 28.9561 66.8703C28.9561 70.184 31.6423 72.8703 34.9561 72.8703H46.9561C50.2698 72.8703 52.9561 70.184 52.9561 66.8703C52.9561 63.5566 50.2698 60.8703 46.9561 60.8703H34.9561Z" fill="white"/>
<path d="M48.1364 41.0657C45.7932 38.7225 41.9942 38.7225 39.6511 41.0657C37.3079 43.4088 37.3079 47.2078 39.6511 49.551L48.1364 58.0362C50.4795 60.3794 54.2785 60.3794 56.6217 58.0362C58.9648 55.6931 58.9648 51.8941 56.6217 49.551L48.1364 41.0657Z" fill="white"/>
<path d="M71.4561 36.3703C71.4561 33.0566 68.7698 30.3703 65.4561 30.3703C62.1423 30.3703 59.4561 33.0566 59.4561 36.3703V48.3703C59.4561 51.684 62.1423 54.3703 65.4561 54.3703C68.7698 54.3703 71.4561 51.684 71.4561 48.3703V36.3703Z" fill="white"/>
<path d="M65.2061 44.3703C60.4593 44.3703 55.8192 45.7779 51.8724 48.415C47.9256 51.0522 44.8495 54.8005 43.033 59.1859C41.2165 63.5713 40.7412 68.3969 41.6672 73.0525C42.5933 77.708 44.879 81.9844 48.2355 85.3409C51.592 88.6973 55.8684 90.9831 60.5239 91.9091C65.1794 92.8352 70.005 92.3599 74.3905 90.5434C78.7759 88.7269 82.5242 85.6508 85.1613 81.704C87.7985 77.7572 89.2061 73.1171 89.2061 68.3703C89.2061 62.0051 86.6775 55.9006 82.1766 51.3997C77.6758 46.8989 71.5713 44.3703 65.2061 44.3703ZM65.2061 76.3703C63.6238 76.3703 62.0771 75.9011 60.7615 75.0221C59.4459 74.143 58.4205 72.8936 57.815 71.4318C57.2095 69.97 57.0511 68.3614 57.3598 66.8096C57.6685 65.2577 58.4304 63.8323 59.5492 62.7134C60.668 61.5946 62.0935 60.8327 63.6453 60.524C65.1972 60.2153 66.8057 60.3738 68.2675 60.9793C69.7293 61.5848 70.9788 62.6101 71.8578 63.9257C72.7369 65.2413 73.2061 66.788 73.2061 68.3703C73.2061 70.492 72.3632 72.5269 70.8629 74.0272C69.3626 75.5274 67.3278 76.3703 65.2061 76.3703Z" fill="#AF1722"/>
<path d="M65.2061 42.3703C60.4593 42.3703 55.8192 43.7779 51.8724 46.415C47.9256 49.0522 44.8495 52.8005 43.033 57.1859C41.2165 61.5713 40.7412 66.3969 41.6672 71.0525C42.5933 75.708 44.879 79.9844 48.2355 83.3409C51.592 86.6973 55.8684 88.9831 60.5239 89.9091C65.1794 90.8352 70.005 90.3599 74.3905 88.5434C78.7759 86.7269 82.5242 83.6508 85.1613 79.704C87.7985 75.7572 89.2061 71.1171 89.2061 66.3703C89.2061 60.0051 86.6775 53.9006 82.1766 49.3997C77.6758 44.8989 71.5713 42.3703 65.2061 42.3703ZM65.2061 74.3703C63.6238 74.3703 62.0771 73.9011 60.7615 73.0221C59.4459 72.143 58.4205 70.8936 57.815 69.4318C57.2095 67.97 57.0511 66.3614 57.3598 64.8096C57.6685 63.2577 58.4304 61.8323 59.5492 60.7134C60.668 59.5946 62.0935 58.8327 63.6453 58.524C65.1972 58.2153 66.8057 58.3738 68.2675 58.9793C69.7293 59.5848 70.9788 60.6101 71.8578 61.9257C72.7369 63.2413 73.2061 64.788 73.2061 66.3703C73.2061 68.492 72.3632 70.5269 70.8629 72.0272C69.3626 73.5274 67.3278 74.3703 65.2061 74.3703Z" fill="white"/>
<path d="M89.2061 66.3703C89.2061 72.7355 86.6775 78.84 82.1767 83.3409C77.6758 87.8417 71.5713 90.3703 65.2061 90.3703C58.8409 90.3703 52.7364 87.8417 48.2355 83.3409C43.7347 78.84 41.2061 72.7355 41.2061 66.3703C41.2034 64.6895 41.381 63.0132 41.7361 61.3703C42.8843 66.743 45.8411 71.5591 50.1127 75.0143C54.3843 78.4694 59.712 80.3544 65.2061 80.3544C70.7001 80.3544 76.0279 78.4694 80.2994 75.0143C84.571 71.5591 87.5279 66.743 88.6761 61.3703C89.0311 63.0132 89.2088 64.6895 89.2061 66.3703Z" fill="white"/>
<g style="mix-blend-mode:soft-light">
<path d="M85.6461 50.2403C87.8883 50.2403 89.7061 48.4226 89.7061 46.1803C89.7061 43.938 87.8883 42.1203 85.6461 42.1203C83.4038 42.1203 81.5861 43.938 81.5861 46.1803C81.5861 48.4226 83.4038 50.2403 85.6461 50.2403Z" fill="white"/>
</g>
<g style="mix-blend-mode:soft-light">
<path d="M80.9161 53.6203C82.0372 53.6203 82.9461 52.7114 82.9461 51.5903C82.9461 50.4692 82.0372 49.5603 80.9161 49.5603C79.795 49.5603 78.8861 50.4692 78.8861 51.5903C78.8861 52.7114 79.795 53.6203 80.9161 53.6203Z" fill="white"/>
</g>
</g>
<defs>
<clipPath id="clip0_122_156">
<rect width="130" height="137" fill="white" transform="translate(0.456055 0.3703)"/>
</clipPath>
</defs>
</svg>
