<svg width="131" height="138" viewBox="0 0 131 138" fill="none" xmlns="http://www.w3.org/2000/svg">
<g clip-path="url(#clip0_122_97)">
<path d="M117.896 68.9703C117.872 82.4075 112.794 95.3439 103.672 105.21C94.5489 115.076 82.0489 121.149 68.6547 122.223C55.2605 123.297 41.9523 119.294 31.3739 111.008C20.7955 102.722 13.7209 90.7604 11.5556 77.4989C9.39026 64.2373 12.2927 50.6464 19.6862 39.4262C27.0798 28.2059 38.4234 20.1774 51.4636 16.9355C64.5039 13.6936 78.2865 15.4755 90.0735 21.9273C101.86 28.3791 110.789 39.0286 115.086 51.7603C116.953 57.3058 117.902 63.1189 117.896 68.9703Z" fill="#F93052"/>
<path d="M115.076 51.7503L46.9159 119.92C40.5829 117.779 34.7078 114.469 29.5959 110.16C29.8159 109.89 30.0359 109.64 30.2859 109.39L103.606 36.0703C104.162 35.5146 104.783 35.0278 105.456 34.6203C109.686 39.6917 112.947 45.4984 115.076 51.7503Z" fill="#F15A24"/>
<path d="M93.736 24.0803C93.556 24.2903 93.376 24.4903 93.166 24.6903L19.856 98.0103C19.656 98.2103 19.456 98.3903 19.246 98.5803C15.3863 92.7549 12.7089 86.228 11.366 79.3703L74.456 16.2103C81.3373 17.5415 87.8888 20.2157 93.736 24.0803Z" fill="#F15A24"/>
<path d="M129.766 62.8703C127.499 78.3071 119.754 92.4133 107.947 102.613C96.1403 112.812 81.0585 118.424 65.4561 118.424C49.8536 118.424 34.7718 112.812 22.9648 102.613C11.1577 92.4133 3.41341 78.3071 1.14605 62.8703C0.687829 66.0162 0.45723 69.1912 0.456055 72.3703C0.456055 89.6094 7.30425 106.142 19.4941 118.332C31.684 130.522 48.217 137.37 65.4561 137.37C82.6951 137.37 99.2281 130.522 111.418 118.332C123.608 106.142 130.456 89.6094 130.456 72.3703C130.455 69.1912 130.224 66.0162 129.766 62.8703Z" fill="#ED1C24"/>
<path d="M65.4561 20.3703C74.3562 20.3703 83.0565 23.0095 90.4567 27.9542C97.857 32.8988 103.625 39.9269 107.031 48.1495C110.437 56.3722 111.328 65.4202 109.591 74.1494C107.855 82.8785 103.569 90.8967 97.2759 97.1901C90.9825 103.483 82.9643 107.769 74.2352 109.506C65.506 111.242 56.458 110.351 48.2353 106.945C40.0127 103.539 32.9846 97.7712 28.04 90.371C23.0953 82.9707 20.4561 74.2705 20.4561 65.3703C20.4693 53.4396 25.2146 42.0014 33.6509 33.5651C42.0872 25.1288 53.5254 20.3835 65.4561 20.3703ZM65.4561 0.3703C52.6003 0.3703 40.0332 4.18248 29.344 11.3248C18.6548 18.4671 10.3236 28.6187 5.40391 40.4959C0.484218 52.3731 -0.802999 65.4424 1.70504 78.0512C4.21308 90.6599 10.4037 102.242 19.4941 111.332C28.5846 120.423 40.1665 126.613 52.7752 129.121C65.384 131.629 78.4533 130.342 90.3305 125.422C102.208 120.503 112.359 112.172 119.502 101.482C126.644 90.7932 130.456 78.2261 130.456 65.3703C130.456 48.1312 123.608 31.5982 111.418 19.4084C99.2282 7.2185 82.6952 0.3703 65.4561 0.3703V0.3703Z" fill="#F7931E"/>
<path d="M65.9559 111.37C40.6859 111.37 18.1959 101.48 3.84595 86.1103C8.14581 98.8607 16.2968 109.962 27.1742 117.884C38.0515 125.805 51.1191 130.155 64.5739 130.334C78.0286 130.513 91.2072 126.511 102.291 118.882C113.375 111.253 121.819 100.372 126.456 87.7403C112.096 102.18 90.3159 111.37 65.9559 111.37Z" fill="#F15A24"/>
<path d="M57.2861 69.8403C57.2861 63.7652 52.3613 58.8403 46.2861 58.8403C40.211 58.8403 35.2861 63.7652 35.2861 69.8403C35.2861 75.9154 40.211 80.8403 46.2861 80.8403C52.3613 80.8403 57.2861 75.9154 57.2861 69.8403Z" fill="#C1272D"/>
<path d="M72.3101 56.8967C74.7756 55.7944 75.8815 52.9042 74.7803 50.4412C73.6791 47.9783 70.7877 46.8753 68.3223 47.9776L45.527 58.1697C43.0616 59.272 41.9556 62.1622 43.0568 64.6252C44.158 67.0881 47.0494 68.1911 49.5149 67.0888L72.3101 56.8967Z" fill="#C1272D"/>
<path d="M69.0482 90.6367C71.4571 91.8577 74.3987 90.8968 75.6185 88.4904C76.8383 86.084 75.8744 83.1433 73.4655 81.9223L51.1934 70.6328C48.7845 69.4117 45.8429 70.3727 44.6231 72.7791C43.4033 75.1855 44.3672 78.1261 46.7761 79.3472L69.0482 90.6367Z" fill="#C1272D"/>
<path d="M55.7961 68.1203C55.7961 62.0452 50.8713 57.1203 44.7961 57.1203C38.721 57.1203 33.7961 62.0452 33.7961 68.1203C33.7961 74.1954 38.721 79.1203 44.7961 79.1203C50.8713 79.1203 55.7961 74.1954 55.7961 68.1203Z" fill="white"/>
<path d="M90.0361 49.8403C90.0361 43.7652 85.1113 38.8403 79.0361 38.8403C72.961 38.8403 68.0361 43.7652 68.0361 49.8403C68.0361 55.9154 72.961 60.8403 79.0361 60.8403C85.1113 60.8403 90.0361 55.9154 90.0361 49.8403Z" fill="#C1272D"/>
<path d="M90.0361 48.1203C90.0361 42.0452 85.1113 37.1203 79.0361 37.1203C72.961 37.1203 68.0361 42.0452 68.0361 48.1203C68.0361 54.1954 72.961 59.1203 79.0361 59.1203C85.1113 59.1203 90.0361 54.1954 90.0361 48.1203Z" fill="white"/>
<path d="M90.0361 87.8403C90.0361 81.7652 85.1113 76.8403 79.0361 76.8403C72.961 76.8403 68.0361 81.7652 68.0361 87.8403C68.0361 93.9154 72.961 98.8403 79.0361 98.8403C85.1113 98.8403 90.0361 93.9154 90.0361 87.8403Z" fill="#C1272D"/>
<path d="M90.0361 86.1203C90.0361 80.0452 85.1113 75.1203 79.0361 75.1203C72.961 75.1203 68.0361 80.0452 68.0361 86.1203C68.0361 92.1954 72.961 97.1203 79.0361 97.1203C85.1113 97.1203 90.0361 92.1954 90.0361 86.1203Z" fill="white"/>
<path d="M71.8715 90.9688C74.2804 92.1898 77.222 91.2289 78.4418 88.8225C79.6616 86.4161 78.6976 83.4754 76.2887 82.2544L49.9047 68.8806C47.4958 67.6595 44.5542 68.6205 43.3344 71.0269C42.1146 73.4333 43.0786 76.3739 45.4874 77.595L71.8715 90.9688Z" fill="white"/>
<path d="M74.3426 54.9088C76.808 53.8065 77.914 50.9163 76.8128 48.4534C75.7116 45.9904 72.8202 44.8874 70.3547 45.9898L44.0448 57.7533C41.5793 58.8556 40.4734 61.7458 41.5746 64.2088C42.6758 66.6717 45.5672 67.7747 48.0326 66.6723L74.3426 54.9088Z" fill="white"/>
</g>
<defs>
<clipPath id="clip0_122_97">
<rect width="130" height="137" fill="white" transform="translate(0.456055 0.3703)"/>
</clipPath>
</defs>
</svg>
