<svg width="131" height="138" viewBox="0 0 131 138" fill="none" xmlns="http://www.w3.org/2000/svg">
<g clip-path="url(#clip0_122_134)">
<path d="M117.896 68.9703C117.872 82.4075 112.794 95.3439 103.672 105.21C94.5489 115.076 82.0489 121.149 68.6547 122.223C55.2605 123.297 41.9523 119.294 31.3739 111.008C20.7955 102.722 13.7209 90.7604 11.5556 77.4989C9.39026 64.2373 12.2927 50.6464 19.6862 39.4262C27.0798 28.2059 38.4234 20.1774 51.4636 16.9355C64.5039 13.6936 78.2865 15.4755 90.0735 21.9273C101.86 28.3791 110.789 39.0286 115.086 51.7603C116.953 57.3058 117.902 63.1189 117.896 68.9703Z" fill="#F93052"/>
<path d="M115.076 51.7503L46.9159 119.92C40.5829 117.779 34.7078 114.469 29.5959 110.16C29.8159 109.89 30.0359 109.64 30.2859 109.39L103.606 36.0703C104.162 35.5146 104.783 35.0278 105.456 34.6203C109.686 39.6917 112.947 45.4984 115.076 51.7503Z" fill="#F15A24"/>
<path d="M93.736 24.0803C93.556 24.2903 93.376 24.4903 93.166 24.6903L19.856 98.0103C19.656 98.2103 19.456 98.3903 19.246 98.5803C15.3863 92.7549 12.7089 86.228 11.366 79.3703L74.456 16.2103C81.3373 17.5415 87.8888 20.2157 93.736 24.0803Z" fill="#F15A24"/>
<path d="M129.766 62.8703C127.499 78.3071 119.754 92.4133 107.947 102.613C96.1403 112.812 81.0585 118.424 65.4561 118.424C49.8536 118.424 34.7718 112.812 22.9648 102.613C11.1577 92.4133 3.41341 78.3071 1.14605 62.8703C0.687829 66.0162 0.45723 69.1912 0.456055 72.3703C0.456055 89.6094 7.30425 106.142 19.4941 118.332C31.684 130.522 48.217 137.37 65.4561 137.37C82.6951 137.37 99.2281 130.522 111.418 118.332C123.608 106.142 130.456 89.6094 130.456 72.3703C130.455 69.1912 130.224 66.0162 129.766 62.8703Z" fill="#ED1C24"/>
<path d="M65.4561 20.3703C74.3562 20.3703 83.0565 23.0095 90.4567 27.9542C97.857 32.8988 103.625 39.9269 107.031 48.1495C110.437 56.3722 111.328 65.4202 109.591 74.1494C107.855 82.8785 103.569 90.8967 97.2759 97.1901C90.9825 103.483 82.9643 107.769 74.2352 109.506C65.506 111.242 56.458 110.351 48.2353 106.945C40.0127 103.539 32.9846 97.7712 28.04 90.371C23.0953 82.9707 20.4561 74.2705 20.4561 65.3703C20.4693 53.4396 25.2146 42.0014 33.6509 33.5651C42.0872 25.1288 53.5254 20.3835 65.4561 20.3703ZM65.4561 0.3703C52.6003 0.3703 40.0332 4.18248 29.344 11.3248C18.6548 18.4671 10.3236 28.6187 5.40391 40.4959C0.484218 52.3731 -0.802999 65.4424 1.70504 78.0512C4.21308 90.6599 10.4037 102.242 19.4941 111.332C28.5846 120.423 40.1665 126.613 52.7752 129.121C65.384 131.629 78.4533 130.342 90.3305 125.422C102.208 120.503 112.359 112.172 119.502 101.482C126.644 90.7932 130.456 78.2261 130.456 65.3703C130.456 48.1312 123.608 31.5982 111.418 19.4084C99.2282 7.2185 82.6952 0.3703 65.4561 0.3703V0.3703Z" fill="#F7931E"/>
<path d="M65.9559 111.37C40.6859 111.37 18.1959 101.48 3.84595 86.1103C8.14581 98.8607 16.2968 109.962 27.1742 117.884C38.0515 125.805 51.1191 130.155 64.5739 130.334C78.0286 130.513 91.2072 126.511 102.291 118.882C113.375 111.253 121.819 100.372 126.456 87.7403C112.096 102.18 90.3159 111.37 65.9559 111.37Z" fill="#F15A24"/>
<path d="M40.706 57.6103C40.706 54.9096 38.5189 52.7203 35.821 52.7203C33.1231 52.7203 30.936 54.9096 30.936 57.6103V77.6003C30.936 80.301 33.1231 82.4903 35.821 82.4903C38.5189 82.4903 40.706 80.301 40.706 77.6003V57.6103Z" fill="#C1272D"/>
<path d="M39.7261 55.3203C39.7261 52.6196 37.539 50.4303 34.8411 50.4303C32.1431 50.4303 29.9561 52.6196 29.9561 55.3203V75.3103C29.9561 78.011 32.1431 80.2003 34.8411 80.2003C37.539 80.2003 39.7261 78.011 39.7261 75.3103V55.3203Z" fill="white"/>
<path d="M92.896 45.8503H82.3459C79.8607 45.8503 77.8459 47.865 77.8459 50.3503V51.6603C77.8459 54.1456 79.8607 56.1603 82.3459 56.1603H92.896C95.3812 56.1603 97.396 54.1456 97.396 51.6603V50.3503C97.396 47.865 95.3812 45.8503 92.896 45.8503Z" fill="#C1272D"/>
<path d="M92.896 62.4503H82.3459C79.8607 62.4503 77.8459 64.465 77.8459 66.9503V68.2603C77.8459 70.7456 79.8607 72.7603 82.3459 72.7603H92.896C95.3812 72.7603 97.396 70.7456 97.396 68.2603V66.9503C97.396 64.465 95.3812 62.4503 92.896 62.4503Z" fill="#C1272D"/>
<path d="M92.896 79.0503H82.3459C79.8607 79.0503 77.8459 81.065 77.8459 83.5503V84.8603C77.8459 87.3456 79.8607 89.3603 82.3459 89.3603H92.896C95.3812 89.3603 97.396 87.3456 97.396 84.8603V83.5503C97.396 81.065 95.3812 79.0503 92.896 79.0503Z" fill="#C1272D"/>
<path d="M90.946 43.5603H80.396C77.9107 43.5603 75.896 45.575 75.896 48.0603V49.3703C75.896 51.8556 77.9107 53.8703 80.396 53.8703H90.946C93.4313 53.8703 95.446 51.8556 95.446 49.3703V48.0603C95.446 45.575 93.4313 43.5603 90.946 43.5603Z" fill="white"/>
<path d="M90.946 60.1603H80.396C77.9107 60.1603 75.896 62.175 75.896 64.6603V65.9703C75.896 68.4556 77.9107 70.4703 80.396 70.4703H90.946C93.4313 70.4703 95.446 68.4556 95.446 65.9703V64.6603C95.446 62.175 93.4313 60.1603 90.946 60.1603Z" fill="white"/>
<path d="M90.946 76.7603H80.396C77.9107 76.7603 75.896 78.775 75.896 81.2603V82.5703C75.896 85.0556 77.9107 87.0703 80.396 87.0703H90.946C93.4313 87.0703 95.446 85.0556 95.446 82.5703V81.2603C95.446 78.775 93.4313 76.7603 90.946 76.7603Z" fill="white"/>
<path d="M66.9361 44.1203L47.7261 53.6003C46.7465 54.0791 45.9208 54.8229 45.3428 55.7474C44.7647 56.6719 44.4575 57.74 44.4561 58.8303V74.9503C44.4557 76.0385 44.7599 77.1051 45.3343 78.0294C45.9086 78.9537 46.7302 79.6987 47.7061 80.1803L66.9161 89.6503C67.805 90.089 68.7912 90.2938 69.7814 90.2453C70.7715 90.1967 71.733 89.8965 72.5748 89.373C73.4167 88.8495 74.1111 88.1199 74.5925 87.2533C75.0739 86.3867 75.3264 85.4117 75.3261 84.4203V49.3703C75.3281 48.38 75.0779 47.4055 74.5989 46.5386C74.12 45.6718 73.4281 44.9413 72.5886 44.416C71.7491 43.8907 70.7896 43.5879 69.8006 43.5361C68.8116 43.4844 67.8258 43.6854 66.9361 44.1203Z" fill="#C1272D"/>
<path d="M65.066 41.8303L45.856 51.3103C44.8801 51.7919 44.0585 52.5369 43.4842 53.4612C42.9098 54.3855 42.6056 55.4521 42.606 56.5403V72.6603C42.6056 73.7485 42.9098 74.8151 43.4842 75.7394C44.0585 76.6636 44.8801 77.4087 45.856 77.8903L65.066 87.3703C65.9542 87.8044 66.9382 88.0055 67.9255 87.9547C68.9129 87.9039 69.871 87.6029 70.71 87.0799C71.549 86.5569 72.2412 85.8292 72.7215 84.9651C73.2019 84.101 73.4546 83.1289 73.456 82.1403V47.0603C73.4546 46.0717 73.2019 45.0996 72.7215 44.2355C72.2412 43.3714 71.549 42.6437 70.71 42.1207C69.871 41.5977 68.9129 41.2967 67.9255 41.2459C66.9382 41.1951 65.9542 41.3962 65.066 41.8303Z" fill="white"/>
<g style="mix-blend-mode:soft-light">
<path d="M51.8261 77.4103C54.4936 77.4103 56.6561 75.0911 56.6561 72.2303C56.6561 69.3695 54.4936 67.0503 51.8261 67.0503C49.1586 67.0503 46.9961 69.3695 46.9961 72.2303C46.9961 75.0911 49.1586 77.4103 51.8261 77.4103Z" fill="white"/>
</g>
<g style="mix-blend-mode:soft-light">
<path d="M57.4662 67.0403C58.7972 67.0403 59.8762 65.9255 59.8762 64.5503C59.8762 63.1751 58.7972 62.0603 57.4662 62.0603C56.1351 62.0603 55.0562 63.1751 55.0562 64.5503C55.0562 65.9255 56.1351 67.0403 57.4662 67.0403Z" fill="white"/>
</g>
</g>
<defs>
<clipPath id="clip0_122_134">
<rect width="130" height="137" fill="white" transform="translate(0.456055 0.3703)"/>
</clipPath>
</defs>
</svg>
