<svg width="131" height="138" viewBox="0 0 131 138" fill="none" xmlns="http://www.w3.org/2000/svg">
<g clip-path="url(#clip0_122_116)">
<path d="M117.896 68.9703C117.872 82.4075 112.794 95.3439 103.672 105.21C94.5489 115.076 82.0489 121.149 68.6547 122.223C55.2605 123.297 41.9523 119.294 31.3739 111.008C20.7955 102.722 13.7209 90.7604 11.5556 77.4989C9.39026 64.2373 12.2927 50.6464 19.6862 39.4262C27.0798 28.2059 38.4234 20.1774 51.4636 16.9355C64.5039 13.6936 78.2865 15.4755 90.0735 21.9273C101.86 28.3791 110.789 39.0286 115.086 51.7603C116.953 57.3058 117.902 63.1189 117.896 68.9703Z" fill="#F93052"/>
<path d="M115.076 51.7503L46.9159 119.92C40.5829 117.779 34.7078 114.469 29.5959 110.16C29.8159 109.89 30.0359 109.64 30.2859 109.39L103.606 36.0703C104.162 35.5146 104.783 35.0278 105.456 34.6203C109.686 39.6917 112.947 45.4984 115.076 51.7503Z" fill="#F15A24"/>
<path d="M93.736 24.0803C93.556 24.2903 93.376 24.4903 93.166 24.6903L19.856 98.0103C19.656 98.2103 19.456 98.3903 19.246 98.5803C15.3863 92.7549 12.7089 86.228 11.366 79.3703L74.456 16.2103C81.3373 17.5415 87.8888 20.2157 93.736 24.0803Z" fill="#F15A24"/>
<path d="M129.766 62.8703C127.499 78.3071 119.754 92.4133 107.947 102.613C96.1403 112.812 81.0585 118.424 65.4561 118.424C49.8536 118.424 34.7718 112.812 22.9648 102.613C11.1577 92.4133 3.41341 78.3071 1.14605 62.8703C0.687829 66.0162 0.45723 69.1912 0.456055 72.3703C0.456055 89.6094 7.30425 106.142 19.4941 118.332C31.684 130.522 48.217 137.37 65.4561 137.37C82.6951 137.37 99.2281 130.522 111.418 118.332C123.608 106.142 130.456 89.6094 130.456 72.3703C130.455 69.1912 130.224 66.0162 129.766 62.8703Z" fill="#ED1C24"/>
<path d="M65.4561 20.3703C74.3562 20.3703 83.0565 23.0095 90.4567 27.9542C97.857 32.8988 103.625 39.9269 107.031 48.1495C110.437 56.3722 111.328 65.4202 109.591 74.1494C107.855 82.8785 103.569 90.8967 97.2759 97.1901C90.9825 103.483 82.9643 107.769 74.2352 109.506C65.506 111.242 56.458 110.351 48.2353 106.945C40.0127 103.539 32.9846 97.7712 28.04 90.371C23.0953 82.9707 20.4561 74.2705 20.4561 65.3703C20.4693 53.4396 25.2146 42.0014 33.6509 33.5651C42.0872 25.1288 53.5254 20.3835 65.4561 20.3703ZM65.4561 0.3703C52.6003 0.3703 40.0332 4.18248 29.344 11.3248C18.6548 18.4671 10.3236 28.6187 5.40391 40.4959C0.484218 52.3731 -0.802999 65.4424 1.70504 78.0512C4.21308 90.6599 10.4037 102.242 19.4941 111.332C28.5846 120.423 40.1665 126.613 52.7752 129.121C65.384 131.629 78.4533 130.342 90.3305 125.422C102.208 120.503 112.359 112.172 119.502 101.482C126.644 90.7932 130.456 78.2261 130.456 65.3703C130.456 48.1312 123.608 31.5982 111.418 19.4084C99.2282 7.2185 82.6952 0.3703 65.4561 0.3703V0.3703Z" fill="#F7931E"/>
<path d="M65.9559 111.37C40.6859 111.37 18.1959 101.48 3.84595 86.1103C8.14581 98.8607 16.2968 109.962 27.1742 117.884C38.0515 125.805 51.1191 130.155 64.5739 130.334C78.0286 130.513 91.2072 126.511 102.291 118.882C113.375 111.253 121.819 100.372 126.456 87.7403C112.096 102.18 90.3159 111.37 65.9559 111.37Z" fill="#F15A24"/>
<g style="mix-blend-mode:soft-light">
<path d="M63.6561 71.8303C64.9871 71.8303 66.0661 70.5633 66.0661 69.0003C66.0661 67.4373 64.9871 66.1703 63.6561 66.1703C62.3251 66.1703 61.2461 67.4373 61.2461 69.0003C61.2461 70.5633 62.3251 71.8303 63.6561 71.8303Z" fill="white"/>
</g>
<path d="M46.896 62.4003C46.896 59.6996 44.7089 57.5103 42.011 57.5103C39.3131 57.5103 37.126 59.6996 37.126 62.4003V82.3903C37.126 85.091 39.3131 87.2803 42.011 87.2803C44.7089 87.2803 46.896 85.091 46.896 82.3903V62.4003Z" fill="#C1272D"/>
<path d="M45.916 60.1103C45.916 57.4096 43.7289 55.2203 41.031 55.2203C38.3331 55.2203 36.146 57.4096 36.146 60.1103V80.1003C36.146 82.801 38.3331 84.9903 41.031 84.9903C43.7289 84.9903 45.916 82.801 45.916 80.1003V60.1103Z" fill="white"/>
<path d="M73.126 48.9203L53.916 58.3703C52.9402 58.8519 52.1186 59.597 51.5442 60.5212C50.9699 61.4455 50.6657 62.5121 50.666 63.6003V79.7403C50.6657 80.8285 50.9699 81.8951 51.5442 82.8194C52.1186 83.7437 52.9402 84.4887 53.916 84.9703L73.126 94.4403C74.015 94.879 75.0012 95.0838 75.9913 95.0353C76.9815 94.9868 77.9429 94.6866 78.7848 94.163C79.6266 93.6395 80.3211 92.91 80.8025 92.0433C81.2839 91.1767 81.5364 90.2017 81.536 89.2103V54.1403C81.5347 53.1498 81.2809 52.176 80.7988 51.3107C80.3167 50.4455 79.6221 49.7173 78.7805 49.195C77.939 48.6726 76.9782 48.3733 75.9889 48.3252C74.9995 48.2772 74.0142 48.482 73.126 48.9203Z" fill="#C1272D"/>
<path d="M71.2561 46.6303L52.046 56.1003C51.0641 56.5849 50.2384 57.3362 49.6636 58.2682C49.0889 59.2002 48.7882 60.2753 48.796 61.3703V77.4503C48.7957 78.5385 49.0999 79.6051 49.6743 80.5294C50.2486 81.4537 51.0702 82.1987 52.046 82.6803L71.2561 92.1503C72.145 92.589 73.1312 92.7938 74.1214 92.7453C75.1115 92.6967 76.073 92.3965 76.9148 91.873C77.7567 91.3495 78.4511 90.6199 78.9325 89.7533C79.4139 88.8867 79.6664 87.9117 79.666 86.9203V51.8503C79.6647 50.8598 79.411 49.886 78.9289 49.0207C78.4468 48.1555 77.7521 47.4273 76.9106 46.9049C76.069 46.3826 75.1082 46.0833 74.1189 46.0352C73.1296 45.9872 72.1443 46.192 71.2561 46.6303Z" fill="white"/>
<g style="mix-blend-mode:soft-light">
<path d="M58.016 82.2003C60.6836 82.2003 62.846 79.9796 62.846 77.2403C62.846 74.501 60.6836 72.2803 58.016 72.2803C55.3485 72.2803 53.186 74.501 53.186 77.2403C53.186 79.9796 55.3485 82.2003 58.016 82.2003Z" fill="white"/>
</g>
<path d="M93.6946 90.4606L45.3568 42.1228C43.9314 40.6974 41.6204 40.6974 40.1949 42.1228C38.7695 43.5482 38.7695 45.8593 40.1949 47.2847L88.5328 95.6225C89.9582 97.0479 92.2692 97.0479 93.6946 95.6225C95.1201 94.1971 95.12 91.886 93.6946 90.4606Z" fill="#C1272D"/>
<path d="M91.7005 90.4564L43.3627 42.1186C41.9373 40.6932 39.6262 40.6932 38.2008 42.1186C36.7754 43.544 36.7754 45.855 38.2008 47.2804L86.5386 95.6183C87.964 97.0437 90.2751 97.0437 91.7005 95.6183C93.1259 94.1929 93.1259 91.8818 91.7005 90.4564Z" fill="white"/>
</g>
<defs>
<clipPath id="clip0_122_116">
<rect width="130" height="137" fill="white" transform="translate(0.456055 0.3703)"/>
</clipPath>
</defs>
</svg>
