<svg width="42" height="45" viewBox="0 0 42 45" fill="none" xmlns="http://www.w3.org/2000/svg">
    <path d="M37.8388 21.1953C37.8388 30.6401 30.3208 38.2962 21.043 38.2962C17.0843 38.2992 13.2561 36.8804 10.2557 34.2979C7.29703 31.7705 5.28856 28.3098 4.56187 24.487C4.34958 23.3993 4.24204 22.2938 4.24072 21.1856C4.24072 11.7408 11.7587 4.08472 21.0365 4.08472C24.3321 4.08536 27.5524 5.06936 30.2855 6.91078C31.6671 7.84075 32.9039 8.96941 33.9562 10.2603C36.4712 13.3427 37.8409 17.201 37.8324 21.1792L37.8388 21.1953Z" fill="#F93052"/>
    <path d="M36.9619 15.7197L15.6669 37.4002C13.6834 36.717 11.8473 35.6644 10.2556 34.2979C10.3231 34.2112 10.3937 34.1341 10.4708 34.0538L33.3716 10.7356C33.5487 10.5568 33.7472 10.4004 33.9625 10.2699C35.2851 11.8892 36.3016 13.736 36.9619 15.7197Z" fill="#F15A24"/>
    <path d="M30.2918 6.92042C30.234 6.98786 30.1794 7.05209 30.1152 7.11632L7.21442 30.4346C7.15019 30.4988 7.08917 30.5566 7.02173 30.6144C5.81228 28.7507 4.97679 26.6696 4.56177 24.487L24.2864 4.4155C26.4347 4.8435 28.4762 5.69503 30.2918 6.92042Z" fill="#F15A24"/>
    <path d="M41.5286 20.4727C40.8004 25.4301 38.3134 29.9602 34.5216 33.2357C30.7299 36.5112 25.8864 38.3136 20.8758 38.3136C15.8652 38.3136 11.0217 36.5112 7.23 33.2357C3.43824 29.9602 0.9512 25.4301 0.223054 20.4727C0.0758978 21.483 0.0018424 22.5026 0.00146484 23.5236C0.00146484 29.0598 2.20072 34.3692 6.11542 38.2839C10.0301 42.1986 15.3396 44.3979 20.8758 44.3979C26.412 44.3979 31.7215 42.1986 35.6362 38.2839C39.5509 34.3692 41.7502 29.0598 41.7502 23.5236C41.7498 22.5026 41.6757 21.483 41.5286 20.4727Z" fill="#ED1C24"/>
    <path d="M20.8758 6.82406C23.7341 6.82406 26.5281 7.67163 28.9046 9.25957C31.2812 10.8475 33.1334 13.1045 34.2272 15.7452C35.321 18.3859 35.6072 21.2916 35.0496 24.0949C34.492 26.8982 33.1156 29.4732 31.0946 31.4943C29.0735 33.5153 26.4985 34.8917 23.6952 35.4493C20.8919 36.0069 17.9861 35.7208 15.3455 34.627C12.7048 33.5332 10.4478 31.6809 8.85986 29.3043C7.27192 26.9278 6.42435 24.1338 6.42435 21.2755C6.4286 17.4441 7.95253 13.7708 10.6618 11.0615C13.371 8.35224 17.0444 6.82831 20.8758 6.82406ZM20.8758 0.401184C16.7473 0.401184 12.7114 1.62544 9.27866 3.91915C5.84589 6.21285 3.17037 9.47298 1.59044 13.2873C0.0105092 17.1016 -0.402872 21.2987 0.402569 25.3479C1.20801 29.3971 3.1961 33.1166 6.11543 36.0359C9.03476 38.9553 12.7542 40.9433 16.8034 41.7488C20.8527 42.5542 25.0498 42.1409 28.8641 40.5609C32.6784 38.981 35.9385 36.3055 38.2322 32.8727C40.5259 29.4399 41.7502 25.4041 41.7502 21.2755C41.7502 15.7393 39.5509 10.4298 35.6362 6.51514C31.7215 2.60044 26.412 0.401184 20.8758 0.401184V0.401184Z" fill="#F7931E"/>
    <path d="M21.0363 36.0482C12.921 36.0482 5.6985 32.872 1.09009 27.9361C2.47096 32.0308 5.0886 35.596 8.5818 38.1398C12.075 40.6837 16.2716 42.0807 20.5925 42.1381C24.9134 42.1956 29.1456 40.9106 32.7052 38.4605C36.2648 36.0105 38.9763 32.5161 40.4655 28.4595C35.8539 33.0968 28.8594 36.0482 21.0363 36.0482Z" fill="#F15A24"/>
    <g filter="url(#filter0_d_122_1597)">
        <path fill-rule="evenodd" clip-rule="evenodd" d="M13.376 20.3439V24.3439C13.376 25.1739 14.046 25.8439 14.876 25.8439C15.706 25.8439 16.376 25.1739 16.376 24.3439V20.3439C16.376 19.5139 15.706 18.8439 14.876 18.8439C14.046 18.8439 13.376 19.5139 13.376 20.3439ZM19.376 20.3439V24.3439C19.376 25.1739 20.046 25.8439 20.876 25.8439C21.706 25.8439 22.376 25.1739 22.376 24.3439V20.3439C22.376 19.5139 21.706 18.8439 20.876 18.8439C20.046 18.8439 19.376 19.5139 19.376 20.3439ZM12.876 30.8439H28.876C29.706 30.8439 30.376 30.1739 30.376 29.3439C30.376 28.5139 29.706 27.8439 28.876 27.8439H12.876C12.046 27.8439 11.376 28.5139 11.376 29.3439C11.376 30.1739 12.046 30.8439 12.876 30.8439ZM25.376 20.3439V24.3439C25.376 25.1739 26.046 25.8439 26.876 25.8439C27.706 25.8439 28.376 25.1739 28.376 24.3439V20.3439C28.376 19.5139 27.706 18.8439 26.876 18.8439C26.046 18.8439 25.376 19.5139 25.376 20.3439ZM19.946 10.3339L12.046 14.4939C11.636 14.7039 11.376 15.1339 11.376 15.5939C11.376 16.2839 11.936 16.8439 12.626 16.8439H29.136C29.816 16.8439 30.376 16.2839 30.376 15.5939C30.376 15.1339 30.116 14.7039 29.706 14.4939L21.806 10.3339C21.226 10.0239 20.526 10.0239 19.946 10.3339Z" fill="white"/>
    </g>
    <g style="mix-blend-mode:soft-light">
        <path d="M17.3434 15.8161C18.4075 15.8161 19.2702 14.9534 19.2702 13.8892C19.2702 12.8251 18.4075 11.9624 17.3434 11.9624C16.2792 11.9624 15.4165 12.8251 15.4165 13.8892C15.4165 14.9534 16.2792 15.8161 17.3434 15.8161Z" fill="white"/>
    </g>
    <g style="mix-blend-mode:soft-light">
        <path d="M20.2337 16.4584C20.7658 16.4584 21.1971 16.027 21.1971 15.495C21.1971 14.9629 20.7658 14.5315 20.2337 14.5315C19.7016 14.5315 19.2703 14.9629 19.2703 15.495C19.2703 16.027 19.7016 16.4584 20.2337 16.4584Z" fill="white"/>
    </g>
    <defs>
        <filter id="filter0_d_122_1597" x="11.376" y="10.1014" width="19" height="21.7425" filterUnits="userSpaceOnUse" color-interpolation-filters="sRGB">
            <feFlood flood-opacity="0" result="BackgroundImageFix"/>
            <feColorMatrix in="SourceAlpha" type="matrix" values="0 0 0 0 0 0 0 0 0 0 0 0 0 0 0 0 0 0 127 0" result="hardAlpha"/>
            <feOffset dy="1"/>
            <feComposite in2="hardAlpha" operator="out"/>
            <feColorMatrix type="matrix" values="0 0 0 0 0.8375 0 0 0 0 0.104688 0 0 0 0 0.132738 0 0 0 1 0"/>
            <feBlend mode="normal" in2="BackgroundImageFix" result="effect1_dropShadow_122_1597"/>
            <feBlend mode="normal" in="SourceGraphic" in2="effect1_dropShadow_122_1597" result="shape"/>
        </filter>
    </defs>
</svg>
