<svg width="545" height="168" viewBox="0 0 545 168" fill="none" xmlns="http://www.w3.org/2000/svg">
    <path d="M7.868 13.732H2.968L2.002 16H0.126L4.536 6.2H6.328L10.752 16H8.848L7.868 13.732ZM7.266 12.304L5.418 8.02L3.584 12.304H7.266ZM15.1668 13.004H13.8088V16H12.0588V8.524H13.8088V11.548H15.2088L17.4208 8.524H19.2968L16.5808 12.122L19.4788 16H17.4208L15.1668 13.004ZM26.5394 10.008H23.9214V16H22.1714V10.008H19.5394V8.524H26.5394V10.008ZM27.8088 8.524H29.5588V13.452L33.6888 8.524H35.2848V16H33.5348V11.072L29.4188 16H27.8088V8.524ZM43.0569 12.108C43.9809 12.388 44.4429 12.9853 44.4429 13.9C44.4429 14.572 44.1909 15.09 43.6869 15.454C43.1829 15.818 42.4362 16 41.4469 16H37.6389V8.524H41.2929C42.2076 8.524 42.9216 8.692 43.4349 9.028C43.9482 9.364 44.2049 9.84 44.2049 10.456C44.2049 10.8387 44.1022 11.17 43.8969 11.45C43.7009 11.73 43.4209 11.9493 43.0569 12.108ZM39.3049 11.646H41.1389C42.0442 11.646 42.4969 11.3333 42.4969 10.708C42.4969 10.1013 42.0442 9.798 41.1389 9.798H39.3049V11.646ZM41.3069 14.726C42.2682 14.726 42.7489 14.4133 42.7489 13.788C42.7489 13.4613 42.6369 13.2187 42.4129 13.06C42.1889 12.892 41.8389 12.808 41.3629 12.808H39.3049V14.726H41.3069ZM46.3069 8.524H48.0569V11.562H51.8229V8.524H53.5729V16H51.8229V13.046H48.0569V16H46.3069V8.524ZM58.7042 8.44C59.8055 8.44 60.6455 8.706 61.2242 9.238C61.8122 9.76067 62.1062 10.554 62.1062 11.618V16H60.4542V15.09C60.2395 15.4167 59.9315 15.6687 59.5302 15.846C59.1382 16.014 58.6622 16.098 58.1022 16.098C57.5422 16.098 57.0522 16.0047 56.6322 15.818C56.2122 15.622 55.8855 15.356 55.6522 15.02C55.4282 14.6747 55.3162 14.2873 55.3162 13.858C55.3162 13.186 55.5635 12.6493 56.0582 12.248C56.5622 11.8373 57.3509 11.632 58.4242 11.632H60.3562V11.52C60.3562 10.9973 60.1975 10.596 59.8802 10.316C59.5722 10.036 59.1102 9.896 58.4942 9.896C58.0742 9.896 57.6589 9.96133 57.2482 10.092C56.8469 10.2227 56.5062 10.4047 56.2262 10.638L55.5402 9.364C55.9322 9.06533 56.4035 8.83667 56.9542 8.678C57.5049 8.51933 58.0882 8.44 58.7042 8.44ZM58.4662 14.824C58.9049 14.824 59.2922 14.726 59.6282 14.53C59.9735 14.3247 60.2162 14.0353 60.3562 13.662V12.794H58.5502C57.5422 12.794 57.0382 13.1253 57.0382 13.788C57.0382 14.1053 57.1642 14.3573 57.4162 14.544C57.6682 14.7307 58.0182 14.824 58.4662 14.824ZM70.5857 8.524V16H69.0177V13.746H67.0437L65.5177 16H63.6417L65.4057 13.508C64.8644 13.3213 64.449 13.0367 64.1597 12.654C63.8797 12.262 63.7397 11.7813 63.7397 11.212C63.7397 10.3533 64.043 9.69067 64.6497 9.224C65.2564 8.75733 66.0917 8.524 67.1557 8.524H70.5857ZM67.2117 9.994C66.0824 9.994 65.5177 10.4187 65.5177 11.268C65.5177 12.108 66.0637 12.528 67.1557 12.528H69.0177V9.994H67.2117ZM81.2748 12.108C81.7415 12.2387 82.1008 12.4533 82.3528 12.752C82.6141 13.0413 82.7448 13.3913 82.7448 13.802C82.7448 14.2593 82.5908 14.6653 82.2828 15.02C81.9748 15.3653 81.5501 15.636 81.0088 15.832C80.4675 16.028 79.8515 16.126 79.1608 16.126C78.5821 16.126 78.0175 16.0607 77.4668 15.93C76.9161 15.79 76.4168 15.594 75.9688 15.342L76.4728 14.04C76.8368 14.2453 77.2475 14.404 77.7048 14.516C78.1621 14.628 78.6195 14.684 79.0768 14.684C79.6648 14.684 80.1221 14.5953 80.4488 14.418C80.7848 14.2313 80.9528 13.9793 80.9528 13.662C80.9528 13.3727 80.8221 13.1487 80.5608 12.99C80.3088 12.8313 79.9495 12.752 79.4828 12.752H78.0268V11.576H79.3428C79.7815 11.576 80.1221 11.5013 80.3648 11.352C80.6168 11.2027 80.7428 10.9927 80.7428 10.722C80.7428 10.4513 80.5935 10.2367 80.2948 10.078C79.9961 9.91933 79.5855 9.84 79.0628 9.84C78.3161 9.84 77.5275 10.022 76.6968 10.386L76.2488 9.098C77.2288 8.64067 78.2181 8.412 79.2168 8.412C79.8515 8.412 80.4208 8.50067 80.9248 8.678C81.4288 8.846 81.8208 9.08867 82.1008 9.406C82.3901 9.714 82.5348 10.0687 82.5348 10.47C82.5348 10.834 82.4228 11.1607 82.1988 11.45C81.9748 11.73 81.6668 11.9493 81.2748 12.108ZM87.3468 8.44C88.4481 8.44 89.2881 8.706 89.8668 9.238C90.4548 9.76067 90.7488 10.554 90.7488 11.618V16H89.0968V15.09C88.8821 15.4167 88.5741 15.6687 88.1728 15.846C87.7808 16.014 87.3048 16.098 86.7448 16.098C86.1848 16.098 85.6948 16.0047 85.2748 15.818C84.8548 15.622 84.5281 15.356 84.2948 15.02C84.0708 14.6747 83.9588 14.2873 83.9588 13.858C83.9588 13.186 84.2061 12.6493 84.7008 12.248C85.2048 11.8373 85.9934 11.632 87.0668 11.632H88.9988V11.52C88.9988 10.9973 88.8401 10.596 88.5228 10.316C88.2148 10.036 87.7528 9.896 87.1368 9.896C86.7168 9.896 86.3014 9.96133 85.8908 10.092C85.4894 10.2227 85.1488 10.4047 84.8688 10.638L84.1828 9.364C84.5748 9.06533 85.0461 8.83667 85.5968 8.678C86.1474 8.51933 86.7308 8.44 87.3468 8.44ZM87.1088 14.824C87.5474 14.824 87.9348 14.726 88.2708 14.53C88.6161 14.3247 88.8588 14.0353 88.9988 13.662V12.794H87.1928C86.1848 12.794 85.6808 13.1253 85.6808 13.788C85.6808 14.1053 85.8068 14.3573 86.0588 14.544C86.3108 14.7307 86.6608 14.824 87.1088 14.824ZM100.894 14.516V17.666H99.2563V16H93.4883V17.666H91.8643V14.516H92.2143C92.6903 14.4973 93.0123 14.194 93.1803 13.606C93.3576 13.0087 93.4743 12.1687 93.5303 11.086L93.6283 8.524H99.7883V14.516H100.894ZM95.1263 11.212C95.0889 12.0707 95.0189 12.7707 94.9163 13.312C94.8136 13.8533 94.6269 14.2547 94.3563 14.516H98.0383V10.008H95.1683L95.1263 11.212ZM105.243 8.44C106.345 8.44 107.185 8.706 107.763 9.238C108.351 9.76067 108.645 10.554 108.645 11.618V16H106.993V15.09C106.779 15.4167 106.471 15.6687 106.069 15.846C105.677 16.014 105.201 16.098 104.641 16.098C104.081 16.098 103.591 16.0047 103.171 15.818C102.751 15.622 102.425 15.356 102.191 15.02C101.967 14.6747 101.855 14.2873 101.855 13.858C101.855 13.186 102.103 12.6493 102.597 12.248C103.101 11.8373 103.89 11.632 104.963 11.632H106.895V11.52C106.895 10.9973 106.737 10.596 106.419 10.316C106.111 10.036 105.649 9.896 105.033 9.896C104.613 9.896 104.198 9.96133 103.787 10.092C103.386 10.2227 103.045 10.4047 102.765 10.638L102.079 9.364C102.471 9.06533 102.943 8.83667 103.493 8.678C104.044 8.51933 104.627 8.44 105.243 8.44ZM105.005 14.824C105.444 14.824 105.831 14.726 106.167 14.53C106.513 14.3247 106.755 14.0353 106.895 13.662V12.794H105.089C104.081 12.794 103.577 13.1253 103.577 13.788C103.577 14.1053 103.703 14.3573 103.955 14.544C104.207 14.7307 104.557 14.824 105.005 14.824ZM117.153 8.524V16H115.403V13.102C114.684 13.4473 113.933 13.62 113.149 13.62C112.187 13.62 111.45 13.4007 110.937 12.962C110.423 12.514 110.167 11.8327 110.167 10.918V8.524H111.917V10.806C111.917 11.282 112.057 11.6367 112.337 11.87C112.617 12.1033 113.013 12.22 113.527 12.22C114.18 12.22 114.805 12.08 115.403 11.8V8.524H117.153ZM122.292 8.44C123.393 8.44 124.233 8.706 124.812 9.238C125.4 9.76067 125.694 10.554 125.694 11.618V16H124.042V15.09C123.827 15.4167 123.519 15.6687 123.118 15.846C122.726 16.014 122.25 16.098 121.69 16.098C121.13 16.098 120.64 16.0047 120.22 15.818C119.8 15.622 119.473 15.356 119.24 15.02C119.016 14.6747 118.904 14.2873 118.904 13.858C118.904 13.186 119.151 12.6493 119.646 12.248C120.15 11.8373 120.939 11.632 122.012 11.632H123.944V11.52C123.944 10.9973 123.785 10.596 123.468 10.316C123.16 10.036 122.698 9.896 122.082 9.896C121.662 9.896 121.247 9.96133 120.836 10.092C120.435 10.2227 120.094 10.4047 119.814 10.638L119.128 9.364C119.52 9.06533 119.991 8.83667 120.542 8.678C121.093 8.51933 121.676 8.44 122.292 8.44ZM122.054 14.824C122.493 14.824 122.88 14.726 123.216 14.53C123.561 14.3247 123.804 14.0353 123.944 13.662V12.794H122.138C121.13 12.794 120.626 13.1253 120.626 13.788C120.626 14.1053 120.752 14.3573 121.004 14.544C121.256 14.7307 121.606 14.824 122.054 14.824Z" fill="white"/>
    <path fill-rule="evenodd" clip-rule="evenodd" d="M146 18.5001C150.142 18.5001 153.5 15.1423 153.5 11.0001C153.5 6.85799 150.142 3.50012 146 3.50012C141.858 3.50012 138.5 6.85799 138.5 11.0001C138.5 15.1423 141.858 18.5001 146 18.5001Z" stroke="#EBEBF5" stroke-opacity="0.3" stroke-width="1.5" stroke-linecap="round" stroke-linejoin="round"/>
    <path d="M146 8.00012V11.0001" stroke="#EBEBF5" stroke-opacity="0.3" stroke-width="1.5" stroke-linecap="round" stroke-linejoin="round"/>
    <circle cx="146" cy="14" r="0.75" fill="#EBEBF5" fill-opacity="0.3"/>
    <rect y="129" width="30" height="4" rx="2" fill="#2C2D84"/>
    <path d="M51.524 130.89C52.112 131.077 52.5693 131.38 52.896 131.8C53.232 132.211 53.4 132.696 53.4 133.256C53.4 133.844 53.2087 134.357 52.826 134.796C52.4433 135.225 51.93 135.557 51.286 135.79C50.6513 136.023 49.956 136.14 49.2 136.14C48.5467 136.14 47.8887 136.051 47.226 135.874C46.5727 135.687 45.966 135.412 45.406 135.048L45.994 133.718C46.4233 134.007 46.8993 134.231 47.422 134.39C47.9447 134.539 48.4627 134.614 48.976 134.614C49.7133 134.614 50.3247 134.469 50.81 134.18C51.3047 133.891 51.552 133.494 51.552 132.99C51.552 132.561 51.3747 132.234 51.02 132.01C50.6653 131.786 50.1753 131.674 49.55 131.674H47.268V130.246H49.41C49.9513 130.246 50.376 130.134 50.684 129.91C50.992 129.686 51.146 129.383 51.146 129C51.146 128.543 50.936 128.188 50.516 127.936C50.1053 127.684 49.578 127.558 48.934 127.558C48.4953 127.558 48.0427 127.623 47.576 127.754C47.1093 127.875 46.6707 128.057 46.26 128.3L45.686 126.83C46.19 126.559 46.722 126.359 47.282 126.228C47.8513 126.088 48.416 126.018 48.976 126.018C49.704 126.018 50.3713 126.13 50.978 126.354C51.594 126.578 52.084 126.9 52.448 127.32C52.812 127.731 52.994 128.216 52.994 128.776C52.994 129.261 52.8633 129.686 52.602 130.05C52.3407 130.414 51.9813 130.694 51.524 130.89ZM58.0538 128.44C59.1551 128.44 59.9951 128.706 60.5738 129.238C61.1618 129.761 61.4558 130.554 61.4558 131.618V136H59.8038V135.09C59.5891 135.417 59.2811 135.669 58.8798 135.846C58.4878 136.014 58.0118 136.098 57.4518 136.098C56.8918 136.098 56.4018 136.005 55.9818 135.818C55.5618 135.622 55.2351 135.356 55.0018 135.02C54.7778 134.675 54.6658 134.287 54.6658 133.858C54.6658 133.186 54.9131 132.649 55.4078 132.248C55.9118 131.837 56.7005 131.632 57.7738 131.632H59.7058V131.52C59.7058 130.997 59.5471 130.596 59.2298 130.316C58.9218 130.036 58.4598 129.896 57.8438 129.896C57.4238 129.896 57.0085 129.961 56.5978 130.092C56.1965 130.223 55.8558 130.405 55.5758 130.638L54.8898 129.364C55.2818 129.065 55.7531 128.837 56.3038 128.678C56.8545 128.519 57.4378 128.44 58.0538 128.44ZM57.8158 134.824C58.2545 134.824 58.6418 134.726 58.9778 134.53C59.3231 134.325 59.5658 134.035 59.7058 133.662V132.794H57.8998C56.8918 132.794 56.3878 133.125 56.3878 133.788C56.3878 134.105 56.5138 134.357 56.7658 134.544C57.0178 134.731 57.3678 134.824 57.8158 134.824ZM69.0393 132.108C69.9633 132.388 70.4253 132.985 70.4253 133.9C70.4253 134.572 70.1733 135.09 69.6693 135.454C69.1653 135.818 68.4186 136 67.4293 136H63.6213V128.524H67.2753C68.19 128.524 68.904 128.692 69.4173 129.028C69.9306 129.364 70.1873 129.84 70.1873 130.456C70.1873 130.839 70.0846 131.17 69.8793 131.45C69.6833 131.73 69.4033 131.949 69.0393 132.108ZM65.2873 131.646H67.1213C68.0266 131.646 68.4793 131.333 68.4793 130.708C68.4793 130.101 68.0266 129.798 67.1213 129.798H65.2873V131.646ZM67.2893 134.726C68.2506 134.726 68.7313 134.413 68.7313 133.788C68.7313 133.461 68.6193 133.219 68.3953 133.06C68.1713 132.892 67.8213 132.808 67.3453 132.808H65.2873V134.726H67.2893ZM79.2893 132.304C79.2893 132.425 79.2799 132.598 79.2613 132.822H73.3953C73.4979 133.373 73.7639 133.811 74.1933 134.138C74.6319 134.455 75.1733 134.614 75.8173 134.614C76.6386 134.614 77.3153 134.343 77.8473 133.802L78.7853 134.88C78.4493 135.281 78.0246 135.585 77.5113 135.79C76.9979 135.995 76.4193 136.098 75.7753 136.098C74.9539 136.098 74.2306 135.935 73.6053 135.608C72.9799 135.281 72.4946 134.829 72.1493 134.25C71.8133 133.662 71.6453 132.999 71.6453 132.262C71.6453 131.534 71.8086 130.881 72.1353 130.302C72.4713 129.714 72.9333 129.257 73.5213 128.93C74.1093 128.603 74.7719 128.44 75.5093 128.44C76.2373 128.44 76.8859 128.603 77.4553 128.93C78.0339 129.247 78.4819 129.7 78.7993 130.288C79.1259 130.867 79.2893 131.539 79.2893 132.304ZM75.5093 129.84C74.9493 129.84 74.4733 130.008 74.0813 130.344C73.6986 130.671 73.4653 131.109 73.3813 131.66H77.6233C77.5486 131.119 77.3199 130.68 76.9373 130.344C76.5546 130.008 76.0786 129.84 75.5093 129.84ZM85.3473 128.44C86.0753 128.44 86.724 128.599 87.2933 128.916C87.872 129.233 88.3247 129.681 88.6513 130.26C88.978 130.839 89.1413 131.506 89.1413 132.262C89.1413 133.018 88.978 133.69 88.6513 134.278C88.3247 134.857 87.872 135.305 87.2933 135.622C86.724 135.939 86.0753 136.098 85.3473 136.098C84.3393 136.098 83.5413 135.762 82.9533 135.09V138.716H81.2033V128.524H82.8693V129.504C83.1587 129.149 83.5133 128.883 83.9333 128.706C84.3627 128.529 84.834 128.44 85.3473 128.44ZM85.1513 134.6C85.7953 134.6 86.3227 134.385 86.7333 133.956C87.1533 133.527 87.3633 132.962 87.3633 132.262C87.3633 131.562 87.1533 130.997 86.7333 130.568C86.3227 130.139 85.7953 129.924 85.1513 129.924C84.7313 129.924 84.3533 130.022 84.0173 130.218C83.6813 130.405 83.4153 130.675 83.2193 131.03C83.0233 131.385 82.9253 131.795 82.9253 132.262C82.9253 132.729 83.0233 133.139 83.2193 133.494C83.4153 133.849 83.6813 134.124 84.0173 134.32C84.3533 134.507 84.7313 134.6 85.1513 134.6ZM101.901 128.524V136H90.883V128.524H92.633V134.516H95.531V128.524H97.281V134.516H100.151V128.524H101.901ZM111.254 132.304C111.254 132.425 111.245 132.598 111.226 132.822H105.36C105.463 133.373 105.729 133.811 106.158 134.138C106.597 134.455 107.138 134.614 107.782 134.614C108.603 134.614 109.28 134.343 109.812 133.802L110.75 134.88C110.414 135.281 109.989 135.585 109.476 135.79C108.963 135.995 108.384 136.098 107.74 136.098C106.919 136.098 106.195 135.935 105.57 135.608C104.945 135.281 104.459 134.829 104.114 134.25C103.778 133.662 103.61 132.999 103.61 132.262C103.61 131.534 103.773 130.881 104.1 130.302C104.436 129.714 104.898 129.257 105.486 128.93C106.074 128.603 106.737 128.44 107.474 128.44C108.202 128.44 108.851 128.603 109.42 128.93C109.999 129.247 110.447 129.7 110.764 130.288C111.091 130.867 111.254 131.539 111.254 132.304ZM107.474 129.84C106.914 129.84 106.438 130.008 106.046 130.344C105.663 130.671 105.43 131.109 105.346 131.66H109.588C109.513 131.119 109.285 130.68 108.902 130.344C108.519 130.008 108.043 129.84 107.474 129.84ZM113.168 128.524H114.918V131.562H118.684V128.524H120.434V136H118.684V133.046H114.918V136H113.168V128.524ZM126.112 136.098C125.356 136.098 124.674 135.935 124.068 135.608C123.461 135.281 122.985 134.829 122.64 134.25C122.304 133.662 122.136 132.999 122.136 132.262C122.136 131.525 122.304 130.867 122.64 130.288C122.985 129.709 123.461 129.257 124.068 128.93C124.674 128.603 125.356 128.44 126.112 128.44C126.877 128.44 127.563 128.603 128.17 128.93C128.776 129.257 129.248 129.709 129.584 130.288C129.929 130.867 130.102 131.525 130.102 132.262C130.102 132.999 129.929 133.662 129.584 134.25C129.248 134.829 128.776 135.281 128.17 135.608C127.563 135.935 126.877 136.098 126.112 136.098ZM126.112 134.6C126.756 134.6 127.288 134.385 127.708 133.956C128.128 133.527 128.338 132.962 128.338 132.262C128.338 131.562 128.128 130.997 127.708 130.568C127.288 130.139 126.756 129.924 126.112 129.924C125.468 129.924 124.936 130.139 124.516 130.568C124.105 130.997 123.9 131.562 123.9 132.262C123.9 132.962 124.105 133.527 124.516 133.956C124.936 134.385 125.468 134.6 126.112 134.6Z" fill="#EBEBF5" fill-opacity="0.3"/>
    <path d="M49.004 152.2V162H47.184V153.726H45.112V152.2H49.004ZM58.34 152.2V153.418L54.532 162H52.586L56.268 153.74H52.418V155.406H50.724V152.2H58.34ZM62.7696 152.06C64.1136 152.06 65.1543 152.48 65.8916 153.32C66.6383 154.16 67.0116 155.364 67.0116 156.932C67.0116 158.033 66.8109 158.976 66.4096 159.76C66.0083 160.535 65.4436 161.127 64.7156 161.538C63.9969 161.939 63.1616 162.14 62.2096 162.14C61.7056 162.14 61.2296 162.089 60.7816 161.986C60.3429 161.874 59.9603 161.715 59.6336 161.51L60.3056 160.138C60.7909 160.455 61.4116 160.614 62.1676 160.614C63.1103 160.614 63.8476 160.325 64.3796 159.746C64.9116 159.167 65.1776 158.332 65.1776 157.24V157.226C64.8883 157.562 64.5196 157.819 64.0716 157.996C63.6236 158.164 63.1196 158.248 62.5596 158.248C61.9156 158.248 61.3369 158.127 60.8236 157.884C60.3103 157.632 59.9089 157.277 59.6196 156.82C59.3303 156.363 59.1856 155.835 59.1856 155.238C59.1856 154.603 59.3443 154.048 59.6616 153.572C59.9789 153.087 60.4083 152.713 60.9496 152.452C61.4909 152.191 62.0976 152.06 62.7696 152.06ZM62.9096 156.82C63.4976 156.82 63.9736 156.661 64.3376 156.344C64.7109 156.027 64.8976 155.625 64.8976 155.14C64.8976 154.664 64.7156 154.272 64.3516 153.964C63.9969 153.647 63.5023 153.488 62.8676 153.488C62.2983 153.488 61.8363 153.642 61.4816 153.95C61.1269 154.249 60.9496 154.65 60.9496 155.154C60.9496 155.667 61.1269 156.073 61.4816 156.372C61.8363 156.671 62.3123 156.82 62.9096 156.82ZM79.8821 154.524V162H78.2161V161.048C77.9361 161.384 77.5861 161.645 77.1661 161.832C76.7461 162.009 76.2934 162.098 75.8081 162.098C74.8094 162.098 74.0208 161.823 73.4421 161.272C72.8728 160.712 72.5881 159.886 72.5881 158.794V154.524H74.3381V158.556C74.3381 159.228 74.4874 159.732 74.7861 160.068C75.0941 160.395 75.5281 160.558 76.0881 160.558C76.7134 160.558 77.2081 160.367 77.5721 159.984C77.9454 159.592 78.1321 159.032 78.1321 158.304V154.524H79.8821ZM84.4834 162.098C83.8767 162.098 83.2841 162.019 82.7054 161.86C82.1267 161.701 81.6647 161.501 81.3194 161.258L81.9914 159.928C82.3274 160.152 82.7287 160.334 83.1954 160.474C83.6714 160.605 84.1381 160.67 84.5954 160.67C85.6407 160.67 86.1634 160.395 86.1634 159.844C86.1634 159.583 86.0281 159.401 85.7574 159.298C85.4961 159.195 85.0714 159.097 84.4834 159.004C83.8674 158.911 83.3634 158.803 82.9714 158.682C82.5887 158.561 82.2527 158.351 81.9634 158.052C81.6834 157.744 81.5434 157.319 81.5434 156.778C81.5434 156.069 81.8374 155.504 82.4254 155.084C83.0227 154.655 83.8254 154.44 84.8334 154.44C85.3467 154.44 85.8601 154.501 86.3734 154.622C86.8867 154.734 87.3067 154.888 87.6334 155.084L86.9614 156.414C86.3267 156.041 85.6127 155.854 84.8194 155.854C84.3061 155.854 83.9141 155.933 83.6434 156.092C83.3821 156.241 83.2514 156.442 83.2514 156.694C83.2514 156.974 83.3914 157.175 83.6714 157.296C83.9607 157.408 84.4041 157.515 85.0014 157.618C85.5987 157.711 86.0887 157.819 86.4714 157.94C86.8541 158.061 87.1807 158.267 87.4514 158.556C87.7314 158.845 87.8714 159.256 87.8714 159.788C87.8714 160.488 87.5681 161.048 86.9614 161.468C86.3547 161.888 85.5287 162.098 84.4834 162.098ZM96.4065 158.304C96.4065 158.425 96.3971 158.598 96.3785 158.822H90.5125C90.6151 159.373 90.8811 159.811 91.3105 160.138C91.7491 160.455 92.2905 160.614 92.9345 160.614C93.7558 160.614 94.4325 160.343 94.9645 159.802L95.9025 160.88C95.5665 161.281 95.1418 161.585 94.6285 161.79C94.1151 161.995 93.5365 162.098 92.8925 162.098C92.0711 162.098 91.3478 161.935 90.7225 161.608C90.0971 161.281 89.6118 160.829 89.2665 160.25C88.9305 159.662 88.7625 158.999 88.7625 158.262C88.7625 157.534 88.9258 156.881 89.2525 156.302C89.5885 155.714 90.0505 155.257 90.6385 154.93C91.2265 154.603 91.8891 154.44 92.6265 154.44C93.3545 154.44 94.0031 154.603 94.5725 154.93C95.1511 155.247 95.5991 155.7 95.9165 156.288C96.2431 156.867 96.4065 157.539 96.4065 158.304ZM92.6265 155.84C92.0665 155.84 91.5905 156.008 91.1985 156.344C90.8158 156.671 90.5825 157.109 90.4985 157.66H94.7405C94.6658 157.119 94.4371 156.68 94.0545 156.344C93.6718 156.008 93.1958 155.84 92.6265 155.84ZM99.7535 155.616C100.257 154.832 101.144 154.44 102.413 154.44V156.106C102.264 156.078 102.129 156.064 102.007 156.064C101.326 156.064 100.794 156.265 100.411 156.666C100.029 157.058 99.8375 157.627 99.8375 158.374V162H98.0875V154.524H99.7535V155.616ZM106.235 162.098C105.629 162.098 105.036 162.019 104.457 161.86C103.879 161.701 103.417 161.501 103.071 161.258L103.743 159.928C104.079 160.152 104.481 160.334 104.947 160.474C105.423 160.605 105.89 160.67 106.347 160.67C107.393 160.67 107.915 160.395 107.915 159.844C107.915 159.583 107.78 159.401 107.509 159.298C107.248 159.195 106.823 159.097 106.235 159.004C105.619 158.911 105.115 158.803 104.723 158.682C104.341 158.561 104.005 158.351 103.715 158.052C103.435 157.744 103.295 157.319 103.295 156.778C103.295 156.069 103.589 155.504 104.177 155.084C104.775 154.655 105.577 154.44 106.585 154.44C107.099 154.44 107.612 154.501 108.125 154.622C108.639 154.734 109.059 154.888 109.385 155.084L108.713 156.414C108.079 156.041 107.365 155.854 106.571 155.854C106.058 155.854 105.666 155.933 105.395 156.092C105.134 156.241 105.003 156.442 105.003 156.694C105.003 156.974 105.143 157.175 105.423 157.296C105.713 157.408 106.156 157.515 106.753 157.618C107.351 157.711 107.841 157.819 108.223 157.94C108.606 158.061 108.933 158.267 109.203 158.556C109.483 158.845 109.623 159.256 109.623 159.788C109.623 160.488 109.32 161.048 108.713 161.468C108.107 161.888 107.281 162.098 106.235 162.098Z" fill="white"/>
    <rect opacity="0.2" x="181" y="129" width="30" height="4" rx="2" fill="white"/>
    <path d="M231.908 136.14C230.909 136.14 230.009 135.925 229.206 135.496C228.403 135.057 227.773 134.455 227.316 133.69C226.859 132.915 226.63 132.052 226.63 131.1C226.63 130.148 226.859 129.289 227.316 128.524C227.773 127.749 228.403 127.147 229.206 126.718C230.009 126.279 230.909 126.06 231.908 126.06C232.907 126.06 233.807 126.279 234.61 126.718C235.413 127.147 236.043 127.745 236.5 128.51C236.957 129.275 237.186 130.139 237.186 131.1C237.186 132.061 236.957 132.925 236.5 133.69C236.043 134.455 235.413 135.057 234.61 135.496C233.807 135.925 232.907 136.14 231.908 136.14ZM231.908 134.544C232.561 134.544 233.149 134.399 233.672 134.11C234.195 133.811 234.605 133.401 234.904 132.878C235.203 132.346 235.352 131.753 235.352 131.1C235.352 130.447 235.203 129.859 234.904 129.336C234.605 128.804 234.195 128.393 233.672 128.104C233.149 127.805 232.561 127.656 231.908 127.656C231.255 127.656 230.667 127.805 230.144 128.104C229.621 128.393 229.211 128.804 228.912 129.336C228.613 129.859 228.464 130.447 228.464 131.1C228.464 131.753 228.613 132.346 228.912 132.878C229.211 133.401 229.621 133.811 230.144 134.11C230.667 134.399 231.255 134.544 231.908 134.544ZM242.404 136.098C241.63 136.098 240.934 135.935 240.318 135.608C239.702 135.281 239.222 134.829 238.876 134.25C238.531 133.662 238.358 132.999 238.358 132.262C238.358 131.525 238.531 130.867 238.876 130.288C239.222 129.709 239.698 129.257 240.304 128.93C240.92 128.603 241.62 128.44 242.404 128.44C243.142 128.44 243.786 128.589 244.336 128.888C244.896 129.187 245.316 129.616 245.596 130.176L244.252 130.96C244.038 130.615 243.767 130.358 243.44 130.19C243.123 130.013 242.773 129.924 242.39 129.924C241.737 129.924 241.196 130.139 240.766 130.568C240.337 130.988 240.122 131.553 240.122 132.262C240.122 132.971 240.332 133.541 240.752 133.97C241.182 134.39 241.728 134.6 242.39 134.6C242.773 134.6 243.123 134.516 243.44 134.348C243.767 134.171 244.038 133.909 244.252 133.564L245.596 134.348C245.307 134.908 244.882 135.342 244.322 135.65C243.772 135.949 243.132 136.098 242.404 136.098ZM252.991 130.008H250.373V136H248.623V130.008H245.991V128.524H252.991V130.008ZM257.046 128.44C258.147 128.44 258.987 128.706 259.566 129.238C260.154 129.761 260.448 130.554 260.448 131.618V136H258.796V135.09C258.581 135.417 258.273 135.669 257.872 135.846C257.48 136.014 257.004 136.098 256.444 136.098C255.884 136.098 255.394 136.005 254.974 135.818C254.554 135.622 254.227 135.356 253.994 135.02C253.77 134.675 253.658 134.287 253.658 133.858C253.658 133.186 253.905 132.649 254.4 132.248C254.904 131.837 255.693 131.632 256.766 131.632H258.698V131.52C258.698 130.997 258.539 130.596 258.222 130.316C257.914 130.036 257.452 129.896 256.836 129.896C256.416 129.896 256.001 129.961 255.59 130.092C255.189 130.223 254.848 130.405 254.568 130.638L253.882 129.364C254.274 129.065 254.745 128.837 255.296 128.678C255.847 128.519 256.43 128.44 257.046 128.44ZM256.808 134.824C257.247 134.824 257.634 134.726 257.97 134.53C258.315 134.325 258.558 134.035 258.698 133.662V132.794H256.892C255.884 132.794 255.38 133.125 255.38 133.788C255.38 134.105 255.506 134.357 255.758 134.544C256.01 134.731 256.36 134.824 256.808 134.824ZM269.39 128.524V136H267.64V130.008H264.84L264.77 131.492C264.723 132.481 264.63 133.312 264.49 133.984C264.359 134.647 264.13 135.174 263.804 135.566C263.486 135.949 263.048 136.14 262.488 136.14C262.226 136.14 261.904 136.089 261.522 135.986L261.606 134.516C261.736 134.544 261.848 134.558 261.942 134.558C262.296 134.558 262.562 134.418 262.74 134.138C262.917 133.849 263.029 133.508 263.076 133.116C263.132 132.715 263.178 132.145 263.216 131.408L263.342 128.524H269.39ZM275.078 136.098C274.322 136.098 273.641 135.935 273.034 135.608C272.428 135.281 271.952 134.829 271.606 134.25C271.27 133.662 271.102 132.999 271.102 132.262C271.102 131.525 271.27 130.867 271.606 130.288C271.952 129.709 272.428 129.257 273.034 128.93C273.641 128.603 274.322 128.44 275.078 128.44C275.844 128.44 276.53 128.603 277.136 128.93C277.743 129.257 278.214 129.709 278.55 130.288C278.896 130.867 279.068 131.525 279.068 132.262C279.068 132.999 278.896 133.662 278.55 134.25C278.214 134.829 277.743 135.281 277.136 135.608C276.53 135.935 275.844 136.098 275.078 136.098ZM275.078 134.6C275.722 134.6 276.254 134.385 276.674 133.956C277.094 133.527 277.304 132.962 277.304 132.262C277.304 131.562 277.094 130.997 276.674 130.568C276.254 130.139 275.722 129.924 275.078 129.924C274.434 129.924 273.902 130.139 273.482 130.568C273.072 130.997 272.866 131.562 272.866 132.262C272.866 132.962 273.072 133.527 273.482 133.956C273.902 134.385 274.434 134.6 275.078 134.6ZM284.199 136.098C283.424 136.098 282.729 135.935 282.113 135.608C281.497 135.281 281.016 134.829 280.671 134.25C280.326 133.662 280.153 132.999 280.153 132.262C280.153 131.525 280.326 130.867 280.671 130.288C281.016 129.709 281.492 129.257 282.099 128.93C282.715 128.603 283.415 128.44 284.199 128.44C284.936 128.44 285.58 128.589 286.131 128.888C286.691 129.187 287.111 129.616 287.391 130.176L286.047 130.96C285.832 130.615 285.562 130.358 285.235 130.19C284.918 130.013 284.568 129.924 284.185 129.924C283.532 129.924 282.99 130.139 282.561 130.568C282.132 130.988 281.917 131.553 281.917 132.262C281.917 132.971 282.127 133.541 282.547 133.97C282.976 134.39 283.522 134.6 284.185 134.6C284.568 134.6 284.918 134.516 285.235 134.348C285.562 134.171 285.832 133.909 286.047 133.564L287.391 134.348C287.102 134.908 286.677 135.342 286.117 135.65C285.566 135.949 284.927 136.098 284.199 136.098ZM292.684 130.988C293.636 130.988 294.364 131.203 294.868 131.632C295.381 132.061 295.638 132.668 295.638 133.452C295.638 134.273 295.358 134.908 294.798 135.356C294.238 135.804 293.449 136.023 292.432 136.014L288.932 136V128.524H290.682V130.974L292.684 130.988ZM292.278 134.726C292.791 134.735 293.183 134.628 293.454 134.404C293.725 134.18 293.86 133.853 293.86 133.424C293.86 133.004 293.729 132.696 293.468 132.5C293.207 132.304 292.81 132.201 292.278 132.192L290.682 132.178V134.712L292.278 134.726ZM309.025 134.516V137.666H307.387V136H301.619V137.666H299.995V134.516H300.345C300.821 134.497 301.143 134.194 301.311 133.606C301.488 133.009 301.605 132.169 301.661 131.086L301.759 128.524H307.919V134.516H309.025ZM303.257 131.212C303.22 132.071 303.15 132.771 303.047 133.312C302.944 133.853 302.758 134.255 302.487 134.516H306.169V130.008H303.299L303.257 131.212ZM317.364 128.524V136H315.614V130.008H312.814L312.744 131.492C312.697 132.481 312.604 133.312 312.464 133.984C312.333 134.647 312.105 135.174 311.778 135.566C311.461 135.949 311.022 136.14 310.462 136.14C310.201 136.14 309.879 136.089 309.496 135.986L309.58 134.516C309.711 134.544 309.823 134.558 309.916 134.558C310.271 134.558 310.537 134.418 310.714 134.138C310.891 133.849 311.003 133.508 311.05 133.116C311.106 132.715 311.153 132.145 311.19 131.408L311.316 128.524H317.364ZM326.035 128.524V136H324.467V133.746H322.493L320.967 136H319.091L320.855 133.508C320.314 133.321 319.898 133.037 319.609 132.654C319.329 132.262 319.189 131.781 319.189 131.212C319.189 130.353 319.492 129.691 320.099 129.224C320.706 128.757 321.541 128.524 322.605 128.524H326.035ZM322.661 129.994C321.532 129.994 320.967 130.419 320.967 131.268C320.967 132.108 321.513 132.528 322.605 132.528H324.467V129.994H322.661ZM336.724 132.108C337.191 132.239 337.55 132.453 337.802 132.752C338.063 133.041 338.194 133.391 338.194 133.802C338.194 134.259 338.04 134.665 337.732 135.02C337.424 135.365 336.999 135.636 336.458 135.832C335.917 136.028 335.301 136.126 334.61 136.126C334.031 136.126 333.467 136.061 332.916 135.93C332.365 135.79 331.866 135.594 331.418 135.342L331.922 134.04C332.286 134.245 332.697 134.404 333.154 134.516C333.611 134.628 334.069 134.684 334.526 134.684C335.114 134.684 335.571 134.595 335.898 134.418C336.234 134.231 336.402 133.979 336.402 133.662C336.402 133.373 336.271 133.149 336.01 132.99C335.758 132.831 335.399 132.752 334.932 132.752H333.476V131.576H334.792C335.231 131.576 335.571 131.501 335.814 131.352C336.066 131.203 336.192 130.993 336.192 130.722C336.192 130.451 336.043 130.237 335.744 130.078C335.445 129.919 335.035 129.84 334.512 129.84C333.765 129.84 332.977 130.022 332.146 130.386L331.698 129.098C332.678 128.641 333.667 128.412 334.666 128.412C335.301 128.412 335.87 128.501 336.374 128.678C336.878 128.846 337.27 129.089 337.55 129.406C337.839 129.714 337.984 130.069 337.984 130.47C337.984 130.834 337.872 131.161 337.648 131.45C337.424 131.73 337.116 131.949 336.724 132.108ZM342.796 128.44C343.897 128.44 344.737 128.706 345.316 129.238C345.904 129.761 346.198 130.554 346.198 131.618V136H344.546V135.09C344.331 135.417 344.023 135.669 343.622 135.846C343.23 136.014 342.754 136.098 342.194 136.098C341.634 136.098 341.144 136.005 340.724 135.818C340.304 135.622 339.977 135.356 339.744 135.02C339.52 134.675 339.408 134.287 339.408 133.858C339.408 133.186 339.655 132.649 340.15 132.248C340.654 131.837 341.443 131.632 342.516 131.632H344.448V131.52C344.448 130.997 344.289 130.596 343.972 130.316C343.664 130.036 343.202 129.896 342.586 129.896C342.166 129.896 341.751 129.961 341.34 130.092C340.939 130.223 340.598 130.405 340.318 130.638L339.632 129.364C340.024 129.065 340.495 128.837 341.046 128.678C341.597 128.519 342.18 128.44 342.796 128.44ZM342.558 134.824C342.997 134.824 343.384 134.726 343.72 134.53C344.065 134.325 344.308 134.035 344.448 133.662V132.794H342.642C341.634 132.794 341.13 133.125 341.13 133.788C341.13 134.105 341.256 134.357 341.508 134.544C341.76 134.731 342.11 134.824 342.558 134.824ZM353.782 132.108C354.706 132.388 355.168 132.985 355.168 133.9C355.168 134.572 354.916 135.09 354.412 135.454C353.908 135.818 353.161 136 352.172 136H348.364V128.524H352.018C352.932 128.524 353.646 128.692 354.16 129.028C354.673 129.364 354.93 129.84 354.93 130.456C354.93 130.839 354.827 131.17 354.622 131.45C354.426 131.73 354.146 131.949 353.782 132.108ZM350.03 131.646H351.864C352.769 131.646 353.222 131.333 353.222 130.708C353.222 130.101 352.769 129.798 351.864 129.798H350.03V131.646ZM352.032 134.726C352.993 134.726 353.474 134.413 353.474 133.788C353.474 133.461 353.362 133.219 353.138 133.06C352.914 132.892 352.564 132.808 352.088 132.808H350.03V134.726H352.032ZM364.031 132.304C364.031 132.425 364.022 132.598 364.003 132.822H358.137C358.24 133.373 358.506 133.811 358.935 134.138C359.374 134.455 359.915 134.614 360.559 134.614C361.381 134.614 362.057 134.343 362.589 133.802L363.527 134.88C363.191 135.281 362.767 135.585 362.253 135.79C361.74 135.995 361.161 136.098 360.517 136.098C359.696 136.098 358.973 135.935 358.347 135.608C357.722 135.281 357.237 134.829 356.891 134.25C356.555 133.662 356.387 132.999 356.387 132.262C356.387 131.534 356.551 130.881 356.877 130.302C357.213 129.714 357.675 129.257 358.263 128.93C358.851 128.603 359.514 128.44 360.251 128.44C360.979 128.44 361.628 128.603 362.197 128.93C362.776 129.247 363.224 129.7 363.541 130.288C363.868 130.867 364.031 131.539 364.031 132.304ZM360.251 129.84C359.691 129.84 359.215 130.008 358.823 130.344C358.441 130.671 358.207 131.109 358.123 131.66H362.365C362.291 131.119 362.062 130.68 361.679 130.344C361.297 130.008 360.821 129.84 360.251 129.84ZM370.09 128.44C370.818 128.44 371.466 128.599 372.036 128.916C372.614 129.233 373.067 129.681 373.394 130.26C373.72 130.839 373.884 131.506 373.884 132.262C373.884 133.018 373.72 133.69 373.394 134.278C373.067 134.857 372.614 135.305 372.036 135.622C371.466 135.939 370.818 136.098 370.09 136.098C369.082 136.098 368.284 135.762 367.696 135.09V138.716H365.946V128.524H367.612V129.504C367.901 129.149 368.256 128.883 368.676 128.706C369.105 128.529 369.576 128.44 370.09 128.44ZM369.894 134.6C370.538 134.6 371.065 134.385 371.476 133.956C371.896 133.527 372.106 132.962 372.106 132.262C372.106 131.562 371.896 130.997 371.476 130.568C371.065 130.139 370.538 129.924 369.894 129.924C369.474 129.924 369.096 130.022 368.76 130.218C368.424 130.405 368.158 130.675 367.962 131.03C367.766 131.385 367.668 131.795 367.668 132.262C367.668 132.729 367.766 133.139 367.962 133.494C368.158 133.849 368.424 134.124 368.76 134.32C369.096 134.507 369.474 134.6 369.894 134.6ZM386.643 128.524V136H375.625V128.524H377.375V134.516H380.273V128.524H382.023V134.516H384.893V128.524H386.643ZM395.996 132.304C395.996 132.425 395.987 132.598 395.968 132.822H390.102C390.205 133.373 390.471 133.811 390.9 134.138C391.339 134.455 391.88 134.614 392.524 134.614C393.346 134.614 394.022 134.343 394.554 133.802L395.492 134.88C395.156 135.281 394.732 135.585 394.218 135.79C393.705 135.995 393.126 136.098 392.482 136.098C391.661 136.098 390.938 135.935 390.312 135.608C389.687 135.281 389.202 134.829 388.856 134.25C388.52 133.662 388.352 132.999 388.352 132.262C388.352 131.534 388.516 130.881 388.842 130.302C389.178 129.714 389.64 129.257 390.228 128.93C390.816 128.603 391.479 128.44 392.216 128.44C392.944 128.44 393.593 128.603 394.162 128.93C394.741 129.247 395.189 129.7 395.506 130.288C395.833 130.867 395.996 131.539 395.996 132.304ZM392.216 129.84C391.656 129.84 391.18 130.008 390.788 130.344C390.406 130.671 390.172 131.109 390.088 131.66H394.33C394.256 131.119 394.027 130.68 393.644 130.344C393.262 130.008 392.786 129.84 392.216 129.84ZM397.91 128.524H399.66V131.562H403.426V128.524H405.176V136H403.426V133.046H399.66V136H397.91V128.524ZM407.522 128.524H409.272V133.452L413.402 128.524H414.998V136H413.248V131.072L409.132 136H407.522V128.524ZM423.666 128.524V136H422.098V133.746H420.124L418.598 136H416.722L418.486 133.508C417.944 133.321 417.529 133.037 417.24 132.654C416.96 132.262 416.82 131.781 416.82 131.212C416.82 130.353 417.123 129.691 417.73 129.224C418.336 128.757 419.172 128.524 420.236 128.524H423.666ZM420.292 129.994C419.162 129.994 418.598 130.419 418.598 131.268C418.598 132.108 419.144 132.528 420.236 132.528H422.098V129.994H420.292Z" fill="#EBEBF5" fill-opacity="0.3"/>
    <path d="M230.788 156.246C231.693 156.358 232.384 156.666 232.86 157.17C233.336 157.674 233.574 158.304 233.574 159.06C233.574 159.629 233.429 160.147 233.14 160.614C232.851 161.081 232.412 161.454 231.824 161.734C231.245 162.005 230.536 162.14 229.696 162.14C228.996 162.14 228.319 162.042 227.666 161.846C227.022 161.641 226.471 161.361 226.014 161.006L226.798 159.592C227.153 159.891 227.582 160.129 228.086 160.306C228.599 160.474 229.127 160.558 229.668 160.558C230.312 160.558 230.816 160.427 231.18 160.166C231.553 159.895 231.74 159.531 231.74 159.074C231.74 158.617 231.563 158.262 231.208 158.01C230.863 157.749 230.331 157.618 229.612 157.618H228.716V156.372L230.942 153.726H226.49V152.2H233.168V153.418L230.788 156.246ZM238.068 152.06C239.412 152.06 240.453 152.48 241.19 153.32C241.937 154.16 242.31 155.364 242.31 156.932C242.31 158.033 242.11 158.976 241.708 159.76C241.307 160.535 240.742 161.127 240.014 161.538C239.296 161.939 238.46 162.14 237.508 162.14C237.004 162.14 236.528 162.089 236.08 161.986C235.642 161.874 235.259 161.715 234.932 161.51L235.604 160.138C236.09 160.455 236.71 160.614 237.466 160.614C238.409 160.614 239.146 160.325 239.678 159.746C240.21 159.167 240.476 158.332 240.476 157.24V157.226C240.187 157.562 239.818 157.819 239.37 157.996C238.922 158.164 238.418 158.248 237.858 158.248C237.214 158.248 236.636 158.127 236.122 157.884C235.609 157.632 235.208 157.277 234.918 156.82C234.629 156.363 234.484 155.835 234.484 155.238C234.484 154.603 234.643 154.048 234.96 153.572C235.278 153.087 235.707 152.713 236.248 152.452C236.79 152.191 237.396 152.06 238.068 152.06ZM238.208 156.82C238.796 156.82 239.272 156.661 239.636 156.344C240.01 156.027 240.196 155.625 240.196 155.14C240.196 154.664 240.014 154.272 239.65 153.964C239.296 153.647 238.801 153.488 238.166 153.488C237.597 153.488 237.135 153.642 236.78 153.95C236.426 154.249 236.248 154.65 236.248 155.154C236.248 155.667 236.426 156.073 236.78 156.372C237.135 156.671 237.611 156.82 238.208 156.82ZM252.278 159.774H250.542V162H248.778V159.774H243.402V158.514L248.232 152.2H250.178L245.628 158.234H248.834V156.26H250.542V158.234H252.278V159.774ZM264.683 154.524V162H263.017V161.048C262.737 161.384 262.387 161.645 261.967 161.832C261.547 162.009 261.094 162.098 260.609 162.098C259.61 162.098 258.822 161.823 258.243 161.272C257.674 160.712 257.389 159.886 257.389 158.794V154.524H259.139V158.556C259.139 159.228 259.288 159.732 259.587 160.068C259.895 160.395 260.329 160.558 260.889 160.558C261.514 160.558 262.009 160.367 262.373 159.984C262.746 159.592 262.933 159.032 262.933 158.304V154.524H264.683ZM269.284 162.098C268.678 162.098 268.085 162.019 267.506 161.86C266.928 161.701 266.466 161.501 266.12 161.258L266.792 159.928C267.128 160.152 267.53 160.334 267.996 160.474C268.472 160.605 268.939 160.67 269.396 160.67C270.442 160.67 270.964 160.395 270.964 159.844C270.964 159.583 270.829 159.401 270.558 159.298C270.297 159.195 269.872 159.097 269.284 159.004C268.668 158.911 268.164 158.803 267.772 158.682C267.39 158.561 267.054 158.351 266.764 158.052C266.484 157.744 266.344 157.319 266.344 156.778C266.344 156.069 266.638 155.504 267.226 155.084C267.824 154.655 268.626 154.44 269.634 154.44C270.148 154.44 270.661 154.501 271.174 154.622C271.688 154.734 272.108 154.888 272.434 155.084L271.762 156.414C271.128 156.041 270.414 155.854 269.62 155.854C269.107 155.854 268.715 155.933 268.444 156.092C268.183 156.241 268.052 156.442 268.052 156.694C268.052 156.974 268.192 157.175 268.472 157.296C268.762 157.408 269.205 157.515 269.802 157.618C270.4 157.711 270.89 157.819 271.272 157.94C271.655 158.061 271.982 158.267 272.252 158.556C272.532 158.845 272.672 159.256 272.672 159.788C272.672 160.488 272.369 161.048 271.762 161.468C271.156 161.888 270.33 162.098 269.284 162.098ZM281.207 158.304C281.207 158.425 281.198 158.598 281.179 158.822H275.313C275.416 159.373 275.682 159.811 276.111 160.138C276.55 160.455 277.091 160.614 277.735 160.614C278.557 160.614 279.233 160.343 279.765 159.802L280.703 160.88C280.367 161.281 279.943 161.585 279.429 161.79C278.916 161.995 278.337 162.098 277.693 162.098C276.872 162.098 276.149 161.935 275.523 161.608C274.898 161.281 274.413 160.829 274.067 160.25C273.731 159.662 273.563 158.999 273.563 158.262C273.563 157.534 273.727 156.881 274.053 156.302C274.389 155.714 274.851 155.257 275.439 154.93C276.027 154.603 276.69 154.44 277.427 154.44C278.155 154.44 278.804 154.603 279.373 154.93C279.952 155.247 280.4 155.7 280.717 156.288C281.044 156.867 281.207 157.539 281.207 158.304ZM277.427 155.84C276.867 155.84 276.391 156.008 275.999 156.344C275.617 156.671 275.383 157.109 275.299 157.66H279.541C279.467 157.119 279.238 156.68 278.855 156.344C278.473 156.008 277.997 155.84 277.427 155.84ZM284.554 155.616C285.058 154.832 285.945 154.44 287.214 154.44V156.106C287.065 156.078 286.93 156.064 286.808 156.064C286.127 156.064 285.595 156.265 285.212 156.666C284.83 157.058 284.638 157.627 284.638 158.374V162H282.888V154.524H284.554V155.616ZM291.036 162.098C290.429 162.098 289.837 162.019 289.258 161.86C288.679 161.701 288.217 161.501 287.872 161.258L288.544 159.928C288.88 160.152 289.281 160.334 289.748 160.474C290.224 160.605 290.691 160.67 291.148 160.67C292.193 160.67 292.716 160.395 292.716 159.844C292.716 159.583 292.581 159.401 292.31 159.298C292.049 159.195 291.624 159.097 291.036 159.004C290.42 158.911 289.916 158.803 289.524 158.682C289.141 158.561 288.805 158.351 288.516 158.052C288.236 157.744 288.096 157.319 288.096 156.778C288.096 156.069 288.39 155.504 288.978 155.084C289.575 154.655 290.378 154.44 291.386 154.44C291.899 154.44 292.413 154.501 292.926 154.622C293.439 154.734 293.859 154.888 294.186 155.084L293.514 156.414C292.879 156.041 292.165 155.854 291.372 155.854C290.859 155.854 290.467 155.933 290.196 156.092C289.935 156.241 289.804 156.442 289.804 156.694C289.804 156.974 289.944 157.175 290.224 157.296C290.513 157.408 290.957 157.515 291.554 157.618C292.151 157.711 292.641 157.819 293.024 157.94C293.407 158.061 293.733 158.267 294.004 158.556C294.284 158.845 294.424 159.256 294.424 159.788C294.424 160.488 294.121 161.048 293.514 161.468C292.907 161.888 292.081 162.098 291.036 162.098Z" fill="white"/>
    <path d="M3.95446 42.994C5.33579 42.994 6.35779 43.2647 7.02046 43.806C7.68313 44.338 8.01446 45.066 8.01446 45.99C8.01446 46.578 7.86979 47.11 7.58046 47.586C7.29113 48.062 6.85713 48.44 6.27846 48.72C5.69979 49 4.98579 49.14 4.13646 49.14C3.43646 49.14 2.75979 49.042 2.10646 48.846C1.45313 48.6407 0.902461 48.3607 0.454461 48.006L1.22446 46.592C1.58846 46.8907 2.02246 47.1287 2.52646 47.306C3.03979 47.474 3.56713 47.558 4.10846 47.558C4.75246 47.558 5.25646 47.4273 5.62046 47.166C5.99379 46.8953 6.18046 46.5267 6.18046 46.06C6.18046 45.556 5.97979 45.178 5.57846 44.926C5.18646 44.6647 4.50979 44.534 3.54846 44.534H1.18246L1.68646 39.2H7.44046V40.726H3.22646L3.01646 42.994H3.95446ZM12.3682 39.06C13.7122 39.06 14.7529 39.48 15.4902 40.32C16.2369 41.16 16.6102 42.364 16.6102 43.932C16.6102 45.0333 16.4096 45.976 16.0082 46.76C15.6069 47.5347 15.0422 48.1273 14.3142 48.538C13.5956 48.9393 12.7602 49.14 11.8082 49.14C11.3042 49.14 10.8282 49.0887 10.3802 48.986C9.94158 48.874 9.55891 48.7153 9.23224 48.51L9.90424 47.138C10.3896 47.4553 11.0102 47.614 11.7662 47.614C12.7089 47.614 13.4462 47.3247 13.9782 46.746C14.5102 46.1673 14.7762 45.332 14.7762 44.24V44.226C14.4869 44.562 14.1182 44.8187 13.6702 44.996C13.2222 45.164 12.7182 45.248 12.1582 45.248C11.5142 45.248 10.9356 45.1267 10.4222 44.884C9.90891 44.632 9.50758 44.2773 9.21824 43.82C8.92891 43.3627 8.78424 42.8353 8.78424 42.238C8.78424 41.6033 8.94291 41.048 9.26024 40.572C9.57758 40.0867 10.0069 39.7133 10.5482 39.452C11.0896 39.1907 11.6962 39.06 12.3682 39.06ZM12.5082 43.82C13.0962 43.82 13.5722 43.6613 13.9362 43.344C14.3096 43.0267 14.4962 42.6253 14.4962 42.14C14.4962 41.664 14.3142 41.272 13.9502 40.964C13.5956 40.6467 13.1009 40.488 12.4662 40.488C11.8969 40.488 11.4349 40.642 11.0802 40.95C10.7256 41.2487 10.5482 41.65 10.5482 42.154C10.5482 42.6673 10.7256 43.0733 11.0802 43.372C11.4349 43.6707 11.9109 43.82 12.5082 43.82ZM26.5776 46.774H24.8416V49H23.0776V46.774H17.7016V45.514L22.5316 39.2H24.4776L19.9276 45.234H23.1336V43.26H24.8416V45.234H26.5776V46.774Z" fill="white"/>
    <path d="M38.386 39.2H40.178V46.158L45.442 39.2H47.136V49H45.344V42.056L40.08 49H38.386V39.2ZM55.6097 43.008H52.9917V49H51.2417V43.008H48.6097V41.524H55.6097V43.008ZM59.883 49.098C59.127 49.098 58.4457 48.9347 57.839 48.608C57.2323 48.2813 56.7563 47.8287 56.411 47.25C56.075 46.662 55.907 45.9993 55.907 45.262C55.907 44.5247 56.075 43.8667 56.411 43.288C56.7563 42.7093 57.2323 42.2567 57.839 41.93C58.4457 41.6033 59.127 41.44 59.883 41.44C60.6483 41.44 61.3343 41.6033 61.941 41.93C62.5477 42.2567 63.019 42.7093 63.355 43.288C63.7003 43.8667 63.873 44.5247 63.873 45.262C63.873 45.9993 63.7003 46.662 63.355 47.25C63.019 47.8287 62.5477 48.2813 61.941 48.608C61.3343 48.9347 60.6483 49.098 59.883 49.098ZM59.883 47.6C60.527 47.6 61.059 47.3853 61.479 46.956C61.899 46.5267 62.109 45.962 62.109 45.262C62.109 44.562 61.899 43.9973 61.479 43.568C61.059 43.1387 60.527 42.924 59.883 42.924C59.239 42.924 58.707 43.1387 58.287 43.568C57.8763 43.9973 57.671 44.562 57.671 45.262C57.671 45.962 57.8763 46.5267 58.287 46.956C58.707 47.3853 59.239 47.6 59.883 47.6ZM71.3418 43.008H67.3518V49H65.6018V41.524H71.3418V43.008ZM75.6193 49.098C74.8633 49.098 74.182 48.9347 73.5753 48.608C72.9687 48.2813 72.4927 47.8287 72.1473 47.25C71.8113 46.662 71.6433 45.9993 71.6433 45.262C71.6433 44.5247 71.8113 43.8667 72.1473 43.288C72.4927 42.7093 72.9687 42.2567 73.5753 41.93C74.182 41.6033 74.8633 41.44 75.6193 41.44C76.3847 41.44 77.0707 41.6033 77.6773 41.93C78.284 42.2567 78.7553 42.7093 79.0913 43.288C79.4367 43.8667 79.6093 44.5247 79.6093 45.262C79.6093 45.9993 79.4367 46.662 79.0913 47.25C78.7553 47.8287 78.284 48.2813 77.6773 48.608C77.0707 48.9347 76.3847 49.098 75.6193 49.098ZM75.6193 47.6C76.2633 47.6 76.7953 47.3853 77.2153 46.956C77.6353 46.5267 77.8453 45.962 77.8453 45.262C77.8453 44.562 77.6353 43.9973 77.2153 43.568C76.7953 43.1387 76.2633 42.924 75.6193 42.924C74.9753 42.924 74.4433 43.1387 74.0233 43.568C73.6127 43.9973 73.4073 44.562 73.4073 45.262C73.4073 45.962 73.6127 46.5267 74.0233 46.956C74.4433 47.3853 74.9753 47.6 75.6193 47.6Z" fill="#EBEBF5" fill-opacity="0.3"/>
    <rect opacity="0.2" y="85" width="545" height="15" rx="7.5" fill="white" fill-opacity="0.5"/>
    <rect y="85" width="221.593" height="15" rx="7.5" fill="#2C2D84"/>
</svg>
