<svg width="973" height="327" viewBox="0 0 973 327" fill="none" xmlns="http://www.w3.org/2000/svg">
    <line x1="583" y1="17" x2="526" y2="17" stroke="#3D3C41" stroke-width="4" stroke-linecap="round" stroke-linejoin="round"/>
    <path d="M623.544 10.6V19H622.368V11.644H617.496V19H616.308V10.6H623.544ZM629.343 12.58C629.959 12.58 630.511 12.716 630.999 12.988C631.487 13.26 631.867 13.64 632.139 14.128C632.419 14.616 632.559 15.18 632.559 15.82C632.559 16.46 632.419 17.028 632.139 17.524C631.867 18.012 631.487 18.392 630.999 18.664C630.511 18.936 629.959 19.072 629.343 19.072C628.887 19.072 628.467 18.984 628.083 18.808C627.707 18.632 627.387 18.376 627.123 18.04V21.328H625.971V12.64H627.075V13.648C627.331 13.296 627.655 13.032 628.047 12.856C628.439 12.672 628.871 12.58 629.343 12.58ZM629.247 18.064C629.655 18.064 630.019 17.972 630.339 17.788C630.667 17.596 630.923 17.332 631.107 16.996C631.299 16.652 631.395 16.26 631.395 15.82C631.395 15.38 631.299 14.992 631.107 14.656C630.923 14.312 630.667 14.048 630.339 13.864C630.019 13.68 629.655 13.588 629.247 13.588C628.847 13.588 628.483 13.684 628.155 13.876C627.835 14.06 627.579 14.32 627.387 14.656C627.203 14.992 627.111 15.38 627.111 15.82C627.111 16.26 627.203 16.652 627.387 16.996C627.571 17.332 627.827 17.596 628.155 17.788C628.483 17.972 628.847 18.064 629.247 18.064ZM636.957 19.072C636.325 19.072 635.757 18.932 635.253 18.652C634.749 18.372 634.353 17.988 634.065 17.5C633.785 17.004 633.645 16.444 633.645 15.82C633.645 15.196 633.785 14.64 634.065 14.152C634.353 13.656 634.749 13.272 635.253 13C635.757 12.72 636.325 12.58 636.957 12.58C637.589 12.58 638.153 12.72 638.649 13C639.153 13.272 639.545 13.656 639.825 14.152C640.113 14.64 640.257 15.196 640.257 15.82C640.257 16.444 640.113 17.004 639.825 17.5C639.545 17.988 639.153 18.372 638.649 18.652C638.153 18.932 637.589 19.072 636.957 19.072ZM636.957 18.064C637.365 18.064 637.729 17.972 638.049 17.788C638.377 17.596 638.633 17.332 638.817 16.996C639.001 16.652 639.093 16.26 639.093 15.82C639.093 15.38 639.001 14.992 638.817 14.656C638.633 14.312 638.377 14.048 638.049 13.864C637.729 13.68 637.365 13.588 636.957 13.588C636.549 13.588 636.181 13.68 635.853 13.864C635.533 14.048 635.277 14.312 635.085 14.656C634.901 14.992 634.809 15.38 634.809 15.82C634.809 16.26 634.901 16.652 635.085 16.996C635.277 17.332 635.533 17.596 635.853 17.788C636.181 17.972 636.549 18.064 636.957 18.064ZM650.981 12.64V19H641.921V12.64H643.073V17.992H645.881V12.64H647.033V17.992H649.829V12.64H650.981ZM658.678 12.64V19H657.526V13.648H654.79L654.718 15.064C654.678 15.92 654.602 16.636 654.49 17.212C654.378 17.78 654.194 18.236 653.938 18.58C653.682 18.924 653.326 19.096 652.87 19.096C652.662 19.096 652.426 19.06 652.162 18.988L652.234 18.016C652.338 18.04 652.434 18.052 652.522 18.052C652.842 18.052 653.082 17.912 653.242 17.632C653.402 17.352 653.506 17.02 653.554 16.636C653.602 16.252 653.646 15.704 653.686 14.992L653.794 12.64H658.678ZM663.773 14.8C664.573 14.808 665.185 14.992 665.609 15.352C666.033 15.712 666.245 16.22 666.245 16.876C666.245 17.564 666.013 18.096 665.549 18.472C665.093 18.84 664.437 19.02 663.581 19.012L660.905 19V12.64H662.057V14.788L663.773 14.8ZM667.193 12.64H668.345V19H667.193V12.64ZM663.497 18.136C664.017 18.144 664.409 18.04 664.673 17.824C664.945 17.608 665.081 17.288 665.081 16.864C665.081 16.448 664.949 16.144 664.685 15.952C664.421 15.76 664.025 15.66 663.497 15.652L662.057 15.628V18.124L663.497 18.136ZM670.585 12.64H671.737V17.272L675.637 12.64H676.681V19H675.529V14.368L671.641 19H670.585V12.64ZM673.561 11.812C672.969 11.812 672.509 11.672 672.181 11.392C671.853 11.104 671.685 10.692 671.677 10.156H672.457C672.465 10.452 672.565 10.692 672.757 10.876C672.957 11.052 673.221 11.14 673.549 11.14C673.877 11.14 674.141 11.052 674.341 10.876C674.541 10.692 674.645 10.452 674.653 10.156H675.457C675.449 10.692 675.277 11.104 674.941 11.392C674.605 11.672 674.145 11.812 673.561 11.812ZM689.471 12.64V19H688.427V14.356L686.051 18.28H685.547L683.195 14.344V19H682.139V12.64H683.327L685.823 16.936L688.391 12.64H689.471ZM697.462 15.856C697.462 15.944 697.454 16.06 697.438 16.204H692.278C692.35 16.764 692.594 17.216 693.01 17.56C693.434 17.896 693.958 18.064 694.582 18.064C695.342 18.064 695.954 17.808 696.418 17.296L697.054 18.04C696.766 18.376 696.406 18.632 695.974 18.808C695.55 18.984 695.074 19.072 694.546 19.072C693.874 19.072 693.278 18.936 692.758 18.664C692.238 18.384 691.834 17.996 691.546 17.5C691.266 17.004 691.126 16.444 691.126 15.82C691.126 15.204 691.262 14.648 691.534 14.152C691.814 13.656 692.194 13.272 692.674 13C693.162 12.72 693.71 12.58 694.318 12.58C694.926 12.58 695.466 12.72 695.938 13C696.418 13.272 696.79 13.656 697.054 14.152C697.326 14.648 697.462 15.216 697.462 15.856ZM694.318 13.552C693.766 13.552 693.302 13.72 692.926 14.056C692.558 14.392 692.342 14.832 692.278 15.376H696.358C696.294 14.84 696.074 14.404 695.698 14.068C695.33 13.724 694.87 13.552 694.318 13.552ZM702.021 19.072C701.373 19.072 700.793 18.932 700.281 18.652C699.777 18.372 699.381 17.988 699.093 17.5C698.805 17.004 698.661 16.444 698.661 15.82C698.661 15.196 698.805 14.64 699.093 14.152C699.381 13.656 699.777 13.272 700.281 13C700.793 12.72 701.373 12.58 702.021 12.58C702.597 12.58 703.109 12.696 703.557 12.928C704.013 13.16 704.365 13.496 704.613 13.936L703.737 14.5C703.537 14.196 703.289 13.968 702.993 13.816C702.697 13.664 702.369 13.588 702.009 13.588C701.593 13.588 701.217 13.68 700.881 13.864C700.553 14.048 700.293 14.312 700.101 14.656C699.917 14.992 699.825 15.38 699.825 15.82C699.825 16.268 699.917 16.664 700.101 17.008C700.293 17.344 700.553 17.604 700.881 17.788C701.217 17.972 701.593 18.064 702.009 18.064C702.369 18.064 702.697 17.988 702.993 17.836C703.289 17.684 703.537 17.456 703.737 17.152L704.613 17.704C704.365 18.144 704.013 18.484 703.557 18.724C703.109 18.956 702.597 19.072 702.021 19.072ZM711.005 12.64V19H709.973V16.984H708.125H707.993L706.601 19H705.365L706.913 16.828C706.433 16.684 706.065 16.448 705.809 16.12C705.553 15.784 705.425 15.368 705.425 14.872C705.425 14.144 705.673 13.592 706.169 13.216C706.665 12.832 707.349 12.64 708.221 12.64H711.005ZM706.601 14.908C706.601 15.332 706.733 15.648 706.997 15.856C707.269 16.056 707.673 16.156 708.209 16.156H709.973V13.648H708.257C707.153 13.648 706.601 14.068 706.601 14.908ZM720.045 17.992V20.524H718.953V19H713.253V12.64H714.405V17.992H717.885V12.64H719.037V17.992H720.045Z" fill="white"/>
    <path d="M771.654 19.104V22.198H770.688V20H762.134L762.12 22.198H761.154L761.168 19.104H761.658C762.302 19.0667 762.75 18.558 763.002 17.578C763.254 16.5887 763.408 15.1887 763.464 13.378L763.576 10.2H770.184V19.104H771.654ZM764.388 13.476C764.341 14.9693 764.225 16.2013 764.038 17.172C763.861 18.1333 763.557 18.7773 763.128 19.104H769.162V11.096H764.472L764.388 13.476ZM779.764 16.626H773.604C773.66 17.3913 773.954 18.012 774.486 18.488C775.018 18.9547 775.69 19.188 776.502 19.188C776.959 19.188 777.379 19.1087 777.762 18.95C778.145 18.782 778.476 18.5393 778.756 18.222L779.316 18.866C778.989 19.258 778.579 19.5567 778.084 19.762C777.599 19.9673 777.062 20.07 776.474 20.07C775.718 20.07 775.046 19.9113 774.458 19.594C773.879 19.2673 773.427 18.8193 773.1 18.25C772.773 17.6807 772.61 17.0367 772.61 16.318C772.61 15.5993 772.764 14.9553 773.072 14.386C773.389 13.8167 773.819 13.3733 774.36 13.056C774.911 12.7387 775.527 12.58 776.208 12.58C776.889 12.58 777.501 12.7387 778.042 13.056C778.583 13.3733 779.008 13.8167 779.316 14.386C779.624 14.946 779.778 15.59 779.778 16.318L779.764 16.626ZM776.208 13.434C775.499 13.434 774.901 13.6627 774.416 14.12C773.94 14.568 773.669 15.156 773.604 15.884H778.826C778.761 15.156 778.485 14.568 778 14.12C777.524 13.6627 776.927 13.434 776.208 13.434ZM784.652 16.724H782.972V20H781.978V12.636H782.972V15.87H784.666L787.256 12.636H788.334L785.436 16.206L788.544 20H787.368L784.652 16.724ZM792.511 12.58C793.472 12.58 794.209 12.8227 794.723 13.308C795.236 13.784 795.493 14.4933 795.493 15.436V20H794.541V18.852C794.317 19.2347 793.985 19.5333 793.547 19.748C793.117 19.9627 792.604 20.07 792.007 20.07C791.185 20.07 790.532 19.874 790.047 19.482C789.561 19.09 789.319 18.572 789.319 17.928C789.319 17.3027 789.543 16.7987 789.991 16.416C790.448 16.0333 791.171 15.842 792.16 15.842H794.499V15.394C794.499 14.7593 794.321 14.2787 793.967 13.952C793.612 13.616 793.094 13.448 792.413 13.448C791.946 13.448 791.498 13.5273 791.069 13.686C790.639 13.8353 790.271 14.0453 789.963 14.316L789.515 13.574C789.888 13.2567 790.336 13.014 790.859 12.846C791.381 12.6687 791.932 12.58 792.511 12.58ZM792.16 19.286C792.721 19.286 793.201 19.16 793.603 18.908C794.004 18.6467 794.303 18.2733 794.499 17.788V16.584H792.189C790.929 16.584 790.299 17.0227 790.299 17.9C790.299 18.3293 790.462 18.67 790.789 18.922C791.115 19.1647 791.573 19.286 792.16 19.286ZM801.709 12.818C802.39 12.818 802.997 12.972 803.529 13.28C804.07 13.5787 804.49 14.0033 804.789 14.554C805.087 15.0953 805.237 15.716 805.237 16.416C805.237 17.1347 805.078 17.774 804.761 18.334C804.453 18.8847 804.019 19.314 803.459 19.622C802.899 19.93 802.255 20.084 801.527 20.084C800.304 20.084 799.357 19.6547 798.685 18.796C798.013 17.9373 797.677 16.752 797.677 15.24C797.677 13.6627 797.975 12.454 798.573 11.614C799.179 10.774 800.122 10.2047 801.401 9.906L804.705 9.15L804.873 10.06L801.765 10.774C800.71 11.0073 799.935 11.4227 799.441 12.02C798.946 12.608 798.675 13.4807 798.629 14.638C798.927 14.0687 799.343 13.6253 799.875 13.308C800.407 12.9813 801.018 12.818 801.709 12.818ZM801.555 19.258C802.068 19.258 802.525 19.1413 802.927 18.908C803.337 18.6653 803.655 18.3293 803.879 17.9C804.112 17.4707 804.229 16.9853 804.229 16.444C804.229 15.9027 804.117 15.4267 803.893 15.016C803.669 14.6053 803.351 14.288 802.941 14.064C802.539 13.8307 802.077 13.714 801.555 13.714C801.032 13.714 800.565 13.8307 800.155 14.064C799.753 14.288 799.436 14.6053 799.203 15.016C798.979 15.4267 798.867 15.9027 798.867 16.444C798.867 16.9853 798.979 17.4707 799.203 17.9C799.436 18.3293 799.758 18.6653 800.169 18.908C800.579 19.1413 801.041 19.258 801.555 19.258ZM811.161 12.58C811.852 12.58 812.477 12.7387 813.037 13.056C813.597 13.364 814.036 13.8027 814.353 14.372C814.67 14.9413 814.829 15.59 814.829 16.318C814.829 17.0553 814.67 17.7087 814.353 18.278C814.036 18.8473 813.597 19.2907 813.037 19.608C812.486 19.916 811.861 20.07 811.161 20.07C810.564 20.07 810.022 19.9487 809.537 19.706C809.061 19.454 808.669 19.09 808.361 18.614V22.716H807.367V12.636H808.319V14.092C808.618 13.6067 809.01 13.2333 809.495 12.972C809.99 12.7107 810.545 12.58 811.161 12.58ZM811.091 19.188C811.604 19.188 812.071 19.0713 812.491 18.838C812.911 18.5953 813.238 18.2547 813.471 17.816C813.714 17.3773 813.835 16.878 813.835 16.318C813.835 15.758 813.714 15.2633 813.471 14.834C813.238 14.3953 812.911 14.0547 812.491 13.812C812.071 13.5693 811.604 13.448 811.091 13.448C810.568 13.448 810.097 13.5693 809.677 13.812C809.266 14.0547 808.94 14.3953 808.697 14.834C808.464 15.2633 808.347 15.758 808.347 16.318C808.347 16.878 808.464 17.3773 808.697 17.816C808.94 18.2547 809.266 18.5953 809.677 18.838C810.097 19.0713 810.568 19.188 811.091 19.188ZM820.129 15.24C821.053 15.2493 821.753 15.4547 822.229 15.856C822.714 16.2573 822.957 16.836 822.957 17.592C822.957 18.376 822.695 18.978 822.173 19.398C821.659 19.818 820.913 20.0233 819.933 20.014L816.965 20V12.636H817.959V15.212L820.129 15.24ZM819.877 19.258C820.558 19.2673 821.071 19.132 821.417 18.852C821.771 18.5627 821.949 18.1427 821.949 17.592C821.949 17.0507 821.776 16.6493 821.431 16.388C821.085 16.1267 820.567 15.9913 819.877 15.982L817.959 15.954V19.23L819.877 19.258ZM834.524 19.104V20H827.65V19.286L831.724 15.296C832.237 14.792 832.582 14.358 832.76 13.994C832.946 13.6207 833.04 13.2473 833.04 12.874C833.04 12.2953 832.839 11.8473 832.438 11.53C832.046 11.2033 831.481 11.04 830.744 11.04C829.596 11.04 828.704 11.404 828.07 12.132L827.356 11.516C827.738 11.068 828.224 10.7227 828.812 10.48C829.409 10.2373 830.081 10.116 830.828 10.116C831.826 10.116 832.615 10.354 833.194 10.83C833.782 11.2967 834.076 11.9407 834.076 12.762C834.076 13.266 833.964 13.7513 833.74 14.218C833.516 14.6847 833.091 15.2213 832.466 15.828L829.134 19.104H834.524ZM839.64 20.084C838.884 20.084 838.207 19.8833 837.61 19.482C837.022 19.0807 836.56 18.5067 836.224 17.76C835.897 17.004 835.734 16.1173 835.734 15.1C835.734 14.0827 835.897 13.2007 836.224 12.454C836.56 11.698 837.022 11.1193 837.61 10.718C838.207 10.3167 838.884 10.116 839.64 10.116C840.396 10.116 841.068 10.3167 841.656 10.718C842.253 11.1193 842.72 11.698 843.056 12.454C843.392 13.2007 843.56 14.0827 843.56 15.1C843.56 16.1173 843.392 17.004 843.056 17.76C842.72 18.5067 842.253 19.0807 841.656 19.482C841.068 19.8833 840.396 20.084 839.64 20.084ZM839.64 19.16C840.209 19.16 840.709 19.0013 841.138 18.684C841.577 18.3667 841.917 17.9047 842.16 17.298C842.403 16.6913 842.524 15.9587 842.524 15.1C842.524 14.2413 842.403 13.5087 842.16 12.902C841.917 12.2953 841.577 11.8333 841.138 11.516C840.709 11.1987 840.209 11.04 839.64 11.04C839.071 11.04 838.567 11.1987 838.128 11.516C837.699 11.8333 837.363 12.2953 837.12 12.902C836.877 13.5087 836.756 14.2413 836.756 15.1C836.756 15.9587 836.877 16.6913 837.12 17.298C837.363 17.9047 837.699 18.3667 838.128 18.684C838.567 19.0013 839.071 19.16 839.64 19.16ZM851.668 19.104V20H844.794V19.286L848.868 15.296C849.381 14.792 849.727 14.358 849.904 13.994C850.091 13.6207 850.184 13.2473 850.184 12.874C850.184 12.2953 849.983 11.8473 849.582 11.53C849.19 11.2033 848.625 11.04 847.888 11.04C846.74 11.04 845.849 11.404 845.214 12.132L844.5 11.516C844.883 11.068 845.368 10.7227 845.956 10.48C846.553 10.2373 847.225 10.116 847.972 10.116C848.971 10.116 849.759 10.354 850.338 10.83C850.926 11.2967 851.22 11.9407 851.22 12.762C851.22 13.266 851.108 13.7513 850.884 14.218C850.66 14.6847 850.235 15.2213 849.61 15.828L846.278 19.104H851.668ZM855.649 10.2V20H854.641V11.096H852.331V10.2H855.649Z" fill="white"/>
    <path fill-rule="evenodd" clip-rule="evenodd" d="M869.75 11.5C869.75 10.8557 870.272 10.3334 870.917 10.3334H879.083C879.728 10.3334 880.25 10.8557 880.25 11.5V19.6667C880.25 20.311 879.728 20.8334 879.083 20.8334H870.917C870.272 20.8334 869.75 20.311 869.75 19.6667V11.5Z" stroke="#E95616" stroke-width="1.16667" stroke-linecap="round" stroke-linejoin="round"/>
    <path d="M877.333 9.16663V11.5" stroke="#E95616" stroke-width="1.16667" stroke-linecap="round" stroke-linejoin="round"/>
    <path d="M872.667 9.16663V11.5" stroke="#E95616" stroke-width="1.16667" stroke-linecap="round" stroke-linejoin="round"/>
    <path d="M869.75 13.8334H880.25" stroke="#E95616" stroke-width="1.16667" stroke-linecap="round" stroke-linejoin="round"/>
    <rect x="751.5" y="0.5" width="140" height="29" rx="3.5" stroke="#3D3C41"/>
    <path fill-rule="evenodd" clip-rule="evenodd" d="M937 16.1667C937.644 16.1667 938.167 15.6444 938.167 15C938.167 14.3557 937.644 13.8334 937 13.8334C936.356 13.8334 935.833 14.3557 935.833 15C935.833 15.6444 936.356 16.1667 937 16.1667Z" stroke="#E95616" stroke-width="1.16667" stroke-linecap="round" stroke-linejoin="round"/>
    <path fill-rule="evenodd" clip-rule="evenodd" d="M941.667 16.1667C942.311 16.1667 942.833 15.6444 942.833 15C942.833 14.3557 942.311 13.8334 941.667 13.8334C941.022 13.8334 940.5 14.3557 940.5 15C940.5 15.6444 941.022 16.1667 941.667 16.1667Z" stroke="#E95616" stroke-width="1.16667" stroke-linecap="round" stroke-linejoin="round"/>
    <path fill-rule="evenodd" clip-rule="evenodd" d="M932.333 16.1667C932.978 16.1667 933.5 15.6444 933.5 15C933.5 14.3557 932.978 13.8334 932.333 13.8334C931.689 13.8334 931.167 14.3557 931.167 15C931.167 15.6444 931.689 16.1667 932.333 16.1667Z" stroke="#E95616" stroke-width="1.16667" stroke-linecap="round" stroke-linejoin="round"/>
    <rect x="922.5" y="0.5" width="29" height="29" rx="3.5" stroke="#3D3C41"/>
    <path d="M10.67 13.97C11.5647 14.278 12.2613 14.762 12.76 15.422C13.2733 16.0673 13.53 16.8227 13.53 17.688C13.53 18.6267 13.222 19.4407 12.606 20.13C11.99 20.8193 11.154 21.3473 10.098 21.714C9.05667 22.0807 7.91267 22.264 6.666 22.264C5.61 22.264 4.554 22.132 3.498 21.868C2.45667 21.604 1.46667 21.2007 0.528 20.658L1.628 18.106C2.30267 18.5167 3.04333 18.832 3.85 19.052C4.67133 19.2573 5.47067 19.36 6.248 19.36C7.304 19.36 8.17667 19.1693 8.866 18.788C9.57 18.4067 9.922 17.8713 9.922 17.182C9.922 16.61 9.68 16.1773 9.196 15.884C8.72667 15.5907 8.08133 15.444 7.26 15.444H3.498V12.76H6.996C7.71467 12.76 8.272 12.6133 8.668 12.32C9.07867 12.0267 9.284 11.6233 9.284 11.11C9.284 10.5087 8.99067 10.0393 8.404 9.702C7.832 9.36467 7.09133 9.196 6.182 9.196C5.50733 9.196 4.81067 9.29133 4.092 9.482C3.37333 9.658 2.69133 9.92933 2.046 10.296L0.968 7.524C2.596 6.688 4.356 6.27 6.248 6.27C7.45067 6.27 8.558 6.446 9.57 6.798C10.582 7.15 11.3887 7.66333 11.99 8.338C12.5913 9.01267 12.892 9.79733 12.892 10.692C12.892 11.4253 12.694 12.078 12.298 12.65C11.902 13.222 11.3593 13.662 10.67 13.97ZM20.6855 9.988C22.5188 9.988 23.9268 10.428 24.9095 11.308C25.8922 12.1733 26.3835 13.486 26.3835 15.246V22H23.1715V20.526C22.5262 21.626 21.3235 22.176 19.5635 22.176C18.6542 22.176 17.8622 22.022 17.1875 21.714C16.5275 21.406 16.0215 20.9807 15.6695 20.438C15.3175 19.8953 15.1415 19.2793 15.1415 18.59C15.1415 17.49 15.5522 16.6247 16.3735 15.994C17.2095 15.3633 18.4928 15.048 20.2235 15.048H22.9515C22.9515 14.3 22.7242 13.728 22.2695 13.332C21.8148 12.9213 21.1328 12.716 20.2235 12.716C19.5928 12.716 18.9695 12.8187 18.3535 13.024C17.7522 13.2147 17.2388 13.4787 16.8135 13.816L15.5815 11.418C16.2268 10.9633 16.9968 10.6113 17.8915 10.362C18.8008 10.1127 19.7322 9.988 20.6855 9.988ZM20.4215 19.866C21.0082 19.866 21.5288 19.734 21.9835 19.47C22.4382 19.1913 22.7608 18.788 22.9515 18.26V17.05H20.5975C19.1895 17.05 18.4855 17.512 18.4855 18.436C18.4855 18.876 18.6542 19.228 18.9915 19.492C19.3435 19.7413 19.8202 19.866 20.4215 19.866ZM36.3388 9.988C37.4388 9.988 38.4362 10.2447 39.3308 10.758C40.2402 11.2567 40.9515 11.968 41.4648 12.892C41.9782 13.8013 42.2348 14.8647 42.2348 16.082C42.2348 17.2993 41.9782 18.37 41.4648 19.294C40.9515 20.2033 40.2402 20.9147 39.3308 21.428C38.4362 21.9267 37.4388 22.176 36.3388 22.176C34.8282 22.176 33.6402 21.6993 32.7748 20.746V26.268H29.3428V10.164H32.6208V11.528C33.4715 10.5013 34.7108 9.988 36.3388 9.988ZM35.7448 19.36C36.6248 19.36 37.3435 19.0667 37.9008 18.48C38.4728 17.8787 38.7588 17.0793 38.7588 16.082C38.7588 15.0847 38.4728 14.2927 37.9008 13.706C37.3435 13.1047 36.6248 12.804 35.7448 12.804C34.8648 12.804 34.1388 13.1047 33.5668 13.706C33.0095 14.2927 32.7308 15.0847 32.7308 16.082C32.7308 17.0793 33.0095 17.8787 33.5668 18.48C34.1388 19.0667 34.8648 19.36 35.7448 19.36ZM49.0449 9.988C50.8782 9.988 52.2862 10.428 53.2689 11.308C54.2515 12.1733 54.7429 13.486 54.7429 15.246V22H51.5309V20.526C50.8855 21.626 49.6829 22.176 47.9229 22.176C47.0135 22.176 46.2215 22.022 45.5469 21.714C44.8869 21.406 44.3809 20.9807 44.0289 20.438C43.6769 19.8953 43.5009 19.2793 43.5009 18.59C43.5009 17.49 43.9115 16.6247 44.7329 15.994C45.5689 15.3633 46.8522 15.048 48.5829 15.048H51.3109C51.3109 14.3 51.0835 13.728 50.6289 13.332C50.1742 12.9213 49.4922 12.716 48.5829 12.716C47.9522 12.716 47.3289 12.8187 46.7129 13.024C46.1115 13.2147 45.5982 13.4787 45.1729 13.816L43.9409 11.418C44.5862 10.9633 45.3562 10.6113 46.2509 10.362C47.1602 10.1127 48.0915 9.988 49.0449 9.988ZM48.7809 19.866C49.3675 19.866 49.8882 19.734 50.3429 19.47C50.7975 19.1913 51.1202 18.788 51.3109 18.26V17.05H48.9569C47.5489 17.05 46.8449 17.512 46.8449 18.436C46.8449 18.876 47.0135 19.228 47.3509 19.492C47.7029 19.7413 48.1795 19.866 48.7809 19.866ZM64.5662 10.978C65.6956 10.978 66.6856 11.2127 67.5362 11.682C68.3869 12.1367 69.0396 12.782 69.4942 13.618C69.9636 14.454 70.1982 15.422 70.1982 16.522C70.1982 17.6513 69.9196 18.656 69.3622 19.536C68.8196 20.4013 68.0569 21.076 67.0742 21.56C66.0916 22.0293 64.9769 22.264 63.7302 22.264C61.6622 22.264 60.0342 21.604 58.8462 20.284C57.6729 18.9493 57.0862 16.9987 57.0862 14.432C57.0862 12.056 57.5996 10.164 58.6262 8.756C59.6676 7.33333 61.2589 6.402 63.4002 5.962L69.0322 4.84L69.4942 7.788L64.5222 8.778C63.1729 9.042 62.1682 9.482 61.5082 10.098C60.8629 10.714 60.4816 11.5867 60.3642 12.716C60.8776 12.1587 61.4936 11.7333 62.2122 11.44C62.9309 11.132 63.7156 10.978 64.5662 10.978ZM63.7522 19.602C64.6322 19.602 65.3362 19.316 65.8642 18.744C66.4069 18.172 66.6782 17.446 66.6782 16.566C66.6782 15.6713 66.4069 14.96 65.8642 14.432C65.3362 13.904 64.6322 13.64 63.7522 13.64C62.8576 13.64 62.1389 13.904 61.5962 14.432C61.0536 14.96 60.7822 15.6713 60.7822 16.566C60.7822 17.4607 61.0609 18.194 61.6182 18.766C62.1756 19.3233 62.8869 19.602 63.7522 19.602ZM78.071 22.176C76.8243 22.176 75.7023 21.9193 74.705 21.406C73.7223 20.878 72.9523 20.152 72.395 19.228C71.8376 18.304 71.559 17.2553 71.559 16.082C71.559 14.9087 71.8376 13.86 72.395 12.936C72.9523 12.012 73.7223 11.2933 74.705 10.78C75.7023 10.252 76.8243 9.988 78.071 9.988C79.3176 9.988 80.4323 10.252 81.415 10.78C82.3976 11.2933 83.1676 12.012 83.725 12.936C84.2823 13.86 84.561 14.9087 84.561 16.082C84.561 17.2553 84.2823 18.304 83.725 19.228C83.1676 20.152 82.3976 20.878 81.415 21.406C80.4323 21.9193 79.3176 22.176 78.071 22.176ZM78.071 19.36C78.951 19.36 79.6696 19.0667 80.227 18.48C80.799 17.8787 81.085 17.0793 81.085 16.082C81.085 15.0847 80.799 14.2927 80.227 13.706C79.6696 13.1047 78.951 12.804 78.071 12.804C77.191 12.804 76.465 13.1047 75.893 13.706C75.321 14.2927 75.035 15.0847 75.035 16.082C75.035 17.0793 75.321 17.8787 75.893 18.48C76.465 19.0667 77.191 19.36 78.071 19.36ZM96.4358 12.98H92.4318V22H89.0218V12.98H85.0178V10.164H96.4358V12.98ZM102.863 9.988C104.697 9.988 106.105 10.428 107.087 11.308C108.07 12.1733 108.561 13.486 108.561 15.246V22H105.349V20.526C104.704 21.626 103.501 22.176 101.741 22.176C100.832 22.176 100.04 22.022 99.3652 21.714C98.7052 21.406 98.1992 20.9807 97.8472 20.438C97.4952 19.8953 97.3192 19.2793 97.3192 18.59C97.3192 17.49 97.7299 16.6247 98.5512 15.994C99.3872 15.3633 100.671 15.048 102.401 15.048H105.129C105.129 14.3 104.902 13.728 104.447 13.332C103.993 12.9213 103.311 12.716 102.401 12.716C101.771 12.716 101.147 12.8187 100.531 13.024C99.9299 13.2147 99.4166 13.4787 98.9912 13.816L97.7592 11.418C98.4046 10.9633 99.1746 10.6113 100.069 10.362C100.979 10.1127 101.91 9.988 102.863 9.988ZM102.599 19.866C103.186 19.866 103.707 19.734 104.161 19.47C104.616 19.1913 104.939 18.788 105.129 18.26V17.05H102.775C101.367 17.05 100.663 17.512 100.663 18.436C100.663 18.876 100.832 19.228 101.169 19.492C101.521 19.7413 101.998 19.866 102.599 19.866ZM111.543 10.164H114.953V14.784H120.101V10.164H123.533V22H120.101V17.578H114.953V22H111.543V10.164ZM132.362 22.176C131.115 22.176 129.993 21.9193 128.996 21.406C128.013 20.878 127.243 20.152 126.686 19.228C126.129 18.304 125.85 17.2553 125.85 16.082C125.85 14.9087 126.129 13.86 126.686 12.936C127.243 12.012 128.013 11.2933 128.996 10.78C129.993 10.252 131.115 9.988 132.362 9.988C133.609 9.988 134.723 10.252 135.706 10.78C136.689 11.2933 137.459 12.012 138.016 12.936C138.573 13.86 138.852 14.9087 138.852 16.082C138.852 17.2553 138.573 18.304 138.016 19.228C137.459 20.152 136.689 20.878 135.706 21.406C134.723 21.9193 133.609 22.176 132.362 22.176ZM132.362 19.36C133.242 19.36 133.961 19.0667 134.518 18.48C135.09 17.8787 135.376 17.0793 135.376 16.082C135.376 15.0847 135.09 14.2927 134.518 13.706C133.961 13.1047 133.242 12.804 132.362 12.804C131.482 12.804 130.756 13.1047 130.184 13.706C129.612 14.2927 129.326 15.0847 129.326 16.082C129.326 17.0793 129.612 17.8787 130.184 18.48C130.756 19.0667 131.482 19.36 132.362 19.36ZM152.987 22.176C151.74 22.176 150.618 21.9193 149.621 21.406C148.638 20.878 147.868 20.152 147.311 19.228C146.754 18.304 146.475 17.2553 146.475 16.082C146.475 14.9087 146.754 13.86 147.311 12.936C147.868 12.012 148.638 11.2933 149.621 10.78C150.618 10.252 151.74 9.988 152.987 9.988C154.234 9.988 155.348 10.252 156.331 10.78C157.314 11.2933 158.084 12.012 158.641 12.936C159.198 13.86 159.477 14.9087 159.477 16.082C159.477 17.2553 159.198 18.304 158.641 19.228C158.084 20.152 157.314 20.878 156.331 21.406C155.348 21.9193 154.234 22.176 152.987 22.176ZM152.987 19.36C153.867 19.36 154.586 19.0667 155.143 18.48C155.715 17.8787 156.001 17.0793 156.001 16.082C156.001 15.0847 155.715 14.2927 155.143 13.706C154.586 13.1047 153.867 12.804 152.987 12.804C152.107 12.804 151.381 13.1047 150.809 13.706C150.237 14.2927 149.951 15.0847 149.951 16.082C149.951 17.0793 150.237 17.8787 150.809 18.48C151.381 19.0667 152.107 19.36 152.987 19.36ZM173.608 10.164V22H170.176V12.98H165.248V22H161.838V10.164H173.608ZM186.842 12.98H182.838V22H179.428V12.98H175.424V10.164H186.842V12.98ZM188.671 10.164H192.081V17.204L197.845 10.164H200.991V22H197.581V14.96L191.839 22H188.671V10.164ZM209.505 17.512H207.723V22H204.291V10.164H207.723V14.762H209.571L212.783 10.164H216.435L212.299 15.84L216.721 22H212.673L209.505 17.512ZM223.585 22.176C222.338 22.176 221.216 21.9193 220.219 21.406C219.236 20.878 218.466 20.152 217.909 19.228C217.351 18.304 217.073 17.2553 217.073 16.082C217.073 14.9087 217.351 13.86 217.909 12.936C218.466 12.012 219.236 11.2933 220.219 10.78C221.216 10.252 222.338 9.988 223.585 9.988C224.831 9.988 225.946 10.252 226.929 10.78C227.911 11.2933 228.681 12.012 229.239 12.936C229.796 13.86 230.075 14.9087 230.075 16.082C230.075 17.2553 229.796 18.304 229.239 19.228C228.681 20.152 227.911 20.878 226.929 21.406C225.946 21.9193 224.831 22.176 223.585 22.176ZM223.585 19.36C224.465 19.36 225.183 19.0667 225.741 18.48C226.313 17.8787 226.599 17.0793 226.599 16.082C226.599 15.0847 226.313 14.2927 225.741 13.706C225.183 13.1047 224.465 12.804 223.585 12.804C222.705 12.804 221.979 13.1047 221.407 13.706C220.835 14.2927 220.549 15.0847 220.549 16.082C220.549 17.0793 220.835 17.8787 221.407 18.48C221.979 19.0667 222.705 19.36 223.585 19.36ZM232.435 10.164H235.845V17.204L241.609 10.164H244.755V22H241.345V14.96L235.603 22H232.435V10.164ZM238.375 8.888C235.794 8.888 234.496 7.75133 234.481 5.478H236.725C236.74 5.99133 236.879 6.39467 237.143 6.688C237.422 6.96667 237.825 7.106 238.353 7.106C238.881 7.106 239.284 6.96667 239.563 6.688C239.856 6.39467 240.003 5.99133 240.003 5.478H242.291C242.276 7.75133 240.971 8.888 238.375 8.888ZM248.054 10.164H251.464V14.784H256.612V10.164H260.044V22H256.612V17.578H251.464V22H248.054V10.164ZM268.874 22.176C267.627 22.176 266.505 21.9193 265.508 21.406C264.525 20.878 263.755 20.152 263.198 19.228C262.64 18.304 262.362 17.2553 262.362 16.082C262.362 14.9087 262.64 13.86 263.198 12.936C263.755 12.012 264.525 11.2933 265.508 10.78C266.505 10.252 267.627 9.988 268.874 9.988C270.12 9.988 271.235 10.252 272.218 10.78C273.2 11.2933 273.97 12.012 274.528 12.936C275.085 13.86 275.364 14.9087 275.364 16.082C275.364 17.2553 275.085 18.304 274.528 19.228C273.97 20.152 273.2 20.878 272.218 21.406C271.235 21.9193 270.12 22.176 268.874 22.176ZM268.874 19.36C269.754 19.36 270.472 19.0667 271.03 18.48C271.602 17.8787 271.888 17.0793 271.888 16.082C271.888 15.0847 271.602 14.2927 271.03 13.706C270.472 13.1047 269.754 12.804 268.874 12.804C267.994 12.804 267.268 13.1047 266.696 13.706C266.124 14.2927 265.838 15.0847 265.838 16.082C265.838 17.0793 266.124 17.8787 266.696 18.48C267.268 19.0667 267.994 19.36 268.874 19.36ZM286.766 15.818C288.16 16.2873 288.856 17.226 288.856 18.634C288.856 19.7047 288.453 20.5333 287.646 21.12C286.84 21.7067 285.637 22 284.038 22H277.724V10.164H283.774C285.256 10.164 286.414 10.4353 287.25 10.978C288.086 11.506 288.504 12.254 288.504 13.222C288.504 13.8087 288.35 14.3293 288.042 14.784C287.749 15.224 287.324 15.5687 286.766 15.818ZM280.87 15.026H283.466C284.669 15.026 285.27 14.6007 285.27 13.75C285.27 12.914 284.669 12.496 283.466 12.496H280.87V15.026ZM283.752 19.668C285.014 19.668 285.644 19.2353 285.644 18.37C285.644 17.9153 285.498 17.5853 285.204 17.38C284.911 17.16 284.449 17.05 283.818 17.05H280.87V19.668H283.752Z" fill="white"/>
    <path fill-rule="evenodd" clip-rule="evenodd" d="M309 21.5001C313.142 21.5001 316.5 18.1423 316.5 14.0001C316.5 9.85799 313.142 6.50012 309 6.50012C304.858 6.50012 301.5 9.85799 301.5 14.0001C301.5 18.1423 304.858 21.5001 309 21.5001Z" stroke="white" stroke-width="1.5" stroke-linecap="round" stroke-linejoin="round"/>
    <path d="M309 11.0001V14.0001" stroke="white" stroke-width="1.5" stroke-linecap="round" stroke-linejoin="round"/>
    <circle cx="309" cy="17" r="0.75" fill="white"/>
    <path d="M67 203.543C119.054 196.564 115.583 238.024 184.121 244.073C252.658 250.122 271.745 207.78 302.977 195.682C334.209 183.585 348.09 128.458 400.144 132.18C452.198 135.902 478.225 173.199 521.603 177.852C564.981 182.505 573.656 213.363 614.432 236.163C655.207 258.962 692.512 261.754 743.699 257.101C794.885 252.448 808.766 205.404 833.058 203.543C857.349 201.682 879.038 224.115 899.86 229.234C920.681 234.352 926.754 257.101 971 257.101" stroke="#3D3C41" stroke-width="4" stroke-linecap="round" stroke-linejoin="round"/>
    <path d="M7.42 73.104V74H0.546V73.286L4.62 69.296C5.13333 68.792 5.47867 68.358 5.656 67.994C5.84267 67.6207 5.936 67.2473 5.936 66.874C5.936 66.2953 5.73533 65.8473 5.334 65.53C4.942 65.2033 4.37733 65.04 3.64 65.04C2.492 65.04 1.60067 65.404 0.966 66.132L0.252 65.516C0.634667 65.068 1.12 64.7227 1.708 64.48C2.30533 64.2373 2.97733 64.116 3.724 64.116C4.72267 64.116 5.51133 64.354 6.09 64.83C6.678 65.2967 6.972 65.9407 6.972 66.762C6.972 67.266 6.86 67.7513 6.636 68.218C6.412 68.6847 5.98733 69.2213 5.362 69.828L2.03 73.104H7.42ZM12.6903 68.134C13.3343 68.134 13.9037 68.2553 14.3983 68.498C14.9023 68.7407 15.2943 69.086 15.5743 69.534C15.8543 69.9727 15.9943 70.486 15.9943 71.074C15.9943 71.6713 15.8497 72.1987 15.5603 72.656C15.271 73.1133 14.8697 73.468 14.3563 73.72C13.8523 73.9627 13.283 74.084 12.6483 74.084C11.351 74.084 10.357 73.6593 9.66634 72.81C8.97568 71.9513 8.63034 70.7427 8.63034 69.184C8.63034 68.092 8.81701 67.168 9.19034 66.412C9.56368 65.656 10.0863 65.0867 10.7583 64.704C11.4303 64.312 12.2143 64.116 13.1103 64.116C14.081 64.116 14.8557 64.2933 15.4343 64.648L15.0283 65.46C14.5617 65.152 13.927 64.998 13.1243 64.998C12.0417 64.998 11.1923 65.3433 10.5763 66.034C9.96034 66.7153 9.65234 67.7093 9.65234 69.016C9.65234 69.2493 9.66634 69.5153 9.69434 69.814C9.93701 69.282 10.3243 68.8713 10.8563 68.582C11.3883 68.2833 11.9997 68.134 12.6903 68.134ZM12.6063 73.23C13.3157 73.23 13.8897 73.0387 14.3283 72.656C14.7763 72.264 15.0003 71.746 15.0003 71.102C15.0003 70.458 14.7763 69.9447 14.3283 69.562C13.8897 69.1793 13.2923 68.988 12.5363 68.988C12.0417 68.988 11.603 69.0813 11.2203 69.268C10.847 69.4547 10.553 69.7113 10.3383 70.038C10.1237 70.3647 10.0163 70.7287 10.0163 71.13C10.0163 71.5033 10.1143 71.8487 10.3103 72.166C10.5157 72.4833 10.8143 72.74 11.2063 72.936C11.5983 73.132 12.065 73.23 12.6063 73.23ZM21.0676 74.084C20.3116 74.084 19.6349 73.8833 19.0376 73.482C18.4496 73.0807 17.9876 72.5067 17.6516 71.76C17.3249 71.004 17.1616 70.1173 17.1616 69.1C17.1616 68.0827 17.3249 67.2007 17.6516 66.454C17.9876 65.698 18.4496 65.1193 19.0376 64.718C19.6349 64.3167 20.3116 64.116 21.0676 64.116C21.8236 64.116 22.4956 64.3167 23.0836 64.718C23.6809 65.1193 24.1476 65.698 24.4836 66.454C24.8196 67.2007 24.9876 68.0827 24.9876 69.1C24.9876 70.1173 24.8196 71.004 24.4836 71.76C24.1476 72.5067 23.6809 73.0807 23.0836 73.482C22.4956 73.8833 21.8236 74.084 21.0676 74.084ZM21.0676 73.16C21.6369 73.16 22.1363 73.0013 22.5656 72.684C23.0043 72.3667 23.3449 71.9047 23.5876 71.298C23.8303 70.6913 23.9516 69.9587 23.9516 69.1C23.9516 68.2413 23.8303 67.5087 23.5876 66.902C23.3449 66.2953 23.0043 65.8333 22.5656 65.516C22.1363 65.1987 21.6369 65.04 21.0676 65.04C20.4983 65.04 19.9943 65.1987 19.5556 65.516C19.1263 65.8333 18.7903 66.2953 18.5476 66.902C18.3049 67.5087 18.1836 68.2413 18.1836 69.1C18.1836 69.9587 18.3049 70.6913 18.5476 71.298C18.7903 71.9047 19.1263 72.3667 19.5556 72.684C19.9943 73.0013 20.4983 73.16 21.0676 73.16ZM30.6031 69.506H28.3631V74H27.3551V64.2H28.3631V68.596H30.6031L33.9211 64.2H35.0411L31.4011 68.96L35.2511 74H34.0611L30.6031 69.506Z" fill="white"/>
    <path d="M7.42 145.104V146H0.546V145.286L4.62 141.296C5.13333 140.792 5.47867 140.358 5.656 139.994C5.84267 139.621 5.936 139.247 5.936 138.874C5.936 138.295 5.73533 137.847 5.334 137.53C4.942 137.203 4.37733 137.04 3.64 137.04C2.492 137.04 1.60067 137.404 0.966 138.132L0.252 137.516C0.634667 137.068 1.12 136.723 1.708 136.48C2.30533 136.237 2.97733 136.116 3.724 136.116C4.72267 136.116 5.51133 136.354 6.09 136.83C6.678 137.297 6.972 137.941 6.972 138.762C6.972 139.266 6.86 139.751 6.636 140.218C6.412 140.685 5.98733 141.221 5.362 141.828L2.03 145.104H7.42ZM15.377 145.104V146H8.50303V145.286L12.577 141.296C13.0904 140.792 13.4357 140.358 13.613 139.994C13.7997 139.621 13.893 139.247 13.893 138.874C13.893 138.295 13.6924 137.847 13.291 137.53C12.899 137.203 12.3344 137.04 11.597 137.04C10.449 137.04 9.5577 137.404 8.92303 138.132L8.20903 137.516C8.5917 137.068 9.07703 136.723 9.66503 136.48C10.2624 136.237 10.9344 136.116 11.681 136.116C12.6797 136.116 13.4684 136.354 14.047 136.83C14.635 137.297 14.929 137.941 14.929 138.762C14.929 139.266 14.817 139.751 14.593 140.218C14.369 140.685 13.9444 141.221 13.319 141.828L9.98703 145.104H15.377ZM20.4934 146.084C19.7374 146.084 19.0607 145.883 18.4634 145.482C17.8754 145.081 17.4134 144.507 17.0774 143.76C16.7507 143.004 16.5874 142.117 16.5874 141.1C16.5874 140.083 16.7507 139.201 17.0774 138.454C17.4134 137.698 17.8754 137.119 18.4634 136.718C19.0607 136.317 19.7374 136.116 20.4934 136.116C21.2494 136.116 21.9214 136.317 22.5094 136.718C23.1067 137.119 23.5734 137.698 23.9094 138.454C24.2454 139.201 24.4134 140.083 24.4134 141.1C24.4134 142.117 24.2454 143.004 23.9094 143.76C23.5734 144.507 23.1067 145.081 22.5094 145.482C21.9214 145.883 21.2494 146.084 20.4934 146.084ZM20.4934 145.16C21.0627 145.16 21.562 145.001 21.9914 144.684C22.43 144.367 22.7707 143.905 23.0134 143.298C23.256 142.691 23.3774 141.959 23.3774 141.1C23.3774 140.241 23.256 139.509 23.0134 138.902C22.7707 138.295 22.43 137.833 21.9914 137.516C21.562 137.199 21.0627 137.04 20.4934 137.04C19.924 137.04 19.42 137.199 18.9814 137.516C18.552 137.833 18.216 138.295 17.9734 138.902C17.7307 139.509 17.6094 140.241 17.6094 141.1C17.6094 141.959 17.7307 142.691 17.9734 143.298C18.216 143.905 18.552 144.367 18.9814 144.684C19.42 145.001 19.924 145.16 20.4934 145.16ZM30.0289 141.506H27.7889V146H26.7809V136.2H27.7889V140.596H30.0289L33.3469 136.2H34.4669L30.8269 140.96L34.6769 146H33.4869L30.0289 141.506Z" fill="white"/>
    <path d="M3.444 208.2V218H2.436V209.096H0.126V208.2H3.444ZM11.4006 212.862C12.0166 213.067 12.4879 213.375 12.8146 213.786C13.1506 214.197 13.3186 214.691 13.3186 215.27C13.3186 215.839 13.1646 216.339 12.8566 216.768C12.5486 217.188 12.1053 217.515 11.5266 217.748C10.9573 217.972 10.2853 218.084 9.51059 218.084C8.33459 218.084 7.41059 217.832 6.73859 217.328C6.06659 216.824 5.73059 216.138 5.73059 215.27C5.73059 214.682 5.88926 214.187 6.20659 213.786C6.53326 213.375 7.00459 213.067 7.62059 212.862C7.11659 212.666 6.73393 212.386 6.47259 212.022C6.21126 211.649 6.08059 211.21 6.08059 210.706C6.08059 209.913 6.38859 209.283 7.00459 208.816C7.62993 208.349 8.46526 208.116 9.51059 208.116C10.2013 208.116 10.8033 208.223 11.3166 208.438C11.8393 208.643 12.2453 208.942 12.5346 209.334C12.8239 209.726 12.9686 210.183 12.9686 210.706C12.9686 211.21 12.8333 211.649 12.5626 212.022C12.2919 212.386 11.9046 212.666 11.4006 212.862ZM7.08859 210.734C7.08859 211.275 7.30326 211.705 7.73259 212.022C8.16193 212.339 8.75459 212.498 9.51059 212.498C10.2666 212.498 10.8593 212.339 11.2886 212.022C11.7273 211.705 11.9466 211.28 11.9466 210.748C11.9466 210.197 11.7226 209.763 11.2746 209.446C10.8359 209.129 10.2479 208.97 9.51059 208.97C8.76393 208.97 8.17126 209.129 7.73259 209.446C7.30326 209.763 7.08859 210.193 7.08859 210.734ZM9.51059 217.23C10.3786 217.23 11.0553 217.053 11.5406 216.698C12.0353 216.343 12.2826 215.863 12.2826 215.256C12.2826 214.649 12.0353 214.173 11.5406 213.828C11.0553 213.473 10.3786 213.296 9.51059 213.296C8.65193 213.296 7.97526 213.473 7.48059 213.828C6.99526 214.173 6.75259 214.649 6.75259 215.256C6.75259 215.872 6.99526 216.357 7.48059 216.712C7.96593 217.057 8.64259 217.23 9.51059 217.23ZM18.6203 218.084C17.8643 218.084 17.1877 217.883 16.5903 217.482C16.0023 217.081 15.5403 216.507 15.2043 215.76C14.8777 215.004 14.7143 214.117 14.7143 213.1C14.7143 212.083 14.8777 211.201 15.2043 210.454C15.5403 209.698 16.0023 209.119 16.5903 208.718C17.1877 208.317 17.8643 208.116 18.6203 208.116C19.3763 208.116 20.0483 208.317 20.6363 208.718C21.2337 209.119 21.7003 209.698 22.0363 210.454C22.3723 211.201 22.5403 212.083 22.5403 213.1C22.5403 214.117 22.3723 215.004 22.0363 215.76C21.7003 216.507 21.2337 217.081 20.6363 217.482C20.0483 217.883 19.3763 218.084 18.6203 218.084ZM18.6203 217.16C19.1897 217.16 19.689 217.001 20.1183 216.684C20.557 216.367 20.8977 215.905 21.1403 215.298C21.383 214.691 21.5043 213.959 21.5043 213.1C21.5043 212.241 21.383 211.509 21.1403 210.902C20.8977 210.295 20.557 209.833 20.1183 209.516C19.689 209.199 19.1897 209.04 18.6203 209.04C18.051 209.04 17.547 209.199 17.1083 209.516C16.679 209.833 16.343 210.295 16.1003 210.902C15.8577 211.509 15.7363 212.241 15.7363 213.1C15.7363 213.959 15.8577 214.691 16.1003 215.298C16.343 215.905 16.679 216.367 17.1083 216.684C17.547 217.001 18.051 217.16 18.6203 217.16ZM28.1559 213.506H25.9159V218H24.9079V208.2H25.9159V212.596H28.1559L31.4739 208.2H32.5939L28.9539 212.96L32.8039 218H31.6139L28.1559 213.506Z" fill="white"/>
    <path d="M3.444 280.2V290H2.436V281.096H0.126V280.2H3.444ZM14.1166 287.424H12.1566V290H11.1486V287.424H5.61859V286.696L10.8126 280.2H11.9326L6.92059 286.528H11.1766V284.26H12.1566V286.528H14.1166V287.424ZM18.9485 290.084C18.1925 290.084 17.5158 289.883 16.9185 289.482C16.3305 289.081 15.8685 288.507 15.5325 287.76C15.2058 287.004 15.0425 286.117 15.0425 285.1C15.0425 284.083 15.2058 283.201 15.5325 282.454C15.8685 281.698 16.3305 281.119 16.9185 280.718C17.5158 280.317 18.1925 280.116 18.9485 280.116C19.7045 280.116 20.3765 280.317 20.9645 280.718C21.5618 281.119 22.0285 281.698 22.3645 282.454C22.7005 283.201 22.8685 284.083 22.8685 285.1C22.8685 286.117 22.7005 287.004 22.3645 287.76C22.0285 288.507 21.5618 289.081 20.9645 289.482C20.3765 289.883 19.7045 290.084 18.9485 290.084ZM18.9485 289.16C19.5178 289.16 20.0171 289.001 20.4465 288.684C20.8851 288.367 21.2258 287.905 21.4685 287.298C21.7111 286.691 21.8325 285.959 21.8325 285.1C21.8325 284.241 21.7111 283.509 21.4685 282.902C21.2258 282.295 20.8851 281.833 20.4465 281.516C20.0171 281.199 19.5178 281.04 18.9485 281.04C18.3791 281.04 17.8751 281.199 17.4365 281.516C17.0071 281.833 16.6711 282.295 16.4285 282.902C16.1858 283.509 16.0645 284.241 16.0645 285.1C16.0645 285.959 16.1858 286.691 16.4285 287.298C16.6711 287.905 17.0071 288.367 17.4365 288.684C17.8751 289.001 18.3791 289.16 18.9485 289.16ZM28.484 285.506H26.244V290H25.236V280.2H26.244V284.596H28.484L31.802 280.2H32.922L29.282 284.96L33.132 290H31.942L28.484 285.506Z" fill="white"/>
    <line x1="66" y1="68.5" x2="972" y2="68.5" stroke="#3D3C41"/>
    <line x1="66" y1="140.5" x2="972" y2="140.5" stroke="#3D3C41"/>
    <line x1="66" y1="212.5" x2="972" y2="212.5" stroke="#3D3C41"/>
    <line x1="66" y1="284.5" x2="972" y2="284.5" stroke="#3D3C41"/>
    <path d="M186.033 218.715C138.538 225.034 105.805 262.629 66 268.794V284H971V119.524C926.686 119.524 920.773 147.542 899.919 139.829C879.066 132.116 857.161 79.0861 832.832 81.8908C808.503 84.6955 795.151 83.0132 743.886 90.025C692.622 97.0367 654.892 177.122 614.054 142.764C573.216 108.407 564.535 126.535 521.091 119.524C477.646 112.512 458.614 196.509 417.465 193.825C376.315 191.14 365.331 261.004 323.338 254.524C272.451 246.671 276.88 242.273 254.254 232.088C231.627 221.902 211.348 215.347 186.033 218.715Z" fill="url(#paint0_linear_174_3443)"/>
    <path d="M66 268.794C105.805 262.629 138.538 225.035 186.033 218.715C211.348 215.347 231.627 221.903 254.254 232.088C276.88 242.273 272.451 246.672 323.338 254.524C365.331 261.004 376.315 191.141 417.465 193.825C458.614 196.509 477.646 112.512 521.091 119.524C564.535 126.535 573.216 108.407 614.054 142.764C654.892 177.122 692.622 97.0368 743.886 90.025C795.151 83.0133 808.503 84.6955 832.832 81.8908C857.161 79.0861 879.066 132.116 899.919 139.829C920.773 147.542 926.686 119.524 971 119.524" stroke="url(#paint1_linear_174_3443)" stroke-width="4" stroke-linecap="round" stroke-linejoin="round"/>
    <path d="M69.444 311.2V321H68.436V312.096H66.126V311.2H69.444Z" fill="white"/>
    <path d="M202.339 315.218C203.758 315.218 204.789 315.475 205.433 315.988C206.086 316.492 206.413 317.201 206.413 318.116C206.413 318.685 206.278 319.194 206.007 319.642C205.746 320.09 205.349 320.445 204.817 320.706C204.285 320.958 203.632 321.084 202.857 321.084C202.157 321.084 201.49 320.972 200.855 320.748C200.23 320.515 199.726 320.207 199.343 319.824L199.833 319.026C200.16 319.362 200.589 319.637 201.121 319.852C201.653 320.057 202.227 320.16 202.843 320.16C203.655 320.16 204.28 319.978 204.719 319.614C205.167 319.25 205.391 318.765 205.391 318.158C205.391 317.486 205.139 316.977 204.635 316.632C204.14 316.287 203.3 316.114 202.115 316.114H200.029L200.533 311.2H205.895V312.096H201.415L201.079 315.218H202.339Z" fill="white"/>
    <path d="M339.78 311.2V321H338.772V312.096H336.462V311.2H339.78ZM346.029 321.084C345.273 321.084 344.596 320.883 343.999 320.482C343.411 320.081 342.949 319.507 342.613 318.76C342.286 318.004 342.123 317.117 342.123 316.1C342.123 315.083 342.286 314.201 342.613 313.454C342.949 312.698 343.411 312.119 343.999 311.718C344.596 311.317 345.273 311.116 346.029 311.116C346.785 311.116 347.457 311.317 348.045 311.718C348.642 312.119 349.109 312.698 349.445 313.454C349.781 314.201 349.949 315.083 349.949 316.1C349.949 317.117 349.781 318.004 349.445 318.76C349.109 319.507 348.642 320.081 348.045 320.482C347.457 320.883 346.785 321.084 346.029 321.084ZM346.029 320.16C346.598 320.16 347.097 320.001 347.527 319.684C347.965 319.367 348.306 318.905 348.549 318.298C348.791 317.691 348.913 316.959 348.913 316.1C348.913 315.241 348.791 314.509 348.549 313.902C348.306 313.295 347.965 312.833 347.527 312.516C347.097 312.199 346.598 312.04 346.029 312.04C345.459 312.04 344.955 312.199 344.517 312.516C344.087 312.833 343.751 313.295 343.509 313.902C343.266 314.509 343.145 315.241 343.145 316.1C343.145 316.959 343.266 317.691 343.509 318.298C343.751 318.905 344.087 319.367 344.517 319.684C344.955 320.001 345.459 320.16 346.029 320.16Z" fill="white"/>
    <path d="M482.45 311.2V321H481.442V312.096H479.132V311.2H482.45ZM487.368 315.218C488.787 315.218 489.818 315.475 490.462 315.988C491.116 316.492 491.442 317.201 491.442 318.116C491.442 318.685 491.307 319.194 491.036 319.642C490.775 320.09 490.378 320.445 489.846 320.706C489.314 320.958 488.661 321.084 487.886 321.084C487.186 321.084 486.519 320.972 485.884 320.748C485.259 320.515 484.755 320.207 484.372 319.824L484.862 319.026C485.189 319.362 485.618 319.637 486.15 319.852C486.682 320.057 487.256 320.16 487.872 320.16C488.684 320.16 489.31 319.978 489.748 319.614C490.196 319.25 490.42 318.765 490.42 318.158C490.42 317.486 490.168 316.977 489.664 316.632C489.17 316.287 488.33 316.114 487.144 316.114H485.058L485.562 311.2H490.924V312.096H486.444L486.108 315.218H487.368Z" fill="white"/>
    <path d="M626.834 320.104V321H619.96V320.286L624.034 316.296C624.547 315.792 624.893 315.358 625.07 314.994C625.257 314.621 625.35 314.247 625.35 313.874C625.35 313.295 625.149 312.847 624.748 312.53C624.356 312.203 623.791 312.04 623.054 312.04C621.906 312.04 621.015 312.404 620.38 313.132L619.666 312.516C620.049 312.068 620.534 311.723 621.122 311.48C621.719 311.237 622.391 311.116 623.138 311.116C624.137 311.116 624.925 311.354 625.504 311.83C626.092 312.297 626.386 312.941 626.386 313.762C626.386 314.266 626.274 314.751 626.05 315.218C625.826 315.685 625.401 316.221 624.776 316.828L621.444 320.104H626.834ZM631.95 321.084C631.194 321.084 630.518 320.883 629.92 320.482C629.332 320.081 628.87 319.507 628.534 318.76C628.208 318.004 628.044 317.117 628.044 316.1C628.044 315.083 628.208 314.201 628.534 313.454C628.87 312.698 629.332 312.119 629.92 311.718C630.518 311.317 631.194 311.116 631.95 311.116C632.706 311.116 633.378 311.317 633.966 311.718C634.564 312.119 635.03 312.698 635.366 313.454C635.702 314.201 635.87 315.083 635.87 316.1C635.87 317.117 635.702 318.004 635.366 318.76C635.03 319.507 634.564 320.081 633.966 320.482C633.378 320.883 632.706 321.084 631.95 321.084ZM631.95 320.16C632.52 320.16 633.019 320.001 633.448 319.684C633.887 319.367 634.228 318.905 634.47 318.298C634.713 317.691 634.834 316.959 634.834 316.1C634.834 315.241 634.713 314.509 634.47 313.902C634.228 313.295 633.887 312.833 633.448 312.516C633.019 312.199 632.52 312.04 631.95 312.04C631.381 312.04 630.877 312.199 630.438 312.516C630.009 312.833 629.673 313.295 629.43 313.902C629.188 314.509 629.066 315.241 629.066 316.1C629.066 316.959 629.188 317.691 629.43 318.298C629.673 318.905 630.009 319.367 630.438 319.684C630.877 320.001 631.381 320.16 631.95 320.16Z" fill="white"/>
    <path d="M772.477 320.104V321H765.603V320.286L769.677 316.296C770.19 315.792 770.535 315.358 770.713 314.994C770.899 314.621 770.993 314.247 770.993 313.874C770.993 313.295 770.792 312.847 770.391 312.53C769.999 312.203 769.434 312.04 768.697 312.04C767.549 312.04 766.657 312.404 766.023 313.132L765.309 312.516C765.691 312.068 766.177 311.723 766.765 311.48C767.362 311.237 768.034 311.116 768.781 311.116C769.779 311.116 770.568 311.354 771.147 311.83C771.735 312.297 772.029 312.941 772.029 313.762C772.029 314.266 771.917 314.751 771.693 315.218C771.469 315.685 771.044 316.221 770.419 316.828L767.087 320.104H772.477ZM776.318 315.218C777.736 315.218 778.768 315.475 779.412 315.988C780.065 316.492 780.392 317.201 780.392 318.116C780.392 318.685 780.256 319.194 779.986 319.642C779.724 320.09 779.328 320.445 778.796 320.706C778.264 320.958 777.61 321.084 776.836 321.084C776.136 321.084 775.468 320.972 774.834 320.748C774.208 320.515 773.704 320.207 773.322 319.824L773.812 319.026C774.138 319.362 774.568 319.637 775.1 319.852C775.632 320.057 776.206 320.16 776.822 320.16C777.634 320.16 778.259 319.978 778.698 319.614C779.146 319.25 779.37 318.765 779.37 318.158C779.37 317.486 779.118 316.977 778.614 316.632C778.119 316.287 777.279 316.114 776.094 316.114H774.008L774.512 311.2H779.874V312.096H775.394L775.058 315.218H776.318Z" fill="white"/>
    <path d="M914.888 315.4C915.915 315.456 916.694 315.736 917.226 316.24C917.767 316.735 918.038 317.383 918.038 318.186C918.038 318.746 917.903 319.245 917.632 319.684C917.361 320.113 916.96 320.454 916.428 320.706C915.896 320.958 915.247 321.084 914.482 321.084C913.773 321.084 913.101 320.972 912.466 320.748C911.841 320.515 911.337 320.207 910.954 319.824L911.444 319.026C911.771 319.362 912.205 319.637 912.746 319.852C913.287 320.057 913.866 320.16 914.482 320.16C915.285 320.16 915.905 319.987 916.344 319.642C916.783 319.287 917.002 318.802 917.002 318.186C917.002 317.579 916.783 317.103 916.344 316.758C915.905 316.413 915.243 316.24 914.356 316.24H913.656V315.498L916.372 312.096H911.36V311.2H917.66V311.914L914.888 315.4ZM923.364 321.084C922.608 321.084 921.932 320.883 921.334 320.482C920.746 320.081 920.284 319.507 919.948 318.76C919.622 318.004 919.458 317.117 919.458 316.1C919.458 315.083 919.622 314.201 919.948 313.454C920.284 312.698 920.746 312.119 921.334 311.718C921.932 311.317 922.608 311.116 923.364 311.116C924.12 311.116 924.792 311.317 925.38 311.718C925.978 312.119 926.444 312.698 926.78 313.454C927.116 314.201 927.284 315.083 927.284 316.1C927.284 317.117 927.116 318.004 926.78 318.76C926.444 319.507 925.978 320.081 925.38 320.482C924.792 320.883 924.12 321.084 923.364 321.084ZM923.364 320.16C923.934 320.16 924.433 320.001 924.862 319.684C925.301 319.367 925.642 318.905 925.884 318.298C926.127 317.691 926.248 316.959 926.248 316.1C926.248 315.241 926.127 314.509 925.884 313.902C925.642 313.295 925.301 312.833 924.862 312.516C924.433 312.199 923.934 312.04 923.364 312.04C922.795 312.04 922.291 312.199 921.852 312.516C921.423 312.833 921.087 313.295 920.844 313.902C920.602 314.509 920.48 315.241 920.48 316.1C920.48 316.959 920.602 317.691 920.844 318.298C921.087 318.905 921.423 319.367 921.852 319.684C922.291 320.001 922.795 320.16 923.364 320.16Z" fill="white"/>
    <line x1="456.5" y1="168" x2="456.5" y2="284" stroke="#5E5CE6" stroke-dasharray="4.4 4.4"/>
    <g filter="url(#filter0_dd_174_3443)">
        <path fill-rule="evenodd" clip-rule="evenodd" d="M459.462 146.149C457.55 148.617 454.45 148.617 452.538 146.149L448.302 140.948C447.42 139.865 446.979 139.323 446.434 138.934C445.952 138.589 445.412 138.332 444.84 138.176C444.194 138 443.496 138 442.099 138H393.229C386.543 138 384.118 137.304 381.674 135.997C379.229 134.689 377.311 132.771 376.003 130.326C374.696 127.882 374 125.457 374 118.771V69.2291C374 62.5427 374.696 60.1181 376.003 57.6737C377.311 55.2292 379.229 53.3108 381.674 52.0035C384.118 50.6962 386.543 50 393.229 50H519.771C526.457 50 528.882 50.6962 531.326 52.0035C533.771 53.3108 535.689 55.2292 536.997 57.6737C538.304 60.1181 539 62.5427 539 69.2291V118.771C539 125.457 538.304 127.882 536.997 130.326C535.689 132.771 533.771 134.689 531.326 135.997C528.882 137.304 526.457 138 519.771 138H473.703C470.909 138 469.513 138 468.221 138.352C467.077 138.664 465.997 139.177 465.032 139.867C463.944 140.647 463.062 141.729 461.297 143.895L459.462 146.149Z" fill="#3A3A3C"/>
    </g>
    <path d="M513 93.5C513 99.299 508.299 104 502.5 104C496.701 104 492 99.299 492 93.5C492 87.701 496.701 83 502.5 83C508.299 83 513 87.701 513 93.5Z" stroke="white" stroke-width="2"/>
    <path d="M512.597 95.7573L511.619 95.55L511.192 97.5642L513.039 96.6544L512.597 95.7573ZM497.817 84.2427L496.839 84.0354L496.412 86.0495L498.259 85.1398L497.817 84.2427ZM517.414 86.4117C517.414 90.1174 515.273 93.3247 512.155 94.8603L513.039 96.6544C516.814 94.7952 519.414 90.9081 519.414 86.4117H517.414ZM508.003 77C513.201 77 517.414 81.2138 517.414 86.4117H519.414C519.414 80.1092 514.305 75 508.003 75V77ZM498.795 84.45C499.697 80.1935 503.478 77 508.003 77V75C502.514 75 497.933 78.8736 496.839 84.0354L498.795 84.45ZM498.259 85.1398C499.51 84.5234 500.919 84.1766 502.412 84.1766V82.1766C500.606 82.1766 498.895 82.5968 497.375 83.3456L498.259 85.1398ZM502.412 84.1766C507.61 84.1766 511.823 88.3904 511.823 93.5883H513.823C513.823 87.2858 508.714 82.1766 502.412 82.1766V84.1766ZM511.823 93.5883C511.823 94.262 511.753 94.9182 511.619 95.55L513.576 95.9646C513.738 95.1973 513.823 94.4022 513.823 93.5883H511.823Z" fill="white"/>
    <rect width="54" height="60" transform="translate(388 64)" fill="#3A3A3C"/>
    <path d="M390.455 67.352C390.977 67.352 391.449 67.4747 391.871 67.72C392.297 67.9653 392.631 68.3067 392.871 68.744C393.116 69.176 393.239 69.6613 393.239 70.2C393.239 70.7387 393.116 71.2267 392.871 71.664C392.631 72.096 392.297 72.4347 391.871 72.68C391.449 72.9253 390.977 73.048 390.455 73.048C390.017 73.048 389.617 72.9787 389.255 72.84C388.892 72.7013 388.588 72.496 388.343 72.224L388.711 71.848C389.153 72.296 389.727 72.52 390.431 72.52C390.825 72.52 391.185 72.4293 391.511 72.248C391.836 72.0613 392.097 71.808 392.295 71.488C392.497 71.1627 392.612 70.7973 392.639 70.392H389.751V69.904H392.631C392.588 69.5147 392.465 69.168 392.263 68.864C392.065 68.5547 391.807 68.3147 391.487 68.144C391.167 67.968 390.815 67.88 390.431 67.88C389.727 67.88 389.153 68.104 388.711 68.552L388.343 68.176C388.588 67.904 388.892 67.6987 389.255 67.56C389.617 67.4213 390.017 67.352 390.455 67.352ZM397.362 69.296H395.77V73H395.202V69.296H393.61V68.792H397.362V69.296ZM399.724 73.04C399.318 73.04 398.953 72.9493 398.628 72.768C398.302 72.5813 398.046 72.3253 397.86 72C397.673 71.6747 397.58 71.3067 397.58 70.896C397.58 70.4853 397.673 70.1173 397.86 69.792C398.046 69.4667 398.302 69.2133 398.628 69.032C398.953 68.8507 399.318 68.76 399.724 68.76C400.129 68.76 400.494 68.8507 400.82 69.032C401.145 69.2133 401.398 69.4667 401.58 69.792C401.766 70.1173 401.86 70.4853 401.86 70.896C401.86 71.3067 401.766 71.6747 401.58 72C401.398 72.3253 401.145 72.5813 400.82 72.768C400.494 72.9493 400.129 73.04 399.724 73.04ZM399.724 72.536C400.022 72.536 400.289 72.4693 400.524 72.336C400.764 72.1973 400.95 72.0027 401.084 71.752C401.217 71.5013 401.284 71.216 401.284 70.896C401.284 70.576 401.217 70.2907 401.084 70.04C400.95 69.7893 400.764 69.5973 400.524 69.464C400.289 69.3253 400.022 69.256 399.724 69.256C399.425 69.256 399.156 69.3253 398.916 69.464C398.681 69.5973 398.494 69.7893 398.356 70.04C398.222 70.2907 398.156 70.576 398.156 70.896C398.156 71.216 398.222 71.5013 398.356 71.752C398.494 72.0027 398.681 72.1973 398.916 72.336C399.156 72.4693 399.425 72.536 399.724 72.536ZM405.877 69.296H404.285V73H403.717V69.296H402.125V68.792H405.877V69.296ZM413.496 68.792V73H412.976V69.672L411.272 72.488H411.016L409.312 69.664V73H408.792V68.792H409.368L411.152 71.824L412.968 68.792H413.496ZM418.793 71.072H415.273C415.305 71.5093 415.473 71.864 415.777 72.136C416.081 72.4027 416.465 72.536 416.929 72.536C417.19 72.536 417.43 72.4907 417.649 72.4C417.867 72.304 418.057 72.1653 418.217 71.984L418.537 72.352C418.35 72.576 418.115 72.7467 417.833 72.864C417.555 72.9813 417.249 73.04 416.913 73.04C416.481 73.04 416.097 72.9493 415.761 72.768C415.43 72.5813 415.171 72.3253 414.985 72C414.798 71.6747 414.705 71.3067 414.705 70.896C414.705 70.4853 414.793 70.1173 414.969 69.792C415.15 69.4667 415.395 69.2133 415.705 69.032C416.019 68.8507 416.371 68.76 416.761 68.76C417.15 68.76 417.499 68.8507 417.809 69.032C418.118 69.2133 418.361 69.4667 418.537 69.792C418.713 70.112 418.801 70.48 418.801 70.896L418.793 71.072ZM416.761 69.248C416.355 69.248 416.014 69.3787 415.737 69.64C415.465 69.896 415.31 70.232 415.273 70.648H418.257C418.219 70.232 418.062 69.896 417.785 69.64C417.513 69.3787 417.171 69.248 416.761 69.248ZM421.818 73.04C421.402 73.04 421.029 72.9493 420.698 72.768C420.373 72.5867 420.117 72.3333 419.93 72.008C419.743 71.6773 419.65 71.3067 419.65 70.896C419.65 70.4853 419.743 70.1173 419.93 69.792C420.117 69.4667 420.373 69.2133 420.698 69.032C421.029 68.8507 421.402 68.76 421.818 68.76C422.181 68.76 422.503 68.832 422.786 68.976C423.074 69.1147 423.301 69.32 423.466 69.592L423.042 69.88C422.903 69.672 422.727 69.5173 422.514 69.416C422.301 69.3093 422.069 69.256 421.818 69.256C421.514 69.256 421.239 69.3253 420.994 69.464C420.754 69.5973 420.565 69.7893 420.426 70.04C420.293 70.2907 420.226 70.576 420.226 70.896C420.226 71.2213 420.293 71.5093 420.426 71.76C420.565 72.0053 420.754 72.1973 420.994 72.336C421.239 72.4693 421.514 72.536 421.818 72.536C422.069 72.536 422.301 72.4853 422.514 72.384C422.727 72.2827 422.903 72.128 423.042 71.92L423.466 72.208C423.301 72.48 423.074 72.688 422.786 72.832C422.498 72.9707 422.175 73.04 421.818 73.04ZM427.657 68.792V73H427.137V71.608H425.817H425.657L424.681 73H424.065L425.113 71.528C424.788 71.4373 424.537 71.2827 424.361 71.064C424.185 70.8453 424.097 70.568 424.097 70.232C424.097 69.7627 424.257 69.4053 424.577 69.16C424.897 68.9147 425.335 68.792 425.889 68.792H427.657ZM424.673 70.248C424.673 70.872 425.071 71.184 425.865 71.184H427.137V69.296H425.905C425.084 69.296 424.673 69.6133 424.673 70.248ZM433.661 72.504V74.056H433.125V73H429.277V68.792H429.845V72.504H432.413V68.792H432.981V72.504H433.661Z" fill="white"/>
    <path d="M400.443 95.096V98H388.805V95.69L394.745 90.08C395.376 89.4787 395.801 88.9653 396.021 88.54C396.241 88.1 396.351 87.6673 396.351 87.242C396.351 86.626 396.138 86.1567 395.713 85.834C395.302 85.4967 394.694 85.328 393.887 85.328C393.212 85.328 392.604 85.46 392.061 85.724C391.518 85.9733 391.064 86.3547 390.697 86.868L388.101 85.196C388.702 84.3013 389.531 83.6047 390.587 83.106C391.643 82.5927 392.853 82.336 394.217 82.336C395.361 82.336 396.358 82.5267 397.209 82.908C398.074 83.2747 398.742 83.8027 399.211 84.492C399.695 85.1667 399.937 85.966 399.937 86.89C399.937 87.726 399.761 88.5107 399.409 89.244C399.057 89.9773 398.375 90.8133 397.363 91.752L393.821 95.096H400.443ZM413.42 95.096V98H401.782V95.69L407.722 90.08C408.352 89.4787 408.778 88.9653 408.998 88.54C409.218 88.1 409.328 87.6673 409.328 87.242C409.328 86.626 409.115 86.1567 408.69 85.834C408.279 85.4967 407.67 85.328 406.864 85.328C406.189 85.328 405.58 85.46 405.038 85.724C404.495 85.9733 404.04 86.3547 403.674 86.868L401.078 85.196C401.679 84.3013 402.508 83.6047 403.564 83.106C404.62 82.5927 405.83 82.336 407.194 82.336C408.338 82.336 409.335 82.5267 410.186 82.908C411.051 83.2747 411.718 83.8027 412.188 84.492C412.672 85.1667 412.914 85.966 412.914 86.89C412.914 87.726 412.738 88.5107 412.386 89.244C412.034 89.9773 411.352 90.8133 410.34 91.752L406.798 95.096H413.42ZM421.447 98.264C420.171 98.264 419.035 97.9487 418.037 97.318C417.04 96.6873 416.255 95.778 415.683 94.59C415.126 93.3873 414.847 91.9573 414.847 90.3C414.847 88.6427 415.126 87.22 415.683 86.032C416.255 84.8293 417.04 83.9127 418.037 83.282C419.035 82.6513 420.171 82.336 421.447 82.336C422.723 82.336 423.86 82.6513 424.857 83.282C425.855 83.9127 426.632 84.8293 427.189 86.032C427.761 87.22 428.047 88.6427 428.047 90.3C428.047 91.9573 427.761 93.3873 427.189 94.59C426.632 95.778 425.855 96.6873 424.857 97.318C423.86 97.9487 422.723 98.264 421.447 98.264ZM421.447 95.25C422.386 95.25 423.119 94.8467 423.647 94.04C424.19 93.2333 424.461 91.9867 424.461 90.3C424.461 88.6133 424.19 87.3667 423.647 86.56C423.119 85.7533 422.386 85.35 421.447 85.35C420.523 85.35 419.79 85.7533 419.247 86.56C418.719 87.3667 418.455 88.6133 418.455 90.3C418.455 91.9867 418.719 93.2333 419.247 94.04C419.79 94.8467 420.523 95.25 421.447 95.25Z" fill="white"/>
    <path d="M397.372 117.232V119.884H396.544V118H389.212L389.2 119.884H388.372L388.384 117.232H388.804C389.356 117.2 389.74 116.764 389.956 115.924C390.172 115.076 390.304 113.876 390.352 112.324L390.448 109.6H396.112V117.232H397.372ZM391.144 112.408C391.104 113.688 391.004 114.744 390.844 115.576C390.692 116.4 390.432 116.952 390.064 117.232H395.236V110.368H391.216L391.144 112.408ZM404.324 115.108H399.044C399.092 115.764 399.344 116.296 399.8 116.704C400.256 117.104 400.832 117.304 401.528 117.304C401.92 117.304 402.28 117.236 402.608 117.1C402.936 116.956 403.22 116.748 403.46 116.476L403.94 117.028C403.66 117.364 403.308 117.62 402.884 117.796C402.468 117.972 402.008 118.06 401.504 118.06C400.856 118.06 400.28 117.924 399.776 117.652C399.28 117.372 398.892 116.988 398.612 116.5C398.332 116.012 398.192 115.46 398.192 114.844C398.192 114.228 398.324 113.676 398.588 113.188C398.86 112.7 399.228 112.32 399.692 112.048C400.164 111.776 400.692 111.64 401.276 111.64C401.86 111.64 402.384 111.776 402.848 112.048C403.312 112.32 403.676 112.7 403.94 113.188C404.204 113.668 404.336 114.22 404.336 114.844L404.324 115.108ZM401.276 112.372C400.668 112.372 400.156 112.568 399.74 112.96C399.332 113.344 399.1 113.848 399.044 114.472H403.52C403.464 113.848 403.228 113.344 402.812 112.96C402.404 112.568 401.892 112.372 401.276 112.372ZM408.514 115.192H407.074V118H406.222V111.688H407.074V114.46H408.526L410.746 111.688H411.67L409.186 114.748L411.85 118H410.842L408.514 115.192ZM415.249 111.64C416.073 111.64 416.705 111.848 417.145 112.264C417.585 112.672 417.805 113.28 417.805 114.088V118H416.989V117.016C416.797 117.344 416.513 117.6 416.137 117.784C415.769 117.968 415.329 118.06 414.817 118.06C414.113 118.06 413.553 117.892 413.137 117.556C412.721 117.22 412.513 116.776 412.513 116.224C412.513 115.688 412.705 115.256 413.089 114.928C413.481 114.6 414.101 114.436 414.949 114.436H416.953V114.052C416.953 113.508 416.801 113.096 416.497 112.816C416.193 112.528 415.749 112.384 415.165 112.384C414.765 112.384 414.381 112.452 414.013 112.588C413.645 112.716 413.329 112.896 413.065 113.128L412.681 112.492C413.001 112.22 413.385 112.012 413.833 111.868C414.281 111.716 414.753 111.64 415.249 111.64ZM414.949 117.388C415.429 117.388 415.841 117.28 416.185 117.064C416.529 116.84 416.785 116.52 416.953 116.104V115.072H414.973C413.893 115.072 413.353 115.448 413.353 116.2C413.353 116.568 413.493 116.86 413.773 117.076C414.053 117.284 414.445 117.388 414.949 117.388ZM423.133 111.844C423.717 111.844 424.237 111.976 424.693 112.24C425.157 112.496 425.517 112.86 425.773 113.332C426.029 113.796 426.157 114.328 426.157 114.928C426.157 115.544 426.021 116.092 425.749 116.572C425.485 117.044 425.113 117.412 424.633 117.676C424.153 117.94 423.601 118.072 422.977 118.072C421.929 118.072 421.117 117.704 420.541 116.968C419.965 116.232 419.677 115.216 419.677 113.92C419.677 112.568 419.933 111.532 420.445 110.812C420.965 110.092 421.773 109.604 422.869 109.348L425.701 108.7L425.845 109.48L423.181 110.092C422.277 110.292 421.613 110.648 421.189 111.16C420.765 111.664 420.533 112.412 420.493 113.404C420.749 112.916 421.105 112.536 421.561 112.264C422.017 111.984 422.541 111.844 423.133 111.844ZM423.001 117.364C423.441 117.364 423.833 117.264 424.177 117.064C424.529 116.856 424.801 116.568 424.993 116.2C425.193 115.832 425.293 115.416 425.293 114.952C425.293 114.488 425.197 114.08 425.005 113.728C424.813 113.376 424.541 113.104 424.189 112.912C423.845 112.712 423.449 112.612 423.001 112.612C422.553 112.612 422.153 112.712 421.801 112.912C421.457 113.104 421.185 113.376 420.985 113.728C420.793 114.08 420.697 114.488 420.697 114.952C420.697 115.416 420.793 115.832 420.985 116.2C421.185 116.568 421.461 116.856 421.813 117.064C422.165 117.264 422.561 117.364 423.001 117.364ZM431.235 111.64C431.827 111.64 432.363 111.776 432.843 112.048C433.323 112.312 433.699 112.688 433.971 113.176C434.243 113.664 434.379 114.22 434.379 114.844C434.379 115.476 434.243 116.036 433.971 116.524C433.699 117.012 433.323 117.392 432.843 117.664C432.371 117.928 431.835 118.06 431.235 118.06C430.723 118.06 430.259 117.956 429.843 117.748C429.435 117.532 429.099 117.22 428.835 116.812V120.328H427.983V111.688H428.799V112.936C429.055 112.52 429.391 112.2 429.807 111.976C430.231 111.752 430.707 111.64 431.235 111.64ZM431.175 117.304C431.615 117.304 432.015 117.204 432.375 117.004C432.735 116.796 433.015 116.504 433.215 116.128C433.423 115.752 433.527 115.324 433.527 114.844C433.527 114.364 433.423 113.94 433.215 113.572C433.015 113.196 432.735 112.904 432.375 112.696C432.015 112.488 431.615 112.384 431.175 112.384C430.727 112.384 430.323 112.488 429.963 112.696C429.611 112.904 429.331 113.196 429.123 113.572C428.923 113.94 428.823 114.364 428.823 114.844C428.823 115.324 428.923 115.752 429.123 116.128C429.331 116.504 429.611 116.796 429.963 117.004C430.323 117.204 430.727 117.304 431.175 117.304ZM438.922 113.92C439.714 113.928 440.314 114.104 440.722 114.448C441.138 114.792 441.346 115.288 441.346 115.936C441.346 116.608 441.122 117.124 440.674 117.484C440.234 117.844 439.594 118.02 438.754 118.012L436.21 118V111.688H437.062V113.896L438.922 113.92ZM438.706 117.364C439.29 117.372 439.73 117.256 440.026 117.016C440.33 116.768 440.482 116.408 440.482 115.936C440.482 115.472 440.334 115.128 440.038 114.904C439.742 114.68 439.298 114.564 438.706 114.556L437.062 114.532V117.34L438.706 117.364Z" fill="white"/>
    <g filter="url(#filter1_dd_174_3443)">
        <rect x="446" y="158" width="20" height="20" rx="10" fill="#5E5CE6"/>
        <rect x="448" y="160" width="16" height="16" rx="8" stroke="white" stroke-width="4"/>
    </g>
    <defs>
        <filter id="filter0_dd_174_3443" x="358" y="42" width="197" height="130" filterUnits="userSpaceOnUse" color-interpolation-filters="sRGB">
            <feFlood flood-opacity="0" result="BackgroundImageFix"/>
            <feColorMatrix in="SourceAlpha" type="matrix" values="0 0 0 0 0 0 0 0 0 0 0 0 0 0 0 0 0 0 127 0" result="hardAlpha"/>
            <feOffset dy="8"/>
            <feGaussianBlur stdDeviation="8"/>
            <feColorMatrix type="matrix" values="0 0 0 0 0.196487 0 0 0 0 0.196487 0 0 0 0 0.279476 0 0 0 0.06 0"/>
            <feBlend mode="multiply" in2="BackgroundImageFix" result="effect1_dropShadow_174_3443"/>
            <feColorMatrix in="SourceAlpha" type="matrix" values="0 0 0 0 0 0 0 0 0 0 0 0 0 0 0 0 0 0 127 0" result="hardAlpha"/>
            <feOffset dy="8"/>
            <feGaussianBlur stdDeviation="4"/>
            <feColorMatrix type="matrix" values="0 0 0 0 0.196487 0 0 0 0 0.196487 0 0 0 0 0.279476 0 0 0 0.08 0"/>
            <feBlend mode="multiply" in2="effect1_dropShadow_174_3443" result="effect2_dropShadow_174_3443"/>
            <feBlend mode="normal" in="SourceGraphic" in2="effect2_dropShadow_174_3443" result="shape"/>
        </filter>
        <filter id="filter1_dd_174_3443" x="440.667" y="155.333" width="30.6667" height="30.6667" filterUnits="userSpaceOnUse" color-interpolation-filters="sRGB">
            <feFlood flood-opacity="0" result="BackgroundImageFix"/>
            <feColorMatrix in="SourceAlpha" type="matrix" values="0 0 0 0 0 0 0 0 0 0 0 0 0 0 0 0 0 0 127 0" result="hardAlpha"/>
            <feOffset dy="2.66667"/>
            <feGaussianBlur stdDeviation="2.66667"/>
            <feColorMatrix type="matrix" values="0 0 0 0 0.196487 0 0 0 0 0.196487 0 0 0 0 0.279476 0 0 0 0.06 0"/>
            <feBlend mode="multiply" in2="BackgroundImageFix" result="effect1_dropShadow_174_3443"/>
            <feColorMatrix in="SourceAlpha" type="matrix" values="0 0 0 0 0 0 0 0 0 0 0 0 0 0 0 0 0 0 127 0" result="hardAlpha"/>
            <feOffset dy="2.66667"/>
            <feGaussianBlur stdDeviation="1.33333"/>
            <feColorMatrix type="matrix" values="0 0 0 0 0.196487 0 0 0 0 0.196487 0 0 0 0 0.279476 0 0 0 0.06 0"/>
            <feBlend mode="multiply" in2="effect1_dropShadow_174_3443" result="effect2_dropShadow_174_3443"/>
            <feBlend mode="normal" in="SourceGraphic" in2="effect2_dropShadow_174_3443" result="shape"/>
        </filter>
        <linearGradient id="paint0_linear_174_3443" x1="518.5" y1="89.5587" x2="518.5" y2="365.335" gradientUnits="userSpaceOnUse">
            <stop stop-color="#5E5CE6" stop-opacity="0.1"/>
            <stop offset="0.998978" stop-opacity="0"/>
        </linearGradient>
        <linearGradient id="paint1_linear_174_3443" x1="971" y1="194.5" x2="668.197" y2="-229.707" gradientUnits="userSpaceOnUse">
            <stop offset="0.0238222" stop-color="#2D2E86"/>
            <stop offset="0.552287" stop-color="#F15A24"/>
            <stop offset="1" stop-color="#2B2D83"/>
        </linearGradient>
    </defs>
</svg>
