<svg width="78" height="63" viewBox="0 0 78 63" fill="none" xmlns="http://www.w3.org/2000/svg">
    <mask id="path-1-outside-1_271_7564" maskUnits="userSpaceOnUse" x="0" y="0" width="78" height="63" fill="black">
        <rect fill="white" width="78" height="63"/>
        <path fill-rule="evenodd" clip-rule="evenodd" d="M56.5356 14.7596L56.549 14.7608L56.5625 14.7618C58.5299 14.9131 59.6401 15.2907 60.2998 15.6837C60.8703 16.0236 61.3469 16.5154 61.7736 17.4819C62.2448 18.5494 62.6261 20.1415 62.8649 22.5603C63.1014 24.9564 63.1771 27.9096 63.1771 31.5897C63.1771 35.2693 63.1014 38.239 62.8646 40.6556C62.6254 43.0966 62.2429 44.7145 61.768 45.8C61.3363 46.7866 60.8621 47.266 60.321 47.5841C59.6933 47.9531 58.6146 48.311 56.6704 48.4107L56.6614 48.4112L56.6524 48.4117C48.2125 48.8806 29.2859 48.8814 20.8074 48.4143C18.8669 48.2607 17.7681 47.8859 17.1133 47.4957C16.5428 47.1558 16.0661 46.664 15.6395 45.6975C15.1683 44.63 14.787 43.0379 14.5482 40.6191C14.3117 38.223 14.236 35.2699 14.236 31.5897C14.236 27.9096 14.3117 24.9564 14.5482 22.5603C14.787 20.1415 15.1683 18.5494 15.6395 17.4819C16.0661 16.5154 16.5428 16.0236 17.1133 15.6837C17.773 15.2907 18.8832 14.9131 20.8506 14.7618L20.8641 14.7608L20.8775 14.7596C29.2554 14.0615 48.1577 14.0615 56.5356 14.7596ZM10 31.5897C10 46.4214 11.1961 51.9235 20.5257 52.6412C29.1377 53.1196 48.2754 53.1196 56.8873 52.6412C66.217 52.1627 67.4131 46.4214 67.4131 31.5897C67.4131 16.758 66.217 11.2559 56.8873 10.5382C48.2754 9.82058 29.1377 9.82058 20.5257 10.5382C11.1961 11.2559 10 16.758 10 31.5897ZM34.595 39.6259C33.1867 40.3301 31.5298 39.306 31.5298 37.7315V25.4479C31.5298 23.8734 33.1867 22.8493 34.595 23.5535L46.8786 29.6953C48.4397 30.4758 48.4397 32.7036 46.8786 33.4841L34.595 39.6259Z"/>
    </mask>
    <path fill-rule="evenodd" clip-rule="evenodd" d="M56.5356 14.7596L56.549 14.7608L56.5625 14.7618C58.5299 14.9131 59.6401 15.2907 60.2998 15.6837C60.8703 16.0236 61.3469 16.5154 61.7736 17.4819C62.2448 18.5494 62.6261 20.1415 62.8649 22.5603C63.1014 24.9564 63.1771 27.9096 63.1771 31.5897C63.1771 35.2693 63.1014 38.239 62.8646 40.6556C62.6254 43.0966 62.2429 44.7145 61.768 45.8C61.3363 46.7866 60.8621 47.266 60.321 47.5841C59.6933 47.9531 58.6146 48.311 56.6704 48.4107L56.6614 48.4112L56.6524 48.4117C48.2125 48.8806 29.2859 48.8814 20.8074 48.4143C18.8669 48.2607 17.7681 47.8859 17.1133 47.4957C16.5428 47.1558 16.0661 46.664 15.6395 45.6975C15.1683 44.63 14.787 43.0379 14.5482 40.6191C14.3117 38.223 14.236 35.2699 14.236 31.5897C14.236 27.9096 14.3117 24.9564 14.5482 22.5603C14.787 20.1415 15.1683 18.5494 15.6395 17.4819C16.0661 16.5154 16.5428 16.0236 17.1133 15.6837C17.773 15.2907 18.8832 14.9131 20.8506 14.7618L20.8641 14.7608L20.8775 14.7596C29.2554 14.0615 48.1577 14.0615 56.5356 14.7596ZM10 31.5897C10 46.4214 11.1961 51.9235 20.5257 52.6412C29.1377 53.1196 48.2754 53.1196 56.8873 52.6412C66.217 52.1627 67.4131 46.4214 67.4131 31.5897C67.4131 16.758 66.217 11.2559 56.8873 10.5382C48.2754 9.82058 29.1377 9.82058 20.5257 10.5382C11.1961 11.2559 10 16.758 10 31.5897ZM34.595 39.6259C33.1867 40.3301 31.5298 39.306 31.5298 37.7315V25.4479C31.5298 23.8734 33.1867 22.8493 34.595 23.5535L46.8786 29.6953C48.4397 30.4758 48.4397 32.7036 46.8786 33.4841L34.595 39.6259Z" fill="white"/>
    <path d="M56.549 14.7608L55.7183 24.7262L55.7503 24.7289L55.7823 24.7313L56.549 14.7608ZM56.5356 14.7596L57.3663 4.7942L57.366 4.79418L56.5356 14.7596ZM56.5625 14.7618L57.3294 4.79125L57.3291 4.79123L56.5625 14.7618ZM60.2998 15.6837L65.4182 7.09287L65.4182 7.09287L60.2998 15.6837ZM61.7736 17.4819L70.9219 13.4435L70.9219 13.4435L61.7736 17.4819ZM62.8649 22.5603L52.9132 23.5427V23.5427L62.8649 22.5603ZM62.8646 40.6556L72.8169 41.6311V41.6311L62.8646 40.6556ZM61.768 45.8L70.9295 49.8082L70.9295 49.8082L61.768 45.8ZM60.321 47.5841L65.3892 56.2046L65.3893 56.2046L60.321 47.5841ZM56.6704 48.4107L57.1818 58.3976L57.1826 58.3976L56.6704 48.4107ZM56.6614 48.4112L56.15 38.4243L56.1288 38.4253L56.1076 38.4265L56.6614 48.4112ZM56.6524 48.4117L56.0986 38.427L56.0977 38.4271L56.6524 48.4117ZM20.8074 48.4143L20.0188 58.3831L20.1379 58.3925L20.2573 58.3991L20.8074 48.4143ZM17.1133 47.4957L22.2317 38.9049L22.2317 38.9049L17.1133 47.4957ZM15.6395 45.6975L6.49121 49.7359L6.49121 49.736L15.6395 45.6975ZM14.5482 40.6191L4.59657 41.6014V41.6014L14.5482 40.6191ZM14.5482 22.5603L4.59657 21.578V21.578L14.5482 22.5603ZM15.6395 17.4819L24.7878 21.5203L24.7878 21.5203L15.6395 17.4819ZM17.1133 15.6837L11.9949 7.09287L11.9949 7.09287L17.1133 15.6837ZM20.8506 14.7618L20.084 4.79123L20.0837 4.79125L20.8506 14.7618ZM20.8641 14.7608L21.6307 24.7313L21.6628 24.7289L21.6948 24.7262L20.8641 14.7608ZM20.8775 14.7596L20.0471 4.79418L20.0468 4.7942L20.8775 14.7596ZM20.5257 52.6412L19.7588 62.6117L19.8648 62.6199L19.971 62.6258L20.5257 52.6412ZM56.8873 52.6412L56.3752 42.6543L56.3539 42.6554L56.3326 42.6566L56.8873 52.6412ZM56.8873 10.5382L56.0569 20.5037L56.0886 20.5063L56.1204 20.5088L56.8873 10.5382ZM20.5257 10.5382L21.2927 20.5088L21.3245 20.5063L21.3562 20.5037L20.5257 10.5382ZM34.595 39.6259L30.1228 30.6817L30.1228 30.6817L34.595 39.6259ZM46.8786 33.4841L51.3508 42.4284H51.3508L46.8786 33.4841ZM57.3797 4.79532L57.3663 4.7942L55.7049 24.7251L55.7183 24.7262L57.3797 4.79532ZM57.3291 4.79123L57.3157 4.79019L55.7823 24.7313L55.7958 24.7324L57.3291 4.79123ZM65.4182 7.09287C62.9539 5.62468 60.1586 5.00888 57.3294 4.79125L55.7955 24.7323C56.3052 24.7715 56.446 24.8216 56.3324 24.7911C56.2071 24.7575 55.7699 24.6251 55.1814 24.2745L65.4182 7.09287ZM70.9219 13.4435C69.7681 10.8299 67.9947 8.62797 65.4182 7.09287L55.1814 24.2745C54.6384 23.951 54.025 23.4745 53.4777 22.8319C52.9659 22.231 52.714 21.7212 52.6253 21.5203L70.9219 13.4435ZM72.8165 21.578C72.5329 18.7052 72.0111 15.9109 70.9219 13.4435L52.6253 21.5203C52.5298 21.3039 52.5615 21.3076 52.6415 21.67C52.72 22.0257 52.8224 22.6225 52.9132 23.5427L72.8165 21.578ZM73.1771 31.5897C73.1771 27.8448 73.1036 24.486 72.8165 21.578L52.9132 23.5427C53.0992 25.4268 53.1771 27.9743 53.1771 31.5897H73.1771ZM72.8169 41.6311C73.1035 38.707 73.1771 35.3355 73.1771 31.5897H53.1771C53.1771 35.203 53.0994 37.771 52.9123 39.6802L72.8169 41.6311ZM70.9295 49.8082C72.0137 47.33 72.534 44.5179 72.8169 41.6311L52.9123 39.6802C52.8207 40.6144 52.717 41.2274 52.6356 41.5994C52.5525 41.9793 52.5165 41.9973 52.6064 41.7919L70.9295 49.8082ZM65.3893 56.2046C68.004 54.6673 69.7815 52.4322 70.9295 49.8082L52.6064 41.7918C52.6892 41.6025 52.9399 41.0862 53.4616 40.4716C54.0244 39.8085 54.666 39.3086 55.2528 38.9636L65.3893 56.2046ZM57.1826 58.3976C60.0444 58.2508 62.8822 57.6785 65.3892 56.2046L55.2528 38.9636C55.8906 38.5886 56.3806 38.4429 56.5598 38.398C56.7253 38.3566 56.6305 38.3996 56.1583 38.4238L57.1826 58.3976ZM57.1728 58.3981L57.1818 58.3976L56.159 38.4238L56.15 38.4243L57.1728 58.3981ZM57.2061 58.3963L57.2152 58.3958L56.1076 38.4265L56.0986 38.427L57.2061 58.3963ZM20.2573 58.3991C29.1015 58.8864 48.397 58.8857 57.2071 58.3963L56.0977 38.4271C48.028 38.8754 29.4702 38.8764 21.3576 38.4294L20.2573 58.3991ZM11.9949 56.0865C14.442 57.5445 17.2145 58.1613 20.0188 58.3831L21.5961 38.4454C21.0996 38.4061 20.9662 38.3574 21.0836 38.3891C21.2124 38.4239 21.6475 38.5569 22.2317 38.9049L11.9949 56.0865ZM6.49121 49.736C7.64495 52.3495 9.4184 54.5515 11.9949 56.0865L22.2317 38.9049C22.7747 39.2284 23.3881 39.705 23.9354 40.3475C24.4472 40.9484 24.6991 41.4583 24.7878 41.6591L6.49121 49.736ZM4.59657 41.6014C4.88015 44.4742 5.402 47.2686 6.49121 49.7359L24.7878 41.6591C24.8833 41.8755 24.8516 41.8719 24.7716 41.5094C24.693 41.1537 24.5907 40.5569 24.4998 39.6367L4.59657 41.6014ZM4.23602 31.5897C4.23602 35.3346 4.30952 38.6935 4.59657 41.6014L24.4998 39.6367C24.3138 37.7526 24.236 35.2051 24.236 31.5897H4.23602ZM4.59657 21.578C4.30952 24.486 4.23602 27.8448 4.23602 31.5897H24.236C24.236 27.9743 24.3138 25.4268 24.4998 23.5427L4.59657 21.578ZM6.49121 13.4435C5.402 15.9109 4.88015 18.7052 4.59657 21.578L24.4998 23.5427C24.5907 22.6225 24.693 22.0257 24.7716 21.67C24.8516 21.3076 24.8833 21.3039 24.7878 21.5203L6.49121 13.4435ZM11.9949 7.09287C9.41841 8.62796 7.64496 10.8299 6.49121 13.4435L24.7878 21.5203C24.6991 21.7212 24.4472 22.231 23.9354 22.8319C23.3881 23.4745 22.7747 23.951 22.2317 24.2745L11.9949 7.09287ZM20.0837 4.79125C17.2545 5.00888 14.4592 5.62468 11.9949 7.09287L22.2317 24.2745C21.6432 24.6251 21.206 24.7575 21.0807 24.7911C20.9671 24.8216 21.1079 24.7715 21.6176 24.7323L20.0837 4.79125ZM20.0974 4.79019L20.084 4.79123L21.6173 24.7324L21.6307 24.7313L20.0974 4.79019ZM20.0468 4.7942L20.0334 4.79532L21.6948 24.7262L21.7082 24.7251L20.0468 4.7942ZM57.366 4.79418C48.4355 4.04997 28.9776 4.04997 20.0471 4.79418L21.708 24.7251C29.5331 24.073 47.8799 24.073 55.7051 24.7251L57.366 4.79418ZM21.2927 42.6706C19.822 42.5575 19.683 42.3173 20.0636 42.544C20.6544 42.8961 20.9229 43.3932 20.9125 43.3698C20.797 43.1079 20.497 42.2078 20.2843 40.0529C20.0769 37.9516 20 35.2321 20 31.5897H0C0 35.3632 0.0726299 38.8933 0.381035 42.0176C0.684134 45.0881 1.26633 48.3893 2.61597 51.4466C4.07087 54.7424 6.38763 57.6766 9.82675 59.7256C13.0555 61.6493 16.5647 62.366 19.7588 62.6117L21.2927 42.6706ZM56.3326 42.6566C48.0902 43.1145 29.3229 43.1145 21.0804 42.6566L19.971 62.6258C28.9525 63.1247 48.4606 63.1247 57.4421 62.6258L56.3326 42.6566ZM57.4131 31.5897C57.4131 35.2307 57.3363 37.969 57.1281 40.0934C56.9143 42.2751 56.6115 43.2058 56.4873 43.4897C56.4652 43.5402 56.7392 43.0035 57.3997 42.6152C57.8556 42.3472 57.7913 42.5817 56.3752 42.6543L57.3995 62.628C60.6483 62.4614 64.232 61.7988 67.5362 59.8563C71.0448 57.7934 73.3672 54.8048 74.8104 51.5061C76.1514 48.441 76.7307 45.1255 77.0327 42.0443C77.3403 38.9058 77.4131 35.3646 77.4131 31.5897H57.4131ZM56.1204 20.5088C57.5911 20.6219 57.7301 20.8621 57.3495 20.6354C56.7586 20.2833 56.4902 19.7862 56.5005 19.8096C56.6161 20.0715 56.9161 20.9716 57.1288 23.1266C57.3362 25.2278 57.4131 27.9474 57.4131 31.5897H77.4131C77.4131 27.8162 77.3404 24.2861 77.032 21.1619C76.7289 18.0913 76.1468 14.7901 74.7971 11.7328C73.3422 8.43699 71.0255 5.50282 67.5863 3.45379C64.3576 1.53009 60.8484 0.813401 57.6543 0.567703L56.1204 20.5088ZM21.3562 20.5037C29.4155 19.8321 47.9976 19.8321 56.0569 20.5037L57.7178 0.57279C48.5532 -0.19093 28.8599 -0.19093 19.6953 0.57279L21.3562 20.5037ZM20 31.5897C20 27.9474 20.0769 25.2278 20.2843 23.1266C20.497 20.9716 20.797 20.0715 20.9125 19.8096C20.9229 19.7862 20.6544 20.2833 20.0636 20.6354C19.683 20.8621 19.822 20.6219 21.2927 20.5088L19.7588 0.567703C16.5647 0.813401 13.0555 1.53009 9.82674 3.45379C6.38763 5.50282 4.07087 8.43699 2.61597 11.7328C1.26633 14.7901 0.684134 18.0913 0.381035 21.1619C0.0726299 24.2861 0 27.8162 0 31.5897H20ZM21.5298 37.7315C21.5298 46.7398 31.0098 52.5989 39.0671 48.5702L30.1228 30.6817C35.3636 28.0613 41.5298 31.8722 41.5298 37.7315H21.5298ZM21.5298 25.4479V37.7315H41.5298V25.4479H21.5298ZM39.0671 14.6092C31.0098 10.5805 21.5298 16.4396 21.5298 25.4479H41.5298C41.5298 31.3072 35.3636 35.1181 30.1228 32.4977L39.0671 14.6092ZM51.3508 20.751L39.0671 14.6092L30.1228 32.4977L42.4065 38.6396L51.3508 20.751ZM51.3508 42.4284C60.2824 37.9626 60.2823 25.2168 51.3508 20.751L42.4065 38.6396C36.5971 35.7349 36.5971 27.4445 42.4065 24.5398L51.3508 42.4284ZM39.0671 48.5702L51.3508 42.4284L42.4065 24.5398L30.1228 30.6817L39.0671 48.5702Z" fill="url(#paint0_linear_271_7564)" mask="url(#path-1-outside-1_271_7564)"/>
    <defs>
        <linearGradient id="paint0_linear_271_7564" x1="77.2229" y1="47.292" x2="3.5065" y2="6.25" gradientUnits="userSpaceOnUse">
            <stop offset="0.0238222" stop-color="#E95616"/>
            <stop offset="1" stop-color="#2B2D83"/>
        </linearGradient>
    </defs>
</svg>
