<svg width="477" height="250" viewBox="0 0 477 250" fill="none" xmlns="http://www.w3.org/2000/svg">
    <path d="M5.908 16.14C4.90933 16.14 4.00867 15.9253 3.206 15.496C2.40333 15.0573 1.77333 14.4553 1.316 13.69C0.858667 12.9153 0.63 12.052 0.63 11.1C0.63 10.148 0.858667 9.28933 1.316 8.524C1.77333 7.74933 2.40333 7.14733 3.206 6.718C4.00867 6.27933 4.90933 6.06 5.908 6.06C6.90667 6.06 7.80733 6.27933 8.61 6.718C9.41267 7.14733 10.0427 7.74467 10.5 8.51C10.9573 9.27533 11.186 10.1387 11.186 11.1C11.186 12.0613 10.9573 12.9247 10.5 13.69C10.0427 14.4553 9.41267 15.0573 8.61 15.496C7.80733 15.9253 6.90667 16.14 5.908 16.14ZM5.908 14.544C6.56133 14.544 7.14933 14.3993 7.672 14.11C8.19467 13.8113 8.60533 13.4007 8.904 12.878C9.20267 12.346 9.352 11.7533 9.352 11.1C9.352 10.4467 9.20267 9.85867 8.904 9.336C8.60533 8.804 8.19467 8.39333 7.672 8.104C7.14933 7.80533 6.56133 7.656 5.908 7.656C5.25467 7.656 4.66667 7.80533 4.144 8.104C3.62133 8.39333 3.21067 8.804 2.912 9.336C2.61333 9.85867 2.464 10.4467 2.464 11.1C2.464 11.7533 2.61333 12.346 2.912 12.878C3.21067 13.4007 3.62133 13.8113 4.144 14.11C4.66667 14.3993 5.25467 14.544 5.908 14.544ZM20.1702 8.524V16H18.4342V10.008H14.7522V16H13.0022V8.524H20.1702ZM26.1715 10.988C27.1235 10.988 27.8515 11.2027 28.3555 11.632C28.8595 12.0613 29.1115 12.668 29.1115 13.452C29.1115 14.2733 28.8315 14.908 28.2715 15.356C27.7208 15.804 26.9368 16.0233 25.9195 16.014L22.5315 16V8.524H24.2815V10.974L26.1715 10.988ZM30.0775 8.524H31.8275V16H30.0775V8.524ZM25.7655 14.726C26.2788 14.7353 26.6708 14.628 26.9415 14.404C27.2121 14.18 27.3475 13.8533 27.3475 13.424C27.3475 13.004 27.2168 12.696 26.9555 12.5C26.6941 12.304 26.2975 12.2013 25.7655 12.192L24.2815 12.178V14.712L25.7655 14.726ZM40.1019 10.008H37.4839V16H35.7339V10.008H33.1019V8.524H40.1019V10.008Z" fill="white"/>
    <path fill-rule="evenodd" clip-rule="evenodd" d="M59.9998 18.5001C64.1419 18.5001 67.4998 15.1423 67.4998 11.0001C67.4998 6.85799 64.1419 3.50012 59.9998 3.50012C55.8576 3.50012 52.4998 6.85799 52.4998 11.0001C52.4998 15.1423 55.8576 18.5001 59.9998 18.5001Z" stroke="#EBEBF5" stroke-opacity="0.3" stroke-width="1.5" stroke-linecap="round" stroke-linejoin="round"/>
    <path d="M60 8.00012V11.0001" stroke="#EBEBF5" stroke-opacity="0.3" stroke-width="1.5" stroke-linecap="round" stroke-linejoin="round"/>
    <circle cx="59.9998" cy="14" r="0.75" fill="#EBEBF5" fill-opacity="0.3"/>
    <path opacity="0.2" d="M137.789 231.682C140.108 236.695 137.935 242.69 132.717 244.497C116.219 250.209 98.5071 251.502 81.3552 248.247C75.9293 247.217 72.9093 241.601 74.4756 236.305C76.0419 231.009 81.6035 228.052 87.0536 228.946C99.4999 230.987 112.257 230.056 124.275 226.228C129.538 224.552 135.47 226.67 137.789 231.682Z" fill="#C4C4C4"/>
    <path d="M72.1885 235.595C70.4818 240.848 64.8138 243.768 59.7579 241.545C48.858 236.754 38.8759 230.043 30.2997 221.707C19.3274 211.042 10.949 198.001 5.80947 183.588C0.669979 169.175 -1.09346 153.775 0.654931 138.574C2.40332 123.372 7.6169 108.775 15.8943 95.9054C24.1716 83.0359 35.292 72.2375 48.3991 64.3417C61.5062 56.4459 76.2505 51.6633 91.4967 50.3622C106.743 49.061 122.084 51.276 136.34 56.8366C147.482 61.1829 157.729 67.4825 166.61 75.4134C170.729 79.0921 170.422 85.4609 166.351 89.1924C162.279 92.9238 155.989 92.5919 151.779 89.0173C145.032 83.2879 137.362 78.7029 129.072 75.4693C117.668 71.0208 105.394 69.2488 93.1974 70.2897C81.0004 71.3307 69.205 75.1567 58.7193 81.4734C48.2336 87.79 39.3373 96.4287 32.7154 106.724C26.0935 117.02 21.9227 128.698 20.5239 140.859C19.1252 153.02 20.536 165.34 24.6476 176.87C28.7592 188.4 35.4619 198.833 44.2398 207.365C50.6203 213.568 57.9736 218.645 65.9856 222.409C70.9844 224.757 73.8951 230.343 72.1885 235.595Z" fill="url(#paint0_linear_183_3601)"/>
    <path opacity="0.5" d="M168.106 91.1643C172.285 87.5539 178.646 87.9895 181.821 92.5084C188.637 102.209 193.69 113.067 196.716 124.585C200.592 139.334 201.043 154.775 198.035 169.726C195.027 184.676 188.639 198.741 179.36 210.844C172.114 220.295 163.256 228.354 153.218 234.663C148.542 237.602 142.508 235.544 140.05 230.598C137.592 225.652 139.654 219.7 144.254 216.645C151.595 211.771 158.099 205.704 163.488 198.675C170.911 188.993 176.022 177.741 178.428 165.781C180.835 153.82 180.474 141.467 177.373 129.668C175.122 121.101 171.47 112.991 166.586 105.657C163.525 101.061 163.926 94.7748 168.106 91.1643Z" fill="#C4C4C4"/>
    <path d="M71.2782 146.89C74.2382 146.89 76.4182 147.48 77.8182 148.66C79.2382 149.84 79.9482 151.42 79.9482 153.4C79.9482 154.68 79.6282 155.85 78.9882 156.91C78.3482 157.95 77.3682 158.79 76.0482 159.43C74.7482 160.05 73.1382 160.36 71.2182 160.36C69.7382 160.36 68.2782 160.17 66.8382 159.79C65.4182 159.39 64.2082 158.83 63.2082 158.11L65.1282 154.39C65.9282 154.99 66.8482 155.46 67.8882 155.8C68.9282 156.12 69.9982 156.28 71.0982 156.28C72.3182 156.28 73.2782 156.04 73.9782 155.56C74.6782 155.08 75.0282 154.41 75.0282 153.55C75.0282 152.65 74.6582 151.97 73.9182 151.51C73.1982 151.05 71.9382 150.82 70.1382 150.82H64.7682L65.8482 139H78.6582V142.9H69.8982L69.5682 146.89H71.2782ZM84.71 154.42C85.55 154.42 86.24 154.69 86.78 155.23C87.32 155.75 87.59 156.44 87.59 157.3C87.59 157.7 87.54 158.1 87.44 158.5C87.34 158.9 87.12 159.5 86.78 160.3L85.07 164.62H82.1L83.42 159.85C82.92 159.65 82.52 159.33 82.22 158.89C81.94 158.43 81.8 157.9 81.8 157.3C81.8 156.44 82.07 155.75 82.61 155.23C83.17 154.69 83.87 154.42 84.71 154.42ZM105.755 156.04V160H89.8845V156.85L97.9845 149.2C98.8445 148.38 99.4245 147.68 99.7245 147.1C100.025 146.5 100.175 145.91 100.175 145.33C100.175 144.49 99.8845 143.85 99.3045 143.41C98.7445 142.95 97.9145 142.72 96.8145 142.72C95.8945 142.72 95.0645 142.9 94.3245 143.26C93.5845 143.6 92.9645 144.12 92.4645 144.82L88.9245 142.54C89.7445 141.32 90.8745 140.37 92.3145 139.69C93.7545 138.99 95.4045 138.64 97.2645 138.64C98.8245 138.64 100.185 138.9 101.345 139.42C102.525 139.92 103.435 140.64 104.075 141.58C104.735 142.5 105.065 143.59 105.065 144.85C105.065 145.99 104.825 147.06 104.345 148.06C103.865 149.06 102.935 150.2 101.555 151.48L96.7245 156.04H105.755ZM115.86 139V160H111V142.9H106.8V139H115.86ZM129.318 147.55C131.158 147.85 132.568 148.54 133.548 149.62C134.528 150.68 135.018 152 135.018 153.58C135.018 154.8 134.698 155.93 134.058 156.97C133.418 157.99 132.438 158.81 131.118 159.43C129.818 160.05 128.218 160.36 126.318 160.36C124.838 160.36 123.378 160.17 121.938 159.79C120.518 159.39 119.308 158.83 118.308 158.11L120.198 154.39C120.998 154.99 121.918 155.46 122.958 155.8C124.018 156.12 125.098 156.28 126.198 156.28C127.418 156.28 128.378 156.05 129.078 155.59C129.778 155.11 130.128 154.44 130.128 153.58C130.128 151.86 128.818 151 126.198 151H123.978V147.79L128.298 142.9H119.358V139H134.058V142.15L129.318 147.55Z" fill="white"/>
    <path d="M84.0422 195.096C82.9329 195.096 81.9249 194.851 81.0182 194.36C80.1222 193.859 79.4182 193.176 78.9062 192.312C78.4049 191.448 78.1542 190.477 78.1542 189.4C78.1542 188.323 78.4049 187.352 78.9062 186.488C79.4182 185.624 80.1222 184.947 81.0182 184.456C81.9249 183.955 82.9329 183.704 84.0422 183.704C85.1515 183.704 86.1489 183.949 87.0342 184.44C87.9302 184.931 88.6342 185.613 89.1462 186.488C89.6582 187.352 89.9142 188.323 89.9142 189.4C89.9142 190.477 89.6582 191.453 89.1462 192.328C88.6342 193.192 87.9302 193.869 87.0342 194.36C86.1489 194.851 85.1515 195.096 84.0422 195.096ZM84.0422 194.04C84.9275 194.04 85.7275 193.843 86.4422 193.448C87.1569 193.043 87.7169 192.488 88.1222 191.784C88.5275 191.069 88.7302 190.275 88.7302 189.4C88.7302 188.525 88.5275 187.736 88.1222 187.032C87.7169 186.317 87.1569 185.763 86.4422 185.368C85.7275 184.963 84.9275 184.76 84.0422 184.76C83.1569 184.76 82.3515 184.963 81.6262 185.368C80.9115 185.763 80.3462 186.317 79.9302 187.032C79.5249 187.736 79.3222 188.525 79.3222 189.4C79.3222 190.275 79.5249 191.069 79.9302 191.784C80.3462 192.488 80.9115 193.043 81.6262 193.448C82.3515 193.843 83.1569 194.04 84.0422 194.04ZM100.02 186.584V195H98.8836V187.592H93.6036V195H92.4676V186.584H100.02ZM106.785 189.56C107.841 189.571 108.646 189.805 109.201 190.264C109.755 190.723 110.033 191.384 110.033 192.248C110.033 193.144 109.734 193.832 109.137 194.312C108.539 194.792 107.686 195.027 106.577 195.016L103.249 195V186.584H104.385V189.528L106.785 189.56ZM111.441 186.584H112.577V195H111.441V186.584ZM106.513 194.152C107.291 194.163 107.878 194.008 108.273 193.688C108.678 193.357 108.881 192.877 108.881 192.248C108.881 191.629 108.683 191.171 108.289 190.872C107.894 190.573 107.302 190.419 106.513 190.408L104.385 190.376V194.12L106.513 194.152ZM121.731 187.592H118.547V195H117.411V187.592H114.227V186.584H121.731V187.592Z" fill="white"/>
    <rect x="240" y="59" width="30" height="4" rx="2" fill="url(#paint1_linear_183_3601)"/>
    <path d="M293.484 57.74H290.236V66H288.43V57.74H285.196V56.2H293.484V57.74ZM301.092 62.304C301.092 62.4253 301.083 62.598 301.064 62.822H295.198C295.301 63.3727 295.567 63.8113 295.996 64.138C296.435 64.4553 296.976 64.614 297.62 64.614C298.441 64.614 299.118 64.3433 299.65 63.802L300.588 64.88C300.252 65.2813 299.827 65.5847 299.314 65.79C298.801 65.9953 298.222 66.098 297.578 66.098C296.757 66.098 296.033 65.9347 295.408 65.608C294.783 65.2813 294.297 64.8287 293.952 64.25C293.616 63.662 293.448 62.9993 293.448 62.262C293.448 61.534 293.611 60.8807 293.938 60.302C294.274 59.714 294.736 59.2567 295.324 58.93C295.912 58.6033 296.575 58.44 297.312 58.44C298.04 58.44 298.689 58.6033 299.258 58.93C299.837 59.2473 300.285 59.7 300.602 60.288C300.929 60.8667 301.092 61.5387 301.092 62.304ZM297.312 59.84C296.752 59.84 296.276 60.008 295.884 60.344C295.501 60.6707 295.268 61.1093 295.184 61.66H299.426C299.351 61.1187 299.123 60.68 298.74 60.344C298.357 60.008 297.881 59.84 297.312 59.84ZM306.114 63.004H304.756V66H303.006V58.524H304.756V61.548H306.156L308.368 58.524H310.244L307.528 62.122L310.426 66H308.368L306.114 63.004ZM318.293 58.524L314.793 66.602C314.466 67.414 314.069 67.9833 313.603 68.31C313.136 68.646 312.571 68.814 311.909 68.814C311.535 68.814 311.167 68.7533 310.803 68.632C310.439 68.5107 310.14 68.3427 309.907 68.128L310.607 66.84C310.775 66.9987 310.971 67.1247 311.195 67.218C311.428 67.3113 311.661 67.358 311.895 67.358C312.203 67.358 312.455 67.2787 312.651 67.12C312.856 66.9613 313.043 66.6953 313.211 66.322L313.337 66.028L310.075 58.524H311.895L314.247 64.054L316.613 58.524H318.293ZM330.526 58.524V66H319.508V58.524H321.258V64.516H324.156V58.524H325.906V64.516H328.776V58.524H330.526ZM331.604 64.516V67.54H329.966V66H328.72V64.516H331.604ZM335.665 58.44C336.766 58.44 337.606 58.706 338.185 59.238C338.773 59.7607 339.067 60.554 339.067 61.618V66H337.415V65.09C337.2 65.4167 336.892 65.6687 336.491 65.846C336.099 66.014 335.623 66.098 335.063 66.098C334.503 66.098 334.013 66.0047 333.593 65.818C333.173 65.622 332.846 65.356 332.613 65.02C332.389 64.6747 332.277 64.2873 332.277 63.858C332.277 63.186 332.524 62.6493 333.019 62.248C333.523 61.8373 334.312 61.632 335.385 61.632H337.317V61.52C337.317 60.9973 337.158 60.596 336.841 60.316C336.533 60.036 336.071 59.896 335.455 59.896C335.035 59.896 334.62 59.9613 334.209 60.092C333.808 60.2227 333.467 60.4047 333.187 60.638L332.501 59.364C332.893 59.0653 333.364 58.8367 333.915 58.678C334.466 58.5193 335.049 58.44 335.665 58.44ZM335.427 64.824C335.866 64.824 336.253 64.726 336.589 64.53C336.934 64.3247 337.177 64.0353 337.317 63.662V62.794H335.511C334.503 62.794 333.999 63.1253 333.999 63.788C333.999 64.1053 334.125 64.3573 334.377 64.544C334.629 64.7307 334.979 64.824 335.427 64.824ZM347.547 58.524V66H345.979V63.746H344.005L342.479 66H340.603L342.367 63.508C341.825 63.3213 341.41 63.0367 341.121 62.654C340.841 62.262 340.701 61.7813 340.701 61.212C340.701 60.3533 341.004 59.6907 341.611 59.224C342.217 58.7573 343.053 58.524 344.117 58.524H347.547ZM344.173 59.994C343.043 59.994 342.479 60.4187 342.479 61.268C342.479 62.108 343.025 62.528 344.117 62.528H345.979V59.994H344.173ZM358.236 62.108C358.702 62.2387 359.062 62.4533 359.314 62.752C359.575 63.0413 359.706 63.3913 359.706 63.802C359.706 64.2593 359.552 64.6653 359.244 65.02C358.936 65.3653 358.511 65.636 357.97 65.832C357.428 66.028 356.812 66.126 356.122 66.126C355.543 66.126 354.978 66.0607 354.428 65.93C353.877 65.79 353.378 65.594 352.93 65.342L353.434 64.04C353.798 64.2453 354.208 64.404 354.666 64.516C355.123 64.628 355.58 64.684 356.038 64.684C356.626 64.684 357.083 64.5953 357.41 64.418C357.746 64.2313 357.914 63.9793 357.914 63.662C357.914 63.3727 357.783 63.1487 357.522 62.99C357.27 62.8313 356.91 62.752 356.444 62.752H354.988V61.576H356.304C356.742 61.576 357.083 61.5013 357.326 61.352C357.578 61.2027 357.704 60.9927 357.704 60.722C357.704 60.4513 357.554 60.2367 357.256 60.078C356.957 59.9193 356.546 59.84 356.024 59.84C355.277 59.84 354.488 60.022 353.658 60.386L353.21 59.098C354.19 58.6407 355.179 58.412 356.178 58.412C356.812 58.412 357.382 58.5007 357.886 58.678C358.39 58.846 358.782 59.0887 359.062 59.406C359.351 59.714 359.496 60.0687 359.496 60.47C359.496 60.834 359.384 61.1607 359.16 61.45C358.936 61.73 358.628 61.9493 358.236 62.108ZM364.308 58.44C365.409 58.44 366.249 58.706 366.828 59.238C367.416 59.7607 367.71 60.554 367.71 61.618V66H366.058V65.09C365.843 65.4167 365.535 65.6687 365.134 65.846C364.742 66.014 364.266 66.098 363.706 66.098C363.146 66.098 362.656 66.0047 362.236 65.818C361.816 65.622 361.489 65.356 361.256 65.02C361.032 64.6747 360.92 64.2873 360.92 63.858C360.92 63.186 361.167 62.6493 361.662 62.248C362.166 61.8373 362.954 61.632 364.028 61.632H365.96V61.52C365.96 60.9973 365.801 60.596 365.484 60.316C365.176 60.036 364.714 59.896 364.098 59.896C363.678 59.896 363.262 59.9613 362.852 60.092C362.45 60.2227 362.11 60.4047 361.83 60.638L361.144 59.364C361.536 59.0653 362.007 58.8367 362.558 58.678C363.108 58.5193 363.692 58.44 364.308 58.44ZM364.07 64.824C364.508 64.824 364.896 64.726 365.232 64.53C365.577 64.3247 365.82 64.0353 365.96 63.662V62.794H364.154C363.146 62.794 362.642 63.1253 362.642 63.788C362.642 64.1053 362.768 64.3573 363.02 64.544C363.272 64.7307 363.622 64.824 364.07 64.824ZM377.855 64.516V67.666H376.217V66H370.449V67.666H368.825V64.516H369.175C369.651 64.4973 369.973 64.194 370.141 63.606C370.319 63.0087 370.435 62.1687 370.491 61.086L370.589 58.524H376.749V64.516H377.855ZM372.087 61.212C372.05 62.0707 371.98 62.7707 371.877 63.312C371.775 63.8533 371.588 64.2547 371.317 64.516H374.999V60.008H372.129L372.087 61.212ZM382.204 58.44C383.306 58.44 384.146 58.706 384.724 59.238C385.312 59.7607 385.606 60.554 385.606 61.618V66H383.954V65.09C383.74 65.4167 383.432 65.6687 383.03 65.846C382.638 66.014 382.162 66.098 381.602 66.098C381.042 66.098 380.552 66.0047 380.132 65.818C379.712 65.622 379.386 65.356 379.152 65.02C378.928 64.6747 378.816 64.2873 378.816 63.858C378.816 63.186 379.064 62.6493 379.558 62.248C380.062 61.8373 380.851 61.632 381.924 61.632H383.856V61.52C383.856 60.9973 383.698 60.596 383.38 60.316C383.072 60.036 382.61 59.896 381.994 59.896C381.574 59.896 381.159 59.9613 380.748 60.092C380.347 60.2227 380.006 60.4047 379.726 60.638L379.04 59.364C379.432 59.0653 379.904 58.8367 380.454 58.678C381.005 58.5193 381.588 58.44 382.204 58.44ZM381.966 64.824C382.405 64.824 382.792 64.726 383.128 64.53C383.474 64.3247 383.716 64.0353 383.856 63.662V62.794H382.05C381.042 62.794 380.538 63.1253 380.538 63.788C380.538 64.1053 380.664 64.3573 380.916 64.544C381.168 64.7307 381.518 64.824 381.966 64.824ZM394.114 58.524V66H392.364V63.102C391.645 63.4473 390.894 63.62 390.11 63.62C389.148 63.62 388.411 63.4007 387.898 62.962C387.384 62.514 387.128 61.8327 387.128 60.918V58.524H388.878V60.806C388.878 61.282 389.018 61.6367 389.298 61.87C389.578 62.1033 389.974 62.22 390.488 62.22C391.141 62.22 391.766 62.08 392.364 61.8V58.524H394.114ZM399.253 58.44C400.354 58.44 401.194 58.706 401.773 59.238C402.361 59.7607 402.655 60.554 402.655 61.618V66H401.003V65.09C400.788 65.4167 400.48 65.6687 400.079 65.846C399.687 66.014 399.211 66.098 398.651 66.098C398.091 66.098 397.601 66.0047 397.181 65.818C396.761 65.622 396.434 65.356 396.201 65.02C395.977 64.6747 395.865 64.2873 395.865 63.858C395.865 63.186 396.112 62.6493 396.607 62.248C397.111 61.8373 397.9 61.632 398.973 61.632H400.905V61.52C400.905 60.9973 400.746 60.596 400.429 60.316C400.121 60.036 399.659 59.896 399.043 59.896C398.623 59.896 398.208 59.9613 397.797 60.092C397.396 60.2227 397.055 60.4047 396.775 60.638L396.089 59.364C396.481 59.0653 396.952 58.8367 397.503 58.678C398.054 58.5193 398.637 58.44 399.253 58.44ZM399.015 64.824C399.454 64.824 399.841 64.726 400.177 64.53C400.522 64.3247 400.765 64.0353 400.905 63.662V62.794H399.099C398.091 62.794 397.587 63.1253 397.587 63.788C397.587 64.1053 397.713 64.3573 397.965 64.544C398.217 64.7307 398.567 64.824 399.015 64.824Z" fill="#EBEBF5" fill-opacity="0.3"/>
    <path d="M289.788 86.246C290.693 86.358 291.384 86.666 291.86 87.17C292.336 87.674 292.574 88.304 292.574 89.06C292.574 89.6293 292.429 90.1473 292.14 90.614C291.851 91.0807 291.412 91.454 290.824 91.734C290.245 92.0047 289.536 92.14 288.696 92.14C287.996 92.14 287.319 92.042 286.666 91.846C286.022 91.6407 285.471 91.3607 285.014 91.006L285.798 89.592C286.153 89.8907 286.582 90.1287 287.086 90.306C287.599 90.474 288.127 90.558 288.668 90.558C289.312 90.558 289.816 90.4273 290.18 90.166C290.553 89.8953 290.74 89.5313 290.74 89.074C290.74 88.6167 290.563 88.262 290.208 88.01C289.863 87.7487 289.331 87.618 288.612 87.618H287.716V86.372L289.942 83.726H285.49V82.2H292.168V83.418L289.788 86.246ZM294.87 89.774C295.197 89.774 295.468 89.8813 295.682 90.096C295.897 90.3107 296.004 90.5907 296.004 90.936C296.004 91.0853 295.981 91.244 295.934 91.412C295.897 91.5707 295.813 91.8133 295.682 92.14L294.968 94.114H293.834L294.394 91.972C294.189 91.888 294.026 91.7573 293.904 91.58C293.792 91.3933 293.736 91.1787 293.736 90.936C293.736 90.5907 293.844 90.3107 294.058 90.096C294.273 89.8813 294.544 89.774 294.87 89.774ZM304.417 90.46V92H297.193V90.782L301.085 87.086C301.524 86.666 301.818 86.302 301.967 85.994C302.126 85.6767 302.205 85.364 302.205 85.056C302.205 84.5987 302.051 84.2487 301.743 84.006C301.435 83.7633 300.982 83.642 300.385 83.642C299.386 83.642 298.621 83.9827 298.089 84.664L296.815 83.684C297.198 83.1707 297.711 82.774 298.355 82.494C299.008 82.2047 299.736 82.06 300.539 82.06C301.603 82.06 302.452 82.312 303.087 82.816C303.722 83.32 304.039 84.006 304.039 84.874C304.039 85.406 303.927 85.9053 303.703 86.372C303.479 86.8387 303.05 87.3707 302.415 87.968L299.797 90.46H304.417ZM308.856 82.2V92H307.036V83.726H304.964V82.2H308.856ZM314.972 86.246C315.877 86.358 316.568 86.666 317.044 87.17C317.52 87.674 317.758 88.304 317.758 89.06C317.758 89.6293 317.613 90.1473 317.324 90.614C317.034 91.0807 316.596 91.454 316.008 91.734C315.429 92.0047 314.72 92.14 313.88 92.14C313.18 92.14 312.503 92.042 311.85 91.846C311.206 91.6407 310.655 91.3607 310.198 91.006L310.982 89.592C311.336 89.8907 311.766 90.1287 312.27 90.306C312.783 90.474 313.31 90.558 313.852 90.558C314.496 90.558 315 90.4273 315.364 90.166C315.737 89.8953 315.924 89.5313 315.924 89.074C315.924 88.6167 315.746 88.262 315.392 88.01C315.046 87.7487 314.514 87.618 313.796 87.618H312.9V86.372L315.126 83.726H310.674V82.2H317.352V83.418L314.972 86.246ZM326.709 92.098C325.953 92.098 325.272 91.9347 324.665 91.608C324.059 91.2813 323.583 90.8287 323.237 90.25C322.901 89.662 322.733 88.9993 322.733 88.262C322.733 87.5247 322.901 86.8667 323.237 86.288C323.583 85.7093 324.059 85.2567 324.665 84.93C325.272 84.6033 325.953 84.44 326.709 84.44C327.475 84.44 328.161 84.6033 328.767 84.93C329.374 85.2567 329.845 85.7093 330.181 86.288C330.527 86.8667 330.699 87.5247 330.699 88.262C330.699 88.9993 330.527 89.662 330.181 90.25C329.845 90.8287 329.374 91.2813 328.767 91.608C328.161 91.9347 327.475 92.098 326.709 92.098ZM326.709 90.6C327.353 90.6 327.885 90.3853 328.305 89.956C328.725 89.5267 328.935 88.962 328.935 88.262C328.935 87.562 328.725 86.9973 328.305 86.568C327.885 86.1387 327.353 85.924 326.709 85.924C326.065 85.924 325.533 86.1387 325.113 86.568C324.703 86.9973 324.497 87.562 324.497 88.262C324.497 88.962 324.703 89.5267 325.113 89.956C325.533 90.3853 326.065 90.6 326.709 90.6ZM338.77 84.524V92H337.02V89.102C336.301 89.4473 335.55 89.62 334.766 89.62C333.805 89.62 333.067 89.4007 332.554 88.962C332.041 88.514 331.784 87.8327 331.784 86.918V84.524H333.534V86.806C333.534 87.282 333.674 87.6367 333.954 87.87C334.234 88.1033 334.631 88.22 335.144 88.22C335.797 88.22 336.423 88.08 337.02 87.8V84.524H338.77ZM344.231 89.004H342.873V92H341.123V84.524H342.873V87.548H344.273L346.485 84.524H348.361L345.645 88.122L348.543 92H346.485L344.231 89.004ZM352.427 84.44C353.528 84.44 354.368 84.706 354.947 85.238C355.535 85.7607 355.829 86.554 355.829 87.618V92H354.177V91.09C353.962 91.4167 353.654 91.6687 353.253 91.846C352.861 92.014 352.385 92.098 351.825 92.098C351.265 92.098 350.775 92.0047 350.355 91.818C349.935 91.622 349.608 91.356 349.375 91.02C349.151 90.6747 349.039 90.2873 349.039 89.858C349.039 89.186 349.286 88.6493 349.781 88.248C350.285 87.8373 351.074 87.632 352.147 87.632H354.079V87.52C354.079 86.9973 353.92 86.596 353.603 86.316C353.295 86.036 352.833 85.896 352.217 85.896C351.797 85.896 351.382 85.9613 350.971 86.092C350.57 86.2227 350.229 86.4047 349.949 86.638L349.263 85.364C349.655 85.0653 350.126 84.8367 350.677 84.678C351.228 84.5193 351.811 84.44 352.427 84.44ZM352.189 90.824C352.628 90.824 353.015 90.726 353.351 90.53C353.696 90.3247 353.939 90.0353 354.079 89.662V88.794H352.273C351.265 88.794 350.761 89.1253 350.761 89.788C350.761 90.1053 350.887 90.3573 351.139 90.544C351.391 90.7307 351.741 90.824 352.189 90.824Z" fill="white"/>
    <rect opacity="0.5" x="240" y="135" width="30" height="4" rx="2" fill="#C4C4C4"/>
    <path d="M290.88 142.14C289.891 142.14 288.995 141.925 288.192 141.496C287.399 141.057 286.773 140.455 286.316 139.69C285.868 138.925 285.644 138.061 285.644 137.1C285.644 136.139 285.873 135.275 286.33 134.51C286.787 133.745 287.413 133.147 288.206 132.718C289.009 132.279 289.905 132.06 290.894 132.06C291.697 132.06 292.429 132.2 293.092 132.48C293.755 132.76 294.315 133.166 294.772 133.698L293.596 134.804C292.887 134.039 292.014 133.656 290.978 133.656C290.306 133.656 289.704 133.805 289.172 134.104C288.64 134.393 288.225 134.799 287.926 135.322C287.627 135.845 287.478 136.437 287.478 137.1C287.478 137.763 287.627 138.355 287.926 138.878C288.225 139.401 288.64 139.811 289.172 140.11C289.704 140.399 290.306 140.544 290.978 140.544C292.014 140.544 292.887 140.157 293.596 139.382L294.772 140.502C294.315 141.034 293.75 141.44 293.078 141.72C292.415 142 291.683 142.14 290.88 142.14ZM302.741 134.524V142H300.991V136.008H298.191L298.121 137.492C298.074 138.481 297.981 139.312 297.841 139.984C297.71 140.647 297.482 141.174 297.155 141.566C296.838 141.949 296.399 142.14 295.839 142.14C295.578 142.14 295.256 142.089 294.873 141.986L294.957 140.516C295.088 140.544 295.2 140.558 295.293 140.558C295.648 140.558 295.914 140.418 296.091 140.138C296.268 139.849 296.38 139.508 296.427 139.116C296.483 138.715 296.53 138.145 296.567 137.408L296.693 134.524H302.741ZM312.098 138.304C312.098 138.425 312.089 138.598 312.07 138.822H306.204C306.307 139.373 306.573 139.811 307.002 140.138C307.441 140.455 307.982 140.614 308.626 140.614C309.447 140.614 310.124 140.343 310.656 139.802L311.594 140.88C311.258 141.281 310.833 141.585 310.32 141.79C309.807 141.995 309.228 142.098 308.584 142.098C307.763 142.098 307.039 141.935 306.414 141.608C305.789 141.281 305.303 140.829 304.958 140.25C304.622 139.662 304.454 138.999 304.454 138.262C304.454 137.534 304.617 136.881 304.944 136.302C305.28 135.714 305.742 135.257 306.33 134.93C306.918 134.603 307.581 134.44 308.318 134.44C309.046 134.44 309.695 134.603 310.264 134.93C310.843 135.247 311.291 135.7 311.608 136.288C311.935 136.867 312.098 137.539 312.098 138.304ZM308.318 135.84C307.758 135.84 307.282 136.008 306.89 136.344C306.507 136.671 306.274 137.109 306.19 137.66H310.432C310.357 137.119 310.129 136.68 309.746 136.344C309.363 136.008 308.887 135.84 308.318 135.84ZM321.896 140.516V143.666H320.258V142H314.49V143.666H312.866V140.516H313.216C313.692 140.497 314.014 140.194 314.182 139.606C314.36 139.009 314.476 138.169 314.532 137.086L314.63 134.524H320.79V140.516H321.896ZM316.128 137.212C316.091 138.071 316.021 138.771 315.918 139.312C315.816 139.853 315.629 140.255 315.358 140.516H319.04V136.008H316.17L316.128 137.212ZM330.515 134.524L327.015 142.602C326.689 143.414 326.292 143.983 325.825 144.31C325.359 144.646 324.794 144.814 324.131 144.814C323.758 144.814 323.389 144.753 323.025 144.632C322.661 144.511 322.363 144.343 322.129 144.128L322.829 142.84C322.997 142.999 323.193 143.125 323.417 143.218C323.651 143.311 323.884 143.358 324.117 143.358C324.425 143.358 324.677 143.279 324.873 143.12C325.079 142.961 325.265 142.695 325.433 142.322L325.559 142.028L322.297 134.524H324.117L326.469 140.054L328.835 134.524H330.515ZM338.563 134.44C339.309 134.44 339.977 134.603 340.565 134.93C341.153 135.247 341.615 135.7 341.951 136.288C342.287 136.867 342.455 137.525 342.455 138.262C342.455 138.999 342.287 139.662 341.951 140.25C341.615 140.829 341.153 141.281 340.565 141.608C339.977 141.935 339.309 142.098 338.563 142.098C337.909 142.098 337.312 141.972 336.771 141.72C336.229 141.459 335.781 141.095 335.427 140.628C335.072 140.152 334.843 139.611 334.741 139.004H333.481V142H331.731V134.524H333.481V137.422H334.769C334.881 136.834 335.114 136.316 335.469 135.868C335.823 135.411 336.267 135.061 336.799 134.818C337.331 134.566 337.919 134.44 338.563 134.44ZM338.563 140.614C338.973 140.614 339.342 140.521 339.669 140.334C339.995 140.138 340.252 139.863 340.439 139.508C340.625 139.144 340.719 138.729 340.719 138.262C340.719 137.553 340.513 136.988 340.103 136.568C339.701 136.139 339.188 135.924 338.563 135.924C337.937 135.924 337.424 136.139 337.023 136.568C336.621 136.988 336.421 137.553 336.421 138.262C336.421 138.971 336.621 139.541 337.023 139.97C337.433 140.399 337.947 140.614 338.563 140.614ZM355.19 134.524V142H344.172V134.524H345.922V140.516H348.82V134.524H350.57V140.516H353.44V134.524H355.19ZM356.268 140.516V143.54H354.63V142H353.384V140.516H356.268ZM360.329 134.44C361.431 134.44 362.271 134.706 362.849 135.238C363.437 135.761 363.731 136.554 363.731 137.618V142H362.079V141.09C361.865 141.417 361.557 141.669 361.155 141.846C360.763 142.014 360.287 142.098 359.727 142.098C359.167 142.098 358.677 142.005 358.257 141.818C357.837 141.622 357.511 141.356 357.277 141.02C357.053 140.675 356.941 140.287 356.941 139.858C356.941 139.186 357.189 138.649 357.683 138.248C358.187 137.837 358.976 137.632 360.049 137.632H361.981V137.52C361.981 136.997 361.823 136.596 361.505 136.316C361.197 136.036 360.735 135.896 360.119 135.896C359.699 135.896 359.284 135.961 358.873 136.092C358.472 136.223 358.131 136.405 357.851 136.638L357.165 135.364C357.557 135.065 358.029 134.837 358.579 134.678C359.13 134.519 359.713 134.44 360.329 134.44ZM360.091 140.824C360.53 140.824 360.917 140.726 361.253 140.53C361.599 140.325 361.841 140.035 361.981 139.662V138.794H360.175C359.167 138.794 358.663 139.125 358.663 139.788C358.663 140.105 358.789 140.357 359.041 140.544C359.293 140.731 359.643 140.824 360.091 140.824ZM372.211 134.524V142H370.643V139.746H368.669L367.143 142H365.267L367.031 139.508C366.489 139.321 366.074 139.037 365.785 138.654C365.505 138.262 365.365 137.781 365.365 137.212C365.365 136.353 365.668 135.691 366.275 135.224C366.881 134.757 367.717 134.524 368.781 134.524H372.211ZM368.837 135.994C367.707 135.994 367.143 136.419 367.143 137.268C367.143 138.108 367.689 138.528 368.781 138.528H370.643V135.994H368.837ZM382.9 138.108C383.366 138.239 383.726 138.453 383.978 138.752C384.239 139.041 384.37 139.391 384.37 139.802C384.37 140.259 384.216 140.665 383.908 141.02C383.6 141.365 383.175 141.636 382.634 141.832C382.092 142.028 381.476 142.126 380.786 142.126C380.207 142.126 379.642 142.061 379.092 141.93C378.541 141.79 378.042 141.594 377.594 141.342L378.098 140.04C378.462 140.245 378.872 140.404 379.33 140.516C379.787 140.628 380.244 140.684 380.702 140.684C381.29 140.684 381.747 140.595 382.074 140.418C382.41 140.231 382.578 139.979 382.578 139.662C382.578 139.373 382.447 139.149 382.186 138.99C381.934 138.831 381.574 138.752 381.108 138.752H379.652V137.576H380.968C381.406 137.576 381.747 137.501 381.99 137.352C382.242 137.203 382.368 136.993 382.368 136.722C382.368 136.451 382.218 136.237 381.92 136.078C381.621 135.919 381.21 135.84 380.688 135.84C379.941 135.84 379.152 136.022 378.322 136.386L377.874 135.098C378.854 134.641 379.843 134.412 380.842 134.412C381.476 134.412 382.046 134.501 382.55 134.678C383.054 134.846 383.446 135.089 383.726 135.406C384.015 135.714 384.16 136.069 384.16 136.47C384.16 136.834 384.048 137.161 383.824 137.45C383.6 137.73 383.292 137.949 382.9 138.108ZM388.972 134.44C390.073 134.44 390.913 134.706 391.492 135.238C392.08 135.761 392.374 136.554 392.374 137.618V142H390.722V141.09C390.507 141.417 390.199 141.669 389.798 141.846C389.406 142.014 388.93 142.098 388.37 142.098C387.81 142.098 387.32 142.005 386.9 141.818C386.48 141.622 386.153 141.356 385.92 141.02C385.696 140.675 385.584 140.287 385.584 139.858C385.584 139.186 385.831 138.649 386.326 138.248C386.83 137.837 387.618 137.632 388.692 137.632H390.624V137.52C390.624 136.997 390.465 136.596 390.148 136.316C389.84 136.036 389.378 135.896 388.762 135.896C388.342 135.896 387.926 135.961 387.516 136.092C387.114 136.223 386.774 136.405 386.494 136.638L385.808 135.364C386.2 135.065 386.671 134.837 387.222 134.678C387.772 134.519 388.356 134.44 388.972 134.44ZM388.734 140.824C389.172 140.824 389.56 140.726 389.896 140.53C390.241 140.325 390.484 140.035 390.624 139.662V138.794H388.818C387.81 138.794 387.306 139.125 387.306 139.788C387.306 140.105 387.432 140.357 387.684 140.544C387.936 140.731 388.286 140.824 388.734 140.824ZM402.519 140.516V143.666H400.881V142H395.113V143.666H393.489V140.516H393.839C394.315 140.497 394.637 140.194 394.805 139.606C394.983 139.009 395.099 138.169 395.155 137.086L395.253 134.524H401.413V140.516H402.519ZM396.751 137.212C396.714 138.071 396.644 138.771 396.541 139.312C396.439 139.853 396.252 140.255 395.981 140.516H399.663V136.008H396.793L396.751 137.212ZM406.868 134.44C407.97 134.44 408.81 134.706 409.388 135.238C409.976 135.761 410.27 136.554 410.27 137.618V142H408.618V141.09C408.404 141.417 408.096 141.669 407.694 141.846C407.302 142.014 406.826 142.098 406.266 142.098C405.706 142.098 405.216 142.005 404.796 141.818C404.376 141.622 404.05 141.356 403.816 141.02C403.592 140.675 403.48 140.287 403.48 139.858C403.48 139.186 403.728 138.649 404.222 138.248C404.726 137.837 405.515 137.632 406.588 137.632H408.52V137.52C408.52 136.997 408.362 136.596 408.044 136.316C407.736 136.036 407.274 135.896 406.658 135.896C406.238 135.896 405.823 135.961 405.412 136.092C405.011 136.223 404.67 136.405 404.39 136.638L403.704 135.364C404.096 135.065 404.568 134.837 405.118 134.678C405.669 134.519 406.252 134.44 406.868 134.44ZM406.63 140.824C407.069 140.824 407.456 140.726 407.792 140.53C408.138 140.325 408.38 140.035 408.52 139.662V138.794H406.714C405.706 138.794 405.202 139.125 405.202 139.788C405.202 140.105 405.328 140.357 405.58 140.544C405.832 140.731 406.182 140.824 406.63 140.824ZM418.778 134.524V142H417.028V139.102C416.309 139.447 415.558 139.62 414.774 139.62C413.812 139.62 413.075 139.401 412.562 138.962C412.048 138.514 411.792 137.833 411.792 136.918V134.524H413.542V136.806C413.542 137.282 413.682 137.637 413.962 137.87C414.242 138.103 414.638 138.22 415.152 138.22C415.805 138.22 416.43 138.08 417.028 137.8V134.524H418.778ZM423.917 134.44C425.018 134.44 425.858 134.706 426.437 135.238C427.025 135.761 427.319 136.554 427.319 137.618V142H425.667V141.09C425.452 141.417 425.144 141.669 424.743 141.846C424.351 142.014 423.875 142.098 423.315 142.098C422.755 142.098 422.265 142.005 421.845 141.818C421.425 141.622 421.098 141.356 420.865 141.02C420.641 140.675 420.529 140.287 420.529 139.858C420.529 139.186 420.776 138.649 421.271 138.248C421.775 137.837 422.564 137.632 423.637 137.632H425.569V137.52C425.569 136.997 425.41 136.596 425.093 136.316C424.785 136.036 424.323 135.896 423.707 135.896C423.287 135.896 422.872 135.961 422.461 136.092C422.06 136.223 421.719 136.405 421.439 136.638L420.753 135.364C421.145 135.065 421.616 134.837 422.167 134.678C422.718 134.519 423.301 134.44 423.917 134.44ZM423.679 140.824C424.118 140.824 424.505 140.726 424.841 140.53C425.186 140.325 425.429 140.035 425.569 139.662V138.794H423.763C422.755 138.794 422.251 139.125 422.251 139.788C422.251 140.105 422.377 140.357 422.629 140.544C422.881 140.731 423.231 140.824 423.679 140.824Z" fill="#EBEBF5" fill-opacity="0.3"/>
    <path d="M289.004 158.2V168H287.184V159.726H285.112V158.2H289.004ZM292.054 165.774C292.381 165.774 292.651 165.881 292.866 166.096C293.081 166.311 293.188 166.591 293.188 166.936C293.188 167.085 293.165 167.244 293.118 167.412C293.081 167.571 292.997 167.813 292.866 168.14L292.152 170.114H291.018L291.578 167.972C291.373 167.888 291.209 167.757 291.088 167.58C290.976 167.393 290.92 167.179 290.92 166.936C290.92 166.591 291.027 166.311 291.242 166.096C291.457 165.881 291.727 165.774 292.054 165.774ZM297.549 158.2V168H295.729V159.726H293.657V158.2H297.549ZM302.559 161.994C303.94 161.994 304.962 162.265 305.625 162.806C306.288 163.338 306.619 164.066 306.619 164.99C306.619 165.578 306.474 166.11 306.185 166.586C305.896 167.062 305.462 167.44 304.883 167.72C304.304 168 303.59 168.14 302.741 168.14C302.041 168.14 301.364 168.042 300.711 167.846C300.058 167.641 299.507 167.361 299.059 167.006L299.829 165.592C300.193 165.891 300.627 166.129 301.131 166.306C301.644 166.474 302.172 166.558 302.713 166.558C303.357 166.558 303.861 166.427 304.225 166.166C304.598 165.895 304.785 165.527 304.785 165.06C304.785 164.556 304.584 164.178 304.183 163.926C303.791 163.665 303.114 163.534 302.153 163.534H299.787L300.291 158.2H306.045V159.726H301.831L301.621 161.994H302.559ZM311.057 158.2V168H309.237V159.726H307.165V158.2H311.057ZM320.762 168.098C320.006 168.098 319.325 167.935 318.718 167.608C318.111 167.281 317.635 166.829 317.29 166.25C316.954 165.662 316.786 164.999 316.786 164.262C316.786 163.525 316.954 162.867 317.29 162.288C317.635 161.709 318.111 161.257 318.718 160.93C319.325 160.603 320.006 160.44 320.762 160.44C321.527 160.44 322.213 160.603 322.82 160.93C323.427 161.257 323.898 161.709 324.234 162.288C324.579 162.867 324.752 163.525 324.752 164.262C324.752 164.999 324.579 165.662 324.234 166.25C323.898 166.829 323.427 167.281 322.82 167.608C322.213 167.935 321.527 168.098 320.762 168.098ZM320.762 166.6C321.406 166.6 321.938 166.385 322.358 165.956C322.778 165.527 322.988 164.962 322.988 164.262C322.988 163.562 322.778 162.997 322.358 162.568C321.938 162.139 321.406 161.924 320.762 161.924C320.118 161.924 319.586 162.139 319.166 162.568C318.755 162.997 318.55 163.562 318.55 164.262C318.55 164.962 318.755 165.527 319.166 165.956C319.586 166.385 320.118 166.6 320.762 166.6ZM332.823 160.524V168H331.073V165.102C330.354 165.447 329.603 165.62 328.819 165.62C327.857 165.62 327.12 165.401 326.607 164.962C326.093 164.514 325.837 163.833 325.837 162.918V160.524H327.587V162.806C327.587 163.282 327.727 163.637 328.007 163.87C328.287 164.103 328.683 164.22 329.197 164.22C329.85 164.22 330.475 164.08 331.073 163.8V160.524H332.823ZM338.284 165.004H336.926V168H335.176V160.524H336.926V163.548H338.326L340.538 160.524H342.414L339.698 164.122L342.596 168H340.538L338.284 165.004ZM346.916 168.098C346.16 168.098 345.479 167.935 344.872 167.608C344.266 167.281 343.79 166.829 343.444 166.25C343.108 165.662 342.94 164.999 342.94 164.262C342.94 163.525 343.108 162.867 343.444 162.288C343.79 161.709 344.266 161.257 344.872 160.93C345.479 160.603 346.16 160.44 346.916 160.44C347.682 160.44 348.368 160.603 348.974 160.93C349.581 161.257 350.052 161.709 350.388 162.288C350.734 162.867 350.906 163.525 350.906 164.262C350.906 164.999 350.734 165.662 350.388 166.25C350.052 166.829 349.581 167.281 348.974 167.608C348.368 167.935 347.682 168.098 346.916 168.098ZM346.916 166.6C347.56 166.6 348.092 166.385 348.512 165.956C348.932 165.527 349.142 164.962 349.142 164.262C349.142 163.562 348.932 162.997 348.512 162.568C348.092 162.139 347.56 161.924 346.916 161.924C346.272 161.924 345.74 162.139 345.32 162.568C344.91 162.997 344.704 163.562 344.704 164.262C344.704 164.962 344.91 165.527 345.32 165.956C345.74 166.385 346.272 166.6 346.916 166.6Z" fill="white"/>
    <rect opacity="0.2" x="240" y="211" width="30" height="4" rx="2" fill="#C4C4C4"/>
    <path d="M296.088 216.46V220.086H294.408V218H286.89V220.086H285.196L285.21 216.46H285.63C286.246 216.432 286.675 215.979 286.918 215.102C287.17 214.215 287.324 212.951 287.38 211.308L287.492 208.2H294.674V216.46H296.088ZM288.976 211.476C288.929 212.745 288.827 213.805 288.668 214.654C288.509 215.494 288.257 216.096 287.912 216.46H292.882V209.74H289.046L288.976 211.476ZM300.801 218.098C300.045 218.098 299.364 217.935 298.757 217.608C298.15 217.281 297.674 216.829 297.329 216.25C296.993 215.662 296.825 214.999 296.825 214.262C296.825 213.525 296.993 212.867 297.329 212.288C297.674 211.709 298.15 211.257 298.757 210.93C299.364 210.603 300.045 210.44 300.801 210.44C301.566 210.44 302.252 210.603 302.859 210.93C303.466 211.257 303.937 211.709 304.273 212.288C304.618 212.867 304.791 213.525 304.791 214.262C304.791 214.999 304.618 215.662 304.273 216.25C303.937 216.829 303.466 217.281 302.859 217.608C302.252 217.935 301.566 218.098 300.801 218.098ZM300.801 216.6C301.445 216.6 301.977 216.385 302.397 215.956C302.817 215.527 303.027 214.962 303.027 214.262C303.027 213.562 302.817 212.997 302.397 212.568C301.977 212.139 301.445 211.924 300.801 211.924C300.157 211.924 299.625 212.139 299.205 212.568C298.794 212.997 298.589 213.562 298.589 214.262C298.589 214.962 298.794 215.527 299.205 215.956C299.625 216.385 300.157 216.6 300.801 216.6ZM313.688 210.524V218H311.952V212.008H308.27V218H306.52V210.524H313.688ZM319.381 218.098C318.625 218.098 317.944 217.935 317.337 217.608C316.73 217.281 316.254 216.829 315.909 216.25C315.573 215.662 315.405 214.999 315.405 214.262C315.405 213.525 315.573 212.867 315.909 212.288C316.254 211.709 316.73 211.257 317.337 210.93C317.944 210.603 318.625 210.44 319.381 210.44C320.146 210.44 320.832 210.603 321.439 210.93C322.046 211.257 322.517 211.709 322.853 212.288C323.198 212.867 323.371 213.525 323.371 214.262C323.371 214.999 323.198 215.662 322.853 216.25C322.517 216.829 322.046 217.281 321.439 217.608C320.832 217.935 320.146 218.098 319.381 218.098ZM319.381 216.6C320.025 216.6 320.557 216.385 320.977 215.956C321.397 215.527 321.607 214.962 321.607 214.262C321.607 213.562 321.397 212.997 320.977 212.568C320.557 212.139 320.025 211.924 319.381 211.924C318.737 211.924 318.205 212.139 317.785 212.568C317.374 212.997 317.169 213.562 317.169 214.262C317.169 214.962 317.374 215.527 317.785 215.956C318.205 216.385 318.737 216.6 319.381 216.6ZM331.794 210.524V218H330.044V212.008H327.244L327.174 213.492C327.127 214.481 327.034 215.312 326.894 215.984C326.763 216.647 326.534 217.174 326.208 217.566C325.89 217.949 325.452 218.14 324.892 218.14C324.63 218.14 324.308 218.089 323.926 217.986L324.01 216.516C324.14 216.544 324.252 216.558 324.346 216.558C324.7 216.558 324.966 216.418 325.144 216.138C325.321 215.849 325.433 215.508 325.48 215.116C325.536 214.715 325.582 214.145 325.62 213.408L325.746 210.524H331.794ZM334.151 210.524H335.901V213.562H339.667V210.524H341.417V218H339.667V215.046H335.901V218H334.151V210.524ZM343.762 210.524H345.512V215.452L349.642 210.524H351.238V218H349.488V213.072L345.372 218H343.762V210.524ZM359.514 212.008H356.896V218H355.146V212.008H352.514V210.524H359.514V212.008ZM367.455 214.304C367.455 214.425 367.446 214.598 367.427 214.822H361.561C361.664 215.373 361.93 215.811 362.359 216.138C362.798 216.455 363.339 216.614 363.983 216.614C364.805 216.614 365.481 216.343 366.013 215.802L366.951 216.88C366.615 217.281 366.191 217.585 365.677 217.79C365.164 217.995 364.585 218.098 363.941 218.098C363.12 218.098 362.397 217.935 361.771 217.608C361.146 217.281 360.661 216.829 360.315 216.25C359.979 215.662 359.811 214.999 359.811 214.262C359.811 213.534 359.975 212.881 360.301 212.302C360.637 211.714 361.099 211.257 361.687 210.93C362.275 210.603 362.938 210.44 363.675 210.44C364.403 210.44 365.052 210.603 365.621 210.93C366.2 211.247 366.648 211.7 366.965 212.288C367.292 212.867 367.455 213.539 367.455 214.304ZM363.675 211.84C363.115 211.84 362.639 212.008 362.247 212.344C361.865 212.671 361.631 213.109 361.547 213.66H365.789C365.715 213.119 365.486 212.68 365.103 212.344C364.721 212.008 364.245 211.84 363.675 211.84ZM376.05 210.524V218H374.3V212.008H371.5L371.43 213.492C371.383 214.481 371.29 215.312 371.15 215.984C371.019 216.647 370.79 217.174 370.464 217.566C370.146 217.949 369.708 218.14 369.148 218.14C368.886 218.14 368.564 218.089 368.182 217.986L368.266 216.516C368.396 216.544 368.508 216.558 368.602 216.558C368.956 216.558 369.222 216.418 369.4 216.138C369.577 215.849 369.689 215.508 369.736 215.116C369.792 214.715 369.838 214.145 369.876 213.408L370.002 210.524H376.05ZM382.158 212.988C383.11 212.988 383.838 213.203 384.342 213.632C384.856 214.061 385.112 214.668 385.112 215.452C385.112 216.273 384.832 216.908 384.272 217.356C383.712 217.804 382.924 218.023 381.906 218.014L378.406 218V210.524H380.156V212.974L382.158 212.988ZM381.752 216.726C382.266 216.735 382.658 216.628 382.928 216.404C383.199 216.18 383.334 215.853 383.334 215.424C383.334 215.004 383.204 214.696 382.942 214.5C382.681 214.304 382.284 214.201 381.752 214.192L380.156 214.178V216.712L381.752 216.726ZM386.651 210.524H388.401V213.562H392.167V210.524H393.917V218H392.167V215.046H388.401V218H386.651V210.524ZM399.902 212.988C400.854 212.988 401.582 213.203 402.086 213.632C402.59 214.061 402.842 214.668 402.842 215.452C402.842 216.273 402.562 216.908 402.002 217.356C401.451 217.804 400.667 218.023 399.65 218.014L396.262 218V210.524H398.012V212.974L399.902 212.988ZM403.808 210.524H405.558V218H403.808V210.524ZM399.496 216.726C400.009 216.735 400.401 216.628 400.672 216.404C400.943 216.18 401.078 215.853 401.078 215.424C401.078 215.004 400.947 214.696 400.686 214.5C400.425 214.304 400.028 214.201 399.496 214.192L398.012 214.178V216.712L399.496 216.726ZM414.91 214.304C414.91 214.425 414.901 214.598 414.882 214.822H409.016C409.119 215.373 409.385 215.811 409.814 216.138C410.253 216.455 410.794 216.614 411.438 216.614C412.26 216.614 412.936 216.343 413.468 215.802L414.406 216.88C414.07 217.281 413.646 217.585 413.132 217.79C412.619 217.995 412.04 218.098 411.396 218.098C410.575 218.098 409.852 217.935 409.226 217.608C408.601 217.281 408.116 216.829 407.77 216.25C407.434 215.662 407.266 214.999 407.266 214.262C407.266 213.534 407.43 212.881 407.756 212.302C408.092 211.714 408.554 211.257 409.142 210.93C409.73 210.603 410.393 210.44 411.13 210.44C411.858 210.44 412.507 210.603 413.076 210.93C413.655 211.247 414.103 211.7 414.42 212.288C414.747 212.867 414.91 213.539 414.91 214.304ZM411.13 211.84C410.57 211.84 410.094 212.008 409.702 212.344C409.32 212.671 409.086 213.109 409.002 213.66H413.244C413.17 213.119 412.941 212.68 412.558 212.344C412.176 212.008 411.7 211.84 411.13 211.84ZM428.044 218V213.044L425.524 217.216H424.768L422.29 213.03V218H420.694V210.524H422.528L425.188 215.2L427.974 210.524H429.612L429.626 218H428.044ZM431.973 210.524H433.723V215.452L437.853 210.524H439.449V218H437.699V213.072L433.583 218H431.973V210.524ZM445.205 218.098C444.43 218.098 443.735 217.935 443.119 217.608C442.503 217.281 442.022 216.829 441.677 216.25C441.332 215.662 441.159 214.999 441.159 214.262C441.159 213.525 441.332 212.867 441.677 212.288C442.022 211.709 442.498 211.257 443.105 210.93C443.721 210.603 444.421 210.44 445.205 210.44C445.942 210.44 446.586 210.589 447.137 210.888C447.697 211.187 448.117 211.616 448.397 212.176L447.053 212.96C446.838 212.615 446.568 212.358 446.241 212.19C445.924 212.013 445.574 211.924 445.191 211.924C444.538 211.924 443.996 212.139 443.567 212.568C443.138 212.988 442.923 213.553 442.923 214.262C442.923 214.971 443.133 215.541 443.553 215.97C443.982 216.39 444.528 216.6 445.191 216.6C445.574 216.6 445.924 216.516 446.241 216.348C446.568 216.171 446.838 215.909 447.053 215.564L448.397 216.348C448.108 216.908 447.683 217.342 447.123 217.65C446.572 217.949 445.933 218.098 445.205 218.098ZM453.23 218.098C452.456 218.098 451.76 217.935 451.144 217.608C450.528 217.281 450.048 216.829 449.702 216.25C449.357 215.662 449.184 214.999 449.184 214.262C449.184 213.525 449.357 212.867 449.702 212.288C450.048 211.709 450.524 211.257 451.13 210.93C451.746 210.603 452.446 210.44 453.23 210.44C453.968 210.44 454.612 210.589 455.162 210.888C455.722 211.187 456.142 211.616 456.422 212.176L455.078 212.96C454.864 212.615 454.593 212.358 454.266 212.19C453.949 212.013 453.599 211.924 453.216 211.924C452.563 211.924 452.022 212.139 451.592 212.568C451.163 212.988 450.948 213.553 450.948 214.262C450.948 214.971 451.158 215.541 451.578 215.97C452.008 216.39 452.554 216.6 453.216 216.6C453.599 216.6 453.949 216.516 454.266 216.348C454.593 216.171 454.864 215.909 455.078 215.564L456.422 216.348C456.133 216.908 455.708 217.342 455.148 217.65C454.598 217.949 453.958 218.098 453.23 218.098ZM457.963 210.524H459.713V215.452L463.843 210.524H465.439V218H463.689V213.072L459.573 218H457.963V210.524ZM467.793 210.524H469.543V215.452L473.673 210.524H475.269V218H473.519V213.072L469.403 218H467.793V210.524Z" fill="#EBEBF5" fill-opacity="0.3"/>
    <path d="M288.92 234.06C290.264 234.06 291.305 234.48 292.042 235.32C292.789 236.16 293.162 237.364 293.162 238.932C293.162 240.033 292.961 240.976 292.56 241.76C292.159 242.535 291.594 243.127 290.866 243.538C290.147 243.939 289.312 244.14 288.36 244.14C287.856 244.14 287.38 244.089 286.932 243.986C286.493 243.874 286.111 243.715 285.784 243.51L286.456 242.138C286.941 242.455 287.562 242.614 288.318 242.614C289.261 242.614 289.998 242.325 290.53 241.746C291.062 241.167 291.328 240.332 291.328 239.24V239.226C291.039 239.562 290.67 239.819 290.222 239.996C289.774 240.164 289.27 240.248 288.71 240.248C288.066 240.248 287.487 240.127 286.974 239.884C286.461 239.632 286.059 239.277 285.77 238.82C285.481 238.363 285.336 237.835 285.336 237.238C285.336 236.603 285.495 236.048 285.812 235.572C286.129 235.087 286.559 234.713 287.1 234.452C287.641 234.191 288.248 234.06 288.92 234.06ZM289.06 238.82C289.648 238.82 290.124 238.661 290.488 238.344C290.861 238.027 291.048 237.625 291.048 237.14C291.048 236.664 290.866 236.272 290.502 235.964C290.147 235.647 289.653 235.488 289.018 235.488C288.449 235.488 287.987 235.642 287.632 235.95C287.277 236.249 287.1 236.65 287.1 237.154C287.1 237.667 287.277 238.073 287.632 238.372C287.987 238.671 288.463 238.82 289.06 238.82ZM303.129 241.774H301.393V244H299.629V241.774H294.253V240.514L299.083 234.2H301.029L296.479 240.234H299.685V238.26H301.393V240.234H303.129V241.774ZM310.388 238.848C310.901 239.081 311.293 239.399 311.564 239.8C311.844 240.192 311.984 240.654 311.984 241.186C311.984 241.783 311.816 242.306 311.48 242.754C311.153 243.202 310.687 243.547 310.08 243.79C309.473 244.023 308.769 244.14 307.966 244.14C307.163 244.14 306.459 244.023 305.852 243.79C305.255 243.547 304.793 243.202 304.466 242.754C304.139 242.306 303.976 241.783 303.976 241.186C303.976 240.654 304.111 240.192 304.382 239.8C304.653 239.399 305.04 239.081 305.544 238.848C305.152 238.633 304.849 238.353 304.634 238.008C304.429 237.653 304.326 237.247 304.326 236.79C304.326 236.239 304.475 235.759 304.774 235.348C305.082 234.937 305.511 234.62 306.062 234.396C306.613 234.172 307.247 234.06 307.966 234.06C308.694 234.06 309.333 234.172 309.884 234.396C310.435 234.62 310.864 234.937 311.172 235.348C311.48 235.759 311.634 236.239 311.634 236.79C311.634 237.247 311.527 237.649 311.312 237.994C311.097 238.339 310.789 238.624 310.388 238.848ZM307.966 235.488C307.397 235.488 306.944 235.609 306.608 235.852C306.281 236.095 306.118 236.435 306.118 236.874C306.118 237.294 306.281 237.63 306.608 237.882C306.944 238.125 307.397 238.246 307.966 238.246C308.545 238.246 309.002 238.125 309.338 237.882C309.674 237.63 309.842 237.294 309.842 236.874C309.842 236.435 309.669 236.095 309.324 235.852C308.988 235.609 308.535 235.488 307.966 235.488ZM307.966 242.712C308.638 242.712 309.17 242.572 309.562 242.292C309.954 242.012 310.15 241.625 310.15 241.13C310.15 240.645 309.954 240.262 309.562 239.982C309.17 239.702 308.638 239.562 307.966 239.562C307.294 239.562 306.767 239.702 306.384 239.982C306.001 240.262 305.81 240.645 305.81 241.13C305.81 241.625 306.001 242.012 306.384 242.292C306.767 242.572 307.294 242.712 307.966 242.712ZM320.926 244.098C320.17 244.098 319.489 243.935 318.882 243.608C318.275 243.281 317.799 242.829 317.454 242.25C317.118 241.662 316.95 240.999 316.95 240.262C316.95 239.525 317.118 238.867 317.454 238.288C317.799 237.709 318.275 237.257 318.882 236.93C319.489 236.603 320.17 236.44 320.926 236.44C321.691 236.44 322.377 236.603 322.984 236.93C323.591 237.257 324.062 237.709 324.398 238.288C324.743 238.867 324.916 239.525 324.916 240.262C324.916 240.999 324.743 241.662 324.398 242.25C324.062 242.829 323.591 243.281 322.984 243.608C322.377 243.935 321.691 244.098 320.926 244.098ZM320.926 242.6C321.57 242.6 322.102 242.385 322.522 241.956C322.942 241.527 323.152 240.962 323.152 240.262C323.152 239.562 322.942 238.997 322.522 238.568C322.102 238.139 321.57 237.924 320.926 237.924C320.282 237.924 319.75 238.139 319.33 238.568C318.919 238.997 318.714 239.562 318.714 240.262C318.714 240.962 318.919 241.527 319.33 241.956C319.75 242.385 320.282 242.6 320.926 242.6ZM332.987 236.524V244H331.237V241.102C330.518 241.447 329.767 241.62 328.983 241.62C328.021 241.62 327.284 241.401 326.771 240.962C326.257 240.514 326.001 239.833 326.001 238.918V236.524H327.751V238.806C327.751 239.282 327.891 239.637 328.171 239.87C328.451 240.103 328.847 240.22 329.361 240.22C330.014 240.22 330.639 240.08 331.237 239.8V236.524H332.987ZM338.448 241.004H337.09V244H335.34V236.524H337.09V239.548H338.49L340.702 236.524H342.578L339.862 240.122L342.76 244H340.702L338.448 241.004ZM346.644 236.44C347.745 236.44 348.585 236.706 349.164 237.238C349.752 237.761 350.046 238.554 350.046 239.618V244H348.394V243.09C348.179 243.417 347.871 243.669 347.47 243.846C347.078 244.014 346.602 244.098 346.042 244.098C345.482 244.098 344.992 244.005 344.572 243.818C344.152 243.622 343.825 243.356 343.592 243.02C343.368 242.675 343.256 242.287 343.256 241.858C343.256 241.186 343.503 240.649 343.998 240.248C344.502 239.837 345.29 239.632 346.364 239.632H348.296V239.52C348.296 238.997 348.137 238.596 347.82 238.316C347.512 238.036 347.05 237.896 346.434 237.896C346.014 237.896 345.598 237.961 345.188 238.092C344.786 238.223 344.446 238.405 344.166 238.638L343.48 237.364C343.872 237.065 344.343 236.837 344.894 236.678C345.444 236.519 346.028 236.44 346.644 236.44ZM346.406 242.824C346.844 242.824 347.232 242.726 347.568 242.53C347.913 242.325 348.156 242.035 348.296 241.662V240.794H346.49C345.482 240.794 344.978 241.125 344.978 241.788C344.978 242.105 345.104 242.357 345.356 242.544C345.608 242.731 345.958 242.824 346.406 242.824Z" fill="white"/>
    <defs>
        <linearGradient id="paint0_linear_183_3601" x1="171" y1="150" x2="14.3785" y2="197.455" gradientUnits="userSpaceOnUse">
            <stop offset="0.0238222" stop-color="#E95616"/>
            <stop offset="1" stop-color="#2B2D83"/>
        </linearGradient>
        <linearGradient id="paint1_linear_183_3601" x1="275.126" y1="62.469" x2="270.445" y2="47.8312" gradientUnits="userSpaceOnUse">
            <stop offset="0.0238222" stop-color="#E95616"/>
            <stop offset="1" stop-color="#2B2D83"/>
        </linearGradient>
    </defs>
</svg>
