<svg width="517" height="316" viewBox="0 0 517 316" fill="none" xmlns="http://www.w3.org/2000/svg">
    <rect x="3" y="3" width="511" height="310" rx="31" fill="black" fill-opacity="0.8" stroke="url(#paint0_linear_0_1)" stroke-width="6"/>
    <path fill-rule="evenodd" clip-rule="evenodd" d="M289.315 126.159L289.328 126.16L289.342 126.161C293.039 126.445 295.503 127.178 297.219 128.2C298.845 129.17 300.082 130.565 301.052 132.763C302.067 135.061 302.775 138.212 303.205 142.568C303.633 146.903 303.764 152.174 303.764 158.604C303.764 165.034 303.633 170.333 303.205 174.701C302.774 179.094 302.065 182.287 301.046 184.615C300.071 186.843 298.837 188.232 297.24 189.171C295.556 190.161 293.124 190.852 289.45 191.04L289.441 191.041L289.432 191.041C274.603 191.865 241.48 191.866 226.614 191.044C222.941 190.757 220.491 190.026 218.781 189.008C217.155 188.039 215.918 186.643 214.948 184.446C213.933 182.147 213.225 178.997 212.795 174.64C212.367 170.306 212.236 165.035 212.236 158.604C212.236 152.174 212.367 146.903 212.795 142.568C213.225 138.212 213.933 135.061 214.948 132.763C215.918 130.565 217.155 129.17 218.781 128.2C220.497 127.178 222.961 126.445 226.658 126.161L226.672 126.16L226.685 126.159C241.451 124.928 274.549 124.928 289.315 126.159ZM208 158.604C208 184.437 210.083 194.021 226.333 195.271C241.333 196.104 274.667 196.104 289.667 195.271C305.917 194.437 308 184.437 308 158.604C308 132.771 305.917 123.188 289.667 121.938C274.667 120.688 241.333 120.688 226.333 121.938C210.083 123.188 208 132.771 208 158.604ZM248.565 173.738C247.157 174.442 245.5 173.418 245.5 171.844V145.365C245.5 143.79 247.157 142.766 248.565 143.47L275.044 156.71C276.605 157.49 276.605 159.718 275.044 160.499L248.565 173.738Z" fill="url(#paint1_linear_0_1)"/>
    <defs>
        <linearGradient id="paint0_linear_0_1" x1="605.336" y1="274.053" x2="11.9425" y2="-130.774" gradientUnits="userSpaceOnUse">
            <stop offset="0.0238222" stop-color="#E95616"/>
            <stop offset="1" stop-color="#2B2D83"/>
        </linearGradient>
        <linearGradient id="paint1_linear_0_1" x1="325.086" y1="185.954" x2="196.69" y2="114.468" gradientUnits="userSpaceOnUse">
            <stop offset="0.0238222" stop-color="#E95616"/>
            <stop offset="1" stop-color="#2B2D83"/>
        </linearGradient>
    </defs>
</svg>
