<svg width="14" height="19" viewBox="0 0 14 19" fill="none" xmlns="http://www.w3.org/2000/svg">
    <path fill-rule="evenodd" clip-rule="evenodd" d="M6.92089 12C8.58088 12 9.92089 10.66 9.92089 9V3C9.92089 1.34 8.58088 0 6.92089 0C5.26088 0 3.92088 1.34 3.92088 3V9C3.92088 10.66 5.26088 12 6.92089 12ZM5.92089 3C5.92089 2.45 6.37088 2 6.92089 2C7.47089 2 7.92089 2.45 7.92089 3V9C7.92089 9.55 7.47089 10 6.92089 10C6.37088 10 5.92089 9.55 5.92089 9V3ZM12.8309 9C12.3409 9 11.9309 9.36 11.8509 9.85C11.4409 12.2 9.39089 14 6.92089 14C4.45089 14 2.40088 12.2 1.99088 9.85C1.91088 9.36 1.50089 9 1.01089 9C0.400885 9 -0.0791151 9.54 0.0108849 10.14C0.500885 13.14 2.90089 15.49 5.92089 15.92V18C5.92089 18.55 6.37088 19 6.92089 19C7.47089 19 7.92089 18.55 7.92089 18V15.92C10.9409 15.49 13.3409 13.14 13.8309 10.14C13.9309 9.54 13.4409 9 12.8309 9Z" fill="white"/>
</svg>
